<svg width="25" height="24" viewBox="0 0 25 24" fill="none" xmlns="http://www.w3.org/2000/svg">
<path d="M9.875 12C9.875 12.7956 10.1911 13.5587 10.7537 14.1213C11.3163 14.6839 12.0794 15 12.875 15C13.6706 15 14.4337 14.6839 14.9963 14.1213C15.5589 13.5587 15.875 12.7957 15.875 12" stroke="#222222" stroke-linecap="round"/>
<path d="M5.375 8.7111C5.375 8.10998 5.375 7.80941 5.46082 7.52598C5.54663 7.24255 5.71335 6.99247 6.0468 6.4923L6.18753 6.2812C6.76882 5.40927 7.05947 4.9733 7.50165 4.73665C7.94384 4.5 8.4678 4.5 9.51574 4.5H16.2343C17.2822 4.5 17.8062 4.5 18.2483 4.73665C18.6905 4.9733 18.9812 5.40927 19.5625 6.2812L19.7032 6.4923C20.0366 6.99247 20.2034 7.24255 20.2892 7.52598C20.375 7.80941 20.375 8.10998 20.375 8.7111V15.5C20.375 17.3856 20.375 18.3284 19.7892 18.9142C19.2034 19.5 18.2606 19.5 16.375 19.5H9.375C7.48938 19.5 6.54657 19.5 5.96079 18.9142C5.375 18.3284 5.375 17.3856 5.375 15.5V8.7111Z" stroke="#222222"/>
<path d="M5.375 9.5H20.375" stroke="#222222" stroke-linecap="round"/>
</svg>
