<svg width="33" height="32" viewBox="0 0 33 32" fill="none" xmlns="http://www.w3.org/2000/svg">
<mask id="path-1-inside-1_715_1851" fill="white">
<path d="M25.834 11.95L27.04 10.744C27.2023 10.5837 27.4077 10.474 27.6312 10.4282C27.8547 10.3824 28.0867 10.4025 28.299 10.486L29.769 11.072C29.9837 11.1595 30.1676 11.3085 30.2977 11.5003C30.4278 11.6922 30.4982 11.9182 30.5 12.15V14.842C30.4974 15.1516 30.3719 15.4475 30.1512 15.6646C29.9305 15.8818 29.6326 16.0024 29.323 16L29.273 15.998C18.977 15.358 16.9 6.636 16.507 3.298C16.49 3.14553 16.5033 2.99122 16.546 2.84387C16.5887 2.69652 16.66 2.55902 16.7558 2.43923C16.8516 2.31944 16.9701 2.2197 17.1045 2.14571C17.2389 2.07172 17.3865 2.02492 17.539 2.008C17.5841 2.00265 17.6295 1.99998 17.675 2H20.275C20.5069 2.00084 20.7332 2.07098 20.925 2.20141C21.1167 2.33184 21.2651 2.51662 21.351 2.732L21.938 4.202C22.0243 4.41364 22.0463 4.64603 22.0013 4.87012C21.9564 5.09421 21.8463 5.30008 21.685 5.462L20.479 6.668C20.479 6.668 21.173 11.368 25.834 11.95ZM16.5 30H14.5V25C14.4992 24.2046 14.1829 23.442 13.6204 22.8796C13.058 22.3171 12.2954 22.0008 11.5 22H7.5C6.70459 22.0008 5.94199 22.3171 5.37956 22.8796C4.81712 23.442 4.50079 24.2046 4.5 25V30H2.5V25C2.50159 23.6744 3.02888 22.4036 3.96622 21.4662C4.90356 20.5289 6.17441 20.0016 7.5 20H11.5C12.8256 20.0016 14.0964 20.5289 15.0338 21.4662C15.9711 22.4036 16.4984 23.6744 16.5 25V30ZM9.5 10C10.0933 10 10.6734 10.1759 11.1667 10.5056C11.6601 10.8352 12.0446 11.3038 12.2716 11.8519C12.4987 12.4001 12.5581 13.0033 12.4424 13.5853C12.3266 14.1672 12.0409 14.7018 11.6213 15.1213C11.2018 15.5409 10.6672 15.8266 10.0853 15.9424C9.50333 16.0581 8.90013 15.9987 8.35195 15.7716C7.80377 15.5446 7.33524 15.1601 7.00559 14.6667C6.67595 14.1734 6.5 13.5933 6.5 13C6.5 12.2044 6.81607 11.4413 7.37868 10.8787C7.94129 10.3161 8.70435 10 9.5 10ZM9.5 8C8.51109 8 7.54439 8.29325 6.72215 8.84265C5.8999 9.39206 5.25904 10.173 4.8806 11.0866C4.50216 12.0002 4.40315 13.0055 4.59607 13.9755C4.789 14.9454 5.2652 15.8363 5.96447 16.5355C6.66373 17.2348 7.55464 17.711 8.52455 17.9039C9.49445 18.0969 10.4998 17.9978 11.4134 17.6194C12.327 17.241 13.1079 16.6001 13.6573 15.7779C14.2068 14.9556 14.5 13.9889 14.5 13C14.5 12.3434 14.3707 11.6932 14.1194 11.0866C13.8681 10.48 13.4998 9.92876 13.0355 9.46447C12.5712 9.00017 12.02 8.63188 11.4134 8.3806C10.8068 8.12933 10.1566 8 9.5 8Z"/>
</mask>
<path d="M25.834 11.95L27.04 10.744C27.2023 10.5837 27.4077 10.474 27.6312 10.4282C27.8547 10.3824 28.0867 10.4025 28.299 10.486L29.769 11.072C29.9837 11.1595 30.1676 11.3085 30.2977 11.5003C30.4278 11.6922 30.4982 11.9182 30.5 12.15V14.842C30.4974 15.1516 30.3719 15.4475 30.1512 15.6646C29.9305 15.8818 29.6326 16.0024 29.323 16L29.273 15.998C18.977 15.358 16.9 6.636 16.507 3.298C16.49 3.14553 16.5033 2.99122 16.546 2.84387C16.5887 2.69652 16.66 2.55902 16.7558 2.43923C16.8516 2.31944 16.9701 2.2197 17.1045 2.14571C17.2389 2.07172 17.3865 2.02492 17.539 2.008C17.5841 2.00265 17.6295 1.99998 17.675 2H20.275C20.5069 2.00084 20.7332 2.07098 20.925 2.20141C21.1167 2.33184 21.2651 2.51662 21.351 2.732L21.938 4.202C22.0243 4.41364 22.0463 4.64603 22.0013 4.87012C21.9564 5.09421 21.8463 5.30008 21.685 5.462L20.479 6.668C20.479 6.668 21.173 11.368 25.834 11.95ZM16.5 30H14.5V25C14.4992 24.2046 14.1829 23.442 13.6204 22.8796C13.058 22.3171 12.2954 22.0008 11.5 22H7.5C6.70459 22.0008 5.94199 22.3171 5.37956 22.8796C4.81712 23.442 4.50079 24.2046 4.5 25V30H2.5V25C2.50159 23.6744 3.02888 22.4036 3.96622 21.4662C4.90356 20.5289 6.17441 20.0016 7.5 20H11.5C12.8256 20.0016 14.0964 20.5289 15.0338 21.4662C15.9711 22.4036 16.4984 23.6744 16.5 25V30ZM9.5 10C10.0933 10 10.6734 10.1759 11.1667 10.5056C11.6601 10.8352 12.0446 11.3038 12.2716 11.8519C12.4987 12.4001 12.5581 13.0033 12.4424 13.5853C12.3266 14.1672 12.0409 14.7018 11.6213 15.1213C11.2018 15.5409 10.6672 15.8266 10.0853 15.9424C9.50333 16.0581 8.90013 15.9987 8.35195 15.7716C7.80377 15.5446 7.33524 15.1601 7.00559 14.6667C6.67595 14.1734 6.5 13.5933 6.5 13C6.5 12.2044 6.81607 11.4413 7.37868 10.8787C7.94129 10.3161 8.70435 10 9.5 10ZM9.5 8C8.51109 8 7.54439 8.29325 6.72215 8.84265C5.8999 9.39206 5.25904 10.173 4.8806 11.0866C4.50216 12.0002 4.40315 13.0055 4.59607 13.9755C4.789 14.9454 5.2652 15.8363 5.96447 16.5355C6.66373 17.2348 7.55464 17.711 8.52455 17.9039C9.49445 18.0969 10.4998 17.9978 11.4134 17.6194C12.327 17.241 13.1079 16.6001 13.6573 15.7779C14.2068 14.9556 14.5 13.9889 14.5 13C14.5 12.3434 14.3707 11.6932 14.1194 11.0866C13.8681 10.48 13.4998 9.92876 13.0355 9.46447C12.5712 9.00017 12.02 8.63188 11.4134 8.3806C10.8068 8.12933 10.1566 8 9.5 8Z" fill="white"/>
<path d="M27.04 10.744L26.3374 10.0324L26.3329 10.0369L27.04 10.744ZM28.299 10.486L28.6693 9.55708L28.6651 9.55543L28.299 10.486ZM29.769 11.072L30.1463 10.1459L30.1393 10.1431L29.769 11.072ZM30.5 12.15H31.5L31.5 12.1421L30.5 12.15ZM30.5 14.842L31.5 14.8505V14.842H30.5ZM29.323 16L29.283 16.9992L29.2991 16.9998L29.3153 17L29.323 16ZM29.273 15.998L29.211 16.9961L29.222 16.9968L29.233 16.9972L29.273 15.998ZM16.507 3.298L15.5131 3.40856L15.5139 3.41493L16.507 3.298ZM17.539 2.008L17.6493 3.00193L17.6567 3.00104L17.539 2.008ZM17.675 2L17.6745 3H17.675V2ZM20.275 2L20.2786 1H20.275V2ZM21.351 2.732L20.4222 3.10259L20.4223 3.10285L21.351 2.732ZM21.938 4.202L21.0093 4.57286L21.012 4.57962L21.938 4.202ZM21.685 5.462L22.3921 6.16911L22.3934 6.16779L21.685 5.462ZM20.479 6.668L19.7719 5.96089L19.4163 6.31653L19.4897 6.81408L20.479 6.668ZM16.5 30V31H17.5V30H16.5ZM14.5 30H13.5V31H14.5V30ZM14.5 25H15.5L15.5 24.999L14.5 25ZM11.5 22L11.501 21H11.5V22ZM7.5 22V21H7.499L7.5 22ZM4.5 25L3.5 24.999V25H4.5ZM4.5 30V31H5.5V30H4.5ZM2.5 30H1.5V31H2.5V30ZM2.5 25L1.5 24.9988V25H2.5ZM7.5 20V19H7.4988L7.5 20ZM11.5 20L11.5012 19H11.5V20ZM16.5 25H17.5L17.5 24.9988L16.5 25ZM14.5 13H15.5H14.5ZM26.5411 12.6571L27.7471 11.4511L26.3329 10.0369L25.1269 11.2429L26.5411 12.6571ZM27.7426 11.4556C27.7672 11.4313 27.7982 11.4148 27.832 11.4078L27.4305 9.44855C27.0172 9.53323 26.6375 9.73607 26.3374 10.0324L27.7426 11.4556ZM27.832 11.4078C27.8657 11.4009 27.9008 11.4039 27.9329 11.4166L28.6651 9.55543C28.2726 9.401 27.8437 9.36387 27.4305 9.44855L27.832 11.4078ZM27.9287 11.4149L29.3987 12.0009L30.1393 10.1431L28.6693 9.55709L27.9287 11.4149ZM29.3917 11.9981C29.4235 12.011 29.4508 12.0331 29.47 12.0616L31.1254 10.9391C30.8845 10.5838 30.5438 10.3079 30.1463 10.1459L29.3917 11.9981ZM29.47 12.0616C29.4893 12.09 29.4998 12.1235 29.5 12.1579L31.5 12.1421C31.4966 11.7129 31.3663 11.2943 31.1254 10.9391L29.47 12.0616ZM29.5 12.15V14.842H31.5V12.15H29.5ZM29.5 14.8335C29.4997 14.878 29.4816 14.9206 29.4499 14.9518L30.8525 16.3775C31.2622 15.9744 31.4951 15.4252 31.5 14.8505L29.5 14.8335ZM29.4499 14.9518C29.4181 14.983 29.3753 15.0004 29.3307 15L29.3153 17C29.8899 17.0044 30.4429 16.7805 30.8525 16.3775L29.4499 14.9518ZM29.363 15.0008L29.313 14.9988L29.233 16.9972L29.283 16.9992L29.363 15.0008ZM29.335 14.9999C24.5126 14.7002 21.6911 12.5333 19.9983 10.0902C18.2744 7.60212 17.6873 4.77045 17.5001 3.18107L15.5139 3.41493C15.7197 5.16355 16.3676 8.36188 18.3544 11.2293C20.3724 14.1417 23.7374 16.6558 29.211 16.9961L29.335 14.9999ZM17.5009 3.18745C17.4984 3.16552 17.5003 3.14332 17.5065 3.12212L15.5855 2.56561C15.5062 2.83911 15.4816 3.12555 15.5131 3.40855L17.5009 3.18745ZM17.5065 3.12212C17.5126 3.10093 17.5229 3.08115 17.5367 3.06392L15.9749 1.81453C15.797 2.03689 15.6647 2.29211 15.5855 2.56561L17.5065 3.12212ZM17.5367 3.06392C17.5504 3.0467 17.5675 3.03235 17.5868 3.0217L16.6222 1.26971C16.3727 1.40705 16.1528 1.59218 15.9749 1.81453L17.5367 3.06392ZM17.5868 3.0217C17.6061 3.01106 17.6274 3.00433 17.6493 3.0019L17.4287 1.0141C17.1457 1.04551 16.8716 1.13237 16.6222 1.26971L17.5868 3.0217ZM17.6567 3.00104C17.6626 3.00035 17.6686 3 17.6745 3L17.6755 1C17.5905 0.999957 17.5056 1.00495 17.4213 1.01496L17.6567 3.00104ZM17.675 3H20.275V1H17.675V3ZM20.2714 2.99999C20.3039 3.00011 20.3356 3.00994 20.3625 3.02822L21.4874 1.3746C21.1309 1.13201 20.7099 1.00156 20.2786 1.00001L20.2714 2.99999ZM20.3625 3.02822C20.3894 3.0465 20.4102 3.0724 20.4222 3.10259L22.2798 2.36141C22.12 1.96084 21.844 1.61719 21.4874 1.3746L20.3625 3.02822ZM20.4223 3.10285L21.0093 4.57285L22.8667 3.83115L22.2797 2.36115L20.4223 3.10285ZM21.012 4.57962C21.0241 4.60928 21.0272 4.64185 21.0209 4.67326L22.9818 5.06698C23.0655 4.65021 23.0245 4.21801 22.864 3.82438L21.012 4.57962ZM21.0209 4.67326C21.0146 4.70466 20.9992 4.73352 20.9766 4.75621L22.3934 6.16779C22.6934 5.86664 22.8981 5.48376 22.9818 5.06698L21.0209 4.67326ZM20.9779 4.75489L19.7719 5.96089L21.1861 7.37511L22.3921 6.16911L20.9779 4.75489ZM20.479 6.668C19.4897 6.81408 19.4898 6.81455 19.4899 6.81505C19.4899 6.81524 19.49 6.81576 19.49 6.81614C19.4901 6.8169 19.4903 6.81773 19.4904 6.81864C19.4907 6.82045 19.491 6.82255 19.4914 6.82494C19.4921 6.82972 19.4931 6.83565 19.4942 6.84269C19.4965 6.85677 19.4997 6.87532 19.5037 6.89805C19.5119 6.9435 19.5239 7.00581 19.5406 7.08276C19.5739 7.23645 19.6261 7.44977 19.7042 7.70461C19.8597 8.21177 20.1223 8.89762 20.5534 9.60901C21.4257 11.0485 23.0035 12.6043 25.7101 12.9423L25.9579 10.9577C24.0035 10.7137 22.9038 9.62852 22.2638 8.57249C21.9388 8.03613 21.7366 7.5106 21.6163 7.11832C21.5566 6.92345 21.5181 6.76503 21.4953 6.65942C21.4839 6.60671 21.4764 6.56748 21.4721 6.5438C21.47 6.53197 21.4687 6.52405 21.4681 6.52031C21.4678 6.51844 21.4676 6.51762 21.4677 6.51787C21.4677 6.518 21.4677 6.5184 21.4678 6.51908C21.4679 6.51941 21.468 6.51982 21.468 6.52029C21.4681 6.52053 21.4681 6.52094 21.4681 6.52106C21.4682 6.52148 21.4683 6.52192 20.479 6.668ZM16.5 29H14.5V31H16.5V29ZM15.5 30V25H13.5V30H15.5ZM15.5 24.999C15.4989 23.9387 15.0773 22.9222 14.3275 22.1724L12.9133 23.5867C13.2885 23.9618 13.4995 24.4705 13.5 25.001L15.5 24.999ZM14.3275 22.1724C13.5778 21.4227 12.5613 21.0011 11.501 21L11.499 23C12.0295 23.0005 12.5382 23.2115 12.9133 23.5867L14.3275 22.1724ZM11.5 21H7.5V23H11.5V21ZM7.499 21C6.43873 21.0011 5.42218 21.4227 4.67245 22.1724L6.08666 23.5867C6.46181 23.2115 6.97046 23.0005 7.501 23L7.499 21ZM4.67245 22.1724C3.92272 22.9222 3.50106 23.9387 3.5 24.999L5.5 25.001C5.50053 24.4705 5.71152 23.9618 6.08666 23.5867L4.67245 22.1724ZM3.5 25V30H5.5V25H3.5ZM4.5 29H2.5V31H4.5V29ZM3.5 30V25H1.5V30H3.5ZM3.5 25.0012C3.50127 23.9404 3.92323 22.9234 4.67333 22.1733L3.25911 20.7591C2.13453 21.8837 1.50191 23.4084 1.5 24.9988L3.5 25.0012ZM4.67333 22.1733C5.42342 21.4232 6.4404 21.0013 7.5012 21L7.4988 19C5.90841 19.0019 4.38369 19.6345 3.25911 20.7591L4.67333 22.1733ZM7.5 21H11.5V19H7.5V21ZM11.4988 21C12.5596 21.0013 13.5766 21.4232 14.3267 22.1733L15.7409 20.7591C14.6163 19.6345 13.0916 19.0019 11.5012 19L11.4988 21ZM14.3267 22.1733C15.0768 22.9234 15.4987 23.9404 15.5 25.0012L17.5 24.9988C17.4981 23.4084 16.8655 21.8837 15.7409 20.7591L14.3267 22.1733ZM15.5 25V30H17.5V25H15.5ZM9.5 11C9.89556 11 10.2822 11.1173 10.6111 11.3371L11.7223 9.67412C11.0645 9.2346 10.2911 9 9.5 9V11ZM10.6111 11.3371C10.94 11.5568 11.1964 11.8692 11.3478 12.2346L13.1955 11.4693C12.8928 10.7384 12.3801 10.1136 11.7223 9.67412L10.6111 11.3371ZM11.3478 12.2346C11.4991 12.6001 11.5387 13.0022 11.4616 13.3902L13.4231 13.7804C13.5775 13.0044 13.4983 12.2002 13.1955 11.4693L11.3478 12.2346ZM11.4616 13.3902C11.3844 13.7781 11.1939 14.1345 10.9142 14.4142L12.3284 15.8284C12.8878 15.269 13.2688 14.5563 13.4231 13.7804L11.4616 13.3902ZM10.9142 14.4142C10.6345 14.6939 10.2781 14.8844 9.89018 14.9616L10.2804 16.9231C11.0563 16.7688 11.769 16.3878 12.3284 15.8284L10.9142 14.4142ZM9.89018 14.9616C9.50222 15.0387 9.10009 14.9991 8.73463 14.8478L7.96927 16.6955C8.70017 16.9983 9.50444 17.0775 10.2804 16.9231L9.89018 14.9616ZM8.73463 14.8478C8.36918 14.6964 8.05682 14.44 7.83706 14.1111L6.17412 15.2223C6.61365 15.8801 7.23836 16.3928 7.96927 16.6955L8.73463 14.8478ZM7.83706 14.1111C7.6173 13.7822 7.5 13.3956 7.5 13H5.5C5.5 13.7911 5.7346 14.5645 6.17412 15.2223L7.83706 14.1111ZM7.5 13C7.5 12.4696 7.71071 11.9609 8.08579 11.5858L6.67157 10.1716C5.92143 10.9217 5.5 11.9391 5.5 13H7.5ZM8.08579 11.5858C8.46086 11.2107 8.96957 11 9.5 11V9C8.43913 9 7.42172 9.42143 6.67157 10.1716L8.08579 11.5858ZM9.5 7C8.31331 7 7.15327 7.35189 6.16658 8.01118L7.27772 9.67412C7.93552 9.2346 8.70888 9 9.5 9V7ZM6.16658 8.01118C5.17988 8.67047 4.41085 9.60754 3.95672 10.7039L5.80448 11.4693C6.10723 10.7384 6.61992 10.1136 7.27772 9.67412L6.16658 8.01118ZM3.95672 10.7039C3.5026 11.8003 3.38378 13.0067 3.61529 14.1705L5.57686 13.7804C5.42252 13.0044 5.50173 12.2002 5.80448 11.4693L3.95672 10.7039ZM3.61529 14.1705C3.8468 15.3344 4.41824 16.4035 5.25736 17.2426L6.67157 15.8284C6.11216 15.269 5.7312 14.5563 5.57686 13.7804L3.61529 14.1705ZM5.25736 17.2426C6.09647 18.0818 7.16557 18.6532 8.32946 18.8847L8.71964 16.9231C7.94372 16.7688 7.23098 16.3878 6.67157 15.8284L5.25736 17.2426ZM8.32946 18.8847C9.49334 19.1162 10.6997 18.9974 11.7961 18.5433L11.0307 16.6955C10.2998 16.9983 9.49556 17.0775 8.71964 16.9231L8.32946 18.8847ZM11.7961 18.5433C12.8925 18.0892 13.8295 17.3201 14.4888 16.3334L12.8259 15.2223C12.3864 15.8801 11.7616 16.3928 11.0307 16.6955L11.7961 18.5433ZM14.4888 16.3334C15.1481 15.3467 15.5 14.1867 15.5 13H13.5C13.5 13.7911 13.2654 14.5645 12.8259 15.2223L14.4888 16.3334ZM15.5 13C15.5 12.2121 15.3448 11.4319 15.0433 10.7039L13.1955 11.4693C13.3965 11.9546 13.5 12.4747 13.5 13H15.5ZM15.0433 10.7039C14.7417 9.97595 14.2998 9.31451 13.7426 8.75736L12.3284 10.1716C12.6999 10.543 12.9945 10.984 13.1955 11.4693L15.0433 10.7039ZM13.7426 8.75736C13.1855 8.20021 12.5241 7.75825 11.7961 7.45672L11.0307 9.30448C11.516 9.5055 11.957 9.80014 12.3284 10.1716L13.7426 8.75736ZM11.7961 7.45672C11.0681 7.15519 10.2879 7 9.5 7V9C10.0253 9 10.5454 9.10346 11.0307 9.30448L11.7961 7.45672Z" fill="white" mask="url(#path-1-inside-1_715_1851)"/>
</svg>
