<svg width="48" height="16" viewBox="0 0 48 16" fill="none" xmlns="http://www.w3.org/2000/svg">
<path fill-rule="evenodd" clip-rule="evenodd" d="M45.8588 7.74209H1.6125C0.891818 7.74209 0.3078 7.1561 0.3078 6.43192V1.96287C0.3078 1.23916 0.891818 0.652695 1.6125 0.652695H45.8588C46.5795 0.652695 47.1635 1.23916 47.1635 1.96287V6.43192C47.1635 7.1561 46.5795 7.74209 45.8588 7.74209Z" stroke="#34336C" stroke-width="0.5"/>
<path fill-rule="evenodd" clip-rule="evenodd" d="M1.26733 14.0331C1.49531 14.0331 1.67395 14.0885 1.80326 14.1993C1.93256 14.3101 1.99721 14.4625 1.99721 14.6564C1.99721 14.8503 1.93256 15.0022 1.80326 15.1122C1.67395 15.2221 1.49531 15.2771 1.26733 15.2771H0.787545V15.851H0.598694V14.0331H1.26733ZM1.26223 15.1083C1.43917 15.1083 1.57443 15.0689 1.668 14.9901C1.76158 14.9113 1.80836 14.8001 1.80836 14.6564C1.80836 14.5092 1.76158 14.3963 1.668 14.3175C1.57443 14.2387 1.43917 14.1993 1.26223 14.1993H0.787545V15.1083H1.26223ZM2.78605 14.4746C2.96129 14.4746 3.0957 14.5192 3.18927 14.6084C3.28285 14.6975 3.32964 14.8295 3.32964 15.0044V15.851H3.1561V15.638C3.11526 15.709 3.05529 15.7644 2.97618 15.8042C2.89706 15.8441 2.80307 15.864 2.69418 15.864C2.54446 15.864 2.42536 15.8276 2.33689 15.7549C2.24842 15.6822 2.20419 15.5861 2.20419 15.4666C2.20419 15.3506 2.24544 15.2572 2.32796 15.1862C2.41048 15.1152 2.5419 15.0797 2.72225 15.0797H3.14844V14.9966C3.14844 14.8789 3.11612 14.7893 3.05146 14.7278C2.98681 14.6664 2.89239 14.6356 2.76819 14.6356C2.68312 14.6356 2.60145 14.6499 2.52319 14.6785C2.44493 14.707 2.37772 14.7464 2.32158 14.7966L2.23991 14.659C2.30797 14.6001 2.38963 14.5547 2.48491 14.5227C2.58019 14.4906 2.68057 14.4746 2.78605 14.4746ZM2.72225 15.7185C2.82433 15.7185 2.91195 15.6947 2.98511 15.6471C3.05827 15.5995 3.11271 15.5307 3.14844 15.4407V15.2173H2.72735C2.49767 15.2173 2.38283 15.2987 2.38283 15.4614C2.38283 15.5411 2.4126 15.6038 2.47215 15.6497C2.5317 15.6956 2.61506 15.7185 2.72225 15.7185ZM4.18202 15.864C4.07313 15.864 3.96892 15.848 3.86939 15.8159C3.76986 15.7839 3.69203 15.7436 3.63588 15.6952L3.71755 15.5497C3.77369 15.5948 3.8443 15.6315 3.92937 15.6601C4.01444 15.6887 4.10291 15.703 4.19478 15.703C4.31728 15.703 4.40788 15.6835 4.46657 15.6445C4.52527 15.6056 4.55462 15.5506 4.55462 15.4796C4.55462 15.4294 4.53846 15.39 4.50613 15.3615C4.4738 15.3329 4.43297 15.3113 4.38363 15.2965C4.33429 15.2818 4.26879 15.2675 4.18712 15.2537C4.07824 15.2329 3.99062 15.2117 3.92426 15.1901C3.85791 15.1684 3.80134 15.1316 3.75455 15.0797C3.70776 15.0278 3.68437 14.9559 3.68437 14.8642C3.68437 14.7499 3.73116 14.6564 3.82473 14.5837C3.91831 14.511 4.04846 14.4746 4.2152 14.4746C4.30197 14.4746 4.38873 14.4863 4.4755 14.5097C4.56227 14.533 4.63373 14.5638 4.68988 14.6019L4.61076 14.7499C4.50017 14.672 4.36832 14.633 4.2152 14.633C4.0995 14.633 4.01231 14.6538 3.95361 14.6954C3.89491 14.7369 3.86557 14.7914 3.86557 14.859C3.86557 14.9109 3.88215 14.9524 3.91533 14.9836C3.94851 15.0148 3.98977 15.0377 4.03911 15.0524C4.08844 15.0671 4.1565 15.0823 4.24327 15.0979C4.35046 15.1187 4.43637 15.1394 4.50103 15.1602C4.56568 15.181 4.62097 15.2165 4.66691 15.2667C4.71285 15.3169 4.73581 15.3861 4.73581 15.4744C4.73581 15.5939 4.6869 15.6887 4.58907 15.7588C4.49124 15.8289 4.35556 15.864 4.18202 15.864ZM5.42997 15.864C5.32108 15.864 5.21687 15.848 5.11734 15.8159C5.01781 15.7839 4.93998 15.7436 4.88383 15.6952L4.9655 15.5497C5.02164 15.5948 5.09225 15.6315 5.17732 15.6601C5.26239 15.6887 5.35086 15.703 5.44273 15.703C5.56523 15.703 5.65583 15.6835 5.71452 15.6445C5.77322 15.6056 5.80257 15.5506 5.80257 15.4796C5.80257 15.4294 5.78641 15.39 5.75408 15.3615C5.72175 15.3329 5.68092 15.3113 5.63158 15.2965C5.58224 15.2818 5.51674 15.2675 5.43507 15.2537C5.32619 15.2329 5.23857 15.2117 5.17221 15.1901C5.10586 15.1684 5.04929 15.1316 5.0025 15.0797C4.95571 15.0278 4.93232 14.9559 4.93232 14.8642C4.93232 14.7499 4.97911 14.6564 5.07268 14.5837C5.16626 14.511 5.29641 14.4746 5.46315 14.4746C5.54992 14.4746 5.63668 14.4863 5.72345 14.5097C5.81022 14.533 5.88168 14.5638 5.93783 14.6019L5.85871 14.7499C5.74812 14.672 5.61627 14.633 5.46315 14.633C5.34745 14.633 5.26026 14.6538 5.20156 14.6954C5.14286 14.7369 5.11352 14.7914 5.11352 14.859C5.11352 14.9109 5.1301 14.9524 5.16328 14.9836C5.19646 15.0148 5.23772 15.0377 5.28706 15.0524C5.33639 15.0671 5.40445 15.0823 5.49122 15.0979C5.5984 15.1187 5.68432 15.1394 5.74897 15.1602C5.81363 15.181 5.86892 15.2165 5.91486 15.2667C5.96079 15.3169 5.98376 15.3861 5.98376 15.4744C5.98376 15.5939 5.93485 15.6887 5.83702 15.7588C5.73919 15.8289 5.60351 15.864 5.42997 15.864ZM8.23747 14.485L7.72962 15.851H7.55863L7.13499 14.7317L6.71135 15.851H6.54036L6.03506 14.485H6.2086L6.62969 15.6458L7.06098 14.485H7.21666L7.6454 15.6458L8.07159 14.485H8.23747ZM8.98293 15.864C8.85362 15.864 8.73708 15.8341 8.6333 15.7744C8.52951 15.7146 8.44785 15.632 8.3883 15.5264C8.32875 15.4208 8.29898 15.3013 8.29898 15.168C8.29898 15.0347 8.32875 14.9152 8.3883 14.8096C8.44785 14.704 8.52951 14.6218 8.6333 14.5629C8.73708 14.504 8.85362 14.4746 8.98293 14.4746C9.11223 14.4746 9.22877 14.504 9.33256 14.5629C9.43634 14.6218 9.51758 14.704 9.57628 14.8096C9.63497 14.9152 9.66432 15.0347 9.66432 15.168C9.66432 15.3013 9.63497 15.4208 9.57628 15.5264C9.51758 15.632 9.43634 15.7146 9.33256 15.7744C9.22877 15.8341 9.11223 15.864 8.98293 15.864ZM8.98293 15.7004C9.0782 15.7004 9.1637 15.6783 9.23941 15.6341C9.31512 15.59 9.37424 15.5272 9.41677 15.4459C9.45931 15.3645 9.48057 15.2719 9.48057 15.168C9.48057 15.0641 9.45931 14.9715 9.41677 14.8901C9.37424 14.8088 9.31512 14.746 9.23941 14.7018C9.1637 14.6577 9.0782 14.6356 8.98293 14.6356C8.88765 14.6356 8.80216 14.6577 8.72645 14.7018C8.65073 14.746 8.59119 14.8088 8.5478 14.8901C8.50442 14.9715 8.48273 15.0641 8.48273 15.168C8.48273 15.2719 8.50442 15.3645 8.5478 15.4459C8.59119 15.5272 8.65073 15.59 8.72645 15.6341C8.80216 15.6783 8.88765 15.7004 8.98293 15.7004ZM10.2079 14.7525C10.2504 14.6607 10.3138 14.5915 10.398 14.5447C10.4823 14.498 10.5865 14.4746 10.7107 14.4746V14.6538L10.6673 14.6512C10.5261 14.6512 10.4155 14.6954 10.3355 14.7836C10.2555 14.8719 10.2156 14.9957 10.2156 15.155V15.851H10.0344V14.485H10.2079V14.7525ZM12.2166 13.9241V15.851H12.0431V15.5809C11.9886 15.6727 11.9168 15.7428 11.8274 15.7913C11.7381 15.8397 11.6373 15.864 11.525 15.864C11.3991 15.864 11.2851 15.8345 11.183 15.7757C11.081 15.7168 11.001 15.6346 10.9432 15.529C10.8853 15.4234 10.8564 15.303 10.8564 15.168C10.8564 15.033 10.8853 14.9126 10.9432 14.807C11.001 14.7014 11.081 14.6196 11.183 14.5616C11.2851 14.5036 11.3991 14.4746 11.525 14.4746C11.6339 14.4746 11.7322 14.4976 11.8198 14.5434C11.9074 14.5893 11.9793 14.6564 12.0354 14.7447V13.9241H12.2166ZM11.5403 15.7004C11.6339 15.7004 11.7185 15.6783 11.7943 15.6341C11.87 15.59 11.9295 15.5272 11.9729 15.4459C12.0163 15.3645 12.038 15.2719 12.038 15.168C12.038 15.0641 12.0163 14.9715 11.9729 14.8901C11.9295 14.8088 11.87 14.746 11.7943 14.7018C11.7185 14.6577 11.6339 14.6356 11.5403 14.6356C11.4451 14.6356 11.3596 14.6577 11.2838 14.7018C11.2081 14.746 11.1486 14.8088 11.1052 14.8901C11.0618 14.9715 11.0401 15.0641 11.0401 15.168C11.0401 15.2719 11.0618 15.3645 11.1052 15.4459C11.1486 15.5272 11.2081 15.59 11.2838 15.6341C11.3596 15.6783 11.4451 15.7004 11.5403 15.7004Z" fill="#34336C"/>
</svg>
