<svg width="33" height="32" viewBox="0 0 33 32" fill="none" xmlns="http://www.w3.org/2000/svg">
<mask id="mask0_416_1540" style="mask-type:alpha" maskUnits="userSpaceOnUse" x="2" y="1" width="29" height="29">
<path d="M27.1667 20.0001V10.0001L18.8333 5.31274M14.1667 5.31274L5.83333 10.0001V20.0001M7.83333 23.1254L16.5 28.0001L21.8333 25.0001L25.1667 23.1247" stroke="white" stroke-width="2.66667" stroke-linecap="round" stroke-linejoin="round"/>
<path d="M14.5 12.5002L12.5 13.6668V18.3335L14.5 19.5002L16.5 20.6668L18.5 19.5002L20.5 18.3335V13.6668L18.5 12.5002L16.5 11.3335L14.5 12.5002Z" fill="white" stroke="white" stroke-width="2.66667" stroke-linecap="round" stroke-linejoin="round"/>
<path d="M16.5 11.3334V6.66675M20.5 18.0001L25.1667 20.6667M12.5 18.0001L7.83333 20.6667" stroke="white" stroke-width="2.66667" stroke-linecap="round" stroke-linejoin="round"/>
<path d="M16.5 6.66675C17.6046 6.66675 18.5 5.77132 18.5 4.66675C18.5 3.56218 17.6046 2.66675 16.5 2.66675C15.3954 2.66675 14.5 3.56218 14.5 4.66675C14.5 5.77132 15.3954 6.66675 16.5 6.66675Z" fill="white" stroke="white" stroke-width="2.66667" stroke-linecap="round" stroke-linejoin="round"/>
<path d="M5.83333 24C6.9379 24 7.83333 23.1046 7.83333 22C7.83333 20.8954 6.9379 20 5.83333 20C4.72876 20 3.83333 20.8954 3.83333 22C3.83333 23.1046 4.72876 24 5.83333 24Z" fill="white" stroke="white" stroke-width="2.66667" stroke-linecap="round" stroke-linejoin="round"/>
<path d="M27.1667 24C28.2712 24 29.1667 23.1046 29.1667 22C29.1667 20.8954 28.2712 20 27.1667 20C26.0621 20 25.1667 20.8954 25.1667 22C25.1667 23.1046 26.0621 24 27.1667 24Z" fill="white" stroke="white" stroke-width="2.66667" stroke-linecap="round" stroke-linejoin="round"/>
</mask>
<g mask="url(#mask0_416_1540)">
<path d="M0.5 0H32.5V32H0.5V0Z" fill="#272C34"/>
</g>
</svg>
