<svg width="16" height="16" viewBox="0 0 16 16" fill="none" xmlns="http://www.w3.org/2000/svg">
<path fill-rule="evenodd" clip-rule="evenodd" d="M0.666626 7.99996C0.666626 3.94987 3.94987 0.666626 7.99996 0.666626C12.05 0.666626 15.3333 3.94987 15.3333 7.99996C15.3333 12.05 12.05 15.3333 7.99996 15.3333C3.94987 15.3333 0.666626 12.05 0.666626 7.99996ZM7.99996 1.99996C4.68625 1.99996 1.99996 4.68625 1.99996 7.99996C1.99996 11.3137 4.68625 14 7.99996 14C11.3137 14 14 11.3137 14 7.99996C14 4.68625 11.3137 1.99996 7.99996 1.99996ZM7.99996 4.66663C8.36815 4.66663 8.66663 4.9651 8.66663 5.33329V7.33329H10.6666C11.0348 7.33329 11.3333 7.63177 11.3333 7.99996C11.3333 8.36815 11.0348 8.66663 10.6666 8.66663H8.66663V10.6666C8.66663 11.0348 8.36815 11.3333 7.99996 11.3333C7.63177 11.3333 7.33329 11.0348 7.33329 10.6666V8.66663H5.33329C4.9651 8.66663 4.66663 8.36815 4.66663 7.99996C4.66663 7.63177 4.9651 7.33329 5.33329 7.33329H7.33329V5.33329C7.33329 4.9651 7.63177 4.66663 7.99996 4.66663Z" fill="#0EBD8D"/>
</svg>
