<svg width="21" height="20" viewBox="0 0 21 20" fill="none" xmlns="http://www.w3.org/2000/svg">
<path d="M15.5001 10.8317H11.3334V14.9984C11.3334 15.2194 11.2456 15.4313 11.0893 15.5876C10.9331 15.7439 10.7211 15.8317 10.5001 15.8317C10.2791 15.8317 10.0671 15.7439 9.91083 15.5876C9.75455 15.4313 9.66675 15.2194 9.66675 14.9984V10.8317H5.50008C5.27907 10.8317 5.06711 10.7439 4.91083 10.5876C4.75455 10.4313 4.66675 10.2194 4.66675 9.99837C4.66675 9.77736 4.75455 9.5654 4.91083 9.40912C5.06711 9.25284 5.27907 9.16504 5.50008 9.16504H9.66675V4.99837C9.66675 4.77736 9.75455 4.5654 9.91083 4.40912C10.0671 4.25284 10.2791 4.16504 10.5001 4.16504C10.7211 4.16504 10.9331 4.25284 11.0893 4.40912C11.2456 4.5654 11.3334 4.77736 11.3334 4.99837V9.16504H15.5001C15.7211 9.16504 15.9331 9.25284 16.0893 9.40912C16.2456 9.5654 16.3334 9.77736 16.3334 9.99837C16.3334 10.2194 16.2456 10.4313 16.0893 10.5876C15.9331 10.7439 15.7211 10.8317 15.5001 10.8317Z" fill="#272C34"/>
</svg>
