<svg width="32" height="32" viewBox="0 0 32 32" fill="none" xmlns="http://www.w3.org/2000/svg">
<path d="M4.00001 5.33325C3.29277 5.33325 2.61449 5.6142 2.11439 6.1143C1.6143 6.6144 1.33334 7.29267 1.33334 7.99992V22.6666H4.00001C4.00001 23.7275 4.42144 24.7449 5.17158 25.495C5.92173 26.2452 6.93914 26.6666 8.00001 26.6666C9.06088 26.6666 10.0783 26.2452 10.8284 25.495C11.5786 24.7449 12 23.7275 12 22.6666H20C20 23.7275 20.4214 24.7449 21.1716 25.495C21.9217 26.2452 22.9391 26.6666 24 26.6666C25.0609 26.6666 26.0783 26.2452 26.8284 25.495C27.5786 24.7449 28 23.7275 28 22.6666H30.6667V15.9999L26.6667 10.6666H22.6667V5.33325M13.3333 7.99992L18.6667 13.3333L13.3333 18.6666V14.6666H5.33334V11.9999H13.3333M22.6667 12.6666H26L28.6267 15.9999H22.6667M8.00001 20.6666C8.53044 20.6666 9.03915 20.8773 9.41422 21.2524C9.7893 21.6274 10 22.1362 10 22.6666C10 23.197 9.7893 23.7057 9.41422 24.0808C9.03915 24.4559 8.53044 24.6666 8.00001 24.6666C7.46958 24.6666 6.96087 24.4559 6.5858 24.0808C6.21072 23.7057 6.00001 23.197 6.00001 22.6666C6.00001 22.1362 6.21072 21.6274 6.5858 21.2524C6.96087 20.8773 7.46958 20.6666 8.00001 20.6666ZM24 20.6666C24.5304 20.6666 25.0392 20.8773 25.4142 21.2524C25.7893 21.6274 26 22.1362 26 22.6666C26 23.197 25.7893 23.7057 25.4142 24.0808C25.0392 24.4559 24.5304 24.6666 24 24.6666C23.4696 24.6666 22.9609 24.4559 22.5858 24.0808C22.2107 23.7057 22 23.197 22 22.6666C22 22.1362 22.2107 21.6274 22.5858 21.2524C22.9609 20.8773 23.4696 20.6666 24 20.6666Z" fill="white"/>
</svg>
