<svg width="32" height="28" viewBox="0 0 32 28" fill="none" xmlns="http://www.w3.org/2000/svg">
<path d="M1.74411 15.5556H12.2088C13.168 15.5556 13.9529 14.8556 13.9529 14V1.55556C13.9529 0.7 13.168 0 12.2088 0H1.74411C0.784848 0 0 0.7 0 1.55556V14C0 14.8556 0.784848 15.5556 1.74411 15.5556ZM1.74411 28H12.2088C13.168 28 13.9529 27.3 13.9529 26.4444V20.2222C13.9529 19.3667 13.168 18.6667 12.2088 18.6667H1.74411C0.784848 18.6667 0 19.3667 0 20.2222V26.4444C0 27.3 0.784848 28 1.74411 28ZM19.1852 28H29.6498C30.6091 28 31.3939 27.3 31.3939 26.4444V14C31.3939 13.1444 30.6091 12.4444 29.6498 12.4444H19.1852C18.2259 12.4444 17.4411 13.1444 17.4411 14V26.4444C17.4411 27.3 18.2259 28 19.1852 28ZM17.4411 1.55556V7.77778C17.4411 8.63333 18.2259 9.33333 19.1852 9.33333H29.6498C30.6091 9.33333 31.3939 8.63333 31.3939 7.77778V1.55556C31.3939 0.7 30.6091 0 29.6498 0H19.1852C18.2259 0 17.4411 0.7 17.4411 1.55556Z" fill="white"/>
</svg>
