<svg width="106" height="54" viewBox="0 0 106 54" fill="none" xmlns="http://www.w3.org/2000/svg">
<path d="M3 1H16.6H89.4H103C104.105 1 105 1.89543 105 3V51C105 52.1046 104.105 53 103 53H89.4H16.6H3C1.89543 53 1 52.1046 1 51V3C1 1.89543 1.89543 1 3 1Z" fill="white"/>
<path d="M16.6 1H3C1.89543 1 1 1.89543 1 3V51C1 52.1046 1.89543 53 3 53H16.6M16.6 1H89.4M16.6 1V53M89.4 1H103C104.105 1 105 1.89543 105 3V51C105 52.1046 104.105 53 103 53H89.4M89.4 1V53M89.4 53H16.6" stroke="#292C33" stroke-width="1.5"/>
</svg>
