<svg width="25" height="4" viewBox="0 0 25 4" fill="none" xmlns="http://www.w3.org/2000/svg">
<path fill-rule="evenodd" clip-rule="evenodd" d="M1.75842 1.40537L1.08723 2.93497C1.03279 3.06308 0.969841 3.15397 0.898383 3.20764C0.826925 3.26131 0.741007 3.28815 0.640627 3.28815C0.575974 3.28815 0.515577 3.27776 0.459431 3.25698C0.403286 3.23621 0.354798 3.20505 0.313965 3.1635L0.398182 3.02586C0.466237 3.09511 0.547902 3.12973 0.643179 3.12973C0.704428 3.12973 0.756744 3.11242 0.800129 3.0778C0.843514 3.04317 0.883921 2.98431 0.921351 2.90121L0.980048 2.76876L0.380318 1.40537H0.569169L1.07447 2.5662L1.57978 1.40537H1.75842ZM2.4855 2.78434C2.3562 2.78434 2.23965 2.75448 2.13587 2.69475C2.03209 2.63502 1.95042 2.55235 1.89087 2.44674C1.83133 2.34113 1.80155 2.22168 1.80155 2.08837C1.80155 1.95506 1.83133 1.8356 1.89087 1.72999C1.95042 1.62438 2.03209 1.54215 2.13587 1.48328C2.23965 1.42442 2.3562 1.39499 2.4855 1.39499C2.6148 1.39499 2.73135 1.42442 2.83513 1.48328C2.93891 1.54215 3.02015 1.62438 3.07885 1.72999C3.13755 1.8356 3.1669 1.95506 3.1669 2.08837C3.1669 2.22168 3.13755 2.34113 3.07885 2.44674C3.02015 2.55235 2.93891 2.63502 2.83513 2.69475C2.73135 2.75448 2.6148 2.78434 2.4855 2.78434ZM2.4855 2.62074C2.58078 2.62074 2.66627 2.59866 2.74198 2.55451C2.81769 2.51037 2.87681 2.44761 2.91935 2.36624C2.96188 2.28487 2.98315 2.19224 2.98315 2.08837C2.98315 1.98449 2.96188 1.89187 2.91935 1.81049C2.87681 1.72912 2.81769 1.66637 2.74198 1.62222C2.66627 1.57807 2.58078 1.556 2.4855 1.556C2.39022 1.556 2.30473 1.57807 2.22902 1.62222C2.15331 1.66637 2.09376 1.72912 2.05038 1.81049C2.00699 1.89187 1.9853 1.98449 1.9853 2.08837C1.9853 2.19224 2.00699 2.28487 2.05038 2.36624C2.09376 2.44761 2.15331 2.51037 2.22902 2.55451C2.30473 2.59866 2.39022 2.62074 2.4855 2.62074ZM4.74661 1.40537V2.77136H4.57307V2.52205C4.52543 2.60516 4.45993 2.66965 4.37657 2.71552C4.2932 2.7614 4.19792 2.78434 4.09074 2.78434C3.9155 2.78434 3.77726 2.73457 3.67603 2.63502C3.5748 2.53547 3.52418 2.38961 3.52418 2.19744V1.40537H3.70538V2.17926C3.70538 2.32296 3.74026 2.43203 3.81001 2.50647C3.87977 2.58092 3.9793 2.61814 4.1086 2.61814C4.24981 2.61814 4.36125 2.57443 4.44292 2.48699C4.52458 2.39956 4.56542 2.27794 4.56542 2.12213V1.40537H4.74661ZM5.42801 1.67286C5.47054 1.5811 5.53392 1.51185 5.61814 1.4651C5.70235 1.41836 5.80656 1.39499 5.93076 1.39499V1.57417L5.88738 1.57158C5.74616 1.57158 5.63557 1.61572 5.55561 1.70402C5.47565 1.79232 5.43566 1.9161 5.43566 2.07538V2.77136H5.25447V1.40537H5.42801V1.67286ZM7.38058 2.1455H6.25768C6.26789 2.28746 6.32148 2.40216 6.41846 2.48959C6.51543 2.57702 6.63793 2.62074 6.78595 2.62074C6.86932 2.62074 6.94588 2.60559 7.01564 2.57529C7.08539 2.54499 7.14579 2.50041 7.19683 2.44155L7.29891 2.56101C7.23936 2.63372 7.16493 2.68912 7.07561 2.72721C6.98629 2.7653 6.88803 2.78434 6.78085 2.78434C6.64304 2.78434 6.52096 2.75448 6.41463 2.69475C6.30829 2.63502 6.22535 2.55235 6.1658 2.44674C6.10626 2.34113 6.07648 2.22168 6.07648 2.08837C6.07648 1.95506 6.10498 1.8356 6.16198 1.72999C6.21897 1.62438 6.29723 1.54215 6.39676 1.48328C6.49629 1.42442 6.60816 1.39499 6.73236 1.39499C6.85656 1.39499 6.968 1.42442 7.06668 1.48328C7.16536 1.54215 7.24277 1.62395 7.29891 1.72869C7.35506 1.83343 7.38313 1.95332 7.38313 2.08837L7.38058 2.1455ZM6.73236 1.5534C6.60305 1.5534 6.49459 1.59538 6.40697 1.67935C6.31935 1.76332 6.26959 1.87282 6.25768 2.00786H7.20959C7.19768 1.87282 7.14792 1.76332 7.0603 1.67935C6.97268 1.59538 6.86336 1.5534 6.73236 1.5534ZM9.42732 1.39499C9.59575 1.39499 9.72803 1.44433 9.82416 1.54301C9.92029 1.64169 9.96835 1.78712 9.96835 1.97929V2.77136H9.78716V1.99747C9.78716 1.85551 9.75355 1.7473 9.68635 1.67286C9.61915 1.59841 9.5243 1.56119 9.4018 1.56119C9.26228 1.56119 9.15255 1.6049 9.07258 1.69233C8.99262 1.77976 8.95264 1.90052 8.95264 2.05461V2.77136H8.77144V1.99747C8.77144 1.85551 8.73784 1.7473 8.67064 1.67286C8.60343 1.59841 8.50773 1.56119 8.38353 1.56119C8.24572 1.56119 8.13641 1.6049 8.05559 1.69233C7.97478 1.77976 7.93437 1.90052 7.93437 2.05461V2.77136H7.75318V1.40537H7.92671V1.65468C7.97435 1.57158 8.04071 1.50752 8.12577 1.46251C8.21084 1.41749 8.30867 1.39499 8.41926 1.39499C8.53155 1.39499 8.62895 1.41922 8.71147 1.4677C8.79399 1.51618 8.85566 1.58802 8.89649 1.68324C8.94583 1.59322 9.01686 1.52267 9.10959 1.4716C9.20231 1.42052 9.30822 1.39499 9.42732 1.39499ZM10.9305 1.39499C11.1057 1.39499 11.2401 1.43957 11.3337 1.52873C11.4273 1.61789 11.4741 1.7499 11.4741 1.92476V2.77136H11.3005V2.55841C11.2597 2.62939 11.1997 2.68479 11.1206 2.72461C11.0415 2.76443 10.9475 2.78434 10.8386 2.78434C10.6889 2.78434 10.5698 2.74799 10.4813 2.67527C10.3928 2.60256 10.3486 2.50647 10.3486 2.38701C10.3486 2.27102 10.3899 2.17753 10.4724 2.10654C10.5549 2.03556 10.6863 2.00007 10.8667 2.00007H11.2929V1.91697C11.2929 1.79924 11.2605 1.70965 11.1959 1.64819C11.1312 1.58673 11.0368 1.556 10.9126 1.556C10.8275 1.556 10.7459 1.57028 10.6676 1.59884C10.5893 1.62741 10.5221 1.6668 10.466 1.71701L10.3843 1.57937C10.4524 1.5205 10.5341 1.47506 10.6293 1.44303C10.7246 1.411 10.825 1.39499 10.9305 1.39499ZM10.8667 2.63892C10.9688 2.63892 11.0564 2.61511 11.1295 2.5675C11.2027 2.51989 11.2571 2.45107 11.2929 2.36104V2.13771H10.8718C10.6421 2.13771 10.5272 2.21908 10.5272 2.38182C10.5272 2.46146 10.557 2.52422 10.6166 2.5701C10.6761 2.61598 10.7595 2.63892 10.8667 2.63892ZM11.9666 1.40537H12.1478V2.77136H11.9666V1.40537ZM12.0585 1.10673C12.021 1.10673 11.9896 1.09374 11.964 1.06777C11.9385 1.0418 11.9258 1.01064 11.9258 0.974283C11.9258 0.939657 11.9385 0.90936 11.964 0.883391C11.9896 0.857421 12.021 0.844437 12.0585 0.844437C12.0959 0.844437 12.1274 0.856988 12.1529 0.882092C12.1784 0.907196 12.1912 0.93706 12.1912 0.971686C12.1912 1.00977 12.1784 1.0418 12.1529 1.06777C12.1274 1.09374 12.0959 1.10673 12.0585 1.10673ZM12.6531 0.844438H12.8343V2.77136H12.6531V0.844438ZM14.8787 2.50534C14.8279 2.5934 14.7589 2.66173 14.6718 2.71033C14.5833 2.75967 14.4829 2.78434 14.3706 2.78434C14.2515 2.78434 14.1439 2.75534 14.0478 2.69735C13.9517 2.63935 13.876 2.55928 13.8207 2.45713C13.7654 2.35498 13.7377 2.23985 13.7377 2.11174C13.7377 1.98362 13.7654 1.86893 13.8207 1.76765C13.876 1.66636 13.9517 1.58716 14.0478 1.53003C14.1439 1.47289 14.2515 1.44433 14.3706 1.44433C14.4795 1.44433 14.5778 1.46813 14.6654 1.51574C14.753 1.56335 14.8232 1.63044 14.8759 1.71701V1.45472H15.0418V2.43895C15.0418 2.5082 15.0563 2.55841 15.0852 2.58957C15.1141 2.62074 15.1524 2.63632 15.2 2.63632C15.28 2.63632 15.3434 2.58784 15.3902 2.49089C15.437 2.39394 15.4604 2.2589 15.4604 2.08577C15.4604 1.88494 15.4161 1.70792 15.3276 1.5547C15.2392 1.40148 15.1154 1.28245 14.9563 1.19762C14.7972 1.11279 14.6156 1.07037 14.4115 1.07037C14.2056 1.07037 14.0231 1.11408 13.864 1.20151C13.705 1.28894 13.5812 1.41186 13.4927 1.57028C13.4043 1.72869 13.36 1.90918 13.36 2.11174C13.36 2.3143 13.4038 2.49522 13.4914 2.6545C13.5791 2.81378 13.7016 2.93756 13.8589 3.02586C14.0163 3.11415 14.1971 3.1583 14.4013 3.1583C14.4812 3.1583 14.565 3.14878 14.6526 3.12973C14.7402 3.11069 14.8198 3.08212 14.8912 3.04404L14.9346 3.17129C14.8615 3.20937 14.7768 3.23881 14.6807 3.25958C14.5846 3.28036 14.4914 3.29074 14.4013 3.29074C14.1699 3.29074 13.9649 3.24054 13.7862 3.14012C13.6076 3.03971 13.4685 2.89991 13.3689 2.72072C13.2694 2.54153 13.2197 2.33854 13.2197 2.11174C13.2197 1.88321 13.2698 1.68022 13.3702 1.50276C13.4706 1.3253 13.6114 1.1868 13.7926 1.08725C13.9738 0.9877 14.1801 0.937926 14.4115 0.937926C14.6394 0.937926 14.8432 0.985969 15.0227 1.08206C15.2022 1.17814 15.3421 1.31318 15.4425 1.48718C15.5429 1.66117 15.5931 1.85984 15.5931 2.08317C15.5931 2.30305 15.5556 2.47488 15.4808 2.59866C15.4059 2.72245 15.3021 2.78434 15.1694 2.78434C15.0861 2.78434 15.0184 2.75924 14.9665 2.70903C14.9146 2.65883 14.8861 2.58959 14.881 2.5013L14.8787 2.50534ZM14.3936 2.63372C14.4855 2.63372 14.568 2.61208 14.6411 2.5688C14.7143 2.52552 14.7722 2.46449 14.8147 2.38571C14.8572 2.30694 14.8785 2.21562 14.8785 2.11174C14.8785 2.00959 14.8572 1.91913 14.8147 1.84036C14.7722 1.76159 14.7143 1.70099 14.6411 1.65857C14.568 1.61616 14.4855 1.59495 14.3936 1.59495C14.3 1.59495 14.2162 1.61659 14.1422 1.65987C14.0682 1.70315 14.0104 1.76375 13.9687 1.84166C13.927 1.91957 13.9062 2.00959 13.9062 2.11174C13.9062 2.21388 13.927 2.30434 13.9687 2.38312C14.0104 2.46189 14.0682 2.52335 14.1422 2.5675C14.2162 2.61165 14.3 2.63372 14.3936 2.63372ZM17.2187 1.40537V2.60515C17.2187 2.83715 17.163 3.00898 17.0515 3.12065C16.9401 3.23231 16.7721 3.28815 16.5475 3.28815C16.4233 3.28815 16.3055 3.26954 16.1941 3.23231C16.0826 3.19509 15.992 3.14359 15.9223 3.0778L16.0141 2.93756C16.0788 2.99643 16.1575 3.0423 16.2502 3.0752C16.3429 3.10809 16.4403 3.12454 16.5424 3.12454C16.7126 3.12454 16.8376 3.08429 16.9176 3.00378C16.9975 2.92328 17.0375 2.79819 17.0375 2.62853V2.45453C16.9814 2.5411 16.9078 2.60689 16.8168 2.6519C16.7257 2.69691 16.6249 2.71942 16.5143 2.71942C16.3884 2.71942 16.274 2.69129 16.1711 2.63502C16.0682 2.57875 15.9873 2.49998 15.9286 2.3987C15.87 2.29742 15.8406 2.18272 15.8406 2.05461C15.8406 1.92649 15.87 1.81223 15.9286 1.71181C15.9873 1.6114 16.0677 1.53349 16.1698 1.47809C16.2719 1.42269 16.3867 1.39499 16.5143 1.39499C16.6283 1.39499 16.7313 1.41836 16.8231 1.4651C16.915 1.51185 16.989 1.57937 17.0452 1.66766V1.40537H17.2187ZM16.5322 2.55581C16.6292 2.55581 16.7168 2.53461 16.7951 2.49219C16.8733 2.44977 16.9342 2.39048 16.9775 2.3143C17.0209 2.23812 17.0426 2.15156 17.0426 2.05461C17.0426 1.95765 17.0209 1.87152 16.9775 1.79621C16.9342 1.7209 16.8738 1.66204 16.7963 1.61962C16.7189 1.5772 16.6309 1.556 16.5322 1.556C16.4352 1.556 16.348 1.57677 16.2706 1.61832C16.1932 1.65987 16.1328 1.71874 16.0894 1.79491C16.046 1.87109 16.0244 1.95765 16.0244 2.05461C16.0244 2.15156 16.046 2.23812 16.0894 2.3143C16.1328 2.39048 16.1932 2.44977 16.2706 2.49219C16.348 2.53461 16.4352 2.55581 16.5322 2.55581ZM19.4007 1.39499C19.5691 1.39499 19.7014 1.44433 19.7976 1.54301C19.8937 1.64169 19.9417 1.78712 19.9417 1.97929V2.77136H19.7605V1.99747C19.7605 1.85551 19.7269 1.7473 19.6597 1.67286C19.5925 1.59841 19.4977 1.56119 19.3752 1.56119C19.2357 1.56119 19.1259 1.6049 19.046 1.69233C18.966 1.77976 18.926 1.90052 18.926 2.05461V2.77136H18.7448V1.99747C18.7448 1.85551 18.7112 1.7473 18.644 1.67286C18.5768 1.59841 18.4811 1.56119 18.3569 1.56119C18.2191 1.56119 18.1098 1.6049 18.029 1.69233C17.9482 1.77976 17.9078 1.90052 17.9078 2.05461V2.77136H17.7266V1.40537H17.9001V1.65468C17.9477 1.57158 18.0141 1.50752 18.0992 1.46251C18.1842 1.41749 18.2821 1.39499 18.3927 1.39499C18.5049 1.39499 18.6023 1.41922 18.6849 1.4677C18.7674 1.51618 18.8291 1.58802 18.8699 1.68324C18.9192 1.59322 18.9903 1.52267 19.083 1.4716C19.1757 1.42052 19.2816 1.39499 19.4007 1.39499ZM20.9039 1.39499C21.0791 1.39499 21.2135 1.43957 21.3071 1.52873C21.4007 1.61789 21.4474 1.7499 21.4474 1.92476V2.77136H21.2739V2.55841C21.2331 2.62939 21.1731 2.68479 21.094 2.72461C21.0149 2.76443 20.9209 2.78434 20.812 2.78434C20.6623 2.78434 20.5432 2.74799 20.4547 2.67527C20.3662 2.60256 20.322 2.50647 20.322 2.38701C20.322 2.27102 20.3633 2.17753 20.4458 2.10654C20.5283 2.03556 20.6597 2.00007 20.8401 2.00007H21.2663V1.91697C21.2663 1.79924 21.2339 1.70965 21.1693 1.64819C21.1046 1.58673 21.0102 1.556 20.886 1.556C20.8009 1.556 20.7193 1.57028 20.641 1.59884C20.5627 1.62741 20.4955 1.6668 20.4394 1.71701L20.3577 1.57937C20.4258 1.5205 20.5074 1.47506 20.6027 1.44303C20.698 1.411 20.7984 1.39499 20.9039 1.39499ZM20.8401 2.63892C20.9421 2.63892 21.0298 2.61511 21.1029 2.5675C21.1761 2.51989 21.2305 2.45107 21.2663 2.36104V2.13771H20.8452C20.6155 2.13771 20.5006 2.21908 20.5006 2.38182C20.5006 2.46146 20.5304 2.52422 20.59 2.5701C20.6495 2.61598 20.7329 2.63892 20.8401 2.63892ZM21.94 1.40537H22.1212V2.77136H21.94V1.40537ZM22.0319 1.10673C21.9944 1.10673 21.963 1.09374 21.9374 1.06777C21.9119 1.0418 21.8992 1.01064 21.8992 0.974283C21.8992 0.939657 21.9119 0.90936 21.9374 0.883391C21.963 0.857421 21.9944 0.844437 22.0319 0.844437C22.0693 0.844437 22.1008 0.856988 22.1263 0.882092C22.1518 0.907196 22.1646 0.93706 22.1646 0.971686C22.1646 1.00977 22.1518 1.0418 22.1263 1.06777C22.1008 1.09374 22.0693 1.10673 22.0319 1.10673ZM22.6265 0.844438H22.8077V2.77136H22.6265V0.844438ZM23.3309 2.78434C23.2934 2.78434 23.2615 2.77049 23.2352 2.74279C23.2088 2.71509 23.1956 2.68133 23.1956 2.64151C23.1956 2.60169 23.2088 2.56837 23.2352 2.54153C23.2615 2.51469 23.2934 2.50128 23.3309 2.50128C23.3683 2.50128 23.4006 2.51469 23.4278 2.54153C23.4551 2.56837 23.4687 2.60169 23.4687 2.64151C23.4687 2.68133 23.4551 2.71509 23.4278 2.74279C23.4006 2.77049 23.3683 2.78434 23.3309 2.78434ZM24.3336 2.78434C24.2008 2.78434 24.0822 2.75491 23.9775 2.69605C23.8729 2.63718 23.7908 2.55452 23.7313 2.44804C23.6717 2.34157 23.642 2.22168 23.642 2.08837C23.642 1.95506 23.6717 1.8356 23.7313 1.72999C23.7908 1.62438 23.8729 1.54215 23.9775 1.48328C24.0822 1.42442 24.2008 1.39499 24.3336 1.39499C24.4492 1.39499 24.5526 1.41793 24.6436 1.4638C24.7347 1.50968 24.8065 1.57677 24.8593 1.66507L24.724 1.75856C24.6798 1.69104 24.6236 1.6404 24.5556 1.60664C24.4875 1.57288 24.4135 1.556 24.3336 1.556C24.2366 1.556 24.1494 1.57807 24.072 1.62222C23.9946 1.66637 23.9342 1.72912 23.8908 1.81049C23.8474 1.89187 23.8257 1.98449 23.8257 2.08837C23.8257 2.19397 23.8474 2.28703 23.8908 2.36754C23.9342 2.44804 23.9946 2.51037 24.072 2.55451C24.1494 2.59866 24.2366 2.62074 24.3336 2.62074C24.4135 2.62074 24.4875 2.60429 24.5556 2.57139C24.6236 2.5385 24.6798 2.48829 24.724 2.42077L24.8593 2.51426C24.8065 2.60256 24.7342 2.66965 24.6424 2.71552C24.5505 2.7614 24.4475 2.78434 24.3336 2.78434Z" fill="#34336C"/>
</svg>
