<svg width="41" height="40" viewBox="0 0 41 40" fill="none" xmlns="http://www.w3.org/2000/svg">
<path fill-rule="evenodd" clip-rule="evenodd" d="M20.25 40C31.4338 40 40.5 31.0457 40.5 20C40.5 8.95431 31.4338 0 20.25 0C9.06623 0 0 8.95431 0 20C0 31.0457 9.06623 40 20.25 40Z" fill="#DFE0E5" fill-opacity="0.5"/>
<path fill-rule="evenodd" clip-rule="evenodd" d="M15.75 14.8148H12C11.5858 14.8148 11.25 14.4831 11.25 14.074C11.25 13.6649 11.5858 13.3333 12 13.3333H15.75V11.1111H18.75V17.037H15.75V14.8148ZM20.25 13.3333H28.5C28.9142 13.3333 29.25 13.6649 29.25 14.074C29.25 14.4831 28.9142 14.8148 28.5 14.8148H20.25V13.3333Z" fill="#1B2749"/>
<path fill-rule="evenodd" clip-rule="evenodd" d="M15.75 26.6667H12C11.5858 26.6667 11.25 26.335 11.25 25.9259C11.25 25.5168 11.5858 25.1852 12 25.1852H15.75V22.963H18.75V28.8889H15.75V26.6667ZM20.25 25.1852H28.5C28.9142 25.1852 29.25 25.5168 29.25 25.9259C29.25 26.335 28.9142 26.6667 28.5 26.6667H20.25V25.1852Z" fill="#1B2749"/>
<path fill-rule="evenodd" clip-rule="evenodd" d="M21.75 20.7407H12C11.5858 20.7407 11.25 20.4091 11.25 20C11.25 19.5909 11.5858 19.2592 12 19.2592H21.75V17.037H24.75V22.9629H21.75V20.7407ZM26.25 19.2592H28.5C28.9142 19.2592 29.25 19.5909 29.25 20C29.25 20.4091 28.9142 20.7407 28.5 20.7407H26.25V19.2592Z" fill="#1B2749"/>
</svg>
