<svg width="41" height="40" viewBox="0 0 41 40" fill="none" xmlns="http://www.w3.org/2000/svg">
<path fill-rule="evenodd" clip-rule="evenodd" d="M20.5 40C31.6838 40 40.75 31.0457 40.75 20C40.75 8.95431 31.6838 0 20.5 0C9.31623 0 0.25 8.95431 0.25 20C0.25 31.0457 9.31623 40 20.5 40Z" fill="#DFE0E5" fill-opacity="0.5"/>
<path fill-rule="evenodd" clip-rule="evenodd" d="M16 14.8148H12.25C11.8358 14.8148 11.5 14.4831 11.5 14.074C11.5 13.6649 11.8358 13.3333 12.25 13.3333H16V11.1111H19V17.037H16V14.8148ZM20.5 13.3333H28.75C29.1642 13.3333 29.5 13.6649 29.5 14.074C29.5 14.4831 29.1642 14.8148 28.75 14.8148H20.5V13.3333Z" fill="#1B2749"/>
<path fill-rule="evenodd" clip-rule="evenodd" d="M16 26.6667H12.25C11.8358 26.6667 11.5 26.335 11.5 25.9259C11.5 25.5168 11.8358 25.1852 12.25 25.1852H16V22.963H19V28.8889H16V26.6667ZM20.5 25.1852H28.75C29.1642 25.1852 29.5 25.5168 29.5 25.9259C29.5 26.335 29.1642 26.6667 28.75 26.6667H20.5V25.1852Z" fill="#1B2749"/>
<path fill-rule="evenodd" clip-rule="evenodd" d="M22 20.7407H12.25C11.8358 20.7407 11.5 20.4091 11.5 20C11.5 19.5909 11.8358 19.2592 12.25 19.2592H22V17.037H25V22.9629H22V20.7407ZM26.5 19.2592H28.75C29.1642 19.2592 29.5 19.5909 29.5 20C29.5 20.4091 29.1642 20.7407 28.75 20.7407H26.5V19.2592Z" fill="#1B2749"/>
</svg>
