<svg width="25" height="24" viewBox="0 0 25 24" fill="none" xmlns="http://www.w3.org/2000/svg">
<path d="M9.375 12C9.375 12.7956 9.69107 13.5587 10.2537 14.1213C10.8163 14.6839 11.5794 15 12.375 15C13.1706 15 13.9337 14.6839 14.4963 14.1213C15.0589 13.5587 15.375 12.7957 15.375 12" stroke="#222222" stroke-linecap="round"/>
<path d="M4.875 8.7111C4.875 8.10998 4.875 7.80941 4.96082 7.52598C5.04663 7.24255 5.21335 6.99247 5.5468 6.4923L5.68753 6.2812C6.26882 5.40927 6.55947 4.9733 7.00165 4.73665C7.44384 4.5 7.9678 4.5 9.01574 4.5H15.7343C16.7822 4.5 17.3062 4.5 17.7483 4.73665C18.1905 4.9733 18.4812 5.40927 19.0625 6.2812L19.2032 6.4923C19.5366 6.99247 19.7034 7.24255 19.7892 7.52598C19.875 7.80941 19.875 8.10998 19.875 8.7111V15.5C19.875 17.3856 19.875 18.3284 19.2892 18.9142C18.7034 19.5 17.7606 19.5 15.875 19.5H8.875C6.98938 19.5 6.04657 19.5 5.46079 18.9142C4.875 18.3284 4.875 17.3856 4.875 15.5V8.7111Z" stroke="#222222"/>
<path d="M4.875 9.5H19.875" stroke="#222222" stroke-linecap="round"/>
</svg>
