<svg width="25" height="24" viewBox="0 0 25 24" fill="none" xmlns="http://www.w3.org/2000/svg">
<path d="M9.75 12C9.75 12.7956 10.0661 13.5587 10.6287 14.1213C11.1913 14.6839 11.9544 15 12.75 15C13.5456 15 14.3087 14.6839 14.8713 14.1213C15.4339 13.5587 15.75 12.7957 15.75 12" stroke="#222222" stroke-linecap="round"/>
<path d="M5.25 8.7111C5.25 8.10998 5.25 7.80941 5.33582 7.52598C5.42163 7.24255 5.58835 6.99247 5.9218 6.4923L6.06253 6.2812C6.64382 5.40927 6.93447 4.9733 7.37665 4.73665C7.81884 4.5 8.3428 4.5 9.39074 4.5H16.1093C17.1572 4.5 17.6812 4.5 18.1233 4.73665C18.5655 4.9733 18.8562 5.40927 19.4375 6.2812L19.5782 6.4923C19.9116 6.99247 20.0784 7.24255 20.1642 7.52598C20.25 7.80941 20.25 8.10998 20.25 8.7111V15.5C20.25 17.3856 20.25 18.3284 19.6642 18.9142C19.0784 19.5 18.1356 19.5 16.25 19.5H9.25C7.36438 19.5 6.42157 19.5 5.83579 18.9142C5.25 18.3284 5.25 17.3856 5.25 15.5V8.7111Z" stroke="#222222"/>
<path d="M5.25 9.5H20.25" stroke="#222222" stroke-linecap="round"/>
</svg>
