<svg width="33" height="32" viewBox="0 0 33 32" fill="none" xmlns="http://www.w3.org/2000/svg">
<path d="M25.834 11.95L27.04 10.744C27.2023 10.5837 27.4077 10.474 27.6312 10.4282C27.8547 10.3824 28.0867 10.4025 28.299 10.486L29.769 11.072C29.9837 11.1595 30.1676 11.3085 30.2977 11.5003C30.4278 11.6922 30.4982 11.9182 30.5 12.15V14.842C30.4974 15.1516 30.3719 15.4475 30.1512 15.6646C29.9305 15.8818 29.6326 16.0024 29.323 16L29.273 15.998C18.977 15.358 16.9 6.636 16.507 3.298C16.49 3.14553 16.5033 2.99122 16.546 2.84387C16.5887 2.69652 16.66 2.55902 16.7558 2.43923C16.8516 2.31944 16.9701 2.2197 17.1045 2.14571C17.2389 2.07172 17.3865 2.02492 17.539 2.008C17.5841 2.00265 17.6295 1.99998 17.675 2H20.275C20.5069 2.00084 20.7332 2.07098 20.925 2.20141C21.1167 2.33184 21.2651 2.51662 21.351 2.732L21.938 4.202C22.0243 4.41364 22.0463 4.64603 22.0013 4.87012C21.9564 5.09421 21.8463 5.30008 21.685 5.462L20.479 6.668C20.479 6.668 21.173 11.368 25.834 11.95V11.95ZM16.5 30H14.5V25C14.4992 24.2046 14.1829 23.442 13.6204 22.8796C13.058 22.3171 12.2954 22.0008 11.5 22H7.5C6.70459 22.0008 5.94199 22.3171 5.37956 22.8796C4.81712 23.442 4.50079 24.2046 4.5 25V30H2.5V25C2.50159 23.6744 3.02888 22.4036 3.96622 21.4662C4.90356 20.5289 6.1744 20.0016 7.5 20H11.5C12.8256 20.0016 14.0964 20.5289 15.0338 21.4662C15.9711 22.4036 16.4984 23.6744 16.5 25V30ZM9.5 10C10.0933 10 10.6734 10.1759 11.1667 10.5056C11.6601 10.8352 12.0446 11.3038 12.2716 11.8519C12.4987 12.4001 12.5581 13.0033 12.4424 13.5853C12.3266 14.1672 12.0409 14.7018 11.6213 15.1213C11.2018 15.5409 10.6672 15.8266 10.0853 15.9424C9.50333 16.0581 8.90013 15.9987 8.35195 15.7716C7.80377 15.5446 7.33524 15.1601 7.00559 14.6667C6.67595 14.1734 6.5 13.5933 6.5 13C6.5 12.2044 6.81607 11.4413 7.37868 10.8787C7.94129 10.3161 8.70435 10 9.5 10M9.5 8C8.51109 8 7.54439 8.29325 6.72215 8.84265C5.8999 9.39206 5.25904 10.173 4.8806 11.0866C4.50216 12.0002 4.40315 13.0055 4.59607 13.9755C4.789 14.9454 5.2652 15.8363 5.96447 16.5355C6.66373 17.2348 7.55464 17.711 8.52455 17.9039C9.49445 18.0969 10.4998 17.9978 11.4134 17.6194C12.327 17.241 13.1079 16.6001 13.6573 15.7779C14.2068 14.9556 14.5 13.9889 14.5 13C14.5 12.3434 14.3707 11.6932 14.1194 11.0866C13.8681 10.48 13.4998 9.92876 13.0355 9.46447C12.5712 9.00017 12.02 8.63188 11.4134 8.3806C10.8068 8.12933 10.1566 8 9.5 8V8Z" fill="white"/>
</svg>
