<svg width="32" height="32" viewBox="0 0 32 32" fill="none" xmlns="http://www.w3.org/2000/svg">
<mask id="path-1-inside-1_639_1626" fill="white">
<path d="M25.334 11.95L26.54 10.744C26.7023 10.5837 26.9077 10.474 27.1312 10.4282C27.3547 10.3824 27.5867 10.4025 27.799 10.486L29.269 11.072C29.4837 11.1595 29.6676 11.3085 29.7977 11.5003C29.9278 11.6922 29.9982 11.9182 30 12.15V14.842C29.9974 15.1516 29.8719 15.4475 29.6512 15.6646C29.4305 15.8818 29.1326 16.0024 28.823 16L28.773 15.998C18.477 15.358 16.4 6.636 16.007 3.298C15.99 3.14553 16.0033 2.99122 16.046 2.84387C16.0887 2.69652 16.16 2.55902 16.2558 2.43923C16.3516 2.31944 16.4701 2.2197 16.6045 2.14571C16.7389 2.07172 16.8865 2.02492 17.039 2.008C17.0841 2.00265 17.1295 1.99998 17.175 2H19.775C20.0069 2.00084 20.2332 2.07098 20.425 2.20141C20.6167 2.33184 20.7651 2.51662 20.851 2.732L21.438 4.202C21.5243 4.41364 21.5463 4.64603 21.5013 4.87012C21.4564 5.09421 21.3463 5.30008 21.185 5.462L19.979 6.668C19.979 6.668 20.673 11.368 25.334 11.95V11.95ZM16 30H14V25C13.9992 24.2046 13.6829 23.442 13.1204 22.8796C12.558 22.3171 11.7954 22.0008 11 22H7C6.20459 22.0008 5.44199 22.3171 4.87956 22.8796C4.31712 23.442 4.00079 24.2046 4 25V30H2V25C2.00159 23.6744 2.52888 22.4036 3.46622 21.4662C4.40356 20.5289 5.6744 20.0016 7 20H11C12.3256 20.0016 13.5964 20.5289 14.5338 21.4662C15.4711 22.4036 15.9984 23.6744 16 25V30ZM9 10C9.59334 10 10.1734 10.1759 10.6667 10.5056C11.1601 10.8352 11.5446 11.3038 11.7716 11.8519C11.9987 12.4001 12.0581 13.0033 11.9424 13.5853C11.8266 14.1672 11.5409 14.7018 11.1213 15.1213C10.7018 15.5409 10.1672 15.8266 9.58527 15.9424C9.00333 16.0581 8.40013 15.9987 7.85195 15.7716C7.30377 15.5446 6.83524 15.1601 6.50559 14.6667C6.17595 14.1734 6 13.5933 6 13C6 12.2044 6.31607 11.4413 6.87868 10.8787C7.44129 10.3161 8.20435 10 9 10M9 8C8.01109 8 7.04439 8.29325 6.22215 8.84265C5.3999 9.39206 4.75904 10.173 4.3806 11.0866C4.00216 12.0002 3.90315 13.0055 4.09607 13.9755C4.289 14.9454 4.7652 15.8363 5.46447 16.5355C6.16373 17.2348 7.05464 17.711 8.02455 17.9039C8.99445 18.0969 9.99979 17.9978 10.9134 17.6194C11.827 17.241 12.6079 16.6001 13.1573 15.7779C13.7068 14.9556 14 13.9889 14 13C14 12.3434 13.8707 11.6932 13.6194 11.0866C13.3681 10.48 12.9998 9.92876 12.5355 9.46447C12.0712 9.00017 11.52 8.63188 10.9134 8.3806C10.3068 8.12933 9.65661 8 9 8V8Z"/>
</mask>
<path d="M25.334 11.95L26.54 10.744C26.7023 10.5837 26.9077 10.474 27.1312 10.4282C27.3547 10.3824 27.5867 10.4025 27.799 10.486L29.269 11.072C29.4837 11.1595 29.6676 11.3085 29.7977 11.5003C29.9278 11.6922 29.9982 11.9182 30 12.15V14.842C29.9974 15.1516 29.8719 15.4475 29.6512 15.6646C29.4305 15.8818 29.1326 16.0024 28.823 16L28.773 15.998C18.477 15.358 16.4 6.636 16.007 3.298C15.99 3.14553 16.0033 2.99122 16.046 2.84387C16.0887 2.69652 16.16 2.55902 16.2558 2.43923C16.3516 2.31944 16.4701 2.2197 16.6045 2.14571C16.7389 2.07172 16.8865 2.02492 17.039 2.008C17.0841 2.00265 17.1295 1.99998 17.175 2H19.775C20.0069 2.00084 20.2332 2.07098 20.425 2.20141C20.6167 2.33184 20.7651 2.51662 20.851 2.732L21.438 4.202C21.5243 4.41364 21.5463 4.64603 21.5013 4.87012C21.4564 5.09421 21.3463 5.30008 21.185 5.462L19.979 6.668C19.979 6.668 20.673 11.368 25.334 11.95V11.95ZM16 30H14V25C13.9992 24.2046 13.6829 23.442 13.1204 22.8796C12.558 22.3171 11.7954 22.0008 11 22H7C6.20459 22.0008 5.44199 22.3171 4.87956 22.8796C4.31712 23.442 4.00079 24.2046 4 25V30H2V25C2.00159 23.6744 2.52888 22.4036 3.46622 21.4662C4.40356 20.5289 5.6744 20.0016 7 20H11C12.3256 20.0016 13.5964 20.5289 14.5338 21.4662C15.4711 22.4036 15.9984 23.6744 16 25V30ZM9 10C9.59334 10 10.1734 10.1759 10.6667 10.5056C11.1601 10.8352 11.5446 11.3038 11.7716 11.8519C11.9987 12.4001 12.0581 13.0033 11.9424 13.5853C11.8266 14.1672 11.5409 14.7018 11.1213 15.1213C10.7018 15.5409 10.1672 15.8266 9.58527 15.9424C9.00333 16.0581 8.40013 15.9987 7.85195 15.7716C7.30377 15.5446 6.83524 15.1601 6.50559 14.6667C6.17595 14.1734 6 13.5933 6 13C6 12.2044 6.31607 11.4413 6.87868 10.8787C7.44129 10.3161 8.20435 10 9 10M9 8C8.01109 8 7.04439 8.29325 6.22215 8.84265C5.3999 9.39206 4.75904 10.173 4.3806 11.0866C4.00216 12.0002 3.90315 13.0055 4.09607 13.9755C4.289 14.9454 4.7652 15.8363 5.46447 16.5355C6.16373 17.2348 7.05464 17.711 8.02455 17.9039C8.99445 18.0969 9.99979 17.9978 10.9134 17.6194C11.827 17.241 12.6079 16.6001 13.1573 15.7779C13.7068 14.9556 14 13.9889 14 13C14 12.3434 13.8707 11.6932 13.6194 11.0866C13.3681 10.48 12.9998 9.92876 12.5355 9.46447C12.0712 9.00017 11.52 8.63188 10.9134 8.3806C10.3068 8.12933 9.65661 8 9 8V8Z" fill="white"/>
<path d="M26.54 10.744L25.8374 10.0324L25.8329 10.0369L26.54 10.744ZM27.799 10.486L28.1693 9.55708L28.1651 9.55543L27.799 10.486ZM29.269 11.072L29.6463 10.1459L29.6393 10.1431L29.269 11.072ZM30 12.15H31L31 12.1421L30 12.15ZM30 14.842L31 14.8505V14.842H30ZM28.823 16L28.783 16.9992L28.7991 16.9998L28.8153 17L28.823 16ZM28.773 15.998L28.711 16.9961L28.722 16.9968L28.733 16.9972L28.773 15.998ZM16.007 3.298L15.0131 3.40856L15.0139 3.41493L16.007 3.298ZM17.039 2.008L17.1493 3.00193L17.1567 3.00104L17.039 2.008ZM17.175 2L17.1745 3H17.175V2ZM19.775 2L19.7786 1H19.775V2ZM20.851 2.732L19.9222 3.10259L19.9223 3.10285L20.851 2.732ZM21.438 4.202L20.5093 4.57286L20.512 4.57962L21.438 4.202ZM21.185 5.462L21.8921 6.16911L21.8934 6.16779L21.185 5.462ZM19.979 6.668L19.2719 5.96089L18.9163 6.31653L18.9897 6.81408L19.979 6.668ZM16 30V31H17V30H16ZM14 30H13V31H14V30ZM14 25H15L15 24.999L14 25ZM11 22L11.001 21H11V22ZM7 22V21H6.999L7 22ZM4 25L3 24.999V25H4ZM4 30V31H5V30H4ZM2 30H1V31H2V30ZM2 25L1 24.9988V25H2ZM7 20V19H6.9988L7 20ZM11 20L11.0012 19H11V20ZM16 25H17L17 24.9988L16 25ZM14 13H15H14ZM26.0411 12.6571L27.2471 11.4511L25.8329 10.0369L24.6269 11.2429L26.0411 12.6571ZM27.2426 11.4556C27.2672 11.4313 27.2982 11.4148 27.332 11.4078L26.9305 9.44855C26.5172 9.53323 26.1375 9.73607 25.8374 10.0324L27.2426 11.4556ZM27.332 11.4078C27.3657 11.4009 27.4008 11.4039 27.4329 11.4166L28.1651 9.55543C27.7726 9.401 27.3437 9.36387 26.9305 9.44855L27.332 11.4078ZM27.4287 11.4149L28.8987 12.0009L29.6393 10.1431L28.1693 9.55709L27.4287 11.4149ZM28.8917 11.9981C28.9235 12.011 28.9508 12.0331 28.97 12.0616L30.6254 10.9391C30.3845 10.5838 30.0438 10.3079 29.6463 10.1459L28.8917 11.9981ZM28.97 12.0616C28.9893 12.09 28.9998 12.1235 29 12.1579L31 12.1421C30.9966 11.7129 30.8663 11.2943 30.6254 10.9391L28.97 12.0616ZM29 12.15V14.842H31V12.15H29ZM29 14.8335C28.9997 14.878 28.9816 14.9206 28.9499 14.9518L30.3525 16.3775C30.7622 15.9744 30.9951 15.4252 31 14.8505L29 14.8335ZM28.9499 14.9518C28.9181 14.983 28.8753 15.0004 28.8307 15L28.8153 17C29.3899 17.0044 29.9429 16.7805 30.3525 16.3775L28.9499 14.9518ZM28.863 15.0008L28.813 14.9988L28.733 16.9972L28.783 16.9992L28.863 15.0008ZM28.835 14.9999C24.0126 14.7002 21.1911 12.5333 19.4983 10.0902C17.7744 7.60212 17.1873 4.77045 17.0001 3.18107L15.0139 3.41493C15.2197 5.16355 15.8676 8.36188 17.8544 11.2293C19.8724 14.1417 23.2374 16.6558 28.711 16.9961L28.835 14.9999ZM17.0009 3.18745C16.9984 3.16552 17.0003 3.14332 17.0065 3.12212L15.0855 2.56561C15.0062 2.83911 14.9816 3.12555 15.0131 3.40855L17.0009 3.18745ZM17.0065 3.12212C17.0126 3.10093 17.0229 3.08115 17.0367 3.06392L15.4749 1.81453C15.297 2.03689 15.1647 2.29211 15.0855 2.56561L17.0065 3.12212ZM17.0367 3.06392C17.0504 3.0467 17.0675 3.03235 17.0868 3.0217L16.1222 1.26971C15.8727 1.40705 15.6528 1.59218 15.4749 1.81453L17.0367 3.06392ZM17.0868 3.0217C17.1061 3.01106 17.1274 3.00433 17.1493 3.0019L16.9287 1.0141C16.6457 1.04551 16.3716 1.13237 16.1222 1.26971L17.0868 3.0217ZM17.1567 3.00104C17.1626 3.00035 17.1686 3 17.1745 3L17.1755 1C17.0905 0.999957 17.0056 1.00495 16.9213 1.01496L17.1567 3.00104ZM17.175 3H19.775V1H17.175V3ZM19.7714 2.99999C19.8039 3.00011 19.8356 3.00994 19.8625 3.02822L20.9874 1.3746C20.6309 1.13201 20.2099 1.00156 19.7786 1.00001L19.7714 2.99999ZM19.8625 3.02822C19.8894 3.0465 19.9102 3.0724 19.9222 3.10259L21.7798 2.36141C21.62 1.96084 21.344 1.61719 20.9874 1.3746L19.8625 3.02822ZM19.9223 3.10285L20.5093 4.57285L22.3667 3.83115L21.7797 2.36115L19.9223 3.10285ZM20.512 4.57962C20.5241 4.60928 20.5272 4.64185 20.5209 4.67326L22.4818 5.06698C22.5655 4.65021 22.5245 4.21801 22.364 3.82438L20.512 4.57962ZM20.5209 4.67326C20.5146 4.70466 20.4992 4.73352 20.4766 4.75621L21.8934 6.16779C22.1934 5.86664 22.3981 5.48376 22.4818 5.06698L20.5209 4.67326ZM20.4779 4.75489L19.2719 5.96089L20.6861 7.37511L21.8921 6.16911L20.4779 4.75489ZM19.979 6.668C18.9897 6.81408 18.9898 6.81455 18.9899 6.81505C18.9899 6.81524 18.99 6.81576 18.99 6.81614C18.9901 6.8169 18.9903 6.81773 18.9904 6.81864C18.9907 6.82045 18.991 6.82255 18.9914 6.82494C18.9921 6.82972 18.9931 6.83565 18.9942 6.84269C18.9965 6.85677 18.9997 6.87532 19.0037 6.89805C19.0119 6.9435 19.0239 7.00581 19.0406 7.08276C19.0739 7.23645 19.1261 7.44977 19.2042 7.70461C19.3597 8.21177 19.6223 8.89762 20.0534 9.60901C20.9257 11.0485 22.5035 12.6043 25.2101 12.9423L25.4579 10.9577C23.5035 10.7137 22.4038 9.62852 21.7638 8.57249C21.4388 8.03613 21.2366 7.5106 21.1163 7.11832C21.0566 6.92345 21.0181 6.76503 20.9953 6.65942C20.9839 6.60671 20.9764 6.56748 20.9721 6.5438C20.97 6.53197 20.9687 6.52405 20.9681 6.52031C20.9678 6.51844 20.9676 6.51762 20.9677 6.51787C20.9677 6.518 20.9677 6.5184 20.9678 6.51908C20.9679 6.51941 20.968 6.51982 20.968 6.52029C20.9681 6.52053 20.9681 6.52094 20.9681 6.52106C20.9682 6.52148 20.9683 6.52192 19.979 6.668ZM16 29H14V31H16V29ZM15 30V25H13V30H15ZM15 24.999C14.9989 23.9387 14.5773 22.9222 13.8275 22.1724L12.4133 23.5867C12.7885 23.9618 12.9995 24.4705 13 25.001L15 24.999ZM13.8275 22.1724C13.0778 21.4227 12.0613 21.0011 11.001 21L10.999 23C11.5295 23.0005 12.0382 23.2115 12.4133 23.5867L13.8275 22.1724ZM11 21H7V23H11V21ZM6.999 21C5.93873 21.0011 4.92218 21.4227 4.17245 22.1724L5.58666 23.5867C5.96181 23.2115 6.47046 23.0005 7.001 23L6.999 21ZM4.17245 22.1724C3.42272 22.9222 3.00106 23.9387 3 24.999L5 25.001C5.00053 24.4705 5.21152 23.9618 5.58666 23.5867L4.17245 22.1724ZM3 25V30H5V25H3ZM4 29H2V31H4V29ZM3 30V25H1V30H3ZM3 25.0012C3.00127 23.9404 3.42323 22.9234 4.17333 22.1733L2.75911 20.7591C1.63453 21.8837 1.00191 23.4084 1 24.9988L3 25.0012ZM4.17333 22.1733C4.92342 21.4232 5.9404 21.0013 7.0012 21L6.9988 19C5.40841 19.0019 3.88369 19.6345 2.75911 20.7591L4.17333 22.1733ZM7 21H11V19H7V21ZM10.9988 21C12.0596 21.0013 13.0766 21.4232 13.8267 22.1733L15.2409 20.7591C14.1163 19.6345 12.5916 19.0019 11.0012 19L10.9988 21ZM13.8267 22.1733C14.5768 22.9234 14.9987 23.9404 15 25.0012L17 24.9988C16.9981 23.4084 16.3655 21.8837 15.2409 20.7591L13.8267 22.1733ZM15 25V30H17V25H15ZM9 11C9.39556 11 9.78224 11.1173 10.1111 11.3371L11.2223 9.67412C10.5645 9.2346 9.79113 9 9 9V11ZM10.1111 11.3371C10.44 11.5568 10.6964 11.8692 10.8478 12.2346L12.6955 11.4693C12.3928 10.7384 11.8801 10.1136 11.2223 9.67412L10.1111 11.3371ZM10.8478 12.2346C10.9991 12.6001 11.0387 13.0022 10.9616 13.3902L12.9231 13.7804C13.0775 13.0044 12.9983 12.2002 12.6955 11.4693L10.8478 12.2346ZM10.9616 13.3902C10.8844 13.7781 10.6939 14.1345 10.4142 14.4142L11.8284 15.8284C12.3878 15.269 12.7688 14.5563 12.9231 13.7804L10.9616 13.3902ZM10.4142 14.4142C10.1345 14.6939 9.77814 14.8844 9.39018 14.9616L9.78036 16.9231C10.5563 16.7688 11.269 16.3878 11.8284 15.8284L10.4142 14.4142ZM9.39018 14.9616C9.00222 15.0387 8.60009 14.9991 8.23463 14.8478L7.46927 16.6955C8.20017 16.9983 9.00444 17.0775 9.78036 16.9231L9.39018 14.9616ZM8.23463 14.8478C7.86918 14.6964 7.55682 14.44 7.33706 14.1111L5.67412 15.2223C6.11365 15.8801 6.73836 16.3928 7.46927 16.6955L8.23463 14.8478ZM7.33706 14.1111C7.1173 13.7822 7 13.3956 7 13H5C5 13.7911 5.2346 14.5645 5.67412 15.2223L7.33706 14.1111ZM7 13C7 12.4696 7.21071 11.9609 7.58579 11.5858L6.17157 10.1716C5.42143 10.9217 5 11.9391 5 13H7ZM7.58579 11.5858C7.96086 11.2107 8.46957 11 9 11V9C7.93913 9 6.92172 9.42143 6.17157 10.1716L7.58579 11.5858ZM9 7C7.81331 7 6.65327 7.35189 5.66658 8.01118L6.77772 9.67412C7.43552 9.2346 8.20888 9 9 9V7ZM5.66658 8.01118C4.67988 8.67047 3.91085 9.60754 3.45672 10.7039L5.30448 11.4693C5.60723 10.7384 6.11992 10.1136 6.77772 9.67412L5.66658 8.01118ZM3.45672 10.7039C3.0026 11.8003 2.88378 13.0067 3.11529 14.1705L5.07686 13.7804C4.92252 13.0044 5.00173 12.2002 5.30448 11.4693L3.45672 10.7039ZM3.11529 14.1705C3.3468 15.3344 3.91824 16.4035 4.75736 17.2426L6.17157 15.8284C5.61216 15.269 5.2312 14.5563 5.07686 13.7804L3.11529 14.1705ZM4.75736 17.2426C5.59647 18.0818 6.66557 18.6532 7.82946 18.8847L8.21964 16.9231C7.44372 16.7688 6.73098 16.3878 6.17157 15.8284L4.75736 17.2426ZM7.82946 18.8847C8.99334 19.1162 10.1997 18.9974 11.2961 18.5433L10.5307 16.6955C9.79983 16.9983 8.99556 17.0775 8.21964 16.9231L7.82946 18.8847ZM11.2961 18.5433C12.3925 18.0892 13.3295 17.3201 13.9888 16.3334L12.3259 15.2223C11.8864 15.8801 11.2616 16.3928 10.5307 16.6955L11.2961 18.5433ZM13.9888 16.3334C14.6481 15.3467 15 14.1867 15 13H13C13 13.7911 12.7654 14.5645 12.3259 15.2223L13.9888 16.3334ZM15 13C15 12.2121 14.8448 11.4319 14.5433 10.7039L12.6955 11.4693C12.8965 11.9546 13 12.4747 13 13H15ZM14.5433 10.7039C14.2417 9.97595 13.7998 9.31451 13.2426 8.75736L11.8284 10.1716C12.1999 10.543 12.4945 10.984 12.6955 11.4693L14.5433 10.7039ZM13.2426 8.75736C12.6855 8.20021 12.0241 7.75825 11.2961 7.45672L10.5307 9.30448C11.016 9.5055 11.457 9.80014 11.8284 10.1716L13.2426 8.75736ZM11.2961 7.45672C10.5681 7.15519 9.78793 7 9 7V9C9.52529 9 10.0454 9.10346 10.5307 9.30448L11.2961 7.45672Z" fill="white" mask="url(#path-1-inside-1_639_1626)"/>
</svg>
