<svg width="33" height="33" viewBox="0 0 33 33" fill="none" xmlns="http://www.w3.org/2000/svg">
<path d="M25.834 12.45L27.04 11.244C27.2023 11.0837 27.4077 10.974 27.6312 10.9282C27.8547 10.8824 28.0867 10.9025 28.299 10.986L29.769 11.572C29.9837 11.6595 30.1676 11.8085 30.2977 12.0003C30.4278 12.1922 30.4982 12.4182 30.5 12.65V15.342C30.4974 15.6516 30.3719 15.9475 30.1512 16.1646C29.9305 16.3818 29.6326 16.5024 29.323 16.5L29.273 16.498C18.977 15.858 16.9 7.136 16.507 3.798C16.49 3.64553 16.5033 3.49122 16.546 3.34387C16.5887 3.19652 16.66 3.05902 16.7558 2.93923C16.8516 2.81944 16.9701 2.7197 17.1045 2.64571C17.2389 2.57172 17.3865 2.52492 17.539 2.508C17.5841 2.50265 17.6295 2.49998 17.675 2.5H20.275C20.5069 2.50084 20.7332 2.57098 20.925 2.70141C21.1167 2.83184 21.2651 3.01662 21.351 3.232L21.938 4.702C22.0243 4.91364 22.0463 5.14603 22.0013 5.37012C21.9564 5.59421 21.8463 5.80008 21.685 5.962L20.479 7.168C20.479 7.168 21.173 11.868 25.834 12.45ZM16.5 30.5H14.5V25.5C14.4992 24.7046 14.1829 23.942 13.6204 23.3796C13.058 22.8171 12.2954 22.5008 11.5 22.5H7.5C6.70459 22.5008 5.94199 22.8171 5.37956 23.3796C4.81712 23.942 4.50079 24.7046 4.5 25.5V30.5H2.5V25.5C2.50159 24.1744 3.02888 22.9036 3.96622 21.9662C4.90356 21.0289 6.17441 20.5016 7.5 20.5H11.5C12.8256 20.5016 14.0964 21.0289 15.0338 21.9662C15.9711 22.9036 16.4984 24.1744 16.5 25.5V30.5ZM9.5 10.5C10.0933 10.5 10.6734 10.6759 11.1667 11.0056C11.6601 11.3352 12.0446 11.8038 12.2716 12.3519C12.4987 12.9001 12.5581 13.5033 12.4424 14.0853C12.3266 14.6672 12.0409 15.2018 11.6213 15.6213C11.2018 16.0409 10.6672 16.3266 10.0853 16.4424C9.50333 16.5581 8.90013 16.4987 8.35195 16.2716C7.80377 16.0446 7.33524 15.6601 7.00559 15.1667C6.67595 14.6734 6.5 14.0933 6.5 13.5C6.5 12.7044 6.81607 11.9413 7.37868 11.3787C7.94129 10.8161 8.70435 10.5 9.5 10.5ZM9.5 8.5C8.51109 8.5 7.54439 8.79325 6.72215 9.34265C5.8999 9.89206 5.25904 10.673 4.8806 11.5866C4.50216 12.5002 4.40315 13.5055 4.59607 14.4755C4.789 15.4454 5.2652 16.3363 5.96447 17.0355C6.66373 17.7348 7.55464 18.211 8.52455 18.4039C9.49445 18.5969 10.4998 18.4978 11.4134 18.1194C12.327 17.741 13.1079 17.1001 13.6573 16.2779C14.2068 15.4556 14.5 14.4889 14.5 13.5C14.5 12.8434 14.3707 12.1932 14.1194 11.5866C13.8681 10.98 13.4998 10.4288 13.0355 9.96447C12.5712 9.50017 12.02 9.13188 11.4134 8.8806C10.8068 8.62933 10.1566 8.5 9.5 8.5Z" fill="white"/>
</svg>
