<svg width="19" height="3" viewBox="0 0 19 3" fill="none" xmlns="http://www.w3.org/2000/svg">
<path fill-rule="evenodd" clip-rule="evenodd" d="M1.94307 2.40666V2.57287H0.67981V0.755016H1.90479V0.921219H0.868661V1.56785H1.7925V1.73146H0.868661V2.40666H1.94307ZM4.02299 1.19649C4.19142 1.19649 4.3237 1.24583 4.41983 1.34452C4.51596 1.4432 4.56402 1.58863 4.56402 1.7808V2.57287H4.38283V1.79898C4.38283 1.65702 4.34923 1.54881 4.28202 1.47437C4.21482 1.39992 4.11997 1.3627 3.99747 1.3627C3.85796 1.3627 3.74822 1.40641 3.66825 1.49384C3.58829 1.58127 3.54831 1.70203 3.54831 1.85611V2.57287H3.36711V1.79898C3.36711 1.65702 3.33351 1.54881 3.26631 1.47437C3.1991 1.39992 3.1034 1.3627 2.9792 1.3627C2.84139 1.3627 2.73208 1.40641 2.65126 1.49384C2.57045 1.58127 2.53004 1.70203 2.53004 1.85611V2.57287H2.34885V1.20688H2.52239V1.45619C2.57002 1.37308 2.63638 1.30903 2.72145 1.26401C2.80651 1.219 2.90434 1.19649 3.01493 1.19649C3.12722 1.19649 3.22462 1.22073 3.30714 1.26921C3.38966 1.31768 3.45133 1.38953 3.49216 1.48475C3.5415 1.39473 3.61253 1.32418 3.70526 1.2731C3.79798 1.22203 3.90389 1.19649 4.02299 1.19649ZM5.52614 1.19649C5.70138 1.19649 5.83579 1.24107 5.92937 1.33024C6.02294 1.4194 6.06973 1.55141 6.06973 1.72627V2.57287H5.89619V2.35992C5.85536 2.4309 5.79538 2.4863 5.71627 2.52612C5.63716 2.56594 5.54316 2.58585 5.43427 2.58585C5.28455 2.58585 5.16545 2.54949 5.07698 2.47678C4.98851 2.40407 4.94428 2.30798 4.94428 2.18852C4.94428 2.07252 4.98553 1.97904 5.06805 1.90805C5.15057 1.83707 5.282 1.80158 5.46234 1.80158H5.88853V1.71848C5.88853 1.60075 5.85621 1.51116 5.79156 1.44969C5.7269 1.38823 5.63248 1.3575 5.50828 1.3575C5.42321 1.3575 5.34155 1.37179 5.26328 1.40035C5.18502 1.42892 5.11782 1.46831 5.06167 1.51851L4.98001 1.38088C5.04806 1.32201 5.12972 1.27657 5.225 1.24454C5.32028 1.21251 5.42066 1.19649 5.52614 1.19649ZM5.46234 2.44042C5.56442 2.44042 5.65204 2.41662 5.7252 2.36901C5.79836 2.3214 5.8528 2.25258 5.88853 2.16255V1.93922H5.46745C5.23776 1.93922 5.12292 2.02059 5.12292 2.18333C5.12292 2.26297 5.15269 2.32572 5.21224 2.3716C5.27179 2.41748 5.35515 2.44042 5.46234 2.44042ZM6.56227 1.20688H6.74347V2.57287H6.56227V1.20688ZM6.65415 0.908234C6.61672 0.908234 6.58524 0.89525 6.55972 0.86928C6.5342 0.843311 6.52144 0.812148 6.52144 0.775791C6.52144 0.741165 6.5342 0.710868 6.55972 0.684898C6.58524 0.658929 6.61672 0.645944 6.65415 0.645944C6.69158 0.645944 6.72305 0.658496 6.74857 0.6836C6.77409 0.708704 6.78685 0.738568 6.78685 0.773194C6.78685 0.811283 6.77409 0.843311 6.74857 0.86928C6.72305 0.89525 6.69158 0.908234 6.65415 0.908234ZM7.24877 0.645943H7.42997V2.57286H7.24877V0.645943ZM9.76254 2.08724H8.76724L8.55287 2.57287H8.35636L9.17301 0.755016H9.35931L10.176 2.57287H9.97691L9.76254 2.08724ZM9.69363 1.93142L9.26489 0.954979L8.83615 1.93142H9.69363ZM11.6329 0.645943V2.57286H11.4594V2.30278C11.4049 2.39454 11.3331 2.46466 11.2437 2.51314C11.1544 2.56161 11.0536 2.58585 10.9413 2.58585C10.8154 2.58585 10.7014 2.55642 10.5994 2.49755C10.4973 2.43869 10.4173 2.35645 10.3595 2.25085C10.3016 2.14524 10.2727 2.02491 10.2727 1.88987C10.2727 1.75483 10.3016 1.63451 10.3595 1.5289C10.4173 1.42329 10.4973 1.34149 10.5994 1.28349C10.7014 1.22549 10.8154 1.19649 10.9413 1.19649C11.0502 1.19649 11.1485 1.21943 11.2361 1.26531C11.3237 1.31119 11.3956 1.37828 11.4517 1.46657V0.645943H11.6329ZM10.9566 2.42224C11.0502 2.42224 11.1349 2.40017 11.2106 2.35602C11.2863 2.31187 11.3458 2.24912 11.3892 2.16775C11.4326 2.08637 11.4543 1.99375 11.4543 1.88987C11.4543 1.786 11.4326 1.69337 11.3892 1.612C11.3458 1.53063 11.2863 1.46787 11.2106 1.42372C11.1349 1.37958 11.0502 1.3575 10.9566 1.3575C10.8614 1.3575 10.7759 1.37958 10.7002 1.42372C10.6244 1.46787 10.5649 1.53063 10.5215 1.612C10.4781 1.69337 10.4564 1.786 10.4564 1.88987C10.4564 1.99375 10.4781 2.08637 10.5215 2.16775C10.5649 2.24912 10.6244 2.31187 10.7002 2.35602C10.7759 2.40017 10.8614 2.42224 10.9566 2.42224ZM13.3632 0.645943V2.57286H13.1897V2.30278C13.1352 2.39454 13.0634 2.46466 12.974 2.51314C12.8847 2.56161 12.7839 2.58585 12.6716 2.58585C12.5457 2.58585 12.4317 2.55642 12.3296 2.49755C12.2276 2.43869 12.1476 2.35645 12.0897 2.25085C12.0319 2.14524 12.003 2.02491 12.003 1.88987C12.003 1.75483 12.0319 1.63451 12.0897 1.5289C12.1476 1.42329 12.2276 1.34149 12.3296 1.28349C12.4317 1.22549 12.5457 1.19649 12.6716 1.19649C12.7805 1.19649 12.8788 1.21943 12.9664 1.26531C13.054 1.31119 13.1259 1.37828 13.182 1.46657V0.645943H13.3632ZM12.6869 2.42224C12.7805 2.42224 12.8651 2.40017 12.9409 2.35602C13.0166 2.31187 13.0761 2.24912 13.1195 2.16775C13.1629 2.08637 13.1846 1.99375 13.1846 1.88987C13.1846 1.786 13.1629 1.69337 13.1195 1.612C13.0761 1.53063 13.0166 1.46787 12.9409 1.42372C12.8651 1.37958 12.7805 1.3575 12.6869 1.3575C12.5916 1.3575 12.5062 1.37958 12.4304 1.42372C12.3547 1.46787 12.2952 1.53063 12.2518 1.612C12.2084 1.69337 12.1867 1.786 12.1867 1.88987C12.1867 1.99375 12.2084 2.08637 12.2518 2.16775C12.2952 2.24912 12.3547 2.31187 12.4304 2.35602C12.5062 2.40017 12.5916 2.42224 12.6869 2.42224ZM14.0421 1.47437C14.0846 1.38261 14.148 1.31336 14.2322 1.26661C14.3164 1.21987 14.4206 1.19649 14.5448 1.19649V1.37568L14.5014 1.37308C14.3602 1.37308 14.2496 1.41723 14.1697 1.50553C14.0897 1.59382 14.0497 1.71761 14.0497 1.87689V2.57287H13.8685V1.20688H14.0421V1.47437ZM15.9946 1.94701H14.8717C14.8819 2.08897 14.9355 2.20367 15.0325 2.2911C15.1295 2.37853 15.252 2.42224 15.4 2.42224C15.4834 2.42224 15.5599 2.4071 15.6297 2.3768C15.6994 2.3465 15.7598 2.30192 15.8109 2.24306L15.913 2.36251C15.8534 2.43523 15.779 2.49063 15.6897 2.52872C15.6003 2.56681 15.5021 2.58585 15.3949 2.58585C15.2571 2.58585 15.135 2.55599 15.0287 2.49626C14.9223 2.43653 14.8394 2.35386 14.7799 2.24825C14.7203 2.14264 14.6905 2.02318 14.6905 1.88987C14.6905 1.75656 14.719 1.63711 14.776 1.5315C14.833 1.42589 14.9113 1.34365 15.0108 1.28479C15.1103 1.22593 15.2222 1.19649 15.3464 1.19649C15.4706 1.19649 15.582 1.22593 15.6807 1.28479C15.7794 1.34365 15.8568 1.42546 15.913 1.5302C15.9691 1.63494 15.9972 1.75483 15.9972 1.88987L15.9946 1.94701ZM15.3464 1.35491C15.2171 1.35491 15.1086 1.39689 15.021 1.48086C14.9334 1.56483 14.8836 1.67433 14.8717 1.80937H15.8236C15.8117 1.67433 15.762 1.56483 15.6743 1.48086C15.5867 1.39689 15.4774 1.35491 15.3464 1.35491ZM16.7271 2.58585C16.6182 2.58585 16.514 2.56984 16.4144 2.53781C16.3149 2.50578 16.2371 2.46553 16.1809 2.41705L16.2626 2.27162C16.3187 2.31664 16.3893 2.35343 16.4744 2.38199C16.5595 2.41056 16.648 2.42484 16.7398 2.42484C16.8623 2.42484 16.9529 2.40536 17.0116 2.36641C17.0703 2.32746 17.0997 2.27249 17.0997 2.20151C17.0997 2.1513 17.0835 2.11191 17.0512 2.08335C17.0189 2.05478 16.978 2.03314 16.9287 2.01842C16.8793 2.00371 16.8138 1.98942 16.7322 1.97557C16.6233 1.9548 16.5357 1.93359 16.4693 1.91195C16.403 1.89031 16.3464 1.85352 16.2996 1.80158C16.2528 1.74964 16.2294 1.67779 16.2294 1.58603C16.2294 1.47177 16.2762 1.37828 16.3698 1.30556C16.4634 1.23285 16.5935 1.19649 16.7602 1.19649C16.847 1.19649 16.9338 1.20818 17.0206 1.23155C17.1073 1.25492 17.1788 1.28565 17.2349 1.32374L17.1558 1.47177C17.0452 1.39386 16.9134 1.35491 16.7602 1.35491C16.6445 1.35491 16.5574 1.37568 16.4987 1.41723C16.44 1.45878 16.4106 1.51332 16.4106 1.58084C16.4106 1.63278 16.4272 1.67433 16.4604 1.70549C16.4936 1.73666 16.5348 1.75959 16.5842 1.77431C16.6335 1.78903 16.7015 1.80418 16.7883 1.81976C16.8955 1.84053 16.9814 1.86131 17.0461 1.88208C17.1107 1.90286 17.166 1.93835 17.212 1.98856C17.2579 2.03876 17.2809 2.10802 17.2809 2.19631C17.2809 2.31577 17.2319 2.41056 17.1341 2.48068C17.0363 2.55079 16.9006 2.58585 16.7271 2.58585ZM17.975 2.58585C17.8661 2.58585 17.7619 2.56984 17.6624 2.53781C17.5629 2.50578 17.485 2.46553 17.4289 2.41705L17.5105 2.27162C17.5667 2.31664 17.6373 2.35343 17.7224 2.38199C17.8074 2.41056 17.8959 2.42484 17.9878 2.42484C18.1103 2.42484 18.2009 2.40536 18.2596 2.36641C18.3183 2.32746 18.3476 2.27249 18.3476 2.20151C18.3476 2.1513 18.3315 2.11191 18.2991 2.08335C18.2668 2.05478 18.226 2.03314 18.1766 2.01842C18.1273 2.00371 18.0618 1.98942 17.9801 1.97557C17.8712 1.9548 17.7836 1.93359 17.7173 1.91195C17.6509 1.89031 17.5943 1.85352 17.5475 1.80158C17.5008 1.74964 17.4774 1.67779 17.4774 1.58603C17.4774 1.47177 17.5242 1.37828 17.6177 1.30556C17.7113 1.23285 17.8415 1.19649 18.0082 1.19649C18.095 1.19649 18.1817 1.20818 18.2685 1.23155C18.3553 1.25492 18.4267 1.28565 18.4829 1.32374L18.4038 1.47177C18.2932 1.39386 18.1613 1.35491 18.0082 1.35491C17.8925 1.35491 17.8053 1.37568 17.7466 1.41723C17.6879 1.45878 17.6586 1.51332 17.6586 1.58084C17.6586 1.63278 17.6751 1.67433 17.7083 1.70549C17.7415 1.73666 17.7828 1.75959 17.8321 1.77431C17.8814 1.78903 17.9495 1.80418 18.0363 1.81976C18.1434 1.84053 18.2294 1.86131 18.294 1.88208C18.3587 1.90286 18.414 1.93835 18.4599 1.98856C18.5058 2.03876 18.5288 2.10802 18.5288 2.19631C18.5288 2.31577 18.4799 2.41056 18.3821 2.48068C18.2842 2.55079 18.1486 2.58585 17.975 2.58585Z" fill="#34336C"/>
</svg>
