<svg width="19" height="3" viewBox="0 0 19 3" fill="none" xmlns="http://www.w3.org/2000/svg">
<path fill-rule="evenodd" clip-rule="evenodd" d="M1.44307 1.90666V2.07287H0.179811V0.255015H1.40479V0.421219H0.368662V1.06785H1.2925V1.23146H0.368662V1.90666H1.44307ZM3.52299 0.696493C3.69143 0.696493 3.8237 0.745834 3.91983 0.844518C4.01596 0.943202 4.06402 1.08863 4.06402 1.2808V2.07287H3.88283V1.29898C3.88283 1.15701 3.84923 1.04881 3.78202 0.974365C3.71482 0.899919 3.61997 0.862697 3.49747 0.862697C3.35796 0.862697 3.24822 0.906411 3.16826 0.993842C3.08829 1.08127 3.04831 1.20203 3.04831 1.35611V2.07287H2.86711V1.29898C2.86711 1.15701 2.83351 1.04881 2.76631 0.974365C2.6991 0.899919 2.6034 0.862697 2.4792 0.862697C2.34139 0.862697 2.23208 0.906411 2.15127 0.993842C2.07045 1.08127 2.03004 1.20203 2.03004 1.35611V2.07287H1.84885V0.706881H2.02239V0.956186C2.07003 0.873084 2.13638 0.809027 2.22145 0.764013C2.30652 0.719 2.40434 0.696493 2.51493 0.696493C2.62722 0.696493 2.72462 0.720731 2.80714 0.769207C2.88966 0.817683 2.95133 0.889531 2.99216 0.984752C3.0415 0.894725 3.11254 0.824176 3.20526 0.773103C3.29798 0.722029 3.40389 0.696493 3.52299 0.696493ZM5.02614 0.696493C5.20139 0.696493 5.33579 0.741073 5.42937 0.830235C5.52294 0.919397 5.56973 1.05141 5.56973 1.22627V2.07287H5.39619V1.85992C5.35536 1.9309 5.29539 1.9863 5.21627 2.02612C5.13716 2.06594 5.04316 2.08585 4.93427 2.08585C4.78455 2.08585 4.66546 2.04949 4.57698 1.97678C4.48851 1.90407 4.44428 1.80798 4.44428 1.68852C4.44428 1.57252 4.48554 1.47903 4.56805 1.40805C4.65057 1.33707 4.782 1.30158 4.96234 1.30158H5.38853V1.21848C5.38853 1.10075 5.35621 1.01115 5.29156 0.949694C5.2269 0.888233 5.13248 0.857503 5.00828 0.857503C4.92321 0.857503 4.84155 0.871786 4.76328 0.900352C4.68502 0.928918 4.61782 0.968305 4.56167 1.01851L4.48001 0.880875C4.54806 0.822011 4.62973 0.776565 4.725 0.744536C4.82028 0.712507 4.92066 0.696493 5.02614 0.696493ZM4.96234 1.94042C5.06442 1.94042 5.15204 1.91662 5.2252 1.86901C5.29836 1.8214 5.35281 1.75258 5.38853 1.66255V1.43922H4.96745C4.73776 1.43922 4.62292 1.52058 4.62292 1.68333C4.62292 1.76297 4.65269 1.82572 4.71224 1.8716C4.77179 1.91748 4.85516 1.94042 4.96234 1.94042ZM6.06227 0.706881H6.24347V2.07287H6.06227V0.706881ZM6.15415 0.408234C6.11672 0.408234 6.08524 0.395249 6.05972 0.36928C6.0342 0.343311 6.02144 0.312148 6.02144 0.275791C6.02144 0.241165 6.0342 0.210867 6.05972 0.184898C6.08524 0.158929 6.11672 0.145944 6.15415 0.145944C6.19158 0.145944 6.22305 0.158496 6.24857 0.1836C6.27409 0.208703 6.28685 0.238568 6.28685 0.273194C6.28685 0.311282 6.27409 0.343311 6.24857 0.36928C6.22305 0.395249 6.19158 0.408234 6.15415 0.408234ZM6.74877 0.145942H6.92997V2.07286H6.74877V0.145942ZM9.26254 1.58724H8.26724L8.05287 2.07287H7.85636L8.67302 0.255015H8.85931L9.67597 2.07287H9.47691L9.26254 1.58724ZM9.19363 1.43142L8.76489 0.454979L8.33615 1.43142H9.19363ZM11.1329 0.145942V2.07286H10.9594V1.80278C10.9049 1.89454 10.8331 1.96466 10.7437 2.01313C10.6544 2.06161 10.5536 2.08585 10.4413 2.08585C10.3154 2.08585 10.2014 2.05642 10.0994 1.99755C9.99727 1.93869 9.91731 1.85645 9.85946 1.75084C9.80161 1.64524 9.77269 1.52491 9.77269 1.38987C9.77269 1.25483 9.80161 1.13451 9.85946 1.0289C9.91731 0.923289 9.99727 0.841487 10.0994 0.783488C10.2014 0.72549 10.3154 0.696491 10.4413 0.696491C10.5502 0.696491 10.6485 0.719431 10.7361 0.76531C10.8237 0.811189 10.8956 0.878276 10.9517 0.966572V0.145942H11.1329ZM10.4566 1.92224C10.5502 1.92224 10.6349 1.90017 10.7106 1.85602C10.7863 1.81187 10.8458 1.74912 10.8892 1.66774C10.9326 1.58637 10.9543 1.49375 10.9543 1.38987C10.9543 1.286 10.9326 1.19337 10.8892 1.112C10.8458 1.03063 10.7863 0.967873 10.7106 0.923725C10.6349 0.879576 10.5502 0.857503 10.4566 0.857503C10.3614 0.857503 10.2759 0.879576 10.2002 0.923725C10.1244 0.967873 10.0649 1.03063 10.0215 1.112C9.97813 1.19337 9.95644 1.286 9.95644 1.38987C9.95644 1.49375 9.97813 1.58637 10.0215 1.66774C10.0649 1.74912 10.1244 1.81187 10.2002 1.85602C10.2759 1.90017 10.3614 1.92224 10.4566 1.92224ZM12.8632 0.145942V2.07286H12.6897V1.80278C12.6352 1.89454 12.5634 1.96466 12.474 2.01313C12.3847 2.06161 12.2839 2.08585 12.1716 2.08585C12.0457 2.08585 11.9317 2.05642 11.8296 1.99755C11.7276 1.93869 11.6476 1.85645 11.5897 1.75084C11.5319 1.64524 11.503 1.52491 11.503 1.38987C11.503 1.25483 11.5319 1.13451 11.5897 1.0289C11.6476 0.923289 11.7276 0.841487 11.8296 0.783488C11.9317 0.72549 12.0457 0.696491 12.1716 0.696491C12.2805 0.696491 12.3788 0.719431 12.4664 0.76531C12.554 0.811189 12.6259 0.878276 12.682 0.966572V0.145942H12.8632ZM12.1869 1.92224C12.2805 1.92224 12.3651 1.90017 12.4409 1.85602C12.5166 1.81187 12.5761 1.74912 12.6195 1.66774C12.6629 1.58637 12.6846 1.49375 12.6846 1.38987C12.6846 1.286 12.6629 1.19337 12.6195 1.112C12.5761 1.03063 12.5166 0.967873 12.4409 0.923725C12.3651 0.879576 12.2805 0.857503 12.1869 0.857503C12.0916 0.857503 12.0062 0.879576 11.9304 0.923725C11.8547 0.967873 11.7952 1.03063 11.7518 1.112C11.7084 1.19337 11.6867 1.286 11.6867 1.38987C11.6867 1.49375 11.7084 1.58637 11.7518 1.66774C11.7952 1.74912 11.8547 1.81187 11.9304 1.85602C12.0062 1.90017 12.0916 1.92224 12.1869 1.92224ZM13.5421 0.974365C13.5846 0.882606 13.648 0.813355 13.7322 0.76661C13.8164 0.719865 13.9206 0.696493 14.0448 0.696493V0.875681L14.0014 0.873084C13.8602 0.873084 13.7496 0.917232 13.6697 1.00553C13.5897 1.09382 13.5497 1.21761 13.5497 1.37689V2.07287H13.3685V0.706881H13.5421V0.974365ZM15.4946 1.44701H14.3717C14.3819 1.58897 14.4355 1.70367 14.5325 1.7911C14.6295 1.87853 14.752 1.92224 14.9 1.92224C14.9834 1.92224 15.0599 1.9071 15.1297 1.8768C15.1994 1.8465 15.2598 1.80192 15.3109 1.74306L15.413 1.86251C15.3534 1.93523 15.279 1.99063 15.1897 2.02872C15.1003 2.06681 15.0021 2.08585 14.8949 2.08585C14.7571 2.08585 14.635 2.05599 14.5287 1.99626C14.4223 1.93653 14.3394 1.85386 14.2799 1.74825C14.2203 1.64264 14.1905 1.52318 14.1905 1.38987C14.1905 1.25656 14.219 1.13711 14.276 1.0315C14.333 0.925888 14.4113 0.843653 14.5108 0.784789C14.6103 0.725925 14.7222 0.696493 14.8464 0.696493C14.9706 0.696493 15.082 0.725925 15.1807 0.784789C15.2794 0.843653 15.3568 0.925455 15.413 1.0302C15.4691 1.13494 15.4972 1.25483 15.4972 1.38987L15.4946 1.44701ZM14.8464 0.854906C14.7171 0.854906 14.6086 0.896889 14.521 0.980857C14.4334 1.06482 14.3836 1.17433 14.3717 1.30937H15.3236C15.3117 1.17433 15.262 1.06482 15.1743 0.980857C15.0867 0.896889 14.9774 0.854906 14.8464 0.854906ZM16.2271 2.08585C16.1182 2.08585 16.014 2.06984 15.9144 2.03781C15.8149 2.00578 15.7371 1.96553 15.6809 1.91705L15.7626 1.77162C15.8187 1.81664 15.8893 1.85343 15.9744 1.88199C16.0595 1.91056 16.148 1.92484 16.2398 1.92484C16.3623 1.92484 16.4529 1.90536 16.5116 1.86641C16.5703 1.82746 16.5997 1.77249 16.5997 1.7015C16.5997 1.6513 16.5835 1.61191 16.5512 1.58334C16.5189 1.55478 16.478 1.53314 16.4287 1.51842C16.3793 1.50371 16.3138 1.48942 16.2322 1.47557C16.1233 1.4548 16.0357 1.43359 15.9693 1.41195C15.903 1.39031 15.8464 1.35352 15.7996 1.30158C15.7528 1.24964 15.7294 1.17779 15.7294 1.08603C15.7294 0.971767 15.7762 0.878279 15.8698 0.805564C15.9634 0.73285 16.0935 0.696493 16.2602 0.696493C16.347 0.696493 16.4338 0.708179 16.5206 0.731552C16.6073 0.754924 16.6788 0.785654 16.7349 0.823743L16.6558 0.971768C16.5452 0.893859 16.4134 0.854906 16.2602 0.854906C16.1446 0.854906 16.0574 0.875681 15.9987 0.917232C15.94 0.958783 15.9106 1.01332 15.9106 1.08084C15.9106 1.13278 15.9272 1.17433 15.9604 1.20549C15.9936 1.23665 16.0348 1.25959 16.0842 1.27431C16.1335 1.28903 16.2015 1.30417 16.2883 1.31976C16.3955 1.34053 16.4814 1.36131 16.5461 1.38208C16.6107 1.40286 16.666 1.43835 16.712 1.48856C16.7579 1.53876 16.7809 1.60802 16.7809 1.69631C16.7809 1.81577 16.7319 1.91056 16.6341 1.98067C16.5363 2.05079 16.4006 2.08585 16.2271 2.08585ZM17.475 2.08585C17.3661 2.08585 17.2619 2.06984 17.1624 2.03781C17.0629 2.00578 16.985 1.96553 16.9289 1.91705L17.0105 1.77162C17.0667 1.81664 17.1373 1.85343 17.2224 1.88199C17.3074 1.91056 17.3959 1.92484 17.4878 1.92484C17.6103 1.92484 17.7009 1.90536 17.7596 1.86641C17.8183 1.82746 17.8476 1.77249 17.8476 1.7015C17.8476 1.6513 17.8315 1.61191 17.7991 1.58334C17.7668 1.55478 17.726 1.53314 17.6766 1.51842C17.6273 1.50371 17.5618 1.48942 17.4801 1.47557C17.3712 1.4548 17.2836 1.43359 17.2173 1.41195C17.1509 1.39031 17.0943 1.35352 17.0475 1.30158C17.0008 1.24964 16.9774 1.17779 16.9774 1.08603C16.9774 0.971767 17.0242 0.878279 17.1177 0.805564C17.2113 0.73285 17.3415 0.696493 17.5082 0.696493C17.595 0.696493 17.6817 0.708179 17.7685 0.731552C17.8553 0.754924 17.9267 0.785654 17.9829 0.823743L17.9038 0.971768C17.7932 0.893859 17.6613 0.854906 17.5082 0.854906C17.3925 0.854906 17.3053 0.875681 17.2466 0.917232C17.1879 0.958783 17.1586 1.01332 17.1586 1.08084C17.1586 1.13278 17.1752 1.17433 17.2083 1.20549C17.2415 1.23665 17.2828 1.25959 17.3321 1.27431C17.3814 1.28903 17.4495 1.30417 17.5363 1.31976C17.6435 1.34053 17.7294 1.36131 17.794 1.38208C17.8587 1.40286 17.914 1.43835 17.9599 1.48856C18.0058 1.53876 18.0288 1.60802 18.0288 1.69631C18.0288 1.81577 17.9799 1.91056 17.8821 1.98067C17.7842 2.05079 17.6486 2.08585 17.475 2.08585Z" fill="#34336C"/>
</svg>
