<svg width="20" height="3" viewBox="0 0 20 3" fill="none" xmlns="http://www.w3.org/2000/svg">
<path fill-rule="evenodd" clip-rule="evenodd" d="M1.93196 2.25842V2.42462H0.6687V0.60677H1.89368V0.772973H0.857551V1.41961H1.78139V1.58322H0.857551V2.25842H1.93196ZM3.02168 1.04825C3.19012 1.04825 3.3241 1.09802 3.42363 1.19757C3.52316 1.29712 3.57292 1.44211 3.57292 1.63256V2.42462H3.39173V1.65074C3.39173 1.50877 3.35685 1.40056 3.2871 1.32612C3.21734 1.25167 3.11781 1.21445 2.98851 1.21445C2.84389 1.21445 2.72947 1.25817 2.64526 1.3456C2.56104 1.43303 2.51893 1.55378 2.51893 1.70787V2.42462H2.33773V1.05864H2.51127V1.31054C2.56061 1.22744 2.62909 1.16295 2.71671 1.11707C2.80433 1.07119 2.90599 1.04825 3.02168 1.04825ZM4.77238 2.34152C4.73836 2.37268 4.69625 2.39649 4.64606 2.41293C4.59587 2.42938 4.54355 2.43761 4.48911 2.43761C4.36321 2.43761 4.26623 2.40298 4.19817 2.33373C4.13012 2.26448 4.09609 2.16666 4.09609 2.04027V1.21445H3.8562V1.05864H4.09609V0.759988H4.27729V1.05864H4.68562V1.21445H4.27729V2.02989C4.27729 2.11126 4.29728 2.17315 4.33726 2.21557C4.37724 2.25798 4.43466 2.27919 4.50952 2.27919C4.54695 2.27919 4.58311 2.27313 4.61799 2.26101C4.65286 2.24889 4.68306 2.23158 4.70858 2.20908L4.77238 2.34152ZM5.27514 1.32612C5.31767 1.23436 5.38105 1.16511 5.46527 1.11836C5.54948 1.07162 5.65369 1.04825 5.77789 1.04825V1.22744L5.73451 1.22484C5.59329 1.22484 5.4827 1.26899 5.40274 1.35728C5.32278 1.44558 5.28279 1.56936 5.28279 1.72864V2.42462H5.1016V1.05864H5.27514V1.32612ZM7.32953 1.05864L6.65835 2.58823C6.6039 2.71634 6.54095 2.80723 6.46949 2.8609C6.39804 2.91457 6.31212 2.94141 6.21174 2.94141C6.14709 2.94141 6.08669 2.93102 6.03054 2.91025C5.9744 2.88947 5.92591 2.85831 5.88508 2.81676L5.96929 2.67912C6.03735 2.74837 6.11901 2.783 6.21429 2.783C6.27554 2.783 6.32786 2.76568 6.37124 2.73106C6.41463 2.69643 6.45503 2.63757 6.49246 2.55447L6.55116 2.42202L5.95143 1.05864H6.14028L6.64559 2.21946L7.15089 1.05864H7.32953ZM8.94498 1.04825C9.07088 1.04825 9.18487 1.07725 9.28695 1.13524C9.38903 1.19324 9.469 1.27505 9.52684 1.38065C9.58469 1.48626 9.61361 1.60659 9.61361 1.74163C9.61361 1.8784 9.58469 1.99959 9.52684 2.1052C9.469 2.21081 9.38946 2.29261 9.28823 2.35061C9.187 2.40861 9.07258 2.4376 8.94498 2.4376C8.83609 2.4376 8.73784 2.41467 8.65022 2.36879C8.5626 2.32291 8.49071 2.25582 8.43457 2.16752V2.92842H8.25337V1.05864H8.42691V1.32872C8.48136 1.23869 8.55324 1.16944 8.64256 1.12096C8.73188 1.07249 8.83269 1.04825 8.94498 1.04825ZM8.93222 2.274C9.02579 2.274 9.11086 2.25192 9.18742 2.20778C9.26398 2.16363 9.32396 2.10087 9.36734 2.0195C9.41073 1.93813 9.43242 1.84551 9.43242 1.74163C9.43242 1.63775 9.41073 1.54556 9.36734 1.46505C9.32396 1.38455 9.26398 1.32179 9.18742 1.27678C9.11086 1.23176 9.02579 1.20926 8.93222 1.20926C8.83694 1.20926 8.75145 1.23176 8.67574 1.27678C8.60003 1.32179 8.54048 1.38455 8.49709 1.46505C8.45371 1.54556 8.43202 1.63775 8.43202 1.74163C8.43202 1.84551 8.45371 1.93813 8.49709 2.0195C8.54048 2.10087 8.60003 2.16363 8.67574 2.20778C8.75145 2.25192 8.83694 2.274 8.93222 2.274ZM10.4379 1.04825C10.6132 1.04825 10.7476 1.09283 10.8411 1.18199C10.9347 1.27115 10.9815 1.40316 10.9815 1.57802V2.42462H10.808V2.21167C10.7671 2.28266 10.7072 2.33806 10.6281 2.37788C10.5489 2.4177 10.4549 2.4376 10.3461 2.4376C10.1963 2.4376 10.0772 2.40125 9.98876 2.32853C9.90029 2.25582 9.85606 2.15973 9.85606 2.04027C9.85606 1.92428 9.89732 1.83079 9.97983 1.75981C10.0623 1.68882 10.1938 1.65333 10.3741 1.65333H10.8003V1.57023C10.8003 1.4525 10.768 1.36291 10.7033 1.30145C10.6387 1.23999 10.5443 1.20926 10.4201 1.20926C10.335 1.20926 10.2533 1.22354 10.1751 1.25211C10.0968 1.28067 10.0296 1.32006 9.97345 1.37027L9.89179 1.23263C9.95984 1.17377 10.0415 1.12832 10.1368 1.09629C10.2321 1.06426 10.3324 1.04825 10.4379 1.04825ZM10.3741 2.29218C10.4762 2.29218 10.5638 2.26837 10.637 2.22076C10.7101 2.17315 10.7646 2.10433 10.8003 2.01431V1.79097H10.3792C10.1495 1.79097 10.0347 1.87234 10.0347 2.03508C10.0347 2.11472 10.0645 2.17748 10.124 2.22336C10.1836 2.26924 10.2669 2.29218 10.3741 2.29218ZM11.8339 2.4376C11.725 2.4376 11.6208 2.42159 11.5213 2.38956C11.4217 2.35753 11.3439 2.31728 11.2878 2.2688L11.3694 2.12338C11.4256 2.16839 11.4962 2.20518 11.5812 2.23375C11.6663 2.26231 11.7548 2.2766 11.8467 2.2766C11.9692 2.2766 12.0597 2.25712 12.1184 2.21816C12.1771 2.17921 12.2065 2.12424 12.2065 2.05326C12.2065 2.00305 12.1903 1.96367 12.158 1.9351C12.1257 1.90653 12.0848 1.88489 12.0355 1.87018C11.9862 1.85546 11.9207 1.84118 11.839 1.82733C11.7301 1.80655 11.6425 1.78534 11.5761 1.7637C11.5098 1.74206 11.4532 1.70527 11.4064 1.65333C11.3596 1.60139 11.3362 1.52955 11.3362 1.43779C11.3362 1.32352 11.383 1.23003 11.4766 1.15732C11.5702 1.0846 11.7003 1.04825 11.8671 1.04825C11.9538 1.04825 12.0406 1.05993 12.1274 1.08331C12.2141 1.10668 12.2856 1.13741 12.3417 1.1755L12.2626 1.32352C12.152 1.24561 12.0202 1.20666 11.8671 1.20666C11.7514 1.20666 11.6642 1.22744 11.6055 1.26899C11.5468 1.31054 11.5174 1.36507 11.5174 1.43259C11.5174 1.48453 11.534 1.52608 11.5672 1.55725C11.6004 1.58841 11.6416 1.61135 11.691 1.62606C11.7403 1.64078 11.8084 1.65593 11.8951 1.67151C12.0023 1.69229 12.0882 1.71306 12.1529 1.73384C12.2176 1.75461 12.2728 1.7901 12.3188 1.84031C12.3647 1.89052 12.3877 1.95977 12.3877 2.04807C12.3877 2.16752 12.3388 2.26231 12.2409 2.33243C12.1431 2.40255 12.0074 2.4376 11.8339 2.4376ZM13.0818 2.4376C12.973 2.4376 12.8687 2.42159 12.7692 2.38956C12.6697 2.35753 12.5918 2.31728 12.5357 2.2688L12.6174 2.12338C12.6735 2.16839 12.7441 2.20518 12.8292 2.23375C12.9143 2.26231 13.0027 2.2766 13.0946 2.2766C13.2171 2.2766 13.3077 2.25712 13.3664 2.21816C13.4251 2.17921 13.4544 2.12424 13.4544 2.05326C13.4544 2.00305 13.4383 1.96367 13.406 1.9351C13.3736 1.90653 13.3328 1.88489 13.2835 1.87018C13.2341 1.85546 13.1686 1.84118 13.0869 1.82733C12.9781 1.80655 12.8904 1.78534 12.8241 1.7637C12.7577 1.74206 12.7012 1.70527 12.6544 1.65333C12.6076 1.60139 12.5842 1.52955 12.5842 1.43779C12.5842 1.32352 12.631 1.23003 12.7246 1.15732C12.8181 1.0846 12.9483 1.04825 13.115 1.04825C13.2018 1.04825 13.2886 1.05993 13.3753 1.08331C13.4621 1.10668 13.5336 1.13741 13.5897 1.1755L13.5106 1.32352C13.4 1.24561 13.2681 1.20666 13.115 1.20666C12.9993 1.20666 12.9121 1.22744 12.8534 1.26899C12.7947 1.31054 12.7654 1.36507 12.7654 1.43259C12.7654 1.48453 12.782 1.52608 12.8152 1.55725C12.8483 1.58841 12.8896 1.61135 12.9389 1.62606C12.9883 1.64078 13.0563 1.65593 13.1431 1.67151C13.2503 1.69229 13.3362 1.71306 13.4008 1.73384C13.4655 1.75461 13.5208 1.7901 13.5667 1.84031C13.6127 1.89052 13.6356 1.95977 13.6356 2.04807C13.6356 2.16752 13.5867 2.26231 13.4889 2.33243C13.3911 2.40255 13.2554 2.4376 13.0818 2.4376ZM15.8893 1.05864L15.3815 2.42462H15.2105L14.7869 1.30534L14.3632 2.42462H14.1922L13.6869 1.05864H13.8605L14.2816 2.21946L14.7129 1.05864H14.8685L15.2973 2.21946L15.7235 1.05864H15.8893ZM16.6345 2.4376C16.5052 2.4376 16.3887 2.40774 16.2849 2.34801C16.1811 2.28828 16.0995 2.20561 16.0399 2.1C15.9804 1.9944 15.9506 1.87494 15.9506 1.74163C15.9506 1.60832 15.9804 1.48886 16.0399 1.38325C16.0995 1.27764 16.1811 1.19541 16.2849 1.13654C16.3887 1.07768 16.5052 1.04825 16.6345 1.04825C16.7638 1.04825 16.8804 1.07768 16.9842 1.13654C17.088 1.19541 17.1692 1.27764 17.2279 1.38325C17.2866 1.48886 17.3159 1.60832 17.3159 1.74163C17.3159 1.87494 17.2866 1.9944 17.2279 2.1C17.1692 2.20561 17.088 2.28828 16.9842 2.34801C16.8804 2.40774 16.7638 2.4376 16.6345 2.4376ZM16.6345 2.274C16.7298 2.274 16.8153 2.25192 16.891 2.20778C16.9667 2.16363 17.0259 2.10087 17.0684 2.0195C17.1109 1.93813 17.1322 1.84551 17.1322 1.74163C17.1322 1.63775 17.1109 1.54513 17.0684 1.46376C17.0259 1.38239 16.9667 1.31963 16.891 1.27548C16.8153 1.23133 16.7298 1.20926 16.6345 1.20926C16.5393 1.20926 16.4538 1.23133 16.3781 1.27548C16.3024 1.31963 16.2428 1.38239 16.1994 1.46376C16.156 1.54513 16.1343 1.63775 16.1343 1.74163C16.1343 1.84551 16.156 1.93813 16.1994 2.0195C16.2428 2.10087 16.3024 2.16363 16.3781 2.20778C16.4538 2.25192 16.5393 2.274 16.6345 2.274ZM17.8595 1.32612C17.9021 1.23436 17.9654 1.16511 18.0497 1.11836C18.1339 1.07162 18.2381 1.04825 18.3623 1.04825V1.22744L18.3189 1.22484C18.1777 1.22484 18.0671 1.26899 17.9871 1.35728C17.9072 1.44558 17.8672 1.56936 17.8672 1.72864V2.42462H17.686V1.05864H17.8595V1.32612ZM19.868 0.497699V2.42462H19.6944V2.15454C19.64 2.2463 19.5681 2.31642 19.4788 2.36489C19.3895 2.41337 19.2887 2.43761 19.1764 2.43761C19.0505 2.43761 18.9365 2.40817 18.8344 2.34931C18.7323 2.29045 18.6524 2.20821 18.5945 2.1026C18.5367 1.99699 18.5077 1.87667 18.5077 1.74163C18.5077 1.60659 18.5367 1.48626 18.5945 1.38066C18.6524 1.27505 18.7323 1.19324 18.8344 1.13525C18.9365 1.07725 19.0505 1.04825 19.1764 1.04825C19.2853 1.04825 19.3835 1.07119 19.4711 1.11707C19.5588 1.16295 19.6306 1.23003 19.6868 1.31833V0.497699H19.868ZM19.1917 2.274C19.2853 2.274 19.3699 2.25192 19.4456 2.20778C19.5213 2.16363 19.5809 2.10087 19.6243 2.0195C19.6676 1.93813 19.6893 1.84551 19.6893 1.74163C19.6893 1.63775 19.6676 1.54513 19.6243 1.46376C19.5809 1.38239 19.5213 1.31963 19.4456 1.27548C19.3699 1.23133 19.2853 1.20926 19.1917 1.20926C19.0964 1.20926 19.0109 1.23133 18.9352 1.27548C18.8595 1.31963 18.8 1.38239 18.7566 1.46376C18.7132 1.54513 18.6915 1.63775 18.6915 1.74163C18.6915 1.84551 18.7132 1.93813 18.7566 2.0195C18.8 2.10087 18.8595 2.16363 18.9352 2.20778C19.0109 2.25192 19.0964 2.274 19.1917 2.274Z" fill="#34336C"/>
</svg>
