<svg width="20" height="4" viewBox="0 0 20 4" fill="none" xmlns="http://www.w3.org/2000/svg">
<path fill-rule="evenodd" clip-rule="evenodd" d="M1.43196 2.75842V2.92462H0.1687V1.10677H1.39368V1.27297H0.357551V1.91961H1.28139V2.08322H0.357551V2.75842H1.43196ZM2.52168 1.54825C2.69012 1.54825 2.8241 1.59802 2.92363 1.69757C3.02316 1.79712 3.07292 1.94211 3.07292 2.13256V2.92462H2.89173V2.15074C2.89173 2.00877 2.85685 1.90056 2.7871 1.82612C2.71734 1.75167 2.61781 1.71445 2.48851 1.71445C2.34389 1.71445 2.22947 1.75817 2.14526 1.8456C2.06104 1.93303 2.01893 2.05378 2.01893 2.20787V2.92462H1.83773V1.55864H2.01127V1.81054C2.06061 1.72744 2.12909 1.66295 2.21671 1.61707C2.30433 1.57119 2.40599 1.54825 2.52168 1.54825ZM4.27238 2.84152C4.23836 2.87268 4.19625 2.89649 4.14606 2.91293C4.09587 2.92938 4.04355 2.93761 3.98911 2.93761C3.86321 2.93761 3.76623 2.90298 3.69817 2.83373C3.63012 2.76448 3.59609 2.66666 3.59609 2.54027V1.71445H3.3562V1.55864H3.59609V1.25999H3.77729V1.55864H4.18562V1.71445H3.77729V2.52989C3.77729 2.61126 3.79728 2.67315 3.83726 2.71557C3.87724 2.75798 3.93466 2.77919 4.00952 2.77919C4.04695 2.77919 4.08311 2.77313 4.11799 2.76101C4.15286 2.74889 4.18306 2.73158 4.20858 2.70908L4.27238 2.84152ZM4.77514 1.82612C4.81767 1.73436 4.88105 1.66511 4.96527 1.61836C5.04948 1.57162 5.15369 1.54825 5.27789 1.54825V1.72744L5.23451 1.72484C5.09329 1.72484 4.9827 1.76899 4.90274 1.85728C4.82278 1.94558 4.78279 2.06936 4.78279 2.22864V2.92462H4.6016V1.55864H4.77514V1.82612ZM6.82953 1.55864L6.15835 3.08823C6.1039 3.21634 6.04095 3.30723 5.96949 3.3609C5.89804 3.41457 5.81212 3.44141 5.71174 3.44141C5.64709 3.44141 5.58669 3.43102 5.53054 3.41025C5.4744 3.38947 5.42591 3.35831 5.38508 3.31676L5.46929 3.17912C5.53735 3.24837 5.61901 3.283 5.71429 3.283C5.77554 3.283 5.82786 3.26568 5.87124 3.23106C5.91463 3.19643 5.95503 3.13757 5.99246 3.05447L6.05116 2.92202L5.45143 1.55864H5.64028L6.14559 2.71946L6.65089 1.55864H6.82953ZM8.44498 1.54825C8.57088 1.54825 8.68487 1.57725 8.78695 1.63524C8.88903 1.69324 8.969 1.77505 9.02684 1.88065C9.08469 1.98626 9.11361 2.10659 9.11361 2.24163C9.11361 2.3784 9.08469 2.49959 9.02684 2.6052C8.969 2.71081 8.88946 2.79261 8.78823 2.85061C8.687 2.90861 8.57258 2.9376 8.44498 2.9376C8.33609 2.9376 8.23784 2.91467 8.15022 2.86879C8.0626 2.82291 7.99071 2.75582 7.93457 2.66752V3.42842H7.75337V1.55864H7.92691V1.82872C7.98136 1.73869 8.05324 1.66944 8.14256 1.62096C8.23188 1.57249 8.33269 1.54825 8.44498 1.54825ZM8.43222 2.774C8.52579 2.774 8.61086 2.75192 8.68742 2.70778C8.76398 2.66363 8.82396 2.60087 8.86734 2.5195C8.91073 2.43813 8.93242 2.34551 8.93242 2.24163C8.93242 2.13775 8.91073 2.04556 8.86734 1.96505C8.82396 1.88455 8.76398 1.82179 8.68742 1.77678C8.61086 1.73176 8.52579 1.70926 8.43222 1.70926C8.33694 1.70926 8.25145 1.73176 8.17574 1.77678C8.10003 1.82179 8.04048 1.88455 7.99709 1.96505C7.95371 2.04556 7.93202 2.13775 7.93202 2.24163C7.93202 2.34551 7.95371 2.43813 7.99709 2.5195C8.04048 2.60087 8.10003 2.66363 8.17574 2.70778C8.25145 2.75192 8.33694 2.774 8.43222 2.774ZM9.93792 1.54825C10.1132 1.54825 10.2476 1.59283 10.3411 1.68199C10.4347 1.77115 10.4815 1.90316 10.4815 2.07802V2.92462H10.308V2.71167C10.2671 2.78266 10.2072 2.83806 10.1281 2.87788C10.0489 2.9177 9.95494 2.9376 9.84605 2.9376C9.69633 2.9376 9.57724 2.90125 9.48876 2.82853C9.40029 2.75582 9.35606 2.65973 9.35606 2.54027C9.35606 2.42428 9.39732 2.33079 9.47983 2.25981C9.56235 2.18882 9.69378 2.15333 9.87412 2.15333H10.3003V2.07023C10.3003 1.9525 10.268 1.86291 10.2033 1.80145C10.1387 1.73999 10.0443 1.70926 9.92006 1.70926C9.83499 1.70926 9.75333 1.72354 9.67506 1.75211C9.5968 1.78067 9.5296 1.82006 9.47345 1.87027L9.39179 1.73263C9.45984 1.67377 9.54151 1.62832 9.63678 1.59629C9.73206 1.56426 9.83244 1.54825 9.93792 1.54825ZM9.87412 2.79218C9.9762 2.79218 10.0638 2.76837 10.137 2.72076C10.2101 2.67315 10.2646 2.60433 10.3003 2.51431V2.29097H9.87923C9.64954 2.29097 9.5347 2.37234 9.5347 2.53508C9.5347 2.61472 9.56447 2.67748 9.62402 2.72336C9.68357 2.76924 9.76694 2.79218 9.87412 2.79218ZM11.3339 2.9376C11.225 2.9376 11.1208 2.92159 11.0213 2.88956C10.9217 2.85753 10.8439 2.81728 10.7878 2.7688L10.8694 2.62338C10.9256 2.66839 10.9962 2.70518 11.0812 2.73375C11.1663 2.76231 11.2548 2.7766 11.3467 2.7766C11.4692 2.7766 11.5597 2.75712 11.6184 2.71816C11.6771 2.67921 11.7065 2.62424 11.7065 2.55326C11.7065 2.50305 11.6903 2.46367 11.658 2.4351C11.6257 2.40653 11.5848 2.38489 11.5355 2.37018C11.4862 2.35546 11.4207 2.34118 11.339 2.32733C11.2301 2.30655 11.1425 2.28534 11.0761 2.2637C11.0098 2.24206 10.9532 2.20527 10.9064 2.15333C10.8596 2.10139 10.8362 2.02955 10.8362 1.93779C10.8362 1.82352 10.883 1.73003 10.9766 1.65732C11.0702 1.5846 11.2003 1.54825 11.3671 1.54825C11.4538 1.54825 11.5406 1.55993 11.6274 1.58331C11.7141 1.60668 11.7856 1.63741 11.8417 1.6755L11.7626 1.82352C11.652 1.74561 11.5202 1.70666 11.3671 1.70666C11.2514 1.70666 11.1642 1.72744 11.1055 1.76899C11.0468 1.81054 11.0174 1.86507 11.0174 1.93259C11.0174 1.98453 11.034 2.02608 11.0672 2.05725C11.1004 2.08841 11.1416 2.11135 11.191 2.12606C11.2403 2.14078 11.3084 2.15593 11.3951 2.17151C11.5023 2.19229 11.5882 2.21306 11.6529 2.23384C11.7176 2.25461 11.7728 2.2901 11.8188 2.34031C11.8647 2.39052 11.8877 2.45977 11.8877 2.54807C11.8877 2.66752 11.8388 2.76231 11.7409 2.83243C11.6431 2.90255 11.5074 2.9376 11.3339 2.9376ZM12.5818 2.9376C12.473 2.9376 12.3687 2.92159 12.2692 2.88956C12.1697 2.85753 12.0918 2.81728 12.0357 2.7688L12.1174 2.62338C12.1735 2.66839 12.2441 2.70518 12.3292 2.73375C12.4143 2.76231 12.5027 2.7766 12.5946 2.7766C12.7171 2.7766 12.8077 2.75712 12.8664 2.71816C12.9251 2.67921 12.9544 2.62424 12.9544 2.55326C12.9544 2.50305 12.9383 2.46367 12.906 2.4351C12.8736 2.40653 12.8328 2.38489 12.7835 2.37018C12.7341 2.35546 12.6686 2.34118 12.5869 2.32733C12.4781 2.30655 12.3904 2.28534 12.3241 2.2637C12.2577 2.24206 12.2012 2.20527 12.1544 2.15333C12.1076 2.10139 12.0842 2.02955 12.0842 1.93779C12.0842 1.82352 12.131 1.73003 12.2246 1.65732C12.3181 1.5846 12.4483 1.54825 12.615 1.54825C12.7018 1.54825 12.7886 1.55993 12.8753 1.58331C12.9621 1.60668 13.0336 1.63741 13.0897 1.6755L13.0106 1.82352C12.9 1.74561 12.7681 1.70666 12.615 1.70666C12.4993 1.70666 12.4121 1.72744 12.3534 1.76899C12.2947 1.81054 12.2654 1.86507 12.2654 1.93259C12.2654 1.98453 12.282 2.02608 12.3152 2.05725C12.3483 2.08841 12.3896 2.11135 12.4389 2.12606C12.4883 2.14078 12.5563 2.15593 12.6431 2.17151C12.7503 2.19229 12.8362 2.21306 12.9008 2.23384C12.9655 2.25461 13.0208 2.2901 13.0667 2.34031C13.1127 2.39052 13.1356 2.45977 13.1356 2.54807C13.1356 2.66752 13.0867 2.76231 12.9889 2.83243C12.8911 2.90255 12.7554 2.9376 12.5818 2.9376ZM15.3893 1.55864L14.8815 2.92462H14.7105L14.2869 1.80534L13.8632 2.92462H13.6922L13.1869 1.55864H13.3605L13.7816 2.71946L14.2129 1.55864H14.3685L14.7973 2.71946L15.2235 1.55864H15.3893ZM16.1345 2.9376C16.0052 2.9376 15.8887 2.90774 15.7849 2.84801C15.6811 2.78828 15.5995 2.70561 15.5399 2.6C15.4804 2.4944 15.4506 2.37494 15.4506 2.24163C15.4506 2.10832 15.4804 1.98886 15.5399 1.88325C15.5995 1.77764 15.6811 1.69541 15.7849 1.63654C15.8887 1.57768 16.0052 1.54825 16.1345 1.54825C16.2638 1.54825 16.3804 1.57768 16.4842 1.63654C16.588 1.69541 16.6692 1.77764 16.7279 1.88325C16.7866 1.98886 16.8159 2.10832 16.8159 2.24163C16.8159 2.37494 16.7866 2.4944 16.7279 2.6C16.6692 2.70561 16.588 2.78828 16.4842 2.84801C16.3804 2.90774 16.2638 2.9376 16.1345 2.9376ZM16.1345 2.774C16.2298 2.774 16.3153 2.75192 16.391 2.70778C16.4667 2.66363 16.5259 2.60087 16.5684 2.5195C16.6109 2.43813 16.6322 2.34551 16.6322 2.24163C16.6322 2.13775 16.6109 2.04513 16.5684 1.96376C16.5259 1.88239 16.4667 1.81963 16.391 1.77548C16.3153 1.73133 16.2298 1.70926 16.1345 1.70926C16.0393 1.70926 15.9538 1.73133 15.8781 1.77548C15.8024 1.81963 15.7428 1.88239 15.6994 1.96376C15.656 2.04513 15.6343 2.13775 15.6343 2.24163C15.6343 2.34551 15.656 2.43813 15.6994 2.5195C15.7428 2.60087 15.8024 2.66363 15.8781 2.70778C15.9538 2.75192 16.0393 2.774 16.1345 2.774ZM17.3595 1.82612C17.4021 1.73436 17.4654 1.66511 17.5497 1.61836C17.6339 1.57162 17.7381 1.54825 17.8623 1.54825V1.72744L17.8189 1.72484C17.6777 1.72484 17.5671 1.76899 17.4871 1.85728C17.4072 1.94558 17.3672 2.06936 17.3672 2.22864V2.92462H17.186V1.55864H17.3595V1.82612ZM19.368 0.997699V2.92462H19.1944V2.65454C19.14 2.7463 19.0681 2.81642 18.9788 2.86489C18.8895 2.91337 18.7887 2.93761 18.6764 2.93761C18.5505 2.93761 18.4365 2.90817 18.3344 2.84931C18.2323 2.79045 18.1524 2.70821 18.0945 2.6026C18.0367 2.49699 18.0077 2.37667 18.0077 2.24163C18.0077 2.10659 18.0367 1.98626 18.0945 1.88066C18.1524 1.77505 18.2323 1.69324 18.3344 1.63525C18.4365 1.57725 18.5505 1.54825 18.6764 1.54825C18.7853 1.54825 18.8835 1.57119 18.9711 1.61707C19.0588 1.66295 19.1306 1.73003 19.1868 1.81833V0.997699H19.368ZM18.6917 2.774C18.7853 2.774 18.8699 2.75192 18.9456 2.70778C19.0213 2.66363 19.0809 2.60087 19.1243 2.5195C19.1676 2.43813 19.1893 2.34551 19.1893 2.24163C19.1893 2.13775 19.1676 2.04513 19.1243 1.96376C19.0809 1.88239 19.0213 1.81963 18.9456 1.77548C18.8699 1.73133 18.7853 1.70926 18.6917 1.70926C18.5964 1.70926 18.5109 1.73133 18.4352 1.77548C18.3595 1.81963 18.3 1.88239 18.2566 1.96376C18.2132 2.04513 18.1915 2.13775 18.1915 2.24163C18.1915 2.34551 18.2132 2.43813 18.2566 2.5195C18.3 2.60087 18.3595 2.66363 18.4352 2.70778C18.5109 2.75192 18.5964 2.774 18.6917 2.774Z" fill="#34336C"/>
</svg>
