<svg width="32" height="32" viewBox="0 0 32 32" fill="none" xmlns="http://www.w3.org/2000/svg">
<path d="M17.16 29.3334C16.5161 29.3326 15.8984 29.0788 15.44 28.6267L6.89333 20.0667C6.67402 19.8486 6.53733 19.5611 6.50667 19.2534L5.33333 6.7867C5.31537 6.59141 5.34071 6.39456 5.40755 6.21018C5.47438 6.02581 5.58107 5.85845 5.72 5.72003C5.85842 5.5811 6.02578 5.47441 6.21015 5.40758C6.39453 5.34074 6.59138 5.3154 6.78667 5.33336L19.2533 6.5067C19.5611 6.53736 19.8486 6.67405 20.0667 6.89336L28.6267 15.44C29.0802 15.8949 29.3348 16.511 29.3348 17.1534C29.3348 17.7957 29.0802 18.4118 28.6267 18.8667L18.8667 28.6267C18.4132 29.078 17.7998 29.332 17.16 29.3334ZM9.16 18.52L17.16 26.52L26.56 17.12L18.56 9.12003L8.14667 8.1467L9.16 18.52Z" fill="white"/>
<path d="M14 16C15.1046 16 16 15.1046 16 14C16 12.8954 15.1046 12 14 12C12.8954 12 12 12.8954 12 14C12 15.1046 12.8954 16 14 16Z" fill="white"/>
</svg>
