<svg width="32" height="32" viewBox="0 0 32 32" fill="none" xmlns="http://www.w3.org/2000/svg">
<path d="M17.1599 29.3334C16.5161 29.3326 15.8983 29.0788 15.4399 28.6267L6.89324 20.0667C6.67392 19.8486 6.53723 19.5611 6.50657 19.2534L5.33324 6.7867C5.31528 6.59141 5.34062 6.39456 5.40746 6.21018C5.47429 6.02581 5.58098 5.85845 5.71991 5.72003C5.85832 5.5811 6.02569 5.47441 6.21006 5.40758C6.39444 5.34074 6.59128 5.3154 6.78657 5.33336L19.2532 6.5067C19.561 6.53736 19.8485 6.67405 20.0666 6.89336L28.6266 15.44C29.0801 15.8949 29.3348 16.511 29.3348 17.1534C29.3348 17.7957 29.0801 18.4118 28.6266 18.8667L18.8666 28.6267C18.4131 29.078 17.7997 29.332 17.1599 29.3334V29.3334ZM9.15991 18.52L17.1599 26.52L26.5599 17.12L18.5599 9.12003L8.14657 8.1467L9.15991 18.52Z" fill="white"/>
<path d="M14 16C15.1046 16 16 15.1046 16 14C16 12.8954 15.1046 12 14 12C12.8954 12 12 12.8954 12 14C12 15.1046 12.8954 16 14 16Z" fill="white"/>
</svg>
