<svg width="32" height="32" viewBox="0 0 32 32" fill="none" xmlns="http://www.w3.org/2000/svg">
<path d="M17.16 29.3334C16.5162 29.3326 15.8984 29.0788 15.44 28.6267L6.89336 20.0667C6.67405 19.8486 6.53736 19.5611 6.5067 19.2534L5.33336 6.7867C5.3154 6.59141 5.34074 6.39456 5.40758 6.21018C5.47441 6.02581 5.5811 5.85845 5.72003 5.72003C5.85845 5.5811 6.02581 5.47441 6.21018 5.40758C6.39456 5.34074 6.59141 5.3154 6.7867 5.33336L19.2534 6.5067C19.5611 6.53736 19.8486 6.67405 20.0667 6.89336L28.6267 15.44C29.0802 15.8949 29.3349 16.511 29.3349 17.1534C29.3349 17.7957 29.0802 18.4118 28.6267 18.8667L18.8667 28.6267C18.4132 29.078 17.7998 29.332 17.16 29.3334V29.3334ZM9.16003 18.52L17.16 26.52L26.56 17.12L18.56 9.12003L8.1467 8.1467L9.16003 18.52Z" fill="white"/>
<path d="M14 16C15.1046 16 16 15.1046 16 14C16 12.8954 15.1046 12 14 12C12.8954 12 12 12.8954 12 14C12 15.1046 12.8954 16 14 16Z" fill="white"/>
</svg>
