<svg width="33" height="32" viewBox="0 0 33 32" fill="none" xmlns="http://www.w3.org/2000/svg">
<path d="M17.66 29.3334C17.0161 29.3326 16.3984 29.0788 15.94 28.6267L7.39333 20.0667C7.17402 19.8486 7.03733 19.5611 7.00667 19.2534L5.83333 6.7867C5.81537 6.59141 5.84071 6.39456 5.90755 6.21018C5.97438 6.02581 6.08107 5.85845 6.22 5.72003C6.35842 5.5811 6.52578 5.47441 6.71015 5.40758C6.89453 5.34074 7.09138 5.3154 7.28667 5.33336L19.7533 6.5067C20.0611 6.53736 20.3486 6.67405 20.5667 6.89336L29.1267 15.44C29.5802 15.8949 29.8348 16.511 29.8348 17.1534C29.8348 17.7957 29.5802 18.4118 29.1267 18.8667L19.3667 28.6267C18.9132 29.078 18.2998 29.332 17.66 29.3334V29.3334ZM9.66 18.52L17.66 26.52L27.06 17.12L19.06 9.12003L8.64667 8.1467L9.66 18.52Z" fill="white"/>
<path d="M14.5 16C15.6046 16 16.5 15.1046 16.5 14C16.5 12.8954 15.6046 12 14.5 12C13.3954 12 12.5 12.8954 12.5 14C12.5 15.1046 13.3954 16 14.5 16Z" fill="white"/>
</svg>
