<svg width="33" height="32" viewBox="0 0 33 32" fill="none" xmlns="http://www.w3.org/2000/svg">
<path d="M17.66 29.3334C17.0162 29.3326 16.3984 29.0788 15.94 28.6267L7.39336 20.0667C7.17405 19.8486 7.03736 19.5611 7.0067 19.2534L5.83336 6.7867C5.8154 6.59141 5.84074 6.39456 5.90758 6.21018C5.97441 6.02581 6.0811 5.85845 6.22003 5.72003C6.35845 5.5811 6.52581 5.47441 6.71018 5.40758C6.89456 5.34074 7.09141 5.3154 7.2867 5.33336L19.7534 6.5067C20.0611 6.53736 20.3486 6.67405 20.5667 6.89336L29.1267 15.44C29.5802 15.8949 29.8349 16.511 29.8349 17.1534C29.8349 17.7957 29.5802 18.4118 29.1267 18.8667L19.3667 28.6267C18.9132 29.078 18.2998 29.332 17.66 29.3334ZM9.66003 18.52L17.66 26.52L27.06 17.12L19.06 9.12003L8.6467 8.1467L9.66003 18.52Z" fill="white"/>
<path d="M14.5 16C15.6046 16 16.5 15.1046 16.5 14C16.5 12.8954 15.6046 12 14.5 12C13.3954 12 12.5 12.8954 12.5 14C12.5 15.1046 13.3954 16 14.5 16Z" fill="white"/>
</svg>
