<svg width="32" height="32" viewBox="0 0 32 32" fill="none" xmlns="http://www.w3.org/2000/svg">
<path d="M17.16 29.3332C16.5161 29.3325 15.8984 29.0787 15.44 28.6266L6.89333 20.0666C6.67402 19.8485 6.53733 19.561 6.50667 19.2532L5.33333 6.78657C5.31537 6.59128 5.34071 6.39444 5.40755 6.21006C5.47438 6.02569 5.58107 5.85832 5.72 5.71991C5.85842 5.58098 6.02578 5.47429 6.21015 5.40746C6.39453 5.34062 6.59138 5.31528 6.78667 5.33324L19.2533 6.50657C19.5611 6.53723 19.8486 6.67392 20.0667 6.89324L28.6267 15.4399C29.0802 15.8948 29.3348 16.5109 29.3348 17.1532C29.3348 17.7956 29.0802 18.4117 28.6267 18.8666L18.8667 28.6266C18.4132 29.0779 17.7998 29.3319 17.16 29.3332ZM9.16 18.5199L17.16 26.5199L26.56 17.1199L18.56 9.11991L8.14667 8.14657L9.16 18.5199Z" fill="white"/>
<path d="M14 16C15.1046 16 16 15.1046 16 14C16 12.8954 15.1046 12 14 12C12.8954 12 12 12.8954 12 14C12 15.1046 12.8954 16 14 16Z" fill="white"/>
</svg>
