<svg width="33" height="32" viewBox="0 0 33 32" fill="none" xmlns="http://www.w3.org/2000/svg">
<path d="M17.66 29.3332C17.0162 29.3325 16.3984 29.0787 15.94 28.6266L7.39336 20.0666C7.17405 19.8485 7.03736 19.561 7.0067 19.2532L5.83336 6.78657C5.8154 6.59128 5.84074 6.39444 5.90758 6.21006C5.97441 6.02569 6.0811 5.85832 6.22003 5.71991C6.35845 5.58098 6.52581 5.47429 6.71018 5.40746C6.89456 5.34062 7.09141 5.31528 7.2867 5.33324L19.7534 6.50657C20.0611 6.53723 20.3486 6.67392 20.5667 6.89324L29.1267 15.4399C29.5802 15.8948 29.8349 16.5109 29.8349 17.1532C29.8349 17.7956 29.5802 18.4117 29.1267 18.8666L19.3667 28.6266C18.9132 29.0779 18.2998 29.3319 17.66 29.3332V29.3332ZM9.66003 18.5199L17.66 26.5199L27.06 17.1199L19.06 9.11991L8.6467 8.14657L9.66003 18.5199Z" fill="white"/>
<path d="M14.5 16C15.6046 16 16.5 15.1046 16.5 14C16.5 12.8954 15.6046 12 14.5 12C13.3954 12 12.5 12.8954 12.5 14C12.5 15.1046 13.3954 16 14.5 16Z" fill="white"/>
</svg>
