<svg width="32" height="32" viewBox="0 0 32 32" fill="none" xmlns="http://www.w3.org/2000/svg">
<path d="M4.40001 7.19995C4.08175 7.19995 3.77653 7.32638 3.55148 7.55142C3.32644 7.77647 3.20001 8.08169 3.20001 8.39995C3.20001 8.71821 3.32644 9.02344 3.55148 9.24848C3.77653 9.47352 4.08175 9.59995 4.40001 9.59995H27.6C27.9183 9.59995 28.2235 9.47352 28.4485 9.24848C28.6736 9.02344 28.8 8.71821 28.8 8.39995C28.8 8.08169 28.6736 7.77647 28.4485 7.55142C28.2235 7.32638 27.9183 7.19995 27.6 7.19995H4.40001ZM4.40001 12C4.08175 12 3.77653 12.1264 3.55148 12.3514C3.32644 12.5765 3.20001 12.8817 3.20001 13.2C3.20001 13.5182 3.32644 13.8234 3.55148 14.0485C3.77653 14.2735 4.08175 14.4 4.40001 14.4H27.6C27.9183 14.4 28.2235 14.2735 28.4485 14.0485C28.6736 13.8234 28.8 13.5182 28.8 13.2C28.8 12.8817 28.6736 12.5765 28.4485 12.3514C28.2235 12.1264 27.9183 12 27.6 12H4.40001ZM3.20001 18C3.20001 17.6817 3.32644 17.3765 3.55148 17.1514C3.77653 16.9264 4.08175 16.8 4.40001 16.8H27.6C27.9183 16.8 28.2235 16.9264 28.4485 17.1514C28.6736 17.3765 28.8 17.6817 28.8 18C28.8 18.3182 28.6736 18.6234 28.4485 18.8485C28.2235 19.0735 27.9183 19.2 27.6 19.2H4.40001C4.08175 19.2 3.77653 19.0735 3.55148 18.8485C3.32644 18.6234 3.20001 18.3182 3.20001 18ZM4.40001 21.6C4.08175 21.6 3.77653 21.7264 3.55148 21.9514C3.32644 22.1765 3.20001 22.4817 3.20001 22.8C3.20001 23.1182 3.32644 23.4234 3.55148 23.6485C3.77653 23.8735 4.08175 24 4.40001 24H19.6C19.9183 24 20.2235 23.8735 20.4485 23.6485C20.6736 23.4234 20.8 23.1182 20.8 22.8C20.8 22.4817 20.6736 22.1765 20.4485 21.9514C20.2235 21.7264 19.9183 21.6 19.6 21.6H4.40001Z" fill="#272C34"/>
</svg>
