<svg width="32" height="32" viewBox="0 0 32 32" fill="none" xmlns="http://www.w3.org/2000/svg">
<path d="M19.1648 7.99998H22.4C23.2487 7.99998 24.0626 8.33712 24.6627 8.93723C25.2629 9.53735 25.6 10.3513 25.6 11.2V17.6H20C19.7878 17.6 19.5843 17.6843 19.4343 17.8343C19.2843 17.9843 19.2 18.1878 19.2 18.4V18.4176L19.1936 18.5136C19.1571 19.0446 19.018 19.5635 18.784 20.0416C18.5824 20.448 18.2912 20.8288 17.8688 21.1088C17.4528 21.3872 16.8608 21.6 16 21.6C15.1408 21.6 14.5488 21.3872 14.1312 21.1088C13.7088 20.8288 13.4176 20.448 13.216 20.0416C13.0944 19.7984 13.008 19.5536 12.9456 19.3248C12.8667 19.0286 12.8185 18.7252 12.8016 18.4192L12.8 18.3984C12.7996 18.1865 12.7151 17.9834 12.5651 17.8337C12.4151 17.684 12.2119 17.6 12 17.6H6.4V16.64C5.83005 16.3487 5.29355 15.9963 4.8 15.5888V24C4.8 25.273 5.30571 26.4939 6.20588 27.3941C7.10606 28.2943 8.32696 28.8 9.6 28.8H22.4C23.673 28.8 24.8939 28.2943 25.7941 27.3941C26.6943 26.4939 27.2 25.273 27.2 24V11.2C27.2 9.92694 26.6943 8.70604 25.7941 7.80586C24.8939 6.90569 23.673 6.39998 22.4 6.39998H18.8688C19.0168 6.92299 19.1159 7.45862 19.1648 7.99998V7.99998ZM20.72 19.2H25.6V24C25.6 24.8487 25.2629 25.6626 24.6627 26.2627C24.0626 26.8628 23.2487 27.2 22.4 27.2H9.6C8.7513 27.2 7.93737 26.8628 7.33726 26.2627C6.73714 25.6626 6.4 24.8487 6.4 24V19.2H11.28C11.3721 19.741 11.5419 20.2659 11.784 20.7584C12.1147 21.4371 12.6179 22.017 13.2432 22.44C13.952 22.912 14.8592 23.2 16 23.2C17.1392 23.2 18.048 22.912 18.7568 22.44C19.3821 22.017 19.8853 21.4371 20.216 20.7584C20.4581 20.2659 20.6279 19.741 20.72 19.2V19.2ZM10.4 16C8.49044 16 6.65909 15.2414 5.30883 13.8911C3.95857 12.5409 3.2 10.7095 3.2 8.79998C3.2 6.89042 3.95857 5.05907 5.30883 3.70881C6.65909 2.35854 8.49044 1.59998 10.4 1.59998C12.3096 1.59998 14.1409 2.35854 15.4912 3.70881C16.8414 5.05907 17.6 6.89042 17.6 8.79998C17.6 10.7095 16.8414 12.5409 15.4912 13.8911C14.1409 15.2414 12.3096 16 10.4 16V16ZM14.1664 9.36638C14.3166 9.21616 14.401 9.01242 14.401 8.79998C14.401 8.58753 14.3166 8.38379 14.1664 8.23358C14.0162 8.08336 13.8124 7.99896 13.6 7.99896C13.3876 7.99896 13.1838 8.08336 13.0336 8.23358L11.2 10.0688V5.59998C11.2 5.3878 11.1157 5.18432 10.9657 5.03429C10.8157 4.88426 10.6122 4.79998 10.4 4.79998C10.1878 4.79998 9.98434 4.88426 9.83431 5.03429C9.68428 5.18432 9.6 5.3878 9.6 5.59998V10.0688L7.7664 8.23358C7.61618 8.08336 7.41244 7.99896 7.2 7.99896C6.98756 7.99896 6.78382 8.08336 6.6336 8.23358C6.48338 8.38379 6.39899 8.58753 6.39899 8.79998C6.39899 9.01242 6.48338 9.21616 6.6336 9.36638L9.8336 12.5664C9.98264 12.7153 10.1845 12.7993 10.3952 12.8H10.4048C10.6134 12.799 10.8133 12.7163 10.9616 12.5696L10.9664 12.5648L14.1664 9.36478V9.36638Z" fill="white"/>
</svg>
