<svg width="33" height="32" viewBox="0 0 33 32" fill="none" xmlns="http://www.w3.org/2000/svg">
<path d="M19.6648 7.99998H22.9C23.7487 7.99998 24.5626 8.33712 25.1628 8.93723C25.7629 9.53735 26.1 10.3513 26.1 11.2V17.6H20.5C20.2878 17.6 20.0844 17.6843 19.9343 17.8343C19.7843 17.9843 19.7 18.1878 19.7 18.4V18.4176L19.6936 18.5136C19.6571 19.0446 19.518 19.5635 19.284 20.0416C19.0824 20.448 18.7912 20.8288 18.3688 21.1088C17.9528 21.3872 17.3608 21.6 16.5 21.6C15.6408 21.6 15.0488 21.3872 14.6312 21.1088C14.2088 20.8288 13.9176 20.448 13.716 20.0416C13.5944 19.7984 13.508 19.5536 13.4456 19.3248C13.3667 19.0286 13.3185 18.7252 13.3016 18.4192L13.3 18.3984C13.2996 18.1865 13.2151 17.9834 13.0651 17.8337C12.9151 17.684 12.7119 17.6 12.5 17.6H6.90001V16.64C6.33007 16.3487 5.79357 15.9963 5.30001 15.5888V24C5.30001 25.273 5.80572 26.4939 6.7059 27.3941C7.60607 28.2943 8.82697 28.8 10.1 28.8H22.9C24.1731 28.8 25.3939 28.2943 26.2941 27.3941C27.1943 26.4939 27.7 25.273 27.7 24V11.2C27.7 9.92694 27.1943 8.70604 26.2941 7.80586C25.3939 6.90569 24.1731 6.39998 22.9 6.39998H19.3688C19.5168 6.92299 19.6159 7.45862 19.6648 7.99998ZM21.22 19.2H26.1V24C26.1 24.8487 25.7629 25.6626 25.1628 26.2627C24.5626 26.8628 23.7487 27.2 22.9 27.2H10.1C9.25132 27.2 8.43739 26.8628 7.83727 26.2627C7.23715 25.6626 6.90001 24.8487 6.90001 24V19.2H11.78C11.8721 19.741 12.0419 20.2659 12.284 20.7584C12.6147 21.4371 13.1179 22.017 13.7432 22.44C14.452 22.912 15.3592 23.2 16.5 23.2C17.6392 23.2 18.548 22.912 19.2568 22.44C19.8821 22.017 20.3853 21.4371 20.716 20.7584C20.9581 20.2659 21.1279 19.741 21.22 19.2ZM10.9 16C8.99045 16 7.15911 15.2414 5.80884 13.8911C4.45858 12.5409 3.70001 10.7095 3.70001 8.79998C3.70001 6.89042 4.45858 5.05907 5.80884 3.70881C7.15911 2.35854 8.99045 1.59998 10.9 1.59998C12.8096 1.59998 14.6409 2.35854 15.9912 3.70881C17.3414 5.05907 18.1 6.89042 18.1 8.79998C18.1 10.7095 17.3414 12.5409 15.9912 13.8911C14.6409 15.2414 12.8096 16 10.9 16ZM14.6664 9.36638C14.8166 9.21616 14.901 9.01242 14.901 8.79998C14.901 8.58753 14.8166 8.38379 14.6664 8.23358C14.5162 8.08336 14.3125 7.99896 14.1 7.99896C13.8876 7.99896 13.6838 8.08336 13.5336 8.23358L11.7 10.0688V5.59998C11.7 5.3878 11.6157 5.18432 11.4657 5.03429C11.3157 4.88426 11.1122 4.79998 10.9 4.79998C10.6878 4.79998 10.4844 4.88426 10.3343 5.03429C10.1843 5.18432 10.1 5.3878 10.1 5.59998V10.0688L8.26641 8.23358C8.11619 8.08336 7.91245 7.99896 7.70001 7.99896C7.48757 7.99896 7.28383 8.08336 7.13361 8.23358C6.98339 8.38379 6.899 8.58753 6.899 8.79998C6.899 9.01242 6.98339 9.21616 7.13361 9.36638L10.3336 12.5664C10.4827 12.7153 10.6845 12.7993 10.8952 12.8H10.9048C11.1134 12.799 11.3133 12.7163 11.4616 12.5696L11.4664 12.5648L14.6664 9.36478V9.36638Z" fill="white"/>
</svg>
