<svg width="32" height="32" viewBox="0 0 32 32" fill="none" xmlns="http://www.w3.org/2000/svg">
<g clip-path="url(#clip0_737_1431)">
<path d="M228 100C228 103.183 226.736 106.235 224.485 108.485C222.235 110.736 219.183 112 216 112C212.817 112 209.765 110.736 207.515 108.485C205.264 106.235 204 103.183 204 100V69L152.5 120.5C151.383 121.613 150.057 122.496 148.598 123.096C147.14 123.697 145.577 124.004 144 124C142.419 124.027 140.85 123.73 139.389 123.128C137.927 122.526 136.604 121.632 135.5 120.5C134.381 119.385 133.494 118.06 132.888 116.602C132.282 115.143 131.971 113.579 131.971 112C131.971 110.421 132.282 108.857 132.888 107.398C133.494 105.94 134.381 104.615 135.5 103.5L187 52H156C152.817 52 149.765 50.7357 147.515 48.4853C145.264 46.2348 144 43.1826 144 40C144 36.8174 145.264 33.7652 147.515 31.5147C149.765 29.2643 152.817 28 156 28H216C219.183 28 222.235 29.2643 224.485 31.5147C226.736 33.7652 228 36.8174 228 40V100ZM184 132C180.817 132 177.765 133.264 175.515 135.515C173.264 137.765 172 140.817 172 144V204H52V84H112C115.183 84 118.235 82.7357 120.485 80.4853C122.736 78.2348 124 75.1826 124 72C124 68.8174 122.736 65.7652 120.485 63.5147C118.235 61.2643 115.183 60 112 60H48C42.7038 60.0263 37.632 62.1419 33.8869 65.8869C30.1419 69.632 28.0263 74.7038 28 80V208C28.0263 213.296 30.1419 218.368 33.8869 222.113C37.632 225.858 42.7038 227.974 48 228H176C181.296 227.974 186.368 225.858 190.113 222.113C193.858 218.368 195.974 213.296 196 208V144C196 140.817 194.736 137.765 192.485 135.515C190.235 133.264 187.183 132 184 132Z" fill="black"/>
<path d="M28.8 8.79998C28.8 10.7095 28.0414 12.5409 26.6912 13.8911C25.3409 15.2414 23.5096 16 21.6 16C19.6904 16 17.8591 15.2414 16.5088 13.8911C15.1586 12.5409 14.4 10.7095 14.4 8.79998C14.4 6.89042 15.1586 5.05907 16.5088 3.70881C17.8591 2.35854 19.6904 1.59998 21.6 1.59998C23.5096 1.59998 25.3409 2.35854 26.6912 3.70881C28.0414 5.05907 28.8 6.89042 28.8 8.79998V8.79998ZM22.1664 5.03518L22.1616 5.03038C22.0133 4.88365 21.8134 4.80093 21.6048 4.79998H21.5952C21.385 4.80094 21.1838 4.8849 21.0352 5.03358L17.8352 8.23358C17.7608 8.30785 17.7018 8.39605 17.6615 8.49314C17.6212 8.59022 17.6004 8.69429 17.6004 8.79941C17.6002 9.0117 17.6844 9.21536 17.8344 9.36558C17.9844 9.51579 18.1879 9.60027 18.4002 9.60042C18.6125 9.60057 18.8162 9.51638 18.9664 9.36638L20.8 7.53118V12C20.8 12.2121 20.8843 12.4156 21.0343 12.5657C21.1843 12.7157 21.3878 12.8 21.6 12.8C21.8122 12.8 22.0157 12.7157 22.1657 12.5657C22.3157 12.4156 22.4 12.2121 22.4 12V7.53118L24.2336 9.36638C24.308 9.44065 24.3963 9.49955 24.4934 9.53971C24.5906 9.57986 24.6947 9.60049 24.7998 9.60042C24.9049 9.60035 25.009 9.57957 25.106 9.53927C25.2031 9.49898 25.2913 9.43996 25.3656 9.36558C25.4399 9.29119 25.4988 9.20291 25.5389 9.10577C25.5791 9.00863 25.5997 8.90453 25.5996 8.79941C25.5996 8.69429 25.5788 8.59022 25.5385 8.49314C25.4982 8.39605 25.4392 8.30785 25.3648 8.23358L22.1648 5.03358L22.1664 5.03518ZM12.8352 7.99998H9.6C8.75131 7.99998 7.93738 8.33712 7.33726 8.93723C6.73714 9.53735 6.4 10.3513 6.4 11.2V17.6H12C12.2122 17.6 12.4157 17.6843 12.5657 17.8343C12.7157 17.9843 12.8 18.1878 12.8 18.4V18.4176L12.8064 18.5136C12.8429 19.0446 12.982 19.5635 13.216 20.0416C13.4176 20.448 13.7088 20.8288 14.1312 21.1088C14.5472 21.3872 15.1392 21.6 16 21.6C16.8592 21.6 17.4512 21.3872 17.8688 21.1088C18.2912 20.8288 18.5824 20.448 18.784 20.0416C18.9056 19.7984 18.992 19.5536 19.0544 19.3248C19.1333 19.0286 19.1815 18.7252 19.1984 18.4192L19.2 18.3984C19.2004 18.1865 19.2849 17.9834 19.4349 17.8337C19.5849 17.684 19.7881 17.6 20 17.6H25.6V16.64C26.1699 16.3487 26.7064 15.9963 27.2 15.5888V24C27.2 25.273 26.6943 26.4939 25.7941 27.3941C24.8939 28.2943 23.673 28.8 22.4 28.8H9.6C8.32696 28.8 7.10607 28.2943 6.20589 27.3941C5.30572 26.4939 4.8 25.273 4.8 24V11.2C4.8 9.92694 5.30572 8.70604 6.20589 7.80586C7.10607 6.90569 8.32696 6.39998 9.6 6.39998H13.1312C12.9832 6.92299 12.8841 7.45862 12.8352 7.99998V7.99998ZM11.28 19.2H6.4V24C6.4 24.8487 6.73714 25.6626 7.33726 26.2627C7.93738 26.8628 8.75131 27.2 9.6 27.2H22.4C23.2487 27.2 24.0626 26.8628 24.6627 26.2627C25.2629 25.6626 25.6 24.8487 25.6 24V19.2H20.72C20.6279 19.741 20.4581 20.2659 20.216 20.7584C19.8853 21.4371 19.3821 22.017 18.7568 22.44C18.048 22.912 17.1408 23.2 16 23.2C14.8608 23.2 13.952 22.912 13.2432 22.44C12.6179 22.017 12.1147 21.4371 11.784 20.7584C11.5419 20.2659 11.3721 19.741 11.28 19.2V19.2Z" fill="white"/>
</g>
<defs>
<clipPath id="clip0_737_1431">
<rect width="32" height="32" fill="white"/>
</clipPath>
</defs>
</svg>
