<svg width="32" height="32" viewBox="0 0 32 32" fill="none" xmlns="http://www.w3.org/2000/svg">
<path d="M4.39995 7.19995C4.08169 7.19995 3.77647 7.32638 3.55142 7.55142C3.32638 7.77647 3.19995 8.08169 3.19995 8.39995C3.19995 8.71821 3.32638 9.02344 3.55142 9.24848C3.77647 9.47352 4.08169 9.59995 4.39995 9.59995H27.6C27.9182 9.59995 28.2234 9.47352 28.4485 9.24848C28.6735 9.02344 28.8 8.71821 28.8 8.39995C28.8 8.08169 28.6735 7.77647 28.4485 7.55142C28.2234 7.32638 27.9182 7.19995 27.6 7.19995H4.39995ZM4.39995 12C4.08169 12 3.77647 12.1264 3.55142 12.3514C3.32638 12.5765 3.19995 12.8817 3.19995 13.2C3.19995 13.5182 3.32638 13.8234 3.55142 14.0485C3.77647 14.2735 4.08169 14.4 4.39995 14.4H27.6C27.9182 14.4 28.2234 14.2735 28.4485 14.0485C28.6735 13.8234 28.8 13.5182 28.8 13.2C28.8 12.8817 28.6735 12.5765 28.4485 12.3514C28.2234 12.1264 27.9182 12 27.6 12H4.39995ZM3.19995 18C3.19995 17.6817 3.32638 17.3765 3.55142 17.1514C3.77647 16.9264 4.08169 16.8 4.39995 16.8H27.6C27.9182 16.8 28.2234 16.9264 28.4485 17.1514C28.6735 17.3765 28.8 17.6817 28.8 18C28.8 18.3182 28.6735 18.6234 28.4485 18.8485C28.2234 19.0735 27.9182 19.2 27.6 19.2H4.39995C4.08169 19.2 3.77647 19.0735 3.55142 18.8485C3.32638 18.6234 3.19995 18.3182 3.19995 18ZM4.39995 21.6C4.08169 21.6 3.77647 21.7264 3.55142 21.9514C3.32638 22.1765 3.19995 22.4817 3.19995 22.8C3.19995 23.1182 3.32638 23.4234 3.55142 23.6485C3.77647 23.8735 4.08169 24 4.39995 24H19.6C19.9182 24 20.2234 23.8735 20.4485 23.6485C20.6735 23.4234 20.8 23.1182 20.8 22.8C20.8 22.4817 20.6735 22.1765 20.4485 21.9514C20.2234 21.7264 19.9182 21.6 19.6 21.6H4.39995Z" fill="#272C34"/>
</svg>
