<svg width="33" height="32" viewBox="0 0 33 32" fill="none" xmlns="http://www.w3.org/2000/svg">
<path d="M4.9 7.2002C4.58174 7.2002 4.27651 7.32662 4.05147 7.55167C3.82643 7.77671 3.7 8.08194 3.7 8.4002C3.7 8.71846 3.82643 9.02368 4.05147 9.24872C4.27651 9.47377 4.58174 9.6002 4.9 9.6002H28.1C28.4183 9.6002 28.7235 9.47377 28.9485 9.24872C29.1736 9.02368 29.3 8.71846 29.3 8.4002C29.3 8.08194 29.1736 7.77671 28.9485 7.55167C28.7235 7.32662 28.4183 7.2002 28.1 7.2002H4.9ZM4.9 12.0002C4.58174 12.0002 4.27651 12.1266 4.05147 12.3517C3.82643 12.5767 3.7 12.8819 3.7 13.2002C3.7 13.5185 3.82643 13.8237 4.05147 14.0487C4.27651 14.2738 4.58174 14.4002 4.9 14.4002H28.1C28.4183 14.4002 28.7235 14.2738 28.9485 14.0487C29.1736 13.8237 29.3 13.5185 29.3 13.2002C29.3 12.8819 29.1736 12.5767 28.9485 12.3517C28.7235 12.1266 28.4183 12.0002 28.1 12.0002H4.9ZM3.7 18.0002C3.7 17.6819 3.82643 17.3767 4.05147 17.1517C4.27651 16.9266 4.58174 16.8002 4.9 16.8002H28.1C28.4183 16.8002 28.7235 16.9266 28.9485 17.1517C29.1736 17.3767 29.3 17.6819 29.3 18.0002C29.3 18.3185 29.1736 18.6237 28.9485 18.8487C28.7235 19.0738 28.4183 19.2002 28.1 19.2002H4.9C4.58174 19.2002 4.27651 19.0738 4.05147 18.8487C3.82643 18.6237 3.7 18.3185 3.7 18.0002ZM4.9 21.6002C4.58174 21.6002 4.27651 21.7266 4.05147 21.9517C3.82643 22.1767 3.7 22.4819 3.7 22.8002C3.7 23.1185 3.82643 23.4237 4.05147 23.6487C4.27651 23.8738 4.58174 24.0002 4.9 24.0002H20.1C20.4183 24.0002 20.7235 23.8738 20.9485 23.6487C21.1736 23.4237 21.3 23.1185 21.3 22.8002C21.3 22.4819 21.1736 22.1767 20.9485 21.9517C20.7235 21.7266 20.4183 21.6002 20.1 21.6002H4.9Z" fill="#272C34"/>
</svg>
