<svg width="32" height="32" viewBox="0 0 32 32" fill="none" xmlns="http://www.w3.org/2000/svg">
<path d="M20 21.473C20.629 21.5429 21.2656 21.4793 21.8684 21.2864C22.4711 21.0935 23.0264 20.7756 23.498 20.3535C23.9695 19.9314 24.3467 19.4146 24.605 18.8369C24.8632 18.2591 24.9967 17.6334 24.9967 17.0005C24.9967 16.3676 24.8632 15.7419 24.605 15.1641C24.3467 14.5864 23.9695 14.0696 23.498 13.6475C23.0264 13.2254 22.4711 12.9075 21.8684 12.7146C21.2656 12.5217 20.629 12.4581 20 12.528V21.472V21.473ZM10.5 12.5C10.5 12.3674 10.4473 12.2402 10.3536 12.1464C10.2598 12.0527 10.1326 12 10 12C9.86739 12 9.74021 12.0527 9.64645 12.1464C9.55268 12.2402 9.5 12.3674 9.5 12.5V13.045C8.359 13.254 7.5 14.162 7.5 15.25C7.5 16.493 8.62 17.5 10 17.5C10.93 17.5 11.5 18.156 11.5 18.75C11.5 19.344 10.93 20 10 20C9.4 20 8.95 19.727 8.706 19.373C8.567 19.173 8.363 19 8.119 19C7.799 19 7.546 19.286 7.676 19.58C7.983 20.277 8.666 20.803 9.5 20.955V21.5C9.5 21.6326 9.55268 21.7598 9.64645 21.8536C9.74021 21.9473 9.86739 22 10 22C10.1326 22 10.2598 21.9473 10.3536 21.8536C10.4473 21.7598 10.5 21.6326 10.5 21.5V20.955C11.641 20.747 12.5 19.839 12.5 18.75C12.5 17.507 11.38 16.5 10 16.5C9.07 16.5 8.5 15.844 8.5 15.25C8.5 14.656 9.07 14 10 14C10.6 14 11.05 14.273 11.294 14.627C11.433 14.827 11.637 15 11.881 15C12.201 15 12.454 14.714 12.324 14.42C12.017 13.723 11.334 13.197 10.5 13.045V12.5Z" fill="#FBFBFB"/>
<path d="M1.5 10C1.5 9.20435 1.81607 8.44129 2.37868 7.87868C2.94129 7.31607 3.70435 7 4.5 7H27.5C28.2956 7 29.0587 7.31607 29.6213 7.87868C30.1839 8.44129 30.5 9.20435 30.5 10V28C30.5 28.663 30.2366 29.2989 29.7678 29.7678C29.2989 30.2366 28.663 30.5 28 30.5H20V25H27.5C27.7652 25 28.0196 24.8946 28.2071 24.7071C28.3946 24.5196 28.5 24.2652 28.5 24V10C28.5 9.73478 28.3946 9.48043 28.2071 9.29289C28.0196 9.10536 27.7652 9 27.5 9H19V10H26.5C26.7652 10 27.0196 10.1054 27.2071 10.2929C27.3946 10.4804 27.5 10.7348 27.5 11V23C27.5 23.2652 27.3946 23.5196 27.2071 23.7071C27.0196 23.8946 26.7652 24 26.5 24H19V30.5H15V24H5.5C5.23478 24 4.98043 23.8946 4.79289 23.7071C4.60536 23.5196 4.5 23.2652 4.5 23V11C4.5 10.7348 4.60536 10.4804 4.79289 10.2929C4.98043 10.1054 5.23478 10 5.5 10H15V9H4.5C4.23478 9 3.98043 9.10536 3.79289 9.29289C3.60536 9.48043 3.5 9.73478 3.5 10V24C3.5 24.2652 3.60536 24.5196 3.79289 24.7071C3.98043 24.8946 4.23478 25 4.5 25H14V30.5H4C3.33696 30.5 2.70107 30.2366 2.23223 29.7678C1.76339 29.2989 1.5 28.663 1.5 28V10ZM26.5 11H19V23H26.5V11ZM5.5 11V23H15V11H5.5Z" fill="#FBFBFB"/>
</svg>
