<svg width="33" height="32" viewBox="0 0 33 32" fill="none" xmlns="http://www.w3.org/2000/svg">
<g clip-path="url(#clip0_733_1421)">
<path d="M228.5 100C228.5 103.183 227.236 106.235 224.985 108.485C222.735 110.736 219.683 112 216.5 112C213.317 112 210.265 110.736 208.015 108.485C205.764 106.235 204.5 103.183 204.5 100V69L153 120.5C151.883 121.613 150.557 122.496 149.098 123.096C147.64 123.697 146.077 124.004 144.5 124C142.919 124.027 141.35 123.73 139.889 123.128C138.427 122.526 137.104 121.632 136 120.5C134.881 119.385 133.994 118.06 133.388 116.602C132.782 115.143 132.471 113.579 132.471 112C132.471 110.421 132.782 108.857 133.388 107.398C133.994 105.94 134.881 104.615 136 103.5L187.5 52H156.5C153.317 52 150.265 50.7357 148.015 48.4853C145.764 46.2348 144.5 43.1826 144.5 40C144.5 36.8174 145.764 33.7652 148.015 31.5147C150.265 29.2643 153.317 28 156.5 28H216.5C219.683 28 222.735 29.2643 224.985 31.5147C227.236 33.7652 228.5 36.8174 228.5 40V100ZM184.5 132C181.317 132 178.265 133.264 176.015 135.515C173.764 137.765 172.5 140.817 172.5 144V204H52.5V84H112.5C115.683 84 118.735 82.7357 120.985 80.4853C123.236 78.2348 124.5 75.1826 124.5 72C124.5 68.8174 123.236 65.7652 120.985 63.5147C118.735 61.2643 115.683 60 112.5 60H48.5C43.2038 60.0263 38.132 62.1419 34.3869 65.8869C30.6419 69.632 28.5263 74.7038 28.5 80V208C28.5263 213.296 30.6419 218.368 34.3869 222.113C38.132 225.858 43.2038 227.974 48.5 228H176.5C181.796 227.974 186.868 225.858 190.613 222.113C194.358 218.368 196.474 213.296 196.5 208V144C196.5 140.817 195.236 137.765 192.985 135.515C190.735 133.264 187.683 132 184.5 132Z" fill="black"/>
<path d="M29.3 8.79998C29.3 10.7095 28.5414 12.5409 27.1912 13.8911C25.8409 15.2414 24.0095 16 22.1 16C20.1904 16 18.3591 15.2414 17.0088 13.8911C15.6586 12.5409 14.9 10.7095 14.9 8.79998C14.9 6.89042 15.6586 5.05907 17.0088 3.70881C18.3591 2.35854 20.1904 1.59998 22.1 1.59998C24.0095 1.59998 25.8409 2.35854 27.1912 3.70881C28.5414 5.05907 29.3 6.89042 29.3 8.79998ZM22.6664 5.03518L22.6616 5.03038C22.5133 4.88365 22.3134 4.80093 22.1048 4.79998H22.0952C21.885 4.80094 21.6837 4.8849 21.5352 5.03358L18.3352 8.23358C18.2608 8.30785 18.2018 8.39605 18.1615 8.49314C18.1212 8.59022 18.1004 8.69429 18.1003 8.79941C18.1002 9.0117 18.1844 9.21536 18.3344 9.36558C18.4844 9.51579 18.6879 9.60027 18.9002 9.60042C19.1125 9.60057 19.3162 9.51638 19.4664 9.36638L21.3 7.53118V12C21.3 12.2121 21.3843 12.4156 21.5343 12.5657C21.6843 12.7157 21.8878 12.8 22.1 12.8C22.3122 12.8 22.5156 12.7157 22.6657 12.5657C22.8157 12.4156 22.9 12.2121 22.9 12V7.53118L24.7336 9.36638C24.808 9.44065 24.8962 9.49955 24.9934 9.53971C25.0905 9.57986 25.1946 9.60049 25.2998 9.60042C25.4049 9.60035 25.5089 9.57957 25.606 9.53927C25.7031 9.49898 25.7913 9.43996 25.8656 9.36558C25.9399 9.29119 25.9988 9.20291 26.0389 9.10577C26.0791 9.00863 26.0997 8.90453 26.0996 8.79941C26.0996 8.69429 26.0788 8.59022 26.0385 8.49314C25.9982 8.39605 25.9392 8.30785 25.8648 8.23358L22.6648 5.03358L22.6664 5.03518ZM13.3352 7.99998H10.1C9.2513 7.99998 8.43736 8.33712 7.83725 8.93723C7.23713 9.53735 6.89999 10.3513 6.89999 11.2V17.6H12.5C12.7122 17.6 12.9156 17.6843 13.0657 17.8343C13.2157 17.9843 13.3 18.1878 13.3 18.4V18.4176L13.3064 18.5136C13.3429 19.0446 13.482 19.5635 13.716 20.0416C13.9176 20.448 14.2088 20.8288 14.6312 21.1088C15.0472 21.3872 15.6392 21.6 16.5 21.6C17.3592 21.6 17.9512 21.3872 18.3688 21.1088C18.7912 20.8288 19.0824 20.448 19.284 20.0416C19.4056 19.7984 19.492 19.5536 19.5544 19.3248C19.6333 19.0286 19.6815 18.7252 19.6984 18.4192L19.7 18.3984C19.7004 18.1865 19.7849 17.9834 19.9349 17.8337C20.0849 17.684 20.2881 17.6 20.5 17.6H26.1V16.64C26.6699 16.3487 27.2064 15.9963 27.7 15.5888V24C27.7 25.273 27.1943 26.4939 26.2941 27.3941C25.3939 28.2943 24.173 28.8 22.9 28.8H10.1C8.82695 28.8 7.60605 28.2943 6.70588 27.3941C5.8057 26.4939 5.29999 25.273 5.29999 24V11.2C5.29999 9.92694 5.8057 8.70604 6.70588 7.80586C7.60605 6.90569 8.82695 6.39998 10.1 6.39998H13.6312C13.4832 6.92299 13.3841 7.45862 13.3352 7.99998ZM11.78 19.2H6.89999V24C6.89999 24.8487 7.23713 25.6626 7.83725 26.2627C8.43736 26.8628 9.2513 27.2 10.1 27.2H22.9C23.7487 27.2 24.5626 26.8628 25.1627 26.2627C25.7628 25.6626 26.1 24.8487 26.1 24V19.2H21.22C21.1279 19.741 20.9581 20.2659 20.716 20.7584C20.3853 21.4371 19.8821 22.017 19.2568 22.44C18.548 22.912 17.6408 23.2 16.5 23.2C15.3608 23.2 14.452 22.912 13.7432 22.44C13.1179 22.017 12.6147 21.4371 12.284 20.7584C12.0419 20.2659 11.8721 19.741 11.78 19.2Z" fill="white"/>
</g>
<defs>
<clipPath id="clip0_733_1421">
<rect width="32" height="32" fill="white" transform="translate(0.5)"/>
</clipPath>
</defs>
</svg>
