<svg width="33" height="33" viewBox="0 0 33 33" fill="none" xmlns="http://www.w3.org/2000/svg">
<path d="M20.5 21.973C21.129 22.0429 21.7656 21.9793 22.3684 21.7864C22.9711 21.5935 23.5264 21.2756 23.998 20.8535C24.4695 20.4314 24.8467 19.9146 25.105 19.3369C25.3632 18.7591 25.4967 18.1334 25.4967 17.5005C25.4967 16.8676 25.3632 16.2419 25.105 15.6641C24.8467 15.0864 24.4695 14.5696 23.998 14.1475C23.5264 13.7254 22.9711 13.4075 22.3684 13.2146C21.7656 13.0217 21.129 12.9581 20.5 13.028V21.972V21.973ZM11 13C11 12.8674 10.9473 12.7402 10.8536 12.6464C10.7598 12.5527 10.6326 12.5 10.5 12.5C10.3674 12.5 10.2402 12.5527 10.1464 12.6464C10.0527 12.7402 10 12.8674 10 13V13.545C8.859 13.754 8 14.662 8 15.75C8 16.993 9.12 18 10.5 18C11.43 18 12 18.656 12 19.25C12 19.844 11.43 20.5 10.5 20.5C9.9 20.5 9.45 20.227 9.206 19.873C9.067 19.673 8.863 19.5 8.619 19.5C8.299 19.5 8.046 19.786 8.176 20.08C8.483 20.777 9.166 21.303 10 21.455V22C10 22.1326 10.0527 22.2598 10.1464 22.3536C10.2402 22.4473 10.3674 22.5 10.5 22.5C10.6326 22.5 10.7598 22.4473 10.8536 22.3536C10.9473 22.2598 11 22.1326 11 22V21.455C12.141 21.247 13 20.339 13 19.25C13 18.007 11.88 17 10.5 17C9.57 17 9 16.344 9 15.75C9 15.156 9.57 14.5 10.5 14.5C11.1 14.5 11.55 14.773 11.794 15.127C11.933 15.327 12.137 15.5 12.381 15.5C12.701 15.5 12.954 15.214 12.824 14.92C12.517 14.223 11.834 13.697 11 13.545V13Z" fill="#FBFBFB"/>
<path d="M2 10.5C2 9.70435 2.31607 8.94129 2.87868 8.37868C3.44129 7.81607 4.20435 7.5 5 7.5H28C28.7956 7.5 29.5587 7.81607 30.1213 8.37868C30.6839 8.94129 31 9.70435 31 10.5V28.5C31 29.163 30.7366 29.7989 30.2678 30.2678C29.7989 30.7366 29.163 31 28.5 31H20.5V25.5H28C28.2652 25.5 28.5196 25.3946 28.7071 25.2071C28.8946 25.0196 29 24.7652 29 24.5V10.5C29 10.2348 28.8946 9.98043 28.7071 9.79289C28.5196 9.60536 28.2652 9.5 28 9.5H19.5V10.5H27C27.2652 10.5 27.5196 10.6054 27.7071 10.7929C27.8946 10.9804 28 11.2348 28 11.5V23.5C28 23.7652 27.8946 24.0196 27.7071 24.2071C27.5196 24.3946 27.2652 24.5 27 24.5H19.5V31H15.5V24.5H6C5.73478 24.5 5.48043 24.3946 5.29289 24.2071C5.10536 24.0196 5 23.7652 5 23.5V11.5C5 11.2348 5.10536 10.9804 5.29289 10.7929C5.48043 10.6054 5.73478 10.5 6 10.5H15.5V9.5H5C4.73478 9.5 4.48043 9.60536 4.29289 9.79289C4.10536 9.98043 4 10.2348 4 10.5V24.5C4 24.7652 4.10536 25.0196 4.29289 25.2071C4.48043 25.3946 4.73478 25.5 5 25.5H14.5V31H4.5C3.83696 31 3.20107 30.7366 2.73223 30.2678C2.26339 29.7989 2 29.163 2 28.5V10.5ZM27 11.5H19.5V23.5H27V11.5ZM6 11.5V23.5H15.5V11.5H6Z" fill="#FBFBFB"/>
</svg>
