<svg width="75" height="75" viewBox="0 0 75 75" fill="none" xmlns="http://www.w3.org/2000/svg">
<g clip-path="url(#clip0_35_681)">
<path fill-rule="evenodd" clip-rule="evenodd" d="M20.7117 25.285L45.8333 0L35.8483 2.75238C25.4577 5.61258 16.7014 10.5697 9.82777 17.4904L2.08331 25.285C4.65352 27.8727 8.0241 29.1667 11.3975 29.1667C14.7681 29.1667 18.1387 27.8727 20.7117 25.285ZM12.3304 20.0072C18.0992 14.2017 25.3054 9.86598 33.7883 7.08523L18.2063 22.7652C16.3886 24.5983 13.9705 25.6056 11.3975 25.6056C10.056 25.6056 8.75404 25.3304 7.5591 24.8083L12.3304 20.0072Z" fill="#FA7268"/>
<path fill-rule="evenodd" clip-rule="evenodd" d="M63.6052 45.8333C60.2348 45.8333 56.8613 47.1273 54.2911 49.7154L29.1667 75L39.1517 72.2531C49.5423 69.3925 58.2986 64.4321 65.1723 57.5108L72.9167 49.7154C71.6315 48.4214 70.1465 47.4508 68.5598 46.8037C66.9759 46.1569 65.2906 45.8333 63.6052 45.8333ZM62.6696 54.9937C56.9036 60.7969 49.6946 65.1358 41.2117 67.9141L56.7938 52.2354C58.6142 50.4021 61.0323 49.3948 63.6052 49.3948C64.9467 49.3948 66.2461 49.67 67.4409 50.1921L62.6696 54.9937Z" fill="#FA7268"/>
<path fill-rule="evenodd" clip-rule="evenodd" d="M49.7154 20.7117L75 45.8333L72.2517 35.8496C69.39 25.4569 64.4296 16.7024 57.5121 9.82847L49.7154 2.08334C44.5394 7.22891 44.5394 15.5661 49.7154 20.7117ZM50.1946 7.56443L54.9935 12.3322C60.7964 18.1009 65.1358 25.3075 67.9152 33.7886L52.2339 18.208C49.3437 15.3378 48.666 11.086 50.1946 7.56443Z" fill="#1B2749"/>
<path fill-rule="evenodd" clip-rule="evenodd" d="M17.4892 61.0025L25.2865 68.75C27.8733 66.176 29.1667 62.8069 29.1667 59.435C29.1667 56.0631 27.8733 52.694 25.2865 50.1229L0 25L2.74846 34.986C5.6104 45.3723 10.5712 54.1292 17.4892 61.0025ZM22.765 52.6235C25.6581 55.4965 26.336 59.7479 24.8044 63.2665L20.0079 58.5019C14.2018 52.7335 9.86498 45.5273 7.08531 37.0442L22.765 52.6235Z" fill="#1B2749"/>
</g>
<defs>
<clipPath id="clip0_35_681">
<rect width="75" height="75" fill="white"/>
</clipPath>
</defs>
</svg>
