<svg width="38" height="38" viewBox="0 0 38 38" fill="none" xmlns="http://www.w3.org/2000/svg">
<rect width="38" height="38" rx="19" fill="#554AF0"/>
<path d="M26.8562 11.1484C26.4395 10.7226 25.8229 10.5651 25.2479 10.7318L11.8395 14.6059C11.2329 14.7743 10.8029 15.2551 10.687 15.8651C10.5687 16.4868 10.982 17.2768 11.522 17.6068L15.7145 20.1668C16.1445 20.4301 16.6995 20.3643 17.0554 20.0076L21.8562 15.2068C22.0979 14.9559 22.4979 14.9559 22.7395 15.2068C22.9812 15.4476 22.9812 15.8401 22.7395 16.0901L17.9304 20.8909C17.5737 21.2476 17.507 21.8009 17.7695 22.2318L20.3312 26.4401C20.6312 26.9393 21.1479 27.2234 21.7145 27.2234C21.7812 27.2234 21.8562 27.2234 21.9229 27.2143C22.5729 27.1318 23.0895 26.6893 23.2812 26.0643L27.2562 12.7568C27.4312 12.1901 27.2729 11.5734 26.8562 11.1484Z" fill="white"/>
<path opacity="0.4" fill-rule="evenodd" clip-rule="evenodd" d="M11.5088 23.0062C11.3488 23.0062 11.1888 22.9453 11.0671 22.8228C10.8229 22.5787 10.8229 22.1837 11.0671 21.9395L12.2046 20.8012C12.4488 20.5578 12.8446 20.5578 13.0888 20.8012C13.3321 21.0453 13.3321 21.4412 13.0888 21.6853L11.9504 22.8228C11.8288 22.9453 11.6688 23.0062 11.5088 23.0062ZM14.6431 23.9998C14.4831 23.9998 14.3231 23.939 14.2014 23.8165C13.9573 23.5723 13.9573 23.1773 14.2014 22.9332L15.3389 21.7948C15.5831 21.5515 15.9789 21.5515 16.2231 21.7948C16.4664 22.039 16.4664 22.4348 16.2231 22.679L15.0848 23.8165C14.9631 23.939 14.8031 23.9998 14.6431 23.9998ZM14.8545 26.9732C14.9762 27.0957 15.1362 27.1565 15.2962 27.1565C15.4562 27.1565 15.6162 27.0957 15.7378 26.9732L16.8762 25.8357C17.1195 25.5915 17.1195 25.1957 16.8762 24.9515C16.632 24.7082 16.2362 24.7082 15.992 24.9515L14.8545 26.0898C14.6103 26.334 14.6103 26.729 14.8545 26.9732Z" fill="white"/>
</svg>
