<svg width="36" height="36" viewBox="0 0 36 36" fill="none" xmlns="http://www.w3.org/2000/svg">
<path fill-rule="evenodd" clip-rule="evenodd" d="M17.7901 36C27.6153 36 35.5802 27.9411 35.5802 18C35.5802 8.05887 27.6153 0 17.7901 0C7.96489 0 0 8.05887 0 18C0 27.9411 7.96489 36 17.7901 36Z" fill="#FA7268"/>
<path fill-rule="evenodd" clip-rule="evenodd" d="M16.0391 14.1723H13.1005C12.7792 14.1723 12.5535 14.0257 12.4233 13.7322C12.2932 13.4459 12.3468 13.1929 12.584 12.9728L17.7265 8.04252C17.8643 7.9031 18.0365 7.83337 18.243 7.83337C18.4497 7.83337 18.6216 7.9031 18.7595 8.04252L23.9021 12.9728C24.1392 13.1929 24.1929 13.4461 24.0628 13.7322C23.9329 14.0255 23.7071 14.1723 23.3856 14.1723H20.4469V19.1027C20.4469 19.2934 20.3743 19.4586 20.229 19.5979C20.0834 19.7372 19.9114 19.8071 19.7125 19.8071H16.7736C16.5748 19.8071 16.4026 19.7371 16.2571 19.5979C16.1118 19.4585 16.0391 19.2934 16.0391 19.1027V14.1723ZM25.8045 19.8071C26.0949 19.8071 26.3419 19.9077 26.5448 20.1093C26.7483 20.3109 26.8498 20.5553 26.8498 20.8432V24.2974C26.8498 24.5851 26.7483 24.8298 26.5449 25.0312C26.3419 25.2327 26.0949 25.3334 25.8046 25.3334H9.77563C9.48527 25.3334 9.23846 25.2327 9.03518 25.0312C8.83189 24.8301 8.73029 24.5851 8.73029 24.2974V20.8432C8.73029 20.5553 8.83189 20.3106 9.03518 20.1093C9.2385 19.9077 9.48531 19.8071 9.77563 19.8071H14.4254C14.5778 20.21 14.8336 20.541 15.193 20.8C15.5523 21.059 15.9534 21.1886 16.3961 21.1886H19.184C19.6268 21.1886 20.0277 21.059 20.3872 20.8C20.7465 20.541 21.0025 20.21 21.1548 19.8071H25.8045ZM21.9714 23.9521C22.1602 23.9521 22.3236 23.8836 22.4617 23.7469C22.5995 23.6102 22.6684 23.4483 22.6684 23.2611C22.6684 23.074 22.5995 22.9119 22.4617 22.7754C22.3235 22.6388 22.1602 22.5702 21.9714 22.5702C21.7827 22.5702 21.6195 22.6388 21.4814 22.7754C21.3436 22.9119 21.2747 23.074 21.2747 23.2611C21.2747 23.4483 21.3436 23.6103 21.4814 23.7469C21.6195 23.8836 21.7827 23.9521 21.9714 23.9521ZM25.2491 23.7469C25.1113 23.8836 24.9479 23.9521 24.7591 23.9521C24.5704 23.9521 24.4071 23.8836 24.2691 23.7469C24.1313 23.6103 24.0624 23.4483 24.0624 23.2611C24.0624 23.074 24.1313 22.9119 24.2691 22.7754C24.4071 22.6388 24.5703 22.5702 24.7591 22.5702C24.9478 22.5702 25.1112 22.6388 25.2491 22.7754C25.3871 22.9119 25.4561 23.074 25.4561 23.2611C25.4561 23.4483 25.3872 23.6102 25.2491 23.7469Z" fill="white"/>
</svg>
