<svg width="48" height="17" viewBox="0 0 48 17" fill="none" xmlns="http://www.w3.org/2000/svg">
<path fill-rule="evenodd" clip-rule="evenodd" d="M45.8588 7.76536H1.6125C0.891818 7.76536 0.3078 7.16585 0.3078 6.42606V1.85722C0.3078 1.11792 0.891818 0.517929 1.6125 0.517929H45.8588C46.5795 0.517929 47.1635 1.11792 47.1635 1.85722V6.42606C47.1635 7.16585 46.5795 7.76536 45.8588 7.76536Z" stroke="#34336C" stroke-width="0.5"/>
<path fill-rule="evenodd" clip-rule="evenodd" d="M1.37448 15.7678C1.19754 15.7678 1.03803 15.728 0.89597 15.6484C0.753905 15.5687 0.642467 15.4584 0.561652 15.3173C0.480837 15.1762 0.44043 15.0182 0.44043 14.8433C0.44043 14.6685 0.480837 14.5105 0.561652 14.3694C0.642467 14.2283 0.75433 14.1179 0.897246 14.0383C1.04016 13.9586 1.20009 13.9188 1.37703 13.9188C1.50974 13.9188 1.63223 13.9413 1.74452 13.9863C1.85681 14.0313 1.95209 14.0971 2.03035 14.1837L1.91041 14.3058C1.77089 14.1621 1.59481 14.0902 1.38213 14.0902C1.24092 14.0902 1.11247 14.1231 0.996775 14.1889C0.881082 14.2547 0.790485 14.3447 0.724983 14.459C0.65948 14.5732 0.626729 14.7014 0.626729 14.8433C0.626729 14.9853 0.65948 15.1134 0.724983 15.2277C0.790485 15.3419 0.881082 15.432 0.996775 15.4977C1.11247 15.5635 1.24092 15.5964 1.38213 15.5964C1.59651 15.5964 1.7726 15.5237 1.91041 15.3783L2.03035 15.5003C1.95209 15.5869 1.85639 15.6531 1.74325 15.699C1.63011 15.7449 1.50719 15.7678 1.37448 15.7678ZM2.82659 15.7652C2.69729 15.7652 2.58074 15.7354 2.47696 15.6756C2.37318 15.6159 2.29151 15.5332 2.23196 15.4276C2.17242 15.322 2.14264 15.2026 2.14264 15.0693C2.14264 14.9359 2.17242 14.8165 2.23196 14.7109C2.29151 14.6053 2.37318 14.523 2.47696 14.4642C2.58074 14.4053 2.69729 14.3759 2.82659 14.3759C2.95589 14.3759 3.07244 14.4053 3.17622 14.4642C3.28 14.523 3.36124 14.6053 3.41994 14.7109C3.47864 14.8165 3.50799 14.9359 3.50799 15.0693C3.50799 15.2026 3.47864 15.322 3.41994 15.4276C3.36124 15.5332 3.28 15.6159 3.17622 15.6756C3.07244 15.7354 2.95589 15.7652 2.82659 15.7652ZM2.82659 15.6016C2.92187 15.6016 3.00736 15.5796 3.08307 15.5354C3.15878 15.4913 3.2179 15.4285 3.26044 15.3471C3.30297 15.2658 3.32424 15.1731 3.32424 15.0693C3.32424 14.9654 3.30297 14.8728 3.26044 14.7914C3.2179 14.71 3.15878 14.6473 3.08307 14.6031C3.00736 14.559 2.92187 14.5369 2.82659 14.5369C2.73131 14.5369 2.64582 14.559 2.57011 14.6031C2.4944 14.6473 2.43485 14.71 2.39147 14.7914C2.34808 14.8728 2.32639 14.9654 2.32639 15.0693C2.32639 15.1731 2.34808 15.2658 2.39147 15.3471C2.43485 15.4285 2.4944 15.4913 2.57011 15.5354C2.64582 15.5796 2.73131 15.6016 2.82659 15.6016ZM5.0877 14.3863V15.7522H4.91416V15.5029C4.86652 15.586 4.80102 15.6505 4.71765 15.6964C4.63429 15.7423 4.53901 15.7652 4.43183 15.7652C4.25658 15.7652 4.11835 15.7155 4.01712 15.6159C3.91589 15.5164 3.86527 15.3705 3.86527 15.1783V14.3863H4.04647V15.1601C4.04647 15.3038 4.08134 15.4129 4.1511 15.4874C4.22086 15.5618 4.32039 15.599 4.44969 15.599C4.5909 15.599 4.70234 15.5553 4.78401 15.4679C4.86567 15.3805 4.90651 15.2588 4.90651 15.103V14.3863H5.0877ZM6.27951 14.3759C6.44794 14.3759 6.58192 14.4256 6.68145 14.5252C6.78098 14.6247 6.83075 14.7697 6.83075 14.9602V15.7522H6.64955V14.9784C6.64955 14.8364 6.61468 14.7282 6.54492 14.6537C6.47516 14.5793 6.37563 14.5421 6.24633 14.5421C6.10171 14.5421 5.9873 14.5858 5.90308 14.6732C5.81886 14.7607 5.77675 14.8814 5.77675 15.0355V15.7522H5.59556V14.3863H5.7691V14.6382C5.81844 14.5551 5.88692 14.4906 5.97454 14.4447C6.06216 14.3988 6.16381 14.3759 6.27951 14.3759ZM8.03021 15.6691C7.99618 15.7003 7.95407 15.7241 7.90388 15.7406C7.85369 15.757 7.80138 15.7652 7.74693 15.7652C7.62103 15.7652 7.52405 15.7306 7.456 15.6614C7.38794 15.5921 7.35392 15.4943 7.35392 15.3679V14.5421H7.11402V14.3863H7.35392V14.0876H7.53511V14.3863H7.94344V14.5421H7.53511V15.3575C7.53511 15.4389 7.5551 15.5008 7.59509 15.5432C7.63507 15.5856 7.69249 15.6068 7.76735 15.6068C7.80478 15.6068 7.84093 15.6008 7.87581 15.5886C7.91069 15.5765 7.94089 15.5592 7.96641 15.5367L8.03021 15.6691ZM8.53296 14.6537C8.5755 14.562 8.63887 14.4927 8.72309 14.446C8.80731 14.3992 8.91151 14.3759 9.03571 14.3759V14.5551L8.99233 14.5525C8.85112 14.5525 8.74053 14.5966 8.66056 14.6849C8.5806 14.7732 8.54062 14.897 8.54062 15.0563V15.7522H8.35942V14.3863H8.53296V14.6537ZM10.5871 14.3863L9.91591 15.9159C9.86147 16.044 9.79852 16.1349 9.72706 16.1885C9.6556 16.2422 9.56969 16.269 9.46931 16.269C9.40465 16.269 9.34426 16.2586 9.28811 16.2379C9.23197 16.2171 9.18348 16.1859 9.14264 16.1444L9.22686 16.0067C9.29492 16.076 9.37658 16.1106 9.47186 16.1106C9.53311 16.1106 9.58542 16.0933 9.62881 16.0587C9.67219 16.0241 9.7126 15.9652 9.75003 15.8821L9.80873 15.7497L9.209 14.3863H9.39785L9.90315 15.5471L10.4085 14.3863H10.5871Z" fill="#34336C"/>
</svg>
