<svg width="48" height="17" viewBox="0 0 48 17" fill="none" xmlns="http://www.w3.org/2000/svg">
<path fill-rule="evenodd" clip-rule="evenodd" d="M46.3588 7.73762H2.1125C1.39182 7.73762 0.8078 7.15115 0.8078 6.42744V1.95792C0.8078 1.23421 1.39182 0.647743 2.1125 0.647743H46.3588C47.0795 0.647743 47.6635 1.23421 47.6635 1.95792V6.42744C47.6635 7.15115 47.0795 7.73762 46.3588 7.73762Z" stroke="#34336C" stroke-width="0.5"/>
<path fill-rule="evenodd" clip-rule="evenodd" d="M1.87448 15.7809C1.69754 15.7809 1.53803 15.7411 1.39597 15.6615C1.25391 15.5818 1.14247 15.4715 1.06165 15.3304C0.980837 15.1893 0.94043 15.0313 0.94043 14.8564C0.94043 14.6816 0.980837 14.5236 1.06165 14.3825C1.14247 14.2414 1.25433 14.131 1.39725 14.0514C1.54016 13.9717 1.70009 13.9319 1.87703 13.9319C2.00974 13.9319 2.13223 13.9544 2.24452 13.9994C2.35681 14.0445 2.45209 14.1102 2.53035 14.1968L2.41041 14.3189C2.27089 14.1752 2.09481 14.1033 1.88213 14.1033C1.74092 14.1033 1.61247 14.1362 1.49678 14.202C1.38108 14.2678 1.29049 14.3578 1.22498 14.4721C1.15948 14.5863 1.12673 14.7145 1.12673 14.8564C1.12673 14.9984 1.15948 15.1265 1.22498 15.2408C1.29049 15.355 1.38108 15.4451 1.49678 15.5109C1.61247 15.5766 1.74092 15.6095 1.88213 15.6095C2.09651 15.6095 2.2726 15.5368 2.41041 15.3914L2.53035 15.5135C2.45209 15.6 2.35639 15.6662 2.24325 15.7121C2.13011 15.758 2.00719 15.7809 1.87448 15.7809ZM2.8953 14.3994H3.07649V15.7654H2.8953V14.3994ZM2.98717 14.1007C2.94974 14.1007 2.91826 14.0877 2.89274 14.0618C2.86722 14.0358 2.85446 14.0046 2.85446 13.9683C2.85446 13.9337 2.86722 13.9034 2.89274 13.8774C2.91826 13.8514 2.94974 13.8384 2.98717 13.8384C3.0246 13.8384 3.05607 13.851 3.0816 13.8761C3.10712 13.9012 3.11988 13.9311 3.11988 13.9657C3.11988 14.0038 3.10712 14.0358 3.0816 14.0618C3.05607 14.0877 3.0246 14.1007 2.98717 14.1007ZM4.28871 15.6823C4.25468 15.7134 4.21258 15.7372 4.16239 15.7537C4.1122 15.7701 4.05988 15.7783 4.00544 15.7783C3.87953 15.7783 3.78256 15.7437 3.7145 15.6745C3.64645 15.6052 3.61242 15.5074 3.61242 15.381V14.5552H3.37253V14.3994H3.61242V14.1007H3.79362V14.3994H4.20194V14.5552H3.79362V15.3706C3.79362 15.452 3.81361 15.5139 3.85359 15.5563C3.89357 15.5987 3.95099 15.6199 4.02585 15.6199C4.06328 15.6199 4.09944 15.6139 4.13431 15.6017C4.16919 15.5896 4.19939 15.5723 4.22491 15.5498L4.28871 15.6823ZM5.6954 14.3994L5.02421 15.929C4.96977 16.0571 4.90682 16.148 4.83536 16.2016C4.7639 16.2553 4.67798 16.2821 4.5776 16.2821C4.51295 16.2821 4.45255 16.2718 4.39641 16.251C4.34026 16.2302 4.29177 16.199 4.25094 16.1575L4.33516 16.0199C4.40321 16.0891 4.48488 16.1237 4.58016 16.1237C4.6414 16.1237 4.69372 16.1064 4.73711 16.0718C4.78049 16.0372 4.8209 15.9783 4.85833 15.8952L4.91703 15.7628L4.31729 14.3994H4.50615L5.01145 15.5602L5.51676 14.3994H5.6954Z" fill="#34336C"/>
</svg>
