<svg width="252" height="200" viewBox="0 0 252 200" fill="none" xmlns="http://www.w3.org/2000/svg">
<g opacity="0.0786133">
<path fill-rule="evenodd" clip-rule="evenodd" d="M146.679 33.1404C130.563 32.4802 115.214 26.3324 100.558 19.6038C85.9008 12.8753 71.3813 5.42619 55.6639 1.86191C45.5466 -0.431171 33.9774 -0.757189 25.8251 5.65358C17.9688 11.8342 15.4339 22.4723 14.0793 32.3514C13.0534 39.7868 12.4508 47.6112 15.2594 54.5699C17.2093 59.4027 20.6731 63.4628 23.0685 68.0901C31.4029 84.1937 25.5111 104.053 16.4797 119.776C12.2466 127.151 7.33114 134.187 4.06165 142.039C0.792156 149.89 -0.726802 158.887 2.12685 166.898C4.96057 174.843 11.7162 180.799 19.0346 184.98C33.898 193.497 51.4058 195.938 68.4901 197.308C106.295 200.366 144.304 199.042 182.21 197.716C196.237 197.226 210.328 196.727 224.128 194.155C231.793 192.73 239.704 190.47 245.267 185.015C252.331 178.092 254.082 166.367 249.348 157.685C241.41 143.121 219.467 139.502 213.912 123.872C210.859 115.269 213.994 105.686 218.434 97.7084C227.953 80.5911 243.915 65.5751 244.754 46.0085C245.332 32.5843 237.66 19.1162 225.797 12.7575C213.362 6.09192 196.12 6.93025 186.951 17.9628C177.509 29.3679 160.908 33.7267 146.679 33.1404" fill="#FA7268"/>
</g>
</svg>
