<svg width="252" height="200" viewBox="0 0 252 200" fill="none" xmlns="http://www.w3.org/2000/svg">
<g opacity="0.0786133">
<path fill-rule="evenodd" clip-rule="evenodd" d="M146.179 33.6404C130.063 32.9802 114.714 26.8324 100.058 20.1038C85.4008 13.3753 70.8813 5.92619 55.1639 2.36191C45.0466 0.0688291 33.4774 -0.257189 25.3251 6.15358C17.4688 12.3342 14.9339 22.9723 13.5793 32.8514C12.5534 40.2868 11.9508 48.1112 14.7594 55.0699C16.7093 59.9027 20.1731 63.9628 22.5685 68.5901C30.9029 84.6937 25.0111 104.553 15.9797 120.276C11.7466 127.651 6.83114 134.687 3.56165 142.539C0.292156 150.39 -1.2268 159.387 1.62685 167.398C4.46057 175.343 11.2162 181.299 18.5346 185.48C33.398 193.997 50.9058 196.438 67.9901 197.808C105.795 200.866 143.804 199.542 181.71 198.216C195.737 197.726 209.828 197.227 223.628 194.655C231.293 193.23 239.204 190.97 244.767 185.515C251.831 178.592 253.582 166.867 248.848 158.185C240.91 143.621 218.967 140.002 213.412 124.372C210.359 115.769 213.494 106.186 217.934 98.2084C227.453 81.0911 243.415 66.0751 244.254 46.5085C244.832 33.0843 237.16 19.6162 225.297 13.2575C212.862 6.59192 195.62 7.43025 186.451 18.4628C177.009 29.8679 160.408 34.2267 146.179 33.6404Z" fill="#FA7268"/>
</g>
</svg>
