<svg width="48" height="17" viewBox="0 0 48 17" fill="none" xmlns="http://www.w3.org/2000/svg">
<path fill-rule="evenodd" clip-rule="evenodd" d="M46.3588 8.26536H2.1125C1.39182 8.26536 0.8078 7.66585 0.8078 6.92606V2.35722C0.8078 1.61792 1.39182 1.01793 2.1125 1.01793H46.3588C47.0795 1.01793 47.6635 1.61792 47.6635 2.35722V6.92606C47.6635 7.66585 47.0795 8.26536 46.3588 8.26536Z" stroke="#34336C" stroke-width="0.5"/>
<path fill-rule="evenodd" clip-rule="evenodd" d="M1.87448 16.2678C1.69754 16.2678 1.53803 16.228 1.39597 16.1484C1.25391 16.0687 1.14247 15.9584 1.06165 15.8173C0.980837 15.6762 0.94043 15.5182 0.94043 15.3433C0.94043 15.1685 0.980837 15.0105 1.06165 14.8694C1.14247 14.7283 1.25433 14.6179 1.39725 14.5383C1.54016 14.4586 1.70009 14.4188 1.87703 14.4188C2.00974 14.4188 2.13223 14.4413 2.24452 14.4863C2.35681 14.5313 2.45209 14.5971 2.53035 14.6837L2.41041 14.8058C2.27089 14.6621 2.09481 14.5902 1.88213 14.5902C1.74092 14.5902 1.61247 14.6231 1.49678 14.6889C1.38108 14.7547 1.29049 14.8447 1.22498 14.959C1.15948 15.0732 1.12673 15.2014 1.12673 15.3433C1.12673 15.4853 1.15948 15.6134 1.22498 15.7277C1.29049 15.8419 1.38108 15.932 1.49678 15.9977C1.61247 16.0635 1.74092 16.0964 1.88213 16.0964C2.09651 16.0964 2.2726 16.0237 2.41041 15.8783L2.53035 16.0003C2.45209 16.0869 2.35639 16.1531 2.24325 16.199C2.13011 16.2449 2.00719 16.2678 1.87448 16.2678ZM3.32659 16.2652C3.19729 16.2652 3.08074 16.2354 2.97696 16.1756C2.87318 16.1159 2.79151 16.0332 2.73196 15.9276C2.67242 15.822 2.64264 15.7026 2.64264 15.5693C2.64264 15.4359 2.67242 15.3165 2.73196 15.2109C2.79151 15.1053 2.87318 15.023 2.97696 14.9642C3.08074 14.9053 3.19729 14.8759 3.32659 14.8759C3.45589 14.8759 3.57244 14.9053 3.67622 14.9642C3.78 15.023 3.86124 15.1053 3.91994 15.2109C3.97864 15.3165 4.00799 15.4359 4.00799 15.5693C4.00799 15.7026 3.97864 15.822 3.91994 15.9276C3.86124 16.0332 3.78 16.1159 3.67622 16.1756C3.57244 16.2354 3.45589 16.2652 3.32659 16.2652ZM3.32659 16.1016C3.42187 16.1016 3.50736 16.0796 3.58307 16.0354C3.65878 15.9913 3.7179 15.9285 3.76044 15.8471C3.80297 15.7658 3.82424 15.6731 3.82424 15.5693C3.82424 15.4654 3.80297 15.3728 3.76044 15.2914C3.7179 15.21 3.65878 15.1473 3.58307 15.1031C3.50736 15.059 3.42187 15.0369 3.32659 15.0369C3.23131 15.0369 3.14582 15.059 3.07011 15.1031C2.9944 15.1473 2.93485 15.21 2.89147 15.2914C2.84808 15.3728 2.82639 15.4654 2.82639 15.5693C2.82639 15.6731 2.84808 15.7658 2.89147 15.8471C2.93485 15.9285 2.9944 15.9913 3.07011 16.0354C3.14582 16.0796 3.23131 16.1016 3.32659 16.1016ZM5.5877 14.8863V16.2522H5.41416V16.0029C5.36652 16.086 5.30102 16.1505 5.21765 16.1964C5.13429 16.2423 5.03901 16.2652 4.93183 16.2652C4.75658 16.2652 4.61835 16.2155 4.51712 16.1159C4.41589 16.0164 4.36527 15.8705 4.36527 15.6783V14.8863H4.54647V15.6601C4.54647 15.8038 4.58134 15.9129 4.6511 15.9874C4.72086 16.0618 4.82039 16.099 4.94969 16.099C5.0909 16.099 5.20234 16.0553 5.28401 15.9679C5.36567 15.8805 5.40651 15.7588 5.40651 15.603V14.8863H5.5877ZM6.77951 14.8759C6.94794 14.8759 7.08192 14.9256 7.18145 15.0252C7.28098 15.1247 7.33075 15.2697 7.33075 15.4602V16.2522H7.14955V15.4784C7.14955 15.3364 7.11468 15.2282 7.04492 15.1537C6.97516 15.0793 6.87563 15.0421 6.74633 15.0421C6.60171 15.0421 6.4873 15.0858 6.40308 15.1732C6.31886 15.2607 6.27675 15.3814 6.27675 15.5355V16.2522H6.09556V14.8863H6.2691V15.1382C6.31844 15.0551 6.38692 14.9906 6.47454 14.9447C6.56216 14.8988 6.66381 14.8759 6.77951 14.8759ZM8.53021 16.1691C8.49618 16.2003 8.45407 16.2241 8.40388 16.2406C8.35369 16.257 8.30138 16.2652 8.24693 16.2652C8.12103 16.2652 8.02405 16.2306 7.956 16.1614C7.88794 16.0921 7.85392 15.9943 7.85392 15.8679V15.0421H7.61402V14.8863H7.85392V14.5876H8.03511V14.8863H8.44344V15.0421H8.03511V15.8575C8.03511 15.9389 8.0551 16.0008 8.09509 16.0432C8.13507 16.0856 8.19249 16.1068 8.26735 16.1068C8.30478 16.1068 8.34093 16.1008 8.37581 16.0886C8.41069 16.0765 8.44089 16.0592 8.46641 16.0367L8.53021 16.1691ZM9.03296 15.1537C9.0755 15.062 9.13887 14.9927 9.22309 14.946C9.30731 14.8992 9.41151 14.8759 9.53571 14.8759V15.0551L9.49233 15.0525C9.35112 15.0525 9.24053 15.0966 9.16056 15.1849C9.0806 15.2732 9.04062 15.397 9.04062 15.5563V16.2522H8.85942V14.8863H9.03296V15.1537ZM11.0871 14.8863L10.4159 16.4159C10.3615 16.544 10.2985 16.6349 10.2271 16.6885C10.1556 16.7422 10.0697 16.769 9.96931 16.769C9.90465 16.769 9.84426 16.7586 9.78811 16.7379C9.73197 16.7171 9.68348 16.6859 9.64264 16.6444L9.72686 16.5067C9.79492 16.576 9.87658 16.6106 9.97186 16.6106C10.0331 16.6106 10.0854 16.5933 10.1288 16.5587C10.1722 16.5241 10.2126 16.4652 10.25 16.3821L10.3087 16.2497L9.709 14.8863H9.89785L10.4032 16.0471L10.9085 14.8863H11.0871Z" fill="#34336C"/>
</svg>
