<svg width="36" height="36" viewBox="0 0 36 36" fill="none" xmlns="http://www.w3.org/2000/svg">
<path fill-rule="evenodd" clip-rule="evenodd" d="M18.0401 36C27.8653 36 35.8302 27.9411 35.8302 18C35.8302 8.05887 27.8653 0 18.0401 0C8.21489 0 0.25 8.05887 0.25 18C0.25 27.9411 8.21489 36 18.0401 36Z" fill="#FA7268"/>
<path fill-rule="evenodd" clip-rule="evenodd" d="M16.2891 14.1723H13.3505C13.0292 14.1723 12.8035 14.0257 12.6733 13.7322C12.5432 13.4459 12.5968 13.1929 12.834 12.9728L17.9765 8.04252C18.1143 7.9031 18.2865 7.83337 18.493 7.83337C18.6997 7.83337 18.8716 7.9031 19.0095 8.04252L24.1521 12.9728C24.3892 13.1929 24.4429 13.4461 24.3128 13.7322C24.1829 14.0255 23.9571 14.1723 23.6356 14.1723H20.6969V19.1027C20.6969 19.2934 20.6243 19.4586 20.479 19.5979C20.3334 19.7372 20.1614 19.8071 19.9625 19.8071H17.0236C16.8248 19.8071 16.6526 19.7371 16.5071 19.5979C16.3618 19.4585 16.2891 19.2934 16.2891 19.1027V14.1723ZM26.0545 19.8071C26.3449 19.8071 26.5919 19.9077 26.7948 20.1093C26.9983 20.3109 27.0998 20.5553 27.0998 20.8432V24.2974C27.0998 24.5851 26.9983 24.8298 26.7949 25.0312C26.5919 25.2327 26.3449 25.3334 26.0546 25.3334H10.0256C9.73527 25.3334 9.48846 25.2327 9.28518 25.0312C9.08189 24.8301 8.98029 24.5851 8.98029 24.2974V20.8432C8.98029 20.5553 9.08189 20.3106 9.28518 20.1093C9.4885 19.9077 9.73531 19.8071 10.0256 19.8071H14.6754C14.8278 20.21 15.0836 20.541 15.443 20.8C15.8023 21.059 16.2034 21.1886 16.6461 21.1886H19.434C19.8768 21.1886 20.2777 21.059 20.6372 20.8C20.9965 20.541 21.2525 20.21 21.4048 19.8071H26.0545ZM22.2214 23.9521C22.4102 23.9521 22.5736 23.8836 22.7117 23.7469C22.8495 23.6102 22.9184 23.4483 22.9184 23.2611C22.9184 23.074 22.8495 22.9119 22.7117 22.7754C22.5735 22.6388 22.4102 22.5702 22.2214 22.5702C22.0327 22.5702 21.8695 22.6388 21.7314 22.7754C21.5936 22.9119 21.5247 23.074 21.5247 23.2611C21.5247 23.4483 21.5936 23.6103 21.7314 23.7469C21.8695 23.8836 22.0327 23.9521 22.2214 23.9521ZM25.4991 23.7469C25.3613 23.8836 25.1979 23.9521 25.0091 23.9521C24.8204 23.9521 24.6571 23.8836 24.5191 23.7469C24.3813 23.6103 24.3124 23.4483 24.3124 23.2611C24.3124 23.074 24.3813 22.9119 24.5191 22.7754C24.6571 22.6388 24.8203 22.5702 25.0091 22.5702C25.1978 22.5702 25.3612 22.6388 25.4991 22.7754C25.6371 22.9119 25.7061 23.074 25.7061 23.2611C25.7061 23.4483 25.6372 23.6102 25.4991 23.7469Z" fill="white"/>
</svg>
