<svg width="137" height="118" viewBox="0 0 137 118" fill="none" xmlns="http://www.w3.org/2000/svg">
<path fill-rule="evenodd" clip-rule="evenodd" d="M124.958 57.9701H80.8895C80.1717 57.9701 79.59 57.3772 79.59 56.6456V52.1272C79.59 51.3961 80.1717 50.8027 80.8895 50.8027H124.958C125.676 50.8027 126.257 51.3961 126.257 52.1272V56.6456C126.257 57.3772 125.676 57.9701 124.958 57.9701Z" stroke="#34336C" stroke-width="0.5"/>
<path d="M107.002 3.37186V5.90132" stroke="#FA7268" stroke-width="0.5"/>
<path opacity="0.158203" fill-rule="evenodd" clip-rule="evenodd" d="M124.982 116.483C124.982 115.924 111.542 115.471 94.9629 115.471C78.3832 115.471 64.9431 115.924 64.9431 116.483C64.9431 117.042 78.3832 117.495 94.9629 117.495C111.542 117.495 124.982 117.042 124.982 116.483Z" fill="#1B2749"/>
<path fill-rule="evenodd" clip-rule="evenodd" d="M98.1332 51.7414C98.1332 51.7414 101.116 56.4365 101.792 54.4019C102.467 52.3674 102.88 51.1221 102.88 51.1221C102.88 51.1221 102.033 49.7064 101.585 50.1418C101.116 50.5974 100.507 49.7698 100.507 49.7698L98.1332 51.7414Z" fill="#FFBB9A"/>
<path fill-rule="evenodd" clip-rule="evenodd" d="M112.878 27.4593L114.11 20.1638C114.92 19.8978 115.752 19.2608 115.467 18.2747C115.324 17.7826 114.946 17.5215 114.5 17.3501C114.333 17.2853 113.471 17.0333 113.411 17.3717C113.412 17.3669 113.88 14.7424 113.88 14.7424L105.486 10.6134C105.486 10.6134 104.721 15.8499 104.711 15.9109C104.724 15.8293 103.896 15.6401 103.784 15.6521C103.362 15.6977 102.951 16.0986 102.785 16.4749C102.349 17.4677 103.194 18.7226 104.249 18.7394C104.249 18.7394 104.392 21.0888 104.927 21.9222C105.462 22.7556 107.93 23.3317 107.93 23.3317L107.659 26.5083L112.878 27.4593Z" fill="#FFBB9A"/>
<path fill-rule="evenodd" clip-rule="evenodd" d="M115.713 28.0573C111.92 26.9723 106.592 26.0175 106.592 26.0175L103.058 51.6731L117.947 51.2045L115.713 28.0573Z" fill="#FA7268"/>
<path fill-rule="evenodd" clip-rule="evenodd" d="M115.713 28.0573C120.666 29.3798 125.555 30.3784 130.648 30.916C129.514 25.6579 128.893 21.6378 127.411 17.1713C128.827 16.806 131.588 16.0864 133.003 15.7215C133.003 15.7215 137.693 32.3735 136.269 34.5938C133.847 38.3719 121.784 35.8842 121.784 35.8842L116.077 34.8478L115.713 28.0573Z" fill="#FA7268"/>
<path fill-rule="evenodd" clip-rule="evenodd" d="M90.2125 33.7055C90.2125 33.7055 106.195 25.7364 106.93 26.0302C107.664 26.324 108.289 30.0177 108.289 30.0177C108.289 30.0177 102.494 33.7746 93.5353 38.0198L101.684 49.3263L97.6244 52.2936C97.6244 52.2936 86.4347 39.4749 86.8605 36.8259C87.1888 34.7813 90.2125 33.7055 90.2125 33.7055Z" fill="#FA7268"/>
<path fill-rule="evenodd" clip-rule="evenodd" d="M132.762 15.7837C132.762 15.7837 132.101 11.071 132.022 10.9365C131.943 10.8021 131.943 9.97017 130.755 10.1708C130.755 10.1708 130.676 8.67736 129.99 8.65047C129.304 8.62359 128.539 8.81177 128.539 8.81177C128.539 8.81177 127.767 4.98278 127.265 4.31933C126.718 3.59443 125.953 5.50365 127.14 10.1708C127.14 10.1708 127.798 13.3445 127.602 13.4617C127.071 13.7771 126.341 13.72 125.33 11.9586C124.257 10.0878 122.919 10.7215 123.579 12.1737C124.238 13.6259 125.173 15.5043 125.78 16.0156C126.387 16.5264 127.669 16.4496 127.669 16.4496L127.857 17.0564L132.762 15.7837Z" fill="#FFBB9A"/>
<path fill-rule="evenodd" clip-rule="evenodd" d="M117.947 51.2047C116.154 78.9673 110.065 113.23 110.065 113.23L116.029 115.803H103.329L111.658 55.2142H108.805L87.7363 115.842H75.0512L82.2677 113.16L103.329 49.7011L117.947 51.2047Z" fill="#1B2749"/>
<path fill-rule="evenodd" clip-rule="evenodd" d="M114.893 17.5437C115.603 16.0967 116.433 12.586 114.278 11.6101C113.16 11.1031 112 10.3739 111.144 9.78966C109.831 8.89338 108.198 8.53765 106.675 8.96827C106.431 9.0374 106.192 9.12573 105.968 9.23807C104.464 9.99081 103.448 14.0646 103.448 14.0646L104.926 14.4424C104.926 14.4424 106.575 21.9151 109.287 23.4513L111.996 24.036L113.599 24.4028L114.893 17.5437Z" fill="#1B2749"/>
<path fill-rule="evenodd" clip-rule="evenodd" d="M112.928 11.0918C112.94 10.6439 112.923 10.1989 112.878 9.75342C112.86 9.57196 112.579 9.57052 112.597 9.75342C112.643 10.1989 112.66 10.6439 112.648 11.0918C112.644 11.2757 112.924 11.2757 112.928 11.0918Z" fill="#D06940"/>
<path fill-rule="evenodd" clip-rule="evenodd" d="M112.928 11.1483C113.114 11.0283 113.176 10.8104 113.277 10.6212C113.407 10.3807 113.557 10.1537 113.72 9.93618C113.83 9.78976 113.586 9.64766 113.478 9.79168C113.349 9.96355 113.228 10.1407 113.12 10.327C113.028 10.4844 112.942 10.8013 112.787 10.9016C112.635 10.9995 112.776 11.2472 112.928 11.1483Z" fill="#1B2749"/>
<mask id="mask0_636_2840" style="mask-type:luminance" maskUnits="userSpaceOnUse" x="0" y="108" width="62" height="3">
<path fill-rule="evenodd" clip-rule="evenodd" d="M0.988892 108.106H61.0282V110.129H0.988892V108.106Z" fill="white"/>
</mask>
<g mask="url(#mask0_636_2840)">
<path opacity="0.158203" fill-rule="evenodd" clip-rule="evenodd" d="M61.0282 109.117C61.0282 108.558 47.5881 108.106 31.0084 108.106C14.4292 108.106 0.988586 108.558 0.988586 109.117C0.988586 109.676 14.4292 110.129 31.0084 110.129C47.5881 110.129 61.0282 109.676 61.0282 109.117Z" fill="#1B2749"/>
</g>
<path fill-rule="evenodd" clip-rule="evenodd" d="M41.3369 2.88975C40.7736 2.75821 40.2475 2.73805 39.5273 2.66988C38.4525 2.56763 37.4724 3.27716 36.6595 4.00014C35.8461 4.72311 35.2602 5.67124 34.7336 6.63137C34.1958 7.61214 33.6942 8.74845 34.0116 9.82476C34.0926 10.0989 34.2259 10.3648 34.2221 10.6509C34.2104 11.5405 33.007 11.8766 32.6307 12.6797C32.1658 13.6715 33.1153 15.0085 32.4715 15.8908C32.1503 16.3315 31.5319 16.4703 31.2276 16.923C30.9883 17.2787 30.9982 17.7434 31.0171 18.174C31.0213 18.2628 31.0293 18.3613 31.0934 18.4217C31.1466 18.4717 31.2243 18.4813 31.2964 18.488C34.7346 18.825 38.1379 18.067 41.5761 18.404C41.9915 18.4448 42.4103 18.4851 42.8243 18.4357C43.4186 18.3641 43.9753 18.1107 44.5198 17.8572C47.4922 16.477 50.4674 16.1189 53.3716 14.5956C53.4931 14.5318 53.6221 14.4603 53.6833 14.3354C53.73 14.2394 53.729 14.1271 53.7182 14.021C53.6405 13.2409 53.0748 12.5342 52.341 12.2995C51.5842 12.0575 50.677 12.2688 50.045 11.7801C49.5895 11.4277 49.4242 10.8089 49.3639 10.229C49.2419 9.05041 49.3738 7.68751 48.5369 6.86516C47.8817 6.22139 46.83 6.15131 46.1716 5.51042C45.7971 5.14557 45.5951 4.63718 45.2922 4.20801C44.4068 2.9512 42.8982 2.22198 41.3369 2.88975Z" fill="#1B2749"/>
<path fill-rule="evenodd" clip-rule="evenodd" d="M35.5905 43.3881L16.4241 105.211L8.88031 108.176H20.0752L41.7157 49.9314C41.8546 49.5574 42.206 49.3097 42.5978 49.3097C43.1588 49.3097 43.5963 49.8056 43.5365 50.374L37.8343 108.176H49.1662L41.5998 105.627C41.5998 105.627 48.6496 72.0153 50.2184 61.499C51.7873 50.9823 49.5134 43.5518 49.5134 43.5518C49.5134 43.5518 42.1669 41.1774 35.5905 43.3881Z" fill="#1B2749"/>
<path fill-rule="evenodd" clip-rule="evenodd" d="M35.8152 21.1371C37.572 19.2668 44.5558 19.0512 47.0803 20.1078C49.6053 21.1649 54.2506 34.8343 54.2506 34.8343L49.6307 36.683L46.7638 25.2551L37.7793 23.9935L35.8152 21.1371Z" fill="#FA7268"/>
<path fill-rule="evenodd" clip-rule="evenodd" d="M47.6194 26.9337C47.6194 26.9337 48.4064 25.0413 48.5741 23.581C48.7422 22.1206 46.7942 20.6919 46.7942 20.6919L36.2233 23.4845L36.8804 29.9024L35.3294 42.8699L48.761 43.3783L47.4112 26.9875" fill="#FA7268"/>
<path fill-rule="evenodd" clip-rule="evenodd" d="M37.0283 27.3034C36.9831 27.3034 36.9379 27.289 36.8993 27.2597C36.8046 27.1868 36.7853 27.0495 36.856 26.953L37.6072 25.9333C37.6788 25.8363 37.8135 25.8162 37.9081 25.8896C38.0033 25.9621 38.0221 26.0989 37.9505 26.1959L37.2002 27.2156C37.1579 27.2732 37.0933 27.3034 37.0283 27.3034Z" fill="#3196BD"/>
<path fill-rule="evenodd" clip-rule="evenodd" d="M30.3184 45.0791C31.1261 44.5996 31.9338 44.1205 32.7421 43.6413L30.3184 45.0791Z" fill="#6DCBEE"/>
<path fill-rule="evenodd" clip-rule="evenodd" d="M40.7817 19.5935C40.6348 18.1625 41.3526 16.7108 39.0876 15.7861C35.9649 14.5111 35.2957 3.53635 40.9358 3.51186C46.5763 3.48738 46.2994 10.7316 46.2768 12.8822C46.2546 15.0329 44.3966 15.5807 43.9322 16.3593C43.4678 17.1375 43.8686 19.5935 43.8686 19.5935H40.7817Z" fill="#FFBB9A"/>
<path fill-rule="evenodd" clip-rule="evenodd" d="M37.5817 11.2819C37.5817 11.9867 37.097 12.5584 36.4989 12.5584C35.9007 12.5584 35.4161 11.9867 35.4161 11.2819C35.4161 10.5767 35.9007 10.0055 36.4989 10.0055C37.097 10.0055 37.5817 10.5767 37.5817 11.2819Z" fill="#FFBB9A"/>
<path fill-rule="evenodd" clip-rule="evenodd" d="M47.7007 10.2958C47.7007 11.0005 47.2156 11.5723 46.6179 11.5723C46.0198 11.5723 45.5347 11.0005 45.5347 10.2958C45.5347 9.59058 46.0198 9.0193 46.6179 9.0193C47.2156 9.0193 47.7007 9.59058 47.7007 10.2958Z" fill="#FFBB9A"/>
<path fill-rule="evenodd" clip-rule="evenodd" d="M12.9523 60.8552C9.34736 60.8552 6.42489 57.8764 6.42489 54.202C6.42489 50.5275 9.34736 47.5487 12.9523 47.5487C16.5572 47.5487 19.4797 50.5275 19.4797 54.202C19.4797 57.8764 16.5572 60.8552 12.9523 60.8552ZM69.971 33.5328L68.2985 29.2132L21.0114 48.1349C19.1863 45.6203 16.2568 43.9895 12.9523 43.9895C7.41867 43.9895 2.93298 48.5622 2.93298 54.202C2.93298 59.8422 7.41867 64.4144 12.9523 64.4144C18.4859 64.4144 22.9716 59.8422 22.9716 54.202C22.9716 53.7829 22.9438 53.37 22.8958 52.9643L58.9075 38.0996L60.8852 42.5335L65.2776 40.4822L63.7314 36.9542L65.1542 36.1861L66.8291 39.5806L69.971 37.8702L68.2307 34.2514L69.971 33.5328Z" fill="#00BECE"/>
<path fill-rule="evenodd" clip-rule="evenodd" d="M35.8152 21.1371C35.8152 21.1371 23.8926 31.9573 23.8267 33.9654C23.7617 35.974 30.8515 46.5378 30.8515 46.5378L34.3956 44.2536L29.4319 34.7829L37.5079 26.9339C37.5079 26.9339 37.7722 28.7576 38.4183 29.2535L38.7777 22.0329L35.8152 21.1371Z" fill="#FA7268"/>
<path fill-rule="evenodd" clip-rule="evenodd" d="M45.1453 6.03571C43.5953 6.11684 36.7264 6.82925 36.7264 6.82925C36.7264 6.82925 37.7305 2.62629 40.9356 2.46115C45.1453 2.24464 45.1453 6.03571 45.1453 6.03571Z" fill="#1B2749"/>
<path fill-rule="evenodd" clip-rule="evenodd" d="M36.7346 10.4742C36.7346 10.4742 42.3007 9.94275 43.2762 7.26447C43.2762 7.26447 45.1243 9.67296 46.2066 9.55198C46.2066 9.55198 46.3842 6.38356 45.7112 5.95486C45.0381 5.52616 36.4986 6.40996 36.4986 6.40996C36.4986 6.40996 36.2782 8.43631 36.7346 10.4742Z" fill="#1B2749"/>
<path fill-rule="evenodd" clip-rule="evenodd" d="M31.0007 46.4092C31.0007 46.4092 32.5215 49.6774 32.6086 49.7566C32.6958 49.8359 32.8794 50.4398 33.6966 50.0212C33.6966 50.0212 34.0838 51.0869 34.5877 50.9491C35.0912 50.8109 35.605 50.4993 35.605 50.4993C35.605 50.4993 36.2154 51.3279 36.6681 50.8901C37.197 50.3779 36.6968 49.809 36.3191 49.1921C36.3191 49.1921 35.1411 47.0395 35.2575 46.9103C35.573 46.5589 36.1156 46.4332 37.2384 47.4792C38.43 48.5906 39.2613 47.8234 38.4616 46.9214C37.6623 46.0193 36.5692 44.8701 36.0157 44.6387C35.4628 44.4073 34.5496 44.7573 34.5496 44.7573L34.2787 44.3598L31.0007 46.4092Z" fill="#FFBB9A"/>
<path fill-rule="evenodd" clip-rule="evenodd" d="M55.3762 39.557C55.3762 39.557 54.5223 42.0308 53.0311 42.4465C51.5395 42.8618 43.1771 44.5924 43.1771 44.5924V41.2214L55.3762 39.557Z" fill="#FA7268"/>
<path fill-rule="evenodd" clip-rule="evenodd" d="M43.1772 41.6254H42.54C42.54 41.6254 42.3968 41.1694 42.3063 41.0196C42.0454 40.5875 38.5446 40.1339 38.6086 40.6005C38.6731 41.0676 39.2487 41.1828 40.4827 41.4156C40.4827 41.4156 35.8661 42.5572 36.3003 42.9302C36.7346 43.3028 39.6146 42.4463 39.6146 42.4463C39.6146 42.4463 36.4906 43.4818 36.7115 44.188C36.8386 44.5927 40.0046 43.6412 40.0046 43.6412C40.0046 43.6412 36.7802 44.8169 37.3515 45.2134C37.9233 45.6095 41.4887 44.717 41.8316 44.5927C42.1745 44.4679 42.3063 43.7924 42.3063 43.7924L43.1772 43.6412V41.6254Z" fill="#FFBB9A"/>
<path fill-rule="evenodd" clip-rule="evenodd" d="M40.5485 1.17669C40.671 1.69708 40.7223 2.34516 41.0153 2.79979C41.1368 2.98845 41.4354 2.81275 41.3134 2.62264C41.0431 2.20259 40.9946 1.56458 40.8815 1.08308C40.8297 0.863206 40.4967 0.956338 40.5485 1.17669Z" fill="#1B2749"/>
<path fill-rule="evenodd" clip-rule="evenodd" d="M41.2988 2.83253C41.4749 2.5128 41.6633 2.20124 41.8644 1.89784C41.9892 1.70966 41.6906 1.53299 41.5663 1.72022C41.3652 2.02362 41.1768 2.33518 41.0006 2.6549C40.8918 2.85269 41.19 3.03031 41.2988 2.83253Z" fill="#1B2749"/>
<path fill-rule="evenodd" clip-rule="evenodd" d="M41.9666 10.2302C41.9539 10.6349 41.9633 11.0367 42.0099 11.4395C42.0335 11.6454 42.0142 12.0131 42.1545 12.1701C42.2346 12.2594 42.4027 12.2536 42.5045 12.27C42.8827 12.3295 43.2642 12.3737 43.6438 12.4255C43.6235 12.3751 43.6033 12.3252 43.5826 12.2752C43.2599 12.5873 42.9119 12.8172 42.5035 12.9934C42.4018 13.0376 42.4894 13.1893 42.5907 13.1451C43.0136 12.9627 43.3725 12.7207 43.7045 12.3996C43.7648 12.341 43.7125 12.2589 43.6438 12.2493C43.2481 12.1956 42.4423 12.2412 42.2369 11.8153C42.0443 11.4155 42.1253 10.6565 42.139 10.2302C42.1427 10.1169 41.9699 10.1169 41.9666 10.2302Z" fill="#FFA077"/>
<path fill-rule="evenodd" clip-rule="evenodd" d="M43.7383 11.4399C43.7878 11.0391 43.5377 10.0996 44.0337 9.90565C44.4745 9.73282 44.7529 10.1068 44.8221 10.486C44.8659 10.7237 44.9069 10.9618 44.9497 11.1999C44.9695 11.3113 45.1358 11.2642 45.116 11.1533C45.0119 10.5701 44.9874 9.57248 44.134 9.69106C43.3399 9.80147 43.63 10.9239 43.566 11.4399C43.5518 11.5518 43.7247 11.5508 43.7383 11.4399Z" fill="#55433D"/>
<path fill-rule="evenodd" clip-rule="evenodd" d="M39.2846 11.6802C39.3341 11.2789 39.084 10.3399 39.58 10.1459C40.0208 9.9731 40.2992 10.3471 40.3684 10.7263C40.4122 10.964 40.4532 11.2021 40.496 11.4402C40.5158 11.5511 40.6821 11.504 40.6623 11.3936C40.5582 10.8099 40.5337 9.81276 39.6807 9.93133C38.8862 10.0417 39.1763 11.1641 39.1123 11.6802C39.0981 11.7921 39.271 11.7911 39.2846 11.6802Z" fill="#55433D"/>
<path fill-rule="evenodd" clip-rule="evenodd" d="M40.461 12.7003C40.6465 14.1641 43.0778 14.4579 43.9712 13.5693C44.0513 13.49 43.9288 13.3657 43.8492 13.4449C43.1032 14.1866 40.8001 14.0133 40.6338 12.7003C40.6197 12.5899 40.4468 12.5885 40.461 12.7003Z" fill="#FFA077"/>
<path fill-rule="evenodd" clip-rule="evenodd" d="M40.4264 12.9462C40.4759 12.7912 40.6294 12.6904 40.7895 12.7177C40.8979 12.7364 40.945 12.5665 40.8352 12.5483C40.5799 12.5046 40.3412 12.6462 40.2601 12.8992C40.2258 13.0072 40.392 13.0538 40.4264 12.9462Z" fill="#FFA077"/>
<path fill-rule="evenodd" clip-rule="evenodd" d="M40.2105 12.1172C40.2872 12.3135 39.9467 12.6342 39.4277 12.7475C39.1771 12.8046 38.9148 12.796 38.7678 12.748C38.6247 12.7004 38.5239 12.6486 38.4711 12.5559C38.448 12.5089 38.4494 12.4498 38.4857 12.387C38.521 12.3245 38.5912 12.2617 38.6769 12.2117C38.8517 12.1143 39.0349 12.0475 39.2685 11.9952C39.7211 11.8973 40.1337 11.9184 40.2105 12.1172Z" fill="#FF837A"/>
<path fill-rule="evenodd" clip-rule="evenodd" d="M45.8727 11.7147C45.9495 11.911 45.6089 12.2317 45.0904 12.345C44.8394 12.4021 44.577 12.3935 44.4301 12.3455C44.2874 12.2979 44.1861 12.2461 44.1333 12.1534C44.1103 12.1064 44.1117 12.0474 44.1479 11.9845C44.1833 11.9221 44.2534 11.8596 44.3396 11.8092C44.5139 11.7123 44.6971 11.6451 44.9307 11.5927C45.3833 11.4948 45.7959 11.5159 45.8727 11.7147Z" fill="#FF837A"/>
<path fill-rule="evenodd" clip-rule="evenodd" d="M36.4265 10.6202C36.0874 10.6322 35.9065 10.9548 35.9367 11.2779C35.9673 11.6053 36.1929 11.8559 36.5183 11.879C36.629 11.8871 36.6285 11.7109 36.5183 11.7033C36.0619 11.6706 35.9164 10.8142 36.4265 10.7964C36.5372 10.7921 36.5376 10.6164 36.4265 10.6202Z" fill="#FFA077"/>
<path fill-rule="evenodd" clip-rule="evenodd" d="M35.9654 11.1003C36.1293 11.3101 36.3789 11.4205 36.6413 11.4032C36.751 11.396 36.752 11.2203 36.6413 11.2275C36.419 11.2419 36.2259 11.1526 36.0874 10.976C36.0182 10.8876 35.8966 11.0124 35.9654 11.1003Z" fill="#FFA077"/>
<path fill-rule="evenodd" clip-rule="evenodd" d="M46.5322 10.9226C46.9057 11.0133 47.112 10.6672 47.1591 10.3374C47.2109 9.97353 46.9915 9.62068 46.6118 9.58564C46.5016 9.57508 46.5021 9.75126 46.6118 9.76134C46.8544 9.78391 47.0164 10.0311 46.9962 10.2616C46.9769 10.4848 46.8667 10.8228 46.5784 10.7532C46.4701 10.7268 46.4244 10.8962 46.5322 10.9226Z" fill="#FFA077"/>
<path fill-rule="evenodd" clip-rule="evenodd" d="M46.6367 10.4036C46.7997 10.2538 46.9023 10.0613 46.9339 9.83954C46.9494 9.72865 46.7832 9.68064 46.7676 9.7925C46.7399 9.98692 46.6579 10.1477 46.5147 10.2793C46.4318 10.3551 46.5543 10.4795 46.6367 10.4036Z" fill="#FFA077"/>
</svg>
