<svg width="189" height="170" viewBox="0 0 189 170" fill="none" xmlns="http://www.w3.org/2000/svg">
<path opacity="0.298735" fill-rule="evenodd" clip-rule="evenodd" d="M0.705505 59.8083L53.2516 59.6411L39.8479 56.8536C39.8479 56.8536 40.3951 41.5229 33.8294 44.589C27.2642 47.655 26.9908 54.3452 26.9908 54.3452C26.9908 54.3452 24.5286 48.2126 20.9728 50.4425C17.4166 52.6729 15.775 56.5751 15.775 56.5751C15.775 56.5751 14.4986 52.1628 12.2188 51.9126C10.2698 51.6984 6.56182 55.8955 4.61851 58.256L0.705505 59.8083Z" fill="#FA7268"/>
<mask id="mask0_636_2693" style="mask-type:luminance" maskUnits="userSpaceOnUse" x="145" y="73" width="44" height="12">
<path fill-rule="evenodd" clip-rule="evenodd" d="M145.22 73.0697H188.567V84.678H145.22V73.0697Z" fill="white"/>
</mask>
<g mask="url(#mask0_636_2693)">
<path opacity="0.298735" fill-rule="evenodd" clip-rule="evenodd" d="M145.22 84.678L188.567 84.5541L177.509 82.4827C177.509 82.4827 177.96 71.0926 172.545 73.371C167.129 75.6489 166.903 80.6193 166.903 80.6193C166.903 80.6193 164.872 76.0629 161.939 77.7199C159.005 79.3763 157.651 82.2757 157.651 82.2757C157.651 82.2757 156.598 78.9974 154.718 78.812C153.109 78.653 150.051 81.7709 148.448 83.5249L145.22 84.678Z" fill="#FA7268"/>
</g>
<path opacity="0.298735" fill-rule="evenodd" clip-rule="evenodd" d="M74.7023 21.3836L118.049 21.2457L106.991 18.9462C106.991 18.9462 107.443 6.29972 102.027 8.82883C96.6113 11.3584 96.3856 16.8772 96.3856 16.8772C96.3856 16.8772 94.355 11.818 91.421 13.6579C88.4879 15.4974 87.1337 18.7166 87.1337 18.7166C87.1337 18.7166 86.0808 15.0767 84.2002 14.8702C82.592 14.6939 79.5335 18.1557 77.9305 20.1032L74.7023 21.3836Z" fill="#FA7268"/>
<path fill-rule="evenodd" clip-rule="evenodd" d="M144.699 43.1355L147.074 50.1086C147.175 50.4035 147.003 50.706 146.71 50.8093L143.434 51.9682C143.183 52.057 142.862 51.9293 142.761 51.6344L140.386 44.6613C137.844 44.5682 135.477 42.9367 134.583 40.3135C133.434 36.9405 135.192 33.2395 138.513 32.0648C141.832 30.891 145.462 32.6858 146.611 36.0587C147.505 38.682 146.639 41.4565 144.699 43.1355ZM124.912 18.2474C123.467 14.0061 125.673 9.35712 129.836 7.8851C133.995 6.41355 138.556 8.66794 140.001 12.9097L141.431 17.1058L126.341 22.4435L124.912 18.2474ZM150.954 13.7372L147.658 14.9033L146.228 10.7072C143.592 2.9676 135.264 -1.14207 127.675 1.54216C120.082 4.22783 116.054 12.7085 118.69 20.448L120.12 24.6441L116.813 25.8141C114.241 26.7237 112.859 29.6236 113.753 32.2473L123.056 59.5526C123.963 62.2157 126.813 63.6253 129.385 62.7157L163.526 50.6383C166.14 49.7138 167.522 46.8072 166.615 44.1446L157.312 16.8388C156.418 14.2155 153.567 12.8127 150.954 13.7372Z" fill="#FFAC00"/>
<path fill-rule="evenodd" clip-rule="evenodd" d="M127.01 141.271C126.057 139.382 128.288 137.359 130.341 136.986C132.395 136.612 134.722 136.898 136.358 135.58C138.541 133.82 138.429 129.981 140.849 128.576C142.791 127.448 145.362 128.524 147.42 127.633C149.976 126.525 150.695 122.901 153.202 121.685C155.202 120.715 157.816 121.811 158.836 123.811C159.856 125.812 159.387 128.397 157.972 130.131C156.866 131.487 155.228 132.437 154.54 134.055C153.464 136.588 155.163 139.658 154.172 142.226C152.343 146.972 143.701 145.543 142.199 150.406C141.865 151.489 142.006 152.656 141.918 153.787C141.66 157.152 139.329 160.092 136.449 161.768C133.57 163.444 130.201 164.026 126.892 164.261C125.541 164.357 124.116 164.386 122.91 163.755C121.776 163.161 120.987 162.056 120.371 160.92C116.397 153.583 114.759 144.022 127.01 141.271Z" fill="#00BECE"/>
<path fill-rule="evenodd" clip-rule="evenodd" d="M80.5413 80.1451C77.8062 79.6863 75.0903 78.243 72.7717 76.7717C66.5177 72.8033 61.7613 66.7552 58.4174 60.136C55.3914 54.1458 53.4521 47.6503 52.1635 41.061C52.0545 40.5031 52.8979 40.2856 53.0082 40.8467C55.9033 55.6503 63.1524 72.879 78.183 78.5235C79.0228 78.8386 79.8989 79.1449 80.7859 79.2936C81.3371 79.3864 81.0889 80.2369 80.5413 80.1451Z" fill="#00BECE"/>
<path fill-rule="evenodd" clip-rule="evenodd" d="M57.6981 57.7041C57.6981 57.7041 55.7233 53.1713 49.3774 53.9844C49.3774 53.9844 52.9993 59.0225 57.6981 57.7041Z" fill="#00BECE"/>
<path fill-rule="evenodd" clip-rule="evenodd" d="M61.4343 64.1957C61.4343 64.1957 58.4758 60.2575 52.4923 62.5576C52.4923 62.5576 57.1682 66.5957 61.4343 64.1957Z" fill="#00BECE"/>
<path fill-rule="evenodd" clip-rule="evenodd" d="M65.5647 69.7058C65.5647 69.7058 61.8153 66.5423 56.4912 70.1502C56.4912 70.1502 61.9352 73.0188 65.5647 69.7058Z" fill="#00BECE"/>
<path fill-rule="evenodd" clip-rule="evenodd" d="M54.9487 50.5851C54.9487 50.5851 53.0073 46.1294 46.7692 46.9285C46.7692 46.9285 50.3295 51.8813 54.9487 50.5851Z" fill="#00BECE"/>
<path fill-rule="evenodd" clip-rule="evenodd" d="M52.8828 42.51C52.8828 42.51 55.556 38.4699 51.5751 33.509C51.5751 33.509 49.3492 39.2101 52.8828 42.51Z" fill="#00BECE"/>
<path fill-rule="evenodd" clip-rule="evenodd" d="M54.0384 47.3173C54.0384 47.3173 58.3922 45.3005 57.5455 38.9524C57.5455 38.9524 52.72 42.6224 54.0384 47.3173Z" fill="#00BECE"/>
<path fill-rule="evenodd" clip-rule="evenodd" d="M56.2325 54.2994C56.2325 54.2994 60.5864 52.283 59.7402 45.9348C59.7402 45.9348 54.9147 49.6048 56.2325 54.2994Z" fill="#00BECE"/>
<path fill-rule="evenodd" clip-rule="evenodd" d="M59.0467 60.6465C59.0467 60.6465 63.2507 58.3241 61.9698 52.0516C61.9698 52.0516 57.4083 56.0574 59.0467 60.6465Z" fill="#00BECE"/>
<path fill-rule="evenodd" clip-rule="evenodd" d="M62.7448 66.7621C62.7448 66.7621 66.9493 64.4396 65.6685 58.167C65.6685 58.167 61.1066 62.1735 62.7448 66.7621Z" fill="#00BECE"/>
<path fill-rule="evenodd" clip-rule="evenodd" d="M122.644 169.116H74.9806C69.4759 169.116 65.0133 164.569 65.0133 158.96V44.2101C65.0133 38.6011 69.4759 34.0534 74.9806 34.0534H122.644C128.149 34.0534 132.611 38.6011 132.611 44.2101V158.96C132.611 164.569 128.149 169.116 122.644 169.116Z" fill="#1B2749"/>
<path fill-rule="evenodd" clip-rule="evenodd" d="M122.51 164.342H75.1143C71.2588 164.342 68.1334 161.158 68.1334 157.229V45.1383C68.1334 41.2097 71.2588 38.025 75.1143 38.025H122.51C126.366 38.025 129.491 41.2097 129.491 45.1383V157.229C129.491 161.158 126.366 164.342 122.51 164.342Z" fill="#F1ECEC"/>
<path fill-rule="evenodd" clip-rule="evenodd" d="M117.172 38.0249H113.182C111.958 38.0249 110.965 39.0364 110.965 40.2841V41.8983C110.965 43.146 109.973 44.157 108.748 44.157H90.9539C89.7293 44.157 88.7372 43.146 88.7372 41.8983V40.2841C88.7372 39.0364 87.7445 38.0249 86.52 38.0249H75.1896V36.866H117.172V38.0249Z" fill="#1B2749"/>
<path fill-rule="evenodd" clip-rule="evenodd" d="M99.6751 49.5815C99.9358 49.4399 100.115 49.1632 100.115 48.8419C100.115 48.3765 99.7449 48 99.2891 48C98.8324 48 98.4624 48.3765 98.4624 48.8419C98.4624 49.1632 98.6424 49.4399 98.9021 49.5815C98.3808 49.7496 98 50.2486 98 50.8336V51.4959H100.578V50.8336C100.578 50.2486 100.196 49.7496 99.6751 49.5815Z" fill="#34336C"/>
</svg>
