<svg width="189" height="169" viewBox="0 0 189 169" fill="none" xmlns="http://www.w3.org/2000/svg">
<path opacity="0.298735" fill-rule="evenodd" clip-rule="evenodd" d="M0.205505 59.3083L52.7516 59.1411L39.3479 56.3536C39.3479 56.3536 39.8951 41.0229 33.3294 44.089C26.7642 47.155 26.4908 53.8452 26.4908 53.8452C26.4908 53.8452 24.0286 47.7126 20.4728 49.9425C16.9166 52.1729 15.275 56.0751 15.275 56.0751C15.275 56.0751 13.9986 51.6628 11.7188 51.4126C9.7698 51.1984 6.06182 55.3955 4.11851 57.756L0.205505 59.3083Z" fill="#FA7268"/>
<mask id="mask0_636_2693" style="mask-type:luminance" maskUnits="userSpaceOnUse" x="144" y="72" width="45" height="13">
<path fill-rule="evenodd" clip-rule="evenodd" d="M144.72 72.5697H188.067V84.178H144.72V72.5697Z" fill="white"/>
</mask>
<g mask="url(#mask0_636_2693)">
<path opacity="0.298735" fill-rule="evenodd" clip-rule="evenodd" d="M144.72 84.178L188.067 84.0541L177.009 81.9827C177.009 81.9827 177.46 70.5926 172.045 72.871C166.629 75.1489 166.403 80.1193 166.403 80.1193C166.403 80.1193 164.372 75.5629 161.439 77.2199C158.505 78.8763 157.151 81.7757 157.151 81.7757C157.151 81.7757 156.098 78.4974 154.218 78.312C152.609 78.153 149.551 81.2709 147.948 83.0249L144.72 84.178Z" fill="#FA7268"/>
</g>
<path opacity="0.298735" fill-rule="evenodd" clip-rule="evenodd" d="M74.2023 20.8836L117.549 20.7457L106.491 18.4462C106.491 18.4462 106.943 5.79972 101.527 8.32883C96.1113 10.8584 95.8856 16.3772 95.8856 16.3772C95.8856 16.3772 93.855 11.318 90.921 13.1579C87.9879 14.9974 86.6338 18.2166 86.6338 18.2166C86.6338 18.2166 85.5808 14.5767 83.7002 14.3702C82.092 14.1939 79.0335 17.6557 77.4305 19.6032L74.2023 20.8836Z" fill="#FA7268"/>
<path fill-rule="evenodd" clip-rule="evenodd" d="M144.199 42.6355L146.574 49.6086C146.675 49.9035 146.503 50.206 146.21 50.3093L142.934 51.4682C142.683 51.557 142.362 51.4293 142.261 51.1344L139.886 44.1613C137.344 44.0682 134.977 42.4367 134.083 39.8135C132.934 36.4405 134.692 32.7395 138.013 31.5648C141.332 30.391 144.962 32.1858 146.111 35.5587C147.005 38.182 146.139 40.9565 144.199 42.6355V42.6355ZM124.412 17.7474C122.967 13.5061 125.173 8.85712 129.336 7.3851C133.495 5.91355 138.056 8.16794 139.501 12.4097L140.931 16.6058L125.841 21.9435L124.412 17.7474ZM150.454 13.2372L147.158 14.4033L145.728 10.2072C143.092 2.4676 134.764 -1.64207 127.175 1.04216C119.582 3.72783 115.554 12.2085 118.19 19.948L119.62 24.1441L116.313 25.3141C113.741 26.2237 112.359 29.1236 113.253 31.7473L122.556 59.0526C123.463 61.7157 126.313 63.1253 128.885 62.2157L163.026 50.1383C165.64 49.2138 167.022 46.3072 166.115 43.6446L156.812 16.3388C155.918 13.7155 153.067 12.3127 150.454 13.2372V13.2372Z" fill="#FFAC00"/>
<path fill-rule="evenodd" clip-rule="evenodd" d="M126.51 140.771C125.557 138.882 127.788 136.859 129.841 136.486C131.895 136.112 134.222 136.398 135.858 135.08C138.041 133.32 137.929 129.481 140.349 128.076C142.291 126.948 144.862 128.024 146.92 127.133C149.476 126.025 150.195 122.401 152.702 121.185C154.702 120.215 157.316 121.311 158.336 123.311C159.356 125.312 158.887 127.897 157.472 129.631C156.366 130.987 154.728 131.937 154.04 133.555C152.964 136.088 154.663 139.158 153.672 141.726C151.843 146.472 143.2 145.043 141.699 149.906C141.365 150.989 141.506 152.156 141.418 153.287C141.16 156.652 138.829 159.592 135.949 161.268C133.07 162.944 129.701 163.526 126.392 163.761C125.041 163.857 123.615 163.886 122.41 163.255C121.276 162.661 120.487 161.556 119.871 160.42C115.897 153.083 114.259 143.522 126.51 140.771" fill="#00BECE"/>
<path fill-rule="evenodd" clip-rule="evenodd" d="M80.0413 79.6451C77.3062 79.1863 74.5903 77.743 72.2717 76.2717C66.0177 72.3033 61.2613 66.2552 57.9174 59.636C54.8914 53.6458 52.9521 47.1503 51.6635 40.561C51.5545 40.0031 52.3979 39.7856 52.5082 40.3467C55.4033 55.1503 62.6524 72.379 77.683 78.0235C78.5228 78.3386 79.3989 78.6449 80.2859 78.7936C80.8371 78.8864 80.5889 79.7369 80.0413 79.6451" fill="#00BECE"/>
<path fill-rule="evenodd" clip-rule="evenodd" d="M57.1981 57.2041C57.1981 57.2041 55.2233 52.6713 48.8774 53.4844C48.8774 53.4844 52.4993 58.5225 57.1981 57.2041" fill="#00BECE"/>
<path fill-rule="evenodd" clip-rule="evenodd" d="M60.9343 63.6957C60.9343 63.6957 57.9758 59.7575 51.9923 62.0576C51.9923 62.0576 56.6682 66.0957 60.9343 63.6957" fill="#00BECE"/>
<path fill-rule="evenodd" clip-rule="evenodd" d="M65.0647 69.2058C65.0647 69.2058 61.3153 66.0423 55.9912 69.6502C55.9912 69.6502 61.4352 72.5188 65.0647 69.2058" fill="#00BECE"/>
<path fill-rule="evenodd" clip-rule="evenodd" d="M54.4487 50.0851C54.4487 50.0851 52.5073 45.6294 46.2692 46.4285C46.2692 46.4285 49.8295 51.3813 54.4487 50.0851" fill="#00BECE"/>
<path fill-rule="evenodd" clip-rule="evenodd" d="M52.3828 42.01C52.3828 42.01 55.056 37.9699 51.0751 33.009C51.0751 33.009 48.8492 38.7101 52.3828 42.01" fill="#00BECE"/>
<path fill-rule="evenodd" clip-rule="evenodd" d="M53.5384 46.8173C53.5384 46.8173 57.8922 44.8005 57.0455 38.4524C57.0455 38.4524 52.22 42.1224 53.5384 46.8173" fill="#00BECE"/>
<path fill-rule="evenodd" clip-rule="evenodd" d="M55.7325 53.7994C55.7325 53.7994 60.0864 51.783 59.2402 45.4348C59.2402 45.4348 54.4147 49.1048 55.7325 53.7994" fill="#00BECE"/>
<path fill-rule="evenodd" clip-rule="evenodd" d="M58.5467 60.1465C58.5467 60.1465 62.7507 57.8241 61.4698 51.5516C61.4698 51.5516 56.9083 55.5574 58.5467 60.1465" fill="#00BECE"/>
<path fill-rule="evenodd" clip-rule="evenodd" d="M62.2448 66.2621C62.2448 66.2621 66.4493 63.9396 65.1685 57.667C65.1685 57.667 60.6066 61.6735 62.2448 66.2621" fill="#00BECE"/>
<path fill-rule="evenodd" clip-rule="evenodd" d="M122.144 168.616H74.4806C68.9759 168.616 64.5133 164.069 64.5133 158.46V43.7101C64.5133 38.1011 68.9759 33.5534 74.4806 33.5534H122.144C127.649 33.5534 132.111 38.1011 132.111 43.7101V158.46C132.111 164.069 127.649 168.616 122.144 168.616" fill="#1B2749"/>
<path fill-rule="evenodd" clip-rule="evenodd" d="M122.01 163.842H74.6143C70.7588 163.842 67.6334 160.658 67.6334 156.729V44.6383C67.6334 40.7097 70.7588 37.525 74.6143 37.525H122.01C125.866 37.525 128.991 40.7097 128.991 44.6383V156.729C128.991 160.658 125.866 163.842 122.01 163.842" fill="#F1ECEC"/>
<path fill-rule="evenodd" clip-rule="evenodd" d="M116.672 37.5249H112.682C111.458 37.5249 110.465 38.5364 110.465 39.7841V41.3983C110.465 42.646 109.473 43.657 108.248 43.657H90.4539C89.2293 43.657 88.2372 42.646 88.2372 41.3983V39.7841C88.2372 38.5364 87.2445 37.5249 86.02 37.5249H74.6896V36.366H116.672V37.5249Z" fill="#1B2749"/>
<path fill-rule="evenodd" clip-rule="evenodd" d="M99.1751 49.0815C99.4358 48.9399 99.6149 48.6632 99.6149 48.3419C99.6149 47.8765 99.2449 47.5 98.7891 47.5C98.3324 47.5 97.9624 47.8765 97.9624 48.3419C97.9624 48.6632 98.1424 48.9399 98.4021 49.0815C97.8808 49.2496 97.5 49.7486 97.5 50.3336V50.9959H100.078V50.3336C100.078 49.7486 99.6964 49.2496 99.1751 49.0815" fill="#34336C"/>
</svg>
