<svg width="37" height="36" viewBox="0 0 37 36" fill="none" xmlns="http://www.w3.org/2000/svg">
<path fill-rule="evenodd" clip-rule="evenodd" d="M18.2901 36C28.1153 36 36.0802 27.9411 36.0802 18C36.0802 8.05887 28.1153 0 18.2901 0C8.46489 0 0.5 8.05887 0.5 18C0.5 27.9411 8.46489 36 18.2901 36Z" fill="#FA7268"/>
<path fill-rule="evenodd" clip-rule="evenodd" d="M16.5391 14.1723H13.6005C13.2792 14.1723 13.0535 14.0257 12.9233 13.7322C12.7932 13.4459 12.8468 13.1929 13.084 12.9728L18.2265 8.04252C18.3643 7.9031 18.5365 7.83337 18.743 7.83337C18.9497 7.83337 19.1216 7.9031 19.2595 8.04252L24.4021 12.9728C24.6392 13.1929 24.6929 13.4461 24.5628 13.7322C24.4329 14.0255 24.2071 14.1723 23.8856 14.1723H20.9469V19.1027C20.9469 19.2934 20.8743 19.4586 20.729 19.5979C20.5834 19.7372 20.4114 19.8071 20.2125 19.8071H17.2736C17.0748 19.8071 16.9026 19.7371 16.7571 19.5979C16.6118 19.4585 16.5391 19.2934 16.5391 19.1027V14.1723ZM26.3045 19.8071C26.5949 19.8071 26.8419 19.9077 27.0448 20.1093C27.2483 20.3109 27.3498 20.5553 27.3498 20.8432V24.2974C27.3498 24.5851 27.2483 24.8298 27.0449 25.0312C26.8419 25.2327 26.5949 25.3334 26.3046 25.3334H10.2756C9.98527 25.3334 9.73846 25.2327 9.53518 25.0312C9.33189 24.8301 9.23029 24.5851 9.23029 24.2974V20.8432C9.23029 20.5553 9.33189 20.3106 9.53518 20.1093C9.7385 19.9077 9.98531 19.8071 10.2756 19.8071H14.9254C15.0778 20.21 15.3336 20.541 15.693 20.8C16.0523 21.059 16.4534 21.1886 16.8961 21.1886H19.684C20.1268 21.1886 20.5277 21.059 20.8872 20.8C21.2465 20.541 21.5025 20.21 21.6548 19.8071H26.3045ZM22.4714 23.9521C22.6602 23.9521 22.8236 23.8836 22.9617 23.7469C23.0995 23.6102 23.1684 23.4483 23.1684 23.2611C23.1684 23.074 23.0995 22.9119 22.9617 22.7754C22.8235 22.6388 22.6602 22.5702 22.4714 22.5702C22.2827 22.5702 22.1195 22.6388 21.9814 22.7754C21.8436 22.9119 21.7747 23.074 21.7747 23.2611C21.7747 23.4483 21.8436 23.6103 21.9814 23.7469C22.1195 23.8836 22.2827 23.9521 22.4714 23.9521ZM25.7491 23.7469C25.6113 23.8836 25.4479 23.9521 25.2591 23.9521C25.0704 23.9521 24.9071 23.8836 24.7691 23.7469C24.6313 23.6103 24.5624 23.4483 24.5624 23.2611C24.5624 23.074 24.6313 22.9119 24.7691 22.7754C24.9071 22.6388 25.0703 22.5702 25.2591 22.5702C25.4478 22.5702 25.6112 22.6388 25.7491 22.7754C25.8871 22.9119 25.9561 23.074 25.9561 23.2611C25.9561 23.4483 25.8872 23.6102 25.7491 23.7469Z" fill="white"/>
</svg>
