<svg width="137" height="117" viewBox="0 0 137 117" fill="none" xmlns="http://www.w3.org/2000/svg">
<path fill-rule="evenodd" clip-rule="evenodd" d="M124.458 57.4701H80.3895C79.6717 57.4701 79.09 56.8772 79.09 56.1456V51.6272C79.09 50.8961 79.6717 50.3027 80.3895 50.3027H124.458C125.176 50.3027 125.757 50.8961 125.757 51.6272V56.1456C125.757 56.8772 125.176 57.4701 124.458 57.4701Z" stroke="#34336C" stroke-width="0.5"/>
<path d="M106.502 2.87186V5.40132" stroke="#FA7268" stroke-width="0.5"/>
<path opacity="0.158203" fill-rule="evenodd" clip-rule="evenodd" d="M124.482 115.983C124.482 115.424 111.042 114.971 94.4629 114.971C77.8832 114.971 64.4431 115.424 64.4431 115.983C64.4431 116.542 77.8832 116.995 94.4629 116.995C111.042 116.995 124.482 116.542 124.482 115.983" fill="#1B2749"/>
<path fill-rule="evenodd" clip-rule="evenodd" d="M97.6332 51.2414C97.6332 51.2414 100.616 55.9365 101.292 53.9019C101.967 51.8674 102.38 50.6221 102.38 50.6221C102.38 50.6221 101.533 49.2064 101.085 49.6419C100.616 50.0974 100.007 49.2698 100.007 49.2698L97.6332 51.2414Z" fill="#FFBB9A"/>
<path fill-rule="evenodd" clip-rule="evenodd" d="M112.378 26.9593L113.61 19.6638C114.42 19.3978 115.252 18.7608 114.967 17.7747C114.824 17.2826 114.446 17.0215 114 16.8501C113.833 16.7853 112.971 16.5333 112.911 16.8717C112.912 16.8669 113.38 14.2424 113.38 14.2424L104.986 10.1134C104.986 10.1134 104.221 15.3499 104.211 15.4109C104.224 15.3293 103.396 15.1401 103.284 15.1521C102.862 15.1977 102.451 15.5986 102.285 15.9749C101.849 16.9677 102.694 18.2226 103.749 18.2394C103.749 18.2394 103.892 20.5888 104.427 21.4222C104.962 22.2556 107.43 22.8317 107.43 22.8317L107.159 26.0083L112.378 26.9593Z" fill="#FFBB9A"/>
<path fill-rule="evenodd" clip-rule="evenodd" d="M115.213 27.5573C111.42 26.4723 106.092 25.5175 106.092 25.5175L102.558 51.1731L117.447 50.7045L115.213 27.5573Z" fill="#FA7268"/>
<path fill-rule="evenodd" clip-rule="evenodd" d="M115.213 27.5573C120.166 28.8798 125.055 29.8784 130.148 30.416C129.014 25.1579 128.393 21.1378 126.911 16.6713C128.327 16.306 131.088 15.5864 132.503 15.2215C132.503 15.2215 137.193 31.8735 135.769 34.0938C133.347 37.8719 121.284 35.3842 121.284 35.3842L115.577 34.3478L115.213 27.5573Z" fill="#FA7268"/>
<path fill-rule="evenodd" clip-rule="evenodd" d="M89.7125 33.2055C89.7125 33.2055 105.695 25.2364 106.43 25.5302C107.164 25.824 107.789 29.5177 107.789 29.5177C107.789 29.5177 101.994 33.2746 93.0353 37.5198L101.184 48.8263L97.1244 51.7936C97.1244 51.7936 85.9347 38.9749 86.3605 36.3259C86.6888 34.2813 89.7125 33.2055 89.7125 33.2055" fill="#FA7268"/>
<path fill-rule="evenodd" clip-rule="evenodd" d="M132.262 15.2837C132.262 15.2837 131.601 10.571 131.522 10.4365C131.443 10.3021 131.443 9.47017 130.255 9.67083C130.255 9.67083 130.176 8.17736 129.49 8.15047C128.804 8.12359 128.039 8.31177 128.039 8.31177C128.039 8.31177 127.267 4.48278 126.765 3.81933C126.218 3.09443 125.453 5.00365 126.64 9.67083C126.64 9.67083 127.298 12.8445 127.102 12.9617C126.571 13.2771 125.841 13.22 124.83 11.4586C123.757 9.58778 122.419 10.2215 123.079 11.6737C123.738 13.1259 124.673 15.0043 125.28 15.5156C125.887 16.0264 127.169 15.9496 127.169 15.9496L127.357 16.5564L132.262 15.2837Z" fill="#FFBB9A"/>
<path fill-rule="evenodd" clip-rule="evenodd" d="M117.447 50.7047C115.654 78.4673 109.565 112.73 109.565 112.73L115.529 115.303H102.829L111.158 54.7142H108.305L87.2363 115.342H74.5512L81.7677 112.66L102.829 49.2011L117.447 50.7047Z" fill="#1B2749"/>
<path fill-rule="evenodd" clip-rule="evenodd" d="M114.393 17.0437C115.103 15.5967 115.933 12.086 113.778 11.1101C112.66 10.6031 111.5 9.8739 110.644 9.28966C109.331 8.39338 107.698 8.03765 106.175 8.46827C105.931 8.5374 105.692 8.62573 105.468 8.73807C103.964 9.49081 102.948 13.5646 102.948 13.5646L104.426 13.9424C104.426 13.9424 106.075 21.4151 108.787 22.9513L111.496 23.536L113.099 23.9028L114.393 17.0437Z" fill="#1B2749"/>
<path fill-rule="evenodd" clip-rule="evenodd" d="M112.428 10.5918C112.44 10.1439 112.423 9.69892 112.378 9.25342C112.36 9.07196 112.079 9.07052 112.097 9.25342C112.143 9.69892 112.16 10.1439 112.148 10.5918C112.143 10.7757 112.424 10.7757 112.428 10.5918" fill="#D06940"/>
<path fill-rule="evenodd" clip-rule="evenodd" d="M112.428 10.6483C112.614 10.5283 112.676 10.3104 112.777 10.1212C112.907 9.88072 113.057 9.65365 113.22 9.43618C113.33 9.28976 113.086 9.14766 112.978 9.29168C112.849 9.46355 112.728 9.64069 112.62 9.82695C112.528 9.98442 112.442 10.3013 112.287 10.4016C112.135 10.4995 112.276 10.7472 112.428 10.6483" fill="#1B2749"/>
<mask id="mask0_636_2840" style="mask-type:luminance" maskUnits="userSpaceOnUse" x="0" y="107" width="61" height="3">
<path fill-rule="evenodd" clip-rule="evenodd" d="M0.488892 107.606H60.5282V109.629H0.488892V107.606Z" fill="white"/>
</mask>
<g mask="url(#mask0_636_2840)">
<path opacity="0.158203" fill-rule="evenodd" clip-rule="evenodd" d="M60.5282 108.617C60.5282 108.058 47.0881 107.606 30.5084 107.606C13.9292 107.606 0.488586 108.058 0.488586 108.617C0.488586 109.176 13.9292 109.629 30.5084 109.629C47.0881 109.629 60.5282 109.176 60.5282 108.617" fill="#1B2749"/>
</g>
<path fill-rule="evenodd" clip-rule="evenodd" d="M40.8369 2.38975C40.2736 2.25821 39.7475 2.23805 39.0273 2.16988C37.9525 2.06763 36.9724 2.77716 36.1595 3.50014C35.3461 4.22311 34.7602 5.17124 34.2336 6.13137C33.6958 7.11214 33.1942 8.24845 33.5116 9.32476C33.5926 9.59887 33.7259 9.86483 33.7221 10.1509C33.7104 11.0405 32.507 11.3766 32.1307 12.1797C31.6658 13.1715 32.6153 14.5085 31.9715 15.3908C31.6503 15.8315 31.0319 15.9703 30.7276 16.423C30.4883 16.7787 30.4982 17.2434 30.5171 17.674C30.5213 17.7628 30.5293 17.8613 30.5934 17.9217C30.6466 17.9717 30.7243 17.9813 30.7964 17.988C34.2346 18.325 37.6379 17.567 41.0761 17.904C41.4915 17.9448 41.9103 17.9851 42.3243 17.9357C42.9186 17.8641 43.4753 17.6107 44.0198 17.3572C46.9922 15.977 49.9674 15.6189 52.8716 14.0956C52.9931 14.0318 53.1221 13.9603 53.1833 13.8354C53.23 13.7394 53.229 13.6271 53.2182 13.521C53.1405 12.7409 52.5748 12.0342 51.841 11.7995C51.0842 11.5575 50.177 11.7688 49.545 11.2801C49.0895 10.9277 48.9242 10.3089 48.8639 9.72897C48.7419 8.55041 48.8738 7.18751 48.0369 6.36516C47.3817 5.72139 46.33 5.65131 45.6716 5.01042C45.2971 4.64557 45.0951 4.13718 44.7922 3.70801C43.9068 2.4512 42.3982 1.72198 40.8369 2.38975" fill="#1B2749"/>
<path fill-rule="evenodd" clip-rule="evenodd" d="M35.0905 42.8881L15.9241 104.711L8.38031 107.676H19.5752L41.2157 49.4314C41.3546 49.0574 41.706 48.8097 42.0978 48.8097C42.6588 48.8097 43.0963 49.3056 43.0365 49.874L37.3343 107.676H48.6662L41.0998 105.127C41.0998 105.127 48.1496 71.5153 49.7184 60.999C51.2873 50.4823 49.0134 43.0518 49.0134 43.0518C49.0134 43.0518 41.6669 40.6774 35.0905 42.8881" fill="#1B2749"/>
<path fill-rule="evenodd" clip-rule="evenodd" d="M35.3152 20.6371C37.072 18.7668 44.0558 18.5512 46.5803 19.6078C49.1053 20.6649 53.7506 34.3343 53.7506 34.3343L49.1307 36.183L46.2638 24.7551L37.2793 23.4935L35.3152 20.6371Z" fill="#FA7268"/>
<path fill-rule="evenodd" clip-rule="evenodd" d="M47.1194 26.4337C47.1194 26.4337 47.9064 24.5413 48.0741 23.081C48.2422 21.6206 46.2942 20.1919 46.2942 20.1919L35.7233 22.9845L36.3804 29.4024L34.8294 42.3699L48.261 42.8783L46.9112 26.4875" fill="#FA7268"/>
<path fill-rule="evenodd" clip-rule="evenodd" d="M36.5283 26.8034C36.4831 26.8034 36.4379 26.789 36.3993 26.7597C36.3046 26.6868 36.2853 26.5495 36.356 26.453L37.1072 25.4333C37.1788 25.3363 37.3135 25.3162 37.4081 25.3896C37.5033 25.4621 37.5221 25.5989 37.4505 25.6959L36.7002 26.7156C36.6579 26.7732 36.5933 26.8034 36.5283 26.8034" fill="#3196BD"/>
<path fill-rule="evenodd" clip-rule="evenodd" d="M29.8184 44.5791C30.6261 44.0996 31.4338 43.6205 32.2421 43.1414Z" fill="#6DCBEE"/>
<path fill-rule="evenodd" clip-rule="evenodd" d="M40.2817 19.0935C40.1348 17.6625 40.8526 16.2108 38.5876 15.2861C35.4649 14.0111 34.7957 3.03635 40.4358 3.01186C46.0763 2.98738 45.7994 10.2316 45.7768 12.3822C45.7546 14.5329 43.8966 15.0807 43.4322 15.8593C42.9678 16.6375 43.3686 19.0935 43.3686 19.0935H40.2817Z" fill="#FFBB9A"/>
<path fill-rule="evenodd" clip-rule="evenodd" d="M37.0817 10.7819C37.0817 11.4867 36.597 12.0584 35.9989 12.0584C35.4007 12.0584 34.9161 11.4867 34.9161 10.7819C34.9161 10.0767 35.4007 9.50546 35.9989 9.50546C36.597 9.50546 37.0817 10.0767 37.0817 10.7819" fill="#FFBB9A"/>
<path fill-rule="evenodd" clip-rule="evenodd" d="M47.2007 9.79579C47.2007 10.5005 46.7156 11.0723 46.1179 11.0723C45.5198 11.0723 45.0347 10.5005 45.0347 9.79579C45.0347 9.09058 45.5198 8.5193 46.1179 8.5193C46.7156 8.5193 47.2007 9.09058 47.2007 9.79579" fill="#FFBB9A"/>
<path fill-rule="evenodd" clip-rule="evenodd" d="M12.4523 60.3552C8.84736 60.3552 5.92489 57.3764 5.92489 53.7019C5.92489 50.0275 8.84736 47.0487 12.4523 47.0487C16.0572 47.0487 18.9797 50.0275 18.9797 53.7019C18.9797 57.3764 16.0572 60.3552 12.4523 60.3552V60.3552ZM69.471 33.0328L67.7985 28.7132L20.5114 47.6349C18.6863 45.1203 15.7568 43.4895 12.4523 43.4895C6.91867 43.4895 2.43298 48.0622 2.43298 53.702C2.43298 59.3422 6.91867 63.9144 12.4523 63.9144C17.9859 63.9144 22.4716 59.3422 22.4716 53.702C22.4716 53.2829 22.4438 52.87 22.3958 52.4643L58.4075 37.5996L60.3852 42.0335L64.7776 39.9822L63.2314 36.4542L64.6542 35.6861L66.3291 39.0806L69.471 37.3702L67.7307 33.7514L69.471 33.0328Z" fill="#00BECE"/>
<path fill-rule="evenodd" clip-rule="evenodd" d="M35.3152 20.6371C35.3152 20.6371 23.3926 31.4573 23.3267 33.4654C23.2617 35.474 30.3515 46.0378 30.3515 46.0378L33.8956 43.7536L28.9319 34.2829L37.0079 26.4339C37.0079 26.4339 37.2722 28.2576 37.9183 28.7535L38.2777 21.5329L35.3152 20.6371Z" fill="#FA7268"/>
<path fill-rule="evenodd" clip-rule="evenodd" d="M44.6453 5.53571C43.0953 5.61684 36.2264 6.32925 36.2264 6.32925C36.2264 6.32925 37.2305 2.12629 40.4356 1.96115C44.6453 1.74464 44.6453 5.53571 44.6453 5.53571" fill="#1B2749"/>
<path fill-rule="evenodd" clip-rule="evenodd" d="M36.2346 9.97418C36.2346 9.97418 41.8007 9.44275 42.7762 6.76447C42.7762 6.76447 44.6243 9.17296 45.7066 9.05198C45.7066 9.05198 45.8842 5.88356 45.2112 5.45486C44.5381 5.02616 35.9986 5.90996 35.9986 5.90996C35.9986 5.90996 35.7782 7.93631 36.2346 9.97418" fill="#1B2749"/>
<path fill-rule="evenodd" clip-rule="evenodd" d="M30.5007 45.9092C30.5007 45.9092 32.0215 49.1774 32.1086 49.2567C32.1958 49.3359 32.3794 49.9398 33.1966 49.5212C33.1966 49.5212 33.5838 50.5869 34.0877 50.4491C34.5912 50.3109 35.105 49.9993 35.105 49.9993C35.105 49.9993 35.7154 50.8279 36.1681 50.3901C36.697 49.8779 36.1968 49.309 35.8191 48.6921C35.8191 48.6921 34.6411 46.5395 34.7575 46.4104C35.073 46.0589 35.6156 45.9332 36.7384 46.9792C37.93 48.0906 38.7613 47.3234 37.9616 46.4214C37.1623 45.5194 36.0692 44.3701 35.5157 44.1387C34.9628 43.9073 34.0496 44.2573 34.0496 44.2573L33.7787 43.8598L30.5007 45.9092Z" fill="#FFBB9A"/>
<path fill-rule="evenodd" clip-rule="evenodd" d="M54.8762 39.057C54.8762 39.057 54.0223 41.5308 52.5311 41.9465C51.0395 42.3618 42.6771 44.0924 42.6771 44.0924V40.7214L54.8762 39.057Z" fill="#FA7268"/>
<path fill-rule="evenodd" clip-rule="evenodd" d="M42.6772 41.1254H42.04C42.04 41.1254 41.8968 40.6694 41.8063 40.5196C41.5454 40.0875 38.0446 39.6339 38.1086 40.1005C38.1731 40.5676 38.7487 40.6828 39.9827 40.9156C39.9827 40.9156 35.3661 42.0572 35.8003 42.4302C36.2346 42.8028 39.1146 41.9463 39.1146 41.9463C39.1146 41.9463 35.9906 42.9818 36.2115 43.688C36.3386 44.0927 39.5046 43.1412 39.5046 43.1412C39.5046 43.1412 36.2802 44.3169 36.8515 44.7134C37.4233 45.1095 40.9887 44.217 41.3316 44.0927C41.6745 43.9679 41.8063 43.2924 41.8063 43.2924L42.6772 43.1412V41.1254Z" fill="#FFBB9A"/>
<path fill-rule="evenodd" clip-rule="evenodd" d="M40.0485 0.676688C40.171 1.19708 40.2223 1.84516 40.5153 2.29979C40.6368 2.48845 40.9354 2.31275 40.8134 2.12264C40.5431 1.70259 40.4946 1.06458 40.3815 0.583075C40.3297 0.363206 39.9967 0.456338 40.0485 0.676688" fill="#1B2749"/>
<path fill-rule="evenodd" clip-rule="evenodd" d="M40.7988 2.33253C40.9749 2.0128 41.1633 1.70124 41.3644 1.39784C41.4892 1.20966 41.1906 1.03299 41.0663 1.22022C40.8652 1.52362 40.6768 1.83518 40.5006 2.1549C40.3918 2.35269 40.69 2.53031 40.7988 2.33253" fill="#1B2749"/>
<path fill-rule="evenodd" clip-rule="evenodd" d="M41.4666 9.73017C41.4539 10.1349 41.4633 10.5367 41.5099 10.9395C41.5335 11.1454 41.5142 11.5131 41.6545 11.6701C41.7346 11.7594 41.9027 11.7536 42.0045 11.77C42.3827 11.8295 42.7642 11.8737 43.1438 11.9255C43.1235 11.8751 43.1033 11.8252 43.0826 11.7752C42.7599 12.0873 42.4119 12.3172 42.0035 12.4934C41.9018 12.5376 41.9894 12.6893 42.0907 12.6451C42.5136 12.4627 42.8725 12.2207 43.2045 11.8996C43.2648 11.841 43.2125 11.7589 43.1438 11.7493C42.7481 11.6956 41.9423 11.7412 41.7369 11.3153C41.5443 10.9155 41.6253 10.1565 41.639 9.73017C41.6427 9.61688 41.4699 9.61688 41.4666 9.73017" fill="#FFA077"/>
<path fill-rule="evenodd" clip-rule="evenodd" d="M43.2383 10.9399C43.2878 10.5391 43.0377 9.59959 43.5337 9.40565C43.9745 9.23282 44.2529 9.60679 44.3221 9.98604C44.3659 10.2237 44.4069 10.4618 44.4497 10.6999C44.4695 10.8113 44.6358 10.7642 44.616 10.6533C44.5119 10.0701 44.4874 9.07248 43.634 9.19106C42.8399 9.30147 43.13 10.4239 43.066 10.9399C43.0518 11.0518 43.2247 11.0508 43.2383 10.9399" fill="#55433D"/>
<path fill-rule="evenodd" clip-rule="evenodd" d="M38.7846 11.1802C38.8341 10.7789 38.584 9.83987 39.08 9.64592C39.5208 9.4731 39.7992 9.84707 39.8684 10.2263C39.9122 10.464 39.9532 10.7021 39.996 10.9402C40.0158 11.0511 40.1821 11.004 40.1623 10.8936C40.0582 10.3099 40.0337 9.31276 39.1807 9.43133C38.3862 9.54175 38.6763 10.6641 38.6123 11.1802C38.5981 11.2921 38.771 11.2911 38.7846 11.1802" fill="#55433D"/>
<path fill-rule="evenodd" clip-rule="evenodd" d="M39.961 12.2003C40.1465 13.6641 42.5778 13.9579 43.4712 13.0693C43.5513 12.99 43.4288 12.8657 43.3492 12.9449C42.6032 13.6866 40.3001 13.5133 40.1338 12.2003C40.1197 12.0899 39.9468 12.0885 39.961 12.2003" fill="#FFA077"/>
<path fill-rule="evenodd" clip-rule="evenodd" d="M39.9264 12.4462C39.9759 12.2912 40.1294 12.1904 40.2895 12.2177C40.3979 12.2364 40.445 12.0665 40.3352 12.0483C40.0799 12.0046 39.8412 12.1462 39.7601 12.3992C39.7258 12.5072 39.892 12.5538 39.9264 12.4462" fill="#FFA077"/>
<path fill-rule="evenodd" clip-rule="evenodd" d="M39.7105 11.6172C39.7872 11.8135 39.4467 12.1342 38.9277 12.2475C38.6771 12.3046 38.4148 12.296 38.2678 12.248C38.1247 12.2004 38.0239 12.1486 37.9711 12.0559C37.948 12.0089 37.9494 11.9498 37.9857 11.887C38.021 11.8245 38.0912 11.7617 38.1769 11.7117C38.3517 11.6143 38.5349 11.5475 38.7685 11.4952C39.2211 11.3973 39.6337 11.4184 39.7105 11.6172" fill="#FF837A"/>
<path fill-rule="evenodd" clip-rule="evenodd" d="M45.3727 11.2147C45.4495 11.411 45.1089 11.7317 44.5904 11.845C44.3394 11.9021 44.077 11.8935 43.9301 11.8455C43.7874 11.7979 43.6861 11.7461 43.6333 11.6534C43.6103 11.6064 43.6117 11.5474 43.6479 11.4845C43.6833 11.4221 43.7534 11.3596 43.8396 11.3092C44.0139 11.2123 44.1971 11.1451 44.4307 11.0927C44.8833 10.9948 45.2959 11.0159 45.3727 11.2147" fill="#FF837A"/>
<path fill-rule="evenodd" clip-rule="evenodd" d="M35.9265 10.1202C35.5874 10.1322 35.4065 10.4548 35.4367 10.7779C35.4673 11.1053 35.6929 11.3559 36.0183 11.379C36.129 11.3871 36.1285 11.2109 36.0183 11.2033C35.5619 11.1706 35.4164 10.3142 35.9265 10.2964C36.0372 10.2921 36.0376 10.1164 35.9265 10.1202" fill="#FFA077"/>
<path fill-rule="evenodd" clip-rule="evenodd" d="M35.4654 10.6003C35.6293 10.8101 35.8789 10.9205 36.1413 10.9032C36.251 10.896 36.252 10.7203 36.1413 10.7275C35.919 10.7419 35.7259 10.6526 35.5874 10.476C35.5182 10.3876 35.3966 10.5124 35.4654 10.6003" fill="#FFA077"/>
<path fill-rule="evenodd" clip-rule="evenodd" d="M46.0322 10.4226C46.4057 10.5133 46.612 10.1672 46.6591 9.83742C46.7109 9.47353 46.4915 9.12068 46.1118 9.08564C46.0016 9.07508 46.0021 9.25126 46.1118 9.26134C46.3544 9.28391 46.5164 9.53114 46.4962 9.76157C46.4769 9.9848 46.3667 10.3228 46.0784 10.2532C45.9701 10.2268 45.9244 10.3962 46.0322 10.4226" fill="#FFA077"/>
<path fill-rule="evenodd" clip-rule="evenodd" d="M46.1367 9.90362C46.2997 9.75384 46.4023 9.56133 46.4339 9.33954C46.4494 9.22865 46.2832 9.18064 46.2676 9.2925C46.2399 9.48692 46.1579 9.64775 46.0147 9.77928C45.9318 9.85513 46.0543 9.97947 46.1367 9.90362" fill="#FFA077"/>
</svg>
