<svg width="48" height="17" viewBox="0 0 48 17" fill="none" xmlns="http://www.w3.org/2000/svg">
<path fill-rule="evenodd" clip-rule="evenodd" d="M46.3588 8.24209H2.1125C1.39182 8.24209 0.8078 7.6561 0.8078 6.93192V2.46287C0.8078 1.73916 1.39182 1.15269 2.1125 1.15269H46.3588C47.0795 1.15269 47.6635 1.73916 47.6635 2.46287V6.93192C47.6635 7.6561 47.0795 8.24209 46.3588 8.24209Z" stroke="#34336C" stroke-width="0.5"/>
<path fill-rule="evenodd" clip-rule="evenodd" d="M1.76733 14.5331C1.99531 14.5331 2.17395 14.5885 2.30326 14.6993C2.43256 14.8101 2.49721 14.9625 2.49721 15.1564C2.49721 15.3503 2.43256 15.5022 2.30326 15.6122C2.17395 15.7221 1.99531 15.7771 1.76733 15.7771H1.28755V16.351H1.09869V14.5331H1.76733ZM1.76223 15.6083C1.93917 15.6083 2.07443 15.5689 2.168 15.4901C2.26158 15.4113 2.30836 15.3001 2.30836 15.1564C2.30836 15.0092 2.26158 14.8963 2.168 14.8175C2.07443 14.7387 1.93917 14.6993 1.76223 14.6993H1.28755V15.6083H1.76223ZM3.28605 14.9746C3.46129 14.9746 3.5957 15.0192 3.68927 15.1084C3.78285 15.1975 3.82964 15.3295 3.82964 15.5044V16.351H3.6561V16.138C3.61526 16.209 3.55529 16.2644 3.47618 16.3042C3.39706 16.3441 3.30307 16.364 3.19418 16.364C3.04446 16.364 2.92536 16.3276 2.83689 16.2549C2.74842 16.1822 2.70419 16.0861 2.70419 15.9666C2.70419 15.8506 2.74544 15.7572 2.82796 15.6862C2.91048 15.6152 3.0419 15.5797 3.22225 15.5797H3.64844V15.4966C3.64844 15.3789 3.61612 15.2893 3.55146 15.2278C3.48681 15.1664 3.39239 15.1356 3.26819 15.1356C3.18312 15.1356 3.10145 15.1499 3.02319 15.1785C2.94493 15.207 2.87772 15.2464 2.82158 15.2966L2.73991 15.159C2.80797 15.1001 2.88963 15.0547 2.98491 15.0227C3.08019 14.9906 3.18057 14.9746 3.28605 14.9746ZM3.22225 16.2185C3.32433 16.2185 3.41195 16.1947 3.48511 16.1471C3.55827 16.0995 3.61271 16.0307 3.64844 15.9407V15.7173H3.22735C2.99767 15.7173 2.88283 15.7987 2.88283 15.9614C2.88283 16.0411 2.9126 16.1038 2.97215 16.1497C3.0317 16.1956 3.11506 16.2185 3.22225 16.2185ZM4.68202 16.364C4.57313 16.364 4.46892 16.348 4.36939 16.3159C4.26986 16.2839 4.19203 16.2436 4.13588 16.1952L4.21755 16.0497C4.27369 16.0948 4.3443 16.1315 4.42937 16.1601C4.51444 16.1887 4.60291 16.203 4.69478 16.203C4.81728 16.203 4.90788 16.1835 4.96657 16.1445C5.02527 16.1056 5.05462 16.0506 5.05462 15.9796C5.05462 15.9294 5.03846 15.89 5.00613 15.8615C4.9738 15.8329 4.93297 15.8113 4.88363 15.7965C4.83429 15.7818 4.76879 15.7675 4.68712 15.7537C4.57824 15.7329 4.49062 15.7117 4.42426 15.6901C4.35791 15.6684 4.30134 15.6316 4.25455 15.5797C4.20776 15.5278 4.18437 15.4559 4.18437 15.3642C4.18437 15.2499 4.23116 15.1564 4.32473 15.0837C4.41831 15.011 4.54846 14.9746 4.7152 14.9746C4.80197 14.9746 4.88873 14.9863 4.9755 15.0097C5.06227 15.033 5.13373 15.0638 5.18988 15.1019L5.11076 15.2499C5.00017 15.172 4.86832 15.133 4.7152 15.133C4.5995 15.133 4.51231 15.1538 4.45361 15.1954C4.39491 15.2369 4.36557 15.2914 4.36557 15.359C4.36557 15.4109 4.38215 15.4524 4.41533 15.4836C4.44851 15.5148 4.48977 15.5377 4.53911 15.5524C4.58844 15.5671 4.6565 15.5823 4.74327 15.5979C4.85046 15.6187 4.93637 15.6394 5.00103 15.6602C5.06568 15.681 5.12097 15.7165 5.16691 15.7667C5.21285 15.8169 5.23581 15.8861 5.23581 15.9744C5.23581 16.0939 5.1869 16.1887 5.08907 16.2588C4.99124 16.3289 4.85556 16.364 4.68202 16.364ZM5.92997 16.364C5.82108 16.364 5.71687 16.348 5.61734 16.3159C5.51781 16.2839 5.43998 16.2436 5.38383 16.1952L5.4655 16.0497C5.52164 16.0948 5.59225 16.1315 5.67732 16.1601C5.76239 16.1887 5.85086 16.203 5.94273 16.203C6.06523 16.203 6.15582 16.1835 6.21452 16.1445C6.27322 16.1056 6.30257 16.0506 6.30257 15.9796C6.30257 15.9294 6.28641 15.89 6.25408 15.8615C6.22175 15.8329 6.18092 15.8113 6.13158 15.7965C6.08224 15.7818 6.01674 15.7675 5.93507 15.7537C5.82619 15.7329 5.73857 15.7117 5.67221 15.6901C5.60586 15.6684 5.54929 15.6316 5.5025 15.5797C5.45571 15.5278 5.43232 15.4559 5.43232 15.3642C5.43232 15.2499 5.47911 15.1564 5.57268 15.0837C5.66626 15.011 5.79641 14.9746 5.96315 14.9746C6.04992 14.9746 6.13668 14.9863 6.22345 15.0097C6.31022 15.033 6.38168 15.0638 6.43783 15.1019L6.35871 15.2499C6.24812 15.172 6.11627 15.133 5.96315 15.133C5.84745 15.133 5.76026 15.1538 5.70156 15.1954C5.64286 15.2369 5.61352 15.2914 5.61352 15.359C5.61352 15.4109 5.6301 15.4524 5.66328 15.4836C5.69646 15.5148 5.73772 15.5377 5.78705 15.5524C5.83639 15.5671 5.90445 15.5823 5.99122 15.5979C6.0984 15.6187 6.18432 15.6394 6.24897 15.6602C6.31363 15.681 6.36892 15.7165 6.41486 15.7667C6.46079 15.8169 6.48376 15.8861 6.48376 15.9744C6.48376 16.0939 6.43485 16.1887 6.33702 16.2588C6.23919 16.3289 6.10351 16.364 5.92997 16.364ZM8.73747 14.985L8.22962 16.351H8.05863L7.63499 15.2317L7.21135 16.351H7.04036L6.53506 14.985H6.7086L7.12969 16.1458L7.56098 14.985H7.71666L8.1454 16.1458L8.57159 14.985H8.73747ZM9.48293 16.364C9.35362 16.364 9.23708 16.3341 9.1333 16.2744C9.02951 16.2146 8.94785 16.132 8.8883 16.0264C8.82875 15.9208 8.79898 15.8013 8.79898 15.668C8.79898 15.5347 8.82875 15.4152 8.8883 15.3096C8.94785 15.204 9.02951 15.1218 9.1333 15.0629C9.23708 15.004 9.35362 14.9746 9.48293 14.9746C9.61223 14.9746 9.72877 15.004 9.83256 15.0629C9.93634 15.1218 10.0176 15.204 10.0763 15.3096C10.135 15.4152 10.1643 15.5347 10.1643 15.668C10.1643 15.8013 10.135 15.9208 10.0763 16.0264C10.0176 16.132 9.93634 16.2146 9.83256 16.2744C9.72877 16.3341 9.61223 16.364 9.48293 16.364ZM9.48293 16.2004C9.5782 16.2004 9.6637 16.1783 9.73941 16.1341C9.81512 16.09 9.87424 16.0272 9.91677 15.9459C9.95931 15.8645 9.98057 15.7719 9.98057 15.668C9.98057 15.5641 9.95931 15.4715 9.91677 15.3901C9.87424 15.3088 9.81512 15.246 9.73941 15.2018C9.6637 15.1577 9.5782 15.1356 9.48293 15.1356C9.38765 15.1356 9.30216 15.1577 9.22645 15.2018C9.15073 15.246 9.09119 15.3088 9.0478 15.3901C9.00442 15.4715 8.98273 15.5641 8.98273 15.668C8.98273 15.7719 9.00442 15.8645 9.0478 15.9459C9.09119 16.0272 9.15073 16.09 9.22645 16.1341C9.30216 16.1783 9.38765 16.2004 9.48293 16.2004ZM10.7079 15.2525C10.7504 15.1607 10.8138 15.0915 10.898 15.0447C10.9823 14.998 11.0865 14.9746 11.2107 14.9746V15.1538L11.1673 15.1512C11.0261 15.1512 10.9155 15.1954 10.8355 15.2836C10.7555 15.3719 10.7156 15.4957 10.7156 15.655V16.351H10.5344V14.985H10.7079V15.2525ZM12.7166 14.4241V16.351H12.5431V16.0809C12.4886 16.1727 12.4168 16.2428 12.3274 16.2913C12.2381 16.3397 12.1373 16.364 12.025 16.364C11.8991 16.364 11.7851 16.3345 11.683 16.2757C11.581 16.2168 11.501 16.1346 11.4432 16.029C11.3853 15.9234 11.3564 15.803 11.3564 15.668C11.3564 15.533 11.3853 15.4126 11.4432 15.307C11.501 15.2014 11.581 15.1196 11.683 15.0616C11.7851 15.0036 11.8991 14.9746 12.025 14.9746C12.1339 14.9746 12.2322 14.9976 12.3198 15.0434C12.4074 15.0893 12.4793 15.1564 12.5354 15.2447V14.4241H12.7166ZM12.0403 16.2004C12.1339 16.2004 12.2185 16.1783 12.2943 16.1341C12.37 16.09 12.4295 16.0272 12.4729 15.9459C12.5163 15.8645 12.538 15.7719 12.538 15.668C12.538 15.5641 12.5163 15.4715 12.4729 15.3901C12.4295 15.3088 12.37 15.246 12.2943 15.2018C12.2185 15.1577 12.1339 15.1356 12.0403 15.1356C11.9451 15.1356 11.8596 15.1577 11.7838 15.2018C11.7081 15.246 11.6486 15.3088 11.6052 15.3901C11.5618 15.4715 11.5401 15.5641 11.5401 15.668C11.5401 15.7719 11.5618 15.8645 11.6052 15.9459C11.6486 16.0272 11.7081 16.09 11.7838 16.1341C11.8596 16.1783 11.9451 16.2004 12.0403 16.2004Z" fill="#34336C"/>
</svg>
