<svg width="48" height="17" viewBox="0 0 48 17" fill="none" xmlns="http://www.w3.org/2000/svg">
<path fill-rule="evenodd" clip-rule="evenodd" d="M45.8588 8.23762H1.6125C0.891818 8.23762 0.3078 7.65115 0.3078 6.92744V2.45792C0.3078 1.73421 0.891818 1.14774 1.6125 1.14774H45.8588C46.5795 1.14774 47.1635 1.73421 47.1635 2.45792V6.92744C47.1635 7.65115 46.5795 8.23762 45.8588 8.23762Z" stroke="#34336C" stroke-width="0.5"/>
<path fill-rule="evenodd" clip-rule="evenodd" d="M1.37448 16.2809C1.19753 16.2809 1.03803 16.2411 0.895968 16.1615C0.753903 16.0818 0.642465 15.9715 0.56165 15.8304C0.480835 15.6893 0.440428 15.5313 0.440428 15.3564C0.440428 15.1816 0.480835 15.0236 0.56165 14.8825C0.642465 14.7414 0.754329 14.631 0.897244 14.5514C1.04016 14.4717 1.20009 14.4319 1.37703 14.4319C1.50974 14.4319 1.63223 14.4544 1.74452 14.4994C1.85681 14.5444 1.95209 14.6102 2.03035 14.6968L1.91041 14.8189C1.77089 14.6752 1.5948 14.6033 1.38213 14.6033C1.24092 14.6033 1.11247 14.6362 0.996774 14.702C0.88108 14.7678 0.790484 14.8578 0.724981 14.9721C0.659478 15.0863 0.626727 15.2145 0.626727 15.3564C0.626727 15.4984 0.659478 15.6265 0.724981 15.7408C0.790484 15.855 0.88108 15.9451 0.996774 16.0108C1.11247 16.0766 1.24092 16.1095 1.38213 16.1095C1.59651 16.1095 1.77259 16.0368 1.91041 15.8914L2.03035 16.0134C1.95209 16.1 1.85639 16.1662 1.74325 16.2121C1.63011 16.258 1.50718 16.2809 1.37448 16.2809ZM2.39529 14.8994H2.57649V16.2653H2.39529V14.8994ZM2.48717 14.6007C2.44974 14.6007 2.41826 14.5877 2.39274 14.5618C2.36722 14.5358 2.35446 14.5046 2.35446 14.4683C2.35446 14.4336 2.36722 14.4033 2.39274 14.3774C2.41826 14.3514 2.44974 14.3384 2.48717 14.3384C2.5246 14.3384 2.55607 14.351 2.58159 14.3761C2.60711 14.4012 2.61987 14.431 2.61987 14.4657C2.61987 14.5038 2.60711 14.5358 2.58159 14.5618C2.55607 14.5877 2.5246 14.6007 2.48717 14.6007ZM3.78871 16.1822C3.75468 16.2134 3.71257 16.2372 3.66238 16.2537C3.61219 16.2701 3.55988 16.2783 3.50543 16.2783C3.37953 16.2783 3.28256 16.2437 3.2145 16.1745C3.14645 16.1052 3.11242 16.0074 3.11242 15.881V15.0552H2.87253V14.8994H3.11242V14.6007H3.29361V14.8994H3.70194V15.0552H3.29361V15.8706C3.29361 15.952 3.3136 16.0139 3.35359 16.0563C3.39357 16.0987 3.45099 16.1199 3.52585 16.1199C3.56328 16.1199 3.59943 16.1139 3.63431 16.1017C3.66919 16.0896 3.69939 16.0723 3.72491 16.0498L3.78871 16.1822ZM5.1954 14.8994L4.52421 16.429C4.46977 16.5571 4.40682 16.648 4.33536 16.7016C4.2639 16.7553 4.17798 16.7821 4.0776 16.7821C4.01295 16.7821 3.95255 16.7717 3.89641 16.751C3.84026 16.7302 3.79177 16.699 3.75094 16.6575L3.83516 16.5198C3.90321 16.5891 3.98488 16.6237 4.08015 16.6237C4.1414 16.6237 4.19372 16.6064 4.2371 16.5718C4.28049 16.5372 4.3209 16.4783 4.35833 16.3952L4.41702 16.2628L3.81729 14.8994H4.00614L4.51145 16.0602L5.01675 14.8994H5.1954Z" fill="#34336C"/>
</svg>
