<svg width="41" height="40" viewBox="0 0 41 40" fill="none" xmlns="http://www.w3.org/2000/svg">
<rect width="40" height="40" transform="translate(0.8125)" fill="white"/>
<path fill-rule="evenodd" clip-rule="evenodd" d="M26.1995 14.2258H27.975C31.7786 14.2258 34.8621 17.3093 34.8621 21.1129C34.8621 21.5623 34.8181 22.0107 34.7307 22.4516C33.7393 27.4542 29.8961 31.4044 24.9226 32.5328L19.5838 33.744C18.0201 34.0988 16.4649 33.1188 16.1102 31.5551C16.0623 31.3443 16.0382 31.1289 16.0382 30.9127V24.3871C16.0382 18.7752 20.5876 14.2258 26.1995 14.2258Z" fill="#FA6650" fill-opacity="0.14"/>
<path d="M21.3609 7.5C24.6884 7.5 27.6984 8.84692 29.8804 11.0289C32.0624 13.2109 33.4093 16.2209 33.4093 19.5484C33.4093 22.8759 32.0624 25.8859 29.8804 28.0679C27.6984 30.2499 24.6884 31.5968 21.3609 31.5968H9.3125V19.5484C9.3125 16.2209 10.6594 13.2109 12.8414 11.0289C15.0234 8.84692 18.0334 7.5 21.3609 7.5Z" stroke="#080808" stroke-width="3"/>
<path d="M16.0382 22.9355H20.8769" stroke="url(#paint0_linear_210_22)" stroke-width="3" stroke-linecap="round"/>
<path d="M16.0382 17.6129H26.6834" stroke="url(#paint1_linear_210_22)" stroke-width="3" stroke-linecap="round"/>
<defs>
<linearGradient id="paint0_linear_210_22" x1="-nan" y1="-nan" x2="-nan" y2="-nan" gradientUnits="userSpaceOnUse">
<stop stop-color="#FF9B94"/>
<stop offset="0.99419" stop-color="#FA6650"/>
</linearGradient>
<linearGradient id="paint1_linear_210_22" x1="-nan" y1="-nan" x2="-nan" y2="-nan" gradientUnits="userSpaceOnUse">
<stop stop-color="#FF9B94"/>
<stop offset="1" stop-color="#FA6650"/>
</linearGradient>
</defs>
</svg>
