<svg width="41" height="40" viewBox="0 0 41 40" fill="none" xmlns="http://www.w3.org/2000/svg">
<rect width="40" height="40" transform="translate(0.3125)" fill="white"/>
<path fill-rule="evenodd" clip-rule="evenodd" d="M25.6995 14.2258H27.475C31.2786 14.2258 34.3621 17.3093 34.3621 21.1129C34.3621 21.5623 34.3181 22.0107 34.2307 22.4516C33.2393 27.4542 29.3961 31.4044 24.4226 32.5328L19.0838 33.744C17.5201 34.0988 15.9649 33.1188 15.6102 31.5551C15.5623 31.3443 15.5382 31.1289 15.5382 30.9127V24.3871C15.5382 18.7752 20.0876 14.2258 25.6995 14.2258Z" fill="#FA6650" fill-opacity="0.14"/>
<path d="M20.8609 7.5C24.1884 7.5 27.1984 8.84692 29.3804 11.0289C31.5624 13.2109 32.9093 16.2209 32.9093 19.5484C32.9093 22.8759 31.5624 25.8859 29.3804 28.0679C27.1984 30.2499 24.1884 31.5968 20.8609 31.5968H8.8125V19.5484C8.8125 16.2209 10.1594 13.2109 12.3414 11.0289C14.5234 8.84692 17.5334 7.5 20.8609 7.5Z" stroke="#080808" stroke-width="3"/>
<path d="M15.5382 22.9355H20.3769" stroke="url(#paint0_linear_194_288)" stroke-width="3" stroke-linecap="round"/>
<path d="M15.5382 17.6129H26.1834" stroke="url(#paint1_linear_194_288)" stroke-width="3" stroke-linecap="round"/>
<defs>
<linearGradient id="paint0_linear_194_288" x1="-nan" y1="-nan" x2="-nan" y2="-nan" gradientUnits="userSpaceOnUse">
<stop stop-color="#FF9B94"/>
<stop offset="0.99419" stop-color="#FA6650"/>
</linearGradient>
<linearGradient id="paint1_linear_194_288" x1="-nan" y1="-nan" x2="-nan" y2="-nan" gradientUnits="userSpaceOnUse">
<stop stop-color="#FF9B94"/>
<stop offset="1" stop-color="#FA6650"/>
</linearGradient>
</defs>
</svg>
