<svg width="41" height="40" viewBox="0 0 41 40" fill="none" xmlns="http://www.w3.org/2000/svg">
<rect width="40" height="40" transform="translate(0.1875)" fill="white"/>
<path fill-rule="evenodd" clip-rule="evenodd" d="M25.5745 14.2258H27.35C31.1536 14.2258 34.2371 17.3093 34.2371 21.1129C34.2371 21.5623 34.1931 22.0107 34.1057 22.4516C33.1143 27.4542 29.2711 31.4044 24.2976 32.5328L18.9588 33.744C17.3951 34.0988 15.8399 33.1188 15.4852 31.5551C15.4373 31.3443 15.4132 31.1289 15.4132 30.9127V24.3871C15.4132 18.7752 19.9626 14.2258 25.5745 14.2258Z" fill="#FA6650" fill-opacity="0.14"/>
<path d="M20.7359 7.5C24.0634 7.5 27.0734 8.84692 29.2554 11.0289C31.4374 13.2109 32.7843 16.2209 32.7843 19.5484C32.7843 22.8759 31.4374 25.8859 29.2554 28.0679C27.0734 30.2499 24.0634 31.5968 20.7359 31.5968H8.6875V19.5484C8.6875 16.2209 10.0344 13.2109 12.2164 11.0289C14.3984 8.84692 17.4084 7.5 20.7359 7.5Z" stroke="#080808" stroke-width="3"/>
<path d="M15.4132 22.9355H20.2519" stroke="url(#paint0_linear_203_30)" stroke-width="3" stroke-linecap="round"/>
<path d="M15.4132 17.6129H26.0584" stroke="url(#paint1_linear_203_30)" stroke-width="3" stroke-linecap="round"/>
<defs>
<linearGradient id="paint0_linear_203_30" x1="-nan" y1="-nan" x2="-nan" y2="-nan" gradientUnits="userSpaceOnUse">
<stop stop-color="#FF9B94"/>
<stop offset="0.99419" stop-color="#FA6650"/>
</linearGradient>
<linearGradient id="paint1_linear_203_30" x1="-nan" y1="-nan" x2="-nan" y2="-nan" gradientUnits="userSpaceOnUse">
<stop stop-color="#FF9B94"/>
<stop offset="1" stop-color="#FA6650"/>
</linearGradient>
</defs>
</svg>
