<svg width="41" height="40" viewBox="0 0 41 40" fill="none" xmlns="http://www.w3.org/2000/svg">
<rect width="40" height="40" transform="translate(0.6875)" fill="white"/>
<path fill-rule="evenodd" clip-rule="evenodd" d="M26.0745 14.2258H27.85C31.6536 14.2258 34.7371 17.3093 34.7371 21.1129C34.7371 21.5623 34.6931 22.0107 34.6057 22.4516C33.6143 27.4542 29.7711 31.4044 24.7976 32.5328L19.4588 33.744C17.8951 34.0988 16.3399 33.1188 15.9852 31.5551C15.9373 31.3443 15.9132 31.1289 15.9132 30.9127V24.3871C15.9132 18.7752 20.4626 14.2258 26.0745 14.2258Z" fill="#FA6650" fill-opacity="0.14"/>
<path d="M21.2359 7.5C24.5634 7.5 27.5734 8.84692 29.7554 11.0289C31.9374 13.2109 33.2843 16.2209 33.2843 19.5484C33.2843 22.8759 31.9374 25.8859 29.7554 28.0679C27.5734 30.2499 24.5634 31.5968 21.2359 31.5968H9.1875V19.5484C9.1875 16.2209 10.5344 13.2109 12.7164 11.0289C14.8984 8.84692 17.9084 7.5 21.2359 7.5Z" stroke="#080808" stroke-width="3"/>
<path d="M15.9132 22.9355H20.7519" stroke="url(#paint0_linear_194_218)" stroke-width="3" stroke-linecap="round"/>
<path d="M15.9132 17.6129H26.5584" stroke="url(#paint1_linear_194_218)" stroke-width="3" stroke-linecap="round"/>
<defs>
<linearGradient id="paint0_linear_194_218" x1="-nan" y1="-nan" x2="-nan" y2="-nan" gradientUnits="userSpaceOnUse">
<stop stop-color="#FF9B94"/>
<stop offset="0.99419" stop-color="#FA6650"/>
</linearGradient>
<linearGradient id="paint1_linear_194_218" x1="-nan" y1="-nan" x2="-nan" y2="-nan" gradientUnits="userSpaceOnUse">
<stop stop-color="#FF9B94"/>
<stop offset="1" stop-color="#FA6650"/>
</linearGradient>
</defs>
</svg>
