<svg width="41" height="40" viewBox="0 0 41 40" fill="none" xmlns="http://www.w3.org/2000/svg">
<rect width="40" height="40" transform="translate(0.4375)" fill="white"/>
<path fill-rule="evenodd" clip-rule="evenodd" d="M25.8245 14.2258H27.6C31.4036 14.2258 34.4871 17.3093 34.4871 21.1129C34.4871 21.5623 34.4431 22.0107 34.3557 22.4516C33.3643 27.4542 29.5211 31.4044 24.5476 32.5328L19.2088 33.744C17.6451 34.0988 16.0899 33.1188 15.7352 31.5551C15.6873 31.3443 15.6632 31.1289 15.6632 30.9127V24.3871C15.6632 18.7752 20.2126 14.2258 25.8245 14.2258Z" fill="#FA6650" fill-opacity="0.14"/>
<path d="M20.9859 7.5C24.3134 7.5 27.3234 8.84692 29.5054 11.0289C31.6874 13.2109 33.0343 16.2209 33.0343 19.5484C33.0343 22.8759 31.6874 25.8859 29.5054 28.0679C27.3234 30.2499 24.3134 31.5968 20.9859 31.5968H8.9375V19.5484C8.9375 16.2209 10.2844 13.2109 12.4664 11.0289C14.6484 8.84692 17.6584 7.5 20.9859 7.5Z" stroke="#080808" stroke-width="3"/>
<path d="M15.6632 22.9355H20.5019" stroke="url(#paint0_linear_203_16)" stroke-width="3" stroke-linecap="round"/>
<path d="M15.6632 17.6129H26.3084" stroke="url(#paint1_linear_203_16)" stroke-width="3" stroke-linecap="round"/>
<defs>
<linearGradient id="paint0_linear_203_16" x1="-nan" y1="-nan" x2="-nan" y2="-nan" gradientUnits="userSpaceOnUse">
<stop stop-color="#FF9B94"/>
<stop offset="0.99419" stop-color="#FA6650"/>
</linearGradient>
<linearGradient id="paint1_linear_203_16" x1="-nan" y1="-nan" x2="-nan" y2="-nan" gradientUnits="userSpaceOnUse">
<stop stop-color="#FF9B94"/>
<stop offset="1" stop-color="#FA6650"/>
</linearGradient>
</defs>
</svg>
