<svg width="41" height="40" viewBox="0 0 41 40" fill="none" xmlns="http://www.w3.org/2000/svg">
<rect width="40" height="40" transform="translate(0.5625)" fill="white"/>
<path fill-rule="evenodd" clip-rule="evenodd" d="M25.9495 14.2258H27.725C31.5286 14.2258 34.6121 17.3093 34.6121 21.1129C34.6121 21.5623 34.5681 22.0107 34.4807 22.4516C33.4893 27.4542 29.6461 31.4044 24.6726 32.5328L19.3338 33.744C17.7701 34.0988 16.2149 33.1188 15.8602 31.5551C15.8123 31.3443 15.7882 31.1289 15.7882 30.9127V24.3871C15.7882 18.7752 20.3376 14.2258 25.9495 14.2258Z" fill="#FA6650" fill-opacity="0.14"/>
<path d="M21.1109 7.5C24.4384 7.5 27.4484 8.84692 29.6304 11.0289C31.8124 13.2109 33.1593 16.2209 33.1593 19.5484C33.1593 22.8759 31.8124 25.8859 29.6304 28.0679C27.4484 30.2499 24.4384 31.5968 21.1109 31.5968H9.0625V19.5484C9.0625 16.2209 10.4094 13.2109 12.5914 11.0289C14.7734 8.84692 17.7834 7.5 21.1109 7.5Z" stroke="#080808" stroke-width="3"/>
<path d="M15.7882 22.9355H20.6269" stroke="url(#paint0_linear_194_203)" stroke-width="3" stroke-linecap="round"/>
<path d="M15.7882 17.6129H26.4334" stroke="url(#paint1_linear_194_203)" stroke-width="3" stroke-linecap="round"/>
<defs>
<linearGradient id="paint0_linear_194_203" x1="-nan" y1="-nan" x2="-nan" y2="-nan" gradientUnits="userSpaceOnUse">
<stop stop-color="#FF9B94"/>
<stop offset="0.99419" stop-color="#FA6650"/>
</linearGradient>
<linearGradient id="paint1_linear_194_203" x1="-nan" y1="-nan" x2="-nan" y2="-nan" gradientUnits="userSpaceOnUse">
<stop stop-color="#FF9B94"/>
<stop offset="1" stop-color="#FA6650"/>
</linearGradient>
</defs>
</svg>
