<svg width="41" height="40" viewBox="0 0 41 40" fill="none" xmlns="http://www.w3.org/2000/svg">
<rect width="40" height="40" transform="translate(0.0625)" fill="white"/>
<path fill-rule="evenodd" clip-rule="evenodd" d="M25.4495 14.2258H27.225C31.0286 14.2258 34.1121 17.3093 34.1121 21.1129C34.1121 21.5623 34.0681 22.0107 33.9807 22.4516C32.9893 27.4542 29.1461 31.4044 24.1726 32.5328L18.8338 33.744C17.2701 34.0988 15.7149 33.1188 15.3602 31.5551C15.3123 31.3443 15.2882 31.1289 15.2882 30.9127V24.3871C15.2882 18.7752 19.8376 14.2258 25.4495 14.2258Z" fill="#FA6650" fill-opacity="0.14"/>
<path d="M20.6109 7.5C23.9384 7.5 26.9484 8.84692 29.1304 11.0289C31.3124 13.2109 32.6593 16.2209 32.6593 19.5484C32.6593 22.8759 31.3124 25.8859 29.1304 28.0679C26.9484 30.2499 23.9384 31.5968 20.6109 31.5968H8.5625V19.5484C8.5625 16.2209 9.90942 13.2109 12.0914 11.0289C14.2734 8.84692 17.2834 7.5 20.6109 7.5Z" stroke="#080808" stroke-width="3"/>
<path d="M15.2882 22.9355H20.1269" stroke="url(#paint0_linear_210_36)" stroke-width="3" stroke-linecap="round"/>
<path d="M15.2882 17.6129H25.9334" stroke="url(#paint1_linear_210_36)" stroke-width="3" stroke-linecap="round"/>
<defs>
<linearGradient id="paint0_linear_210_36" x1="-nan" y1="-nan" x2="-nan" y2="-nan" gradientUnits="userSpaceOnUse">
<stop stop-color="#FF9B94"/>
<stop offset="0.99419" stop-color="#FA6650"/>
</linearGradient>
<linearGradient id="paint1_linear_210_36" x1="-nan" y1="-nan" x2="-nan" y2="-nan" gradientUnits="userSpaceOnUse">
<stop stop-color="#FF9B94"/>
<stop offset="1" stop-color="#FA6650"/>
</linearGradient>
</defs>
</svg>
