<svg width="33" height="32" viewBox="0 0 33 32" fill="none" xmlns="http://www.w3.org/2000/svg">
<path d="M12.5 5.33331C6.60666 5.33331 1.83333 10.1066 1.83333 16C1.83333 21.8933 6.60666 26.6666 12.5 26.6666C18.3933 26.6666 23.1667 21.8933 23.1667 16C23.1667 10.1066 18.3933 5.33331 12.5 5.33331ZM16.5 14H13.8333V20.6666H11.1667V14H8.5V12H16.5V14ZM27.5 4.99998L31.1667 6.66665L27.5 8.33331L25.8333 12L24.1667 8.33331L20.5 6.66665L24.1667 4.99998L25.8333 1.33331L27.5 4.99998ZM27.5 23.6666L31.1667 25.3333L27.5 27L25.8333 30.6666L24.1667 27L20.5 25.3333L24.1667 23.6666L25.8333 20L27.5 23.6666Z" fill="white"/>
</svg>
