<svg width="32" height="32" viewBox="0 0 32 32" fill="none" xmlns="http://www.w3.org/2000/svg">
<path d="M16 14.5H16.5V14V12V11.5H16H8.00001H7.50001V12V14V14.5H8.00001H10.1667V20.6667V21.1667H10.6667H13.3333H13.8333V20.6667V14.5H16ZM26.5448 5.20691L26.6224 5.37761L26.7931 5.45519L29.4584 6.66668L26.7931 7.87816L26.6224 7.95575L26.5448 8.12644L25.3333 10.7917L24.1219 8.12644L24.0443 7.95575L23.8736 7.87816L21.2083 6.66668L23.8736 5.45519L24.0443 5.37761L24.1219 5.20691L25.3333 2.54165L26.5448 5.20691ZM26.5448 23.8736L26.6224 24.0443L26.7931 24.1219L29.4584 25.3333L26.7931 26.5448L26.6224 26.6224L26.5448 26.7931L25.3333 29.4584L24.1219 26.7931L24.0443 26.6224L23.8736 26.5448L21.2083 25.3333L23.8736 24.1219L24.0443 24.0443L24.1219 23.8736L25.3333 21.2083L26.5448 23.8736ZM1.83334 16C1.83334 10.3828 6.38282 5.83334 12 5.83334C17.6172 5.83334 22.1667 10.3828 22.1667 16C22.1667 21.6172 17.6172 26.1667 12 26.1667C6.38282 26.1667 1.83334 21.6172 1.83334 16Z" fill="white" stroke="white"/>
</svg>
