<svg width="33" height="32" viewBox="0 0 33 32" fill="none" xmlns="http://www.w3.org/2000/svg">
<path d="M12.5 5.33337C6.60666 5.33337 1.83333 10.1067 1.83333 16C1.83333 21.8934 6.60666 26.6667 12.5 26.6667C18.3933 26.6667 23.1667 21.8934 23.1667 16C23.1667 10.1067 18.3933 5.33337 12.5 5.33337ZM16.5 14H13.8333V20.6667H11.1667V14H8.5V12H16.5V14ZM27.5 5.00004L31.1667 6.66671L27.5 8.33337L25.8333 12L24.1667 8.33337L20.5 6.66671L24.1667 5.00004L25.8333 1.33337L27.5 5.00004ZM27.5 23.6667L31.1667 25.3334L27.5 27L25.8333 30.6667L24.1667 27L20.5 25.3334L24.1667 23.6667L25.8333 20L27.5 23.6667Z" fill="white"/>
</svg>
