<svg width="33" height="32" viewBox="0 0 33 32" fill="none" xmlns="http://www.w3.org/2000/svg">
<path d="M16.5 14.5H17V14V12V11.5H16.5H8.5H8V12V14V14.5H8.5H10.6667V20.6666V21.1666H11.1667H13.8333H14.3333V20.6666V14.5H16.5ZM27.0448 5.20688L27.1224 5.37757L27.2931 5.45516L29.9584 6.66665L27.2931 7.87813L27.1224 7.95572L27.0448 8.12641L25.8333 10.7917L24.6218 8.12641L24.5443 7.95572L24.3736 7.87813L21.7083 6.66665L24.3736 5.45516L24.5443 5.37757L24.6218 5.20688L25.8333 2.54162L27.0448 5.20688ZM27.0448 23.8735L27.1224 24.0442L27.2931 24.1218L29.9584 25.3333L27.2931 26.5448L27.1224 26.6224L27.0448 26.7931L25.8333 29.4583L24.6218 26.7931L24.5443 26.6224L24.3736 26.5448L21.7083 25.3333L24.3736 24.1218L24.5443 24.0442L24.6218 23.8735L25.8333 21.2083L27.0448 23.8735ZM2.33333 16C2.33333 10.3828 6.8828 5.83331 12.5 5.83331C18.1172 5.83331 22.6667 10.3828 22.6667 16C22.6667 21.6172 18.1172 26.1666 12.5 26.1666C6.8828 26.1666 2.33333 21.6172 2.33333 16Z" fill="white" stroke="white"/>
</svg>
