<svg width="32" height="32" viewBox="0 0 32 32" fill="none" xmlns="http://www.w3.org/2000/svg">
<path d="M12 5.33334C6.10671 5.33334 1.33337 10.1067 1.33337 16C1.33337 21.8933 6.10671 26.6667 12 26.6667C17.8934 26.6667 22.6667 21.8933 22.6667 16C22.6667 10.1067 17.8934 5.33334 12 5.33334ZM16 14H13.3334V20.6667H10.6667V14H8.00004V12H16V14ZM27 5L30.6667 6.66667L27 8.33334L25.3334 12L23.6667 8.33334L20 6.66667L23.6667 5L25.3334 1.33334L27 5ZM27 23.6667L30.6667 25.3333L27 27L25.3334 30.6667L23.6667 27L20 25.3333L23.6667 23.6667L25.3334 20L27 23.6667Z" fill="white"/>
</svg>
