<svg width="32" height="32" viewBox="0 0 32 32" fill="none" xmlns="http://www.w3.org/2000/svg">
<path d="M12 5.33337C6.10665 5.33337 1.33331 10.1067 1.33331 16C1.33331 21.8934 6.10665 26.6667 12 26.6667C17.8933 26.6667 22.6666 21.8934 22.6666 16C22.6666 10.1067 17.8933 5.33337 12 5.33337ZM16 14H13.3333V20.6667H10.6666V14H7.99998V12H16V14ZM27 5.00004L30.6666 6.66671L27 8.33337L25.3333 12L23.6666 8.33337L20 6.66671L23.6666 5.00004L25.3333 1.33337L27 5.00004ZM27 23.6667L30.6666 25.3334L27 27L25.3333 30.6667L23.6666 27L20 25.3334L23.6666 23.6667L25.3333 20L27 23.6667Z" fill="white"/>
</svg>
