<svg width="33" height="32" viewBox="0 0 33 32" fill="none" xmlns="http://www.w3.org/2000/svg">
<path d="M12.5 5.33331C6.60665 5.33331 1.83331 10.1066 1.83331 16C1.83331 21.8933 6.60665 26.6666 12.5 26.6666C18.3933 26.6666 23.1666 21.8933 23.1666 16C23.1666 10.1066 18.3933 5.33331 12.5 5.33331ZM16.5 14H13.8333V20.6666H11.1666V14H8.49998V12H16.5V14ZM27.5 4.99998L31.1666 6.66665L27.5 8.33331L25.8333 12L24.1666 8.33331L20.5 6.66665L24.1666 4.99998L25.8333 1.33331L27.5 4.99998ZM27.5 23.6666L31.1666 25.3333L27.5 27L25.8333 30.6666L24.1666 27L20.5 25.3333L24.1666 23.6666L25.8333 20L27.5 23.6666Z" fill="white"/>
</svg>
