<svg width="32" height="32" viewBox="0 0 32 32" fill="none" xmlns="http://www.w3.org/2000/svg">
<path d="M12 5.33334C6.10665 5.33334 1.33331 10.1067 1.33331 16C1.33331 21.8933 6.10665 26.6667 12 26.6667C17.8933 26.6667 22.6666 21.8933 22.6666 16C22.6666 10.1067 17.8933 5.33334 12 5.33334ZM16 14H13.3333V20.6667H10.6666V14H7.99998V12H16V14ZM27 5.00001L30.6666 6.66668L27 8.33334L25.3333 12L23.6666 8.33334L20 6.66668L23.6666 5.00001L25.3333 1.33334L27 5.00001ZM27 23.6667L30.6666 25.3333L27 27L25.3333 30.6667L23.6666 27L20 25.3333L23.6666 23.6667L25.3333 20L27 23.6667Z" fill="white"/>
</svg>
