<svg width="33" height="32" viewBox="0 0 33 32" fill="none" xmlns="http://www.w3.org/2000/svg">
<path d="M12.5002 5.33333C6.60683 5.33333 1.8335 10.1067 1.8335 16C1.8335 21.8933 6.60683 26.6667 12.5002 26.6667C18.3935 26.6667 23.1668 21.8933 23.1668 16C23.1668 10.1067 18.3935 5.33333 12.5002 5.33333ZM16.5002 14H13.8335V20.6667H11.1668V14H8.50016V12H16.5002V14ZM27.5002 4.99999L31.1668 6.66666L27.5002 8.33333L25.8335 12L24.1668 8.33333L20.5002 6.66666L24.1668 4.99999L25.8335 1.33333L27.5002 4.99999ZM27.5002 23.6667L31.1668 25.3333L27.5002 27L25.8335 30.6667L24.1668 27L20.5002 25.3333L24.1668 23.6667L25.8335 20L27.5002 23.6667Z" fill="white"/>
</svg>
