<svg width="32" height="32" viewBox="0 0 32 32" fill="none" xmlns="http://www.w3.org/2000/svg">
<path d="M16 14.5H16.5V14V12V11.5H16H7.99998H7.49998V12V14V14.5H7.99998H10.1666V20.6666V21.1666H10.6666H13.3333H13.8333V20.6666V14.5H16ZM26.5448 5.20688L26.6224 5.37757L26.7931 5.45516L29.4583 6.66665L26.7931 7.87813L26.6224 7.95572L26.5448 8.12641L25.3333 10.7917L24.1218 8.12641L24.0442 7.95572L23.8735 7.87813L21.2083 6.66665L23.8735 5.45516L24.0442 5.37757L24.1218 5.20688L25.3333 2.54162L26.5448 5.20688ZM26.5448 23.8735L26.6224 24.0442L26.7931 24.1218L29.4583 25.3333L26.7931 26.5448L26.6224 26.6224L26.5448 26.7931L25.3333 29.4583L24.1218 26.7931L24.0442 26.6224L23.8735 26.5448L21.2083 25.3333L23.8735 24.1218L24.0442 24.0442L24.1218 23.8735L25.3333 21.2083L26.5448 23.8735ZM1.83331 16C1.83331 10.3828 6.38279 5.83331 12 5.83331C17.6172 5.83331 22.1666 10.3828 22.1666 16C22.1666 21.6172 17.6172 26.1666 12 26.1666C6.38279 26.1666 1.83331 21.6172 1.83331 16Z" fill="white" stroke="white"/>
</svg>
