<svg width="33" height="33" viewBox="0 0 33 33" fill="none" xmlns="http://www.w3.org/2000/svg">
<path d="M12.5 5.83334C6.60671 5.83334 1.83337 10.6067 1.83337 16.5C1.83337 22.3933 6.60671 27.1667 12.5 27.1667C18.3934 27.1667 23.1667 22.3933 23.1667 16.5C23.1667 10.6067 18.3934 5.83334 12.5 5.83334ZM16.5 14.5H13.8334V21.1667H11.1667V14.5H8.50004V12.5H16.5V14.5ZM27.5 5.5L31.1667 7.16667L27.5 8.83334L25.8334 12.5L24.1667 8.83334L20.5 7.16667L24.1667 5.5L25.8334 1.83334L27.5 5.5ZM27.5 24.1667L31.1667 25.8333L27.5 27.5L25.8334 31.1667L24.1667 27.5L20.5 25.8333L24.1667 24.1667L25.8334 20.5L27.5 24.1667Z" fill="white"/>
</svg>
