<svg width="33" height="32" viewBox="0 0 33 32" fill="none" xmlns="http://www.w3.org/2000/svg">
<path d="M12.5 5.33333C6.60671 5.33333 1.83337 10.1067 1.83337 16C1.83337 21.8933 6.60671 26.6667 12.5 26.6667C18.3934 26.6667 23.1667 21.8933 23.1667 16C23.1667 10.1067 18.3934 5.33333 12.5 5.33333ZM16.5 14H13.8334V20.6667H11.1667V14H8.50004V12H16.5V14ZM27.5 5L31.1667 6.66667L27.5 8.33333L25.8334 12L24.1667 8.33333L20.5 6.66667L24.1667 5L25.8334 1.33333L27.5 5ZM27.5 23.6667L31.1667 25.3333L27.5 27L25.8334 30.6667L24.1667 27L20.5 25.3333L24.1667 23.6667L25.8334 20L27.5 23.6667Z" fill="white"/>
</svg>
