<svg width="32" height="32" viewBox="0 0 32 32" fill="none" xmlns="http://www.w3.org/2000/svg">
<path d="M12 5.33325C6.10665 5.33325 1.33331 10.1066 1.33331 15.9999C1.33331 21.8933 6.10665 26.6666 12 26.6666C17.8933 26.6666 22.6666 21.8933 22.6666 15.9999C22.6666 10.1066 17.8933 5.33325 12 5.33325ZM16 13.9999H13.3333V20.6666H10.6666V13.9999H7.99998V11.9999H16V13.9999ZM27 4.99992L30.6666 6.66659L27 8.33325L25.3333 11.9999L23.6666 8.33325L20 6.66659L23.6666 4.99992L25.3333 1.33325L27 4.99992ZM27 23.6666L30.6666 25.3333L27 26.9999L25.3333 30.6666L23.6666 26.9999L20 25.3333L23.6666 23.6666L25.3333 19.9999L27 23.6666Z" fill="white"/>
</svg>
