<svg width="33" height="32" viewBox="0 0 33 32" fill="none" xmlns="http://www.w3.org/2000/svg">
<path d="M12.5 5.33337C6.60665 5.33337 1.83331 10.1067 1.83331 16C1.83331 21.8934 6.60665 26.6667 12.5 26.6667C18.3933 26.6667 23.1666 21.8934 23.1666 16C23.1666 10.1067 18.3933 5.33337 12.5 5.33337ZM16.5 14H13.8333V20.6667H11.1666V14H8.49998V12H16.5V14ZM27.5 5.00004L31.1666 6.66671L27.5 8.33337L25.8333 12L24.1666 8.33337L20.5 6.66671L24.1666 5.00004L25.8333 1.33337L27.5 5.00004ZM27.5 23.6667L31.1666 25.3334L27.5 27L25.8333 30.6667L24.1666 27L20.5 25.3334L24.1666 23.6667L25.8333 20L27.5 23.6667Z" fill="white"/>
</svg>
