<svg width="33" height="32" viewBox="0 0 33 32" fill="none" xmlns="http://www.w3.org/2000/svg">
<path d="M16.5 14.4999H17V13.9999V11.9999V11.4999H16.5H8.49998H7.99998V11.9999V13.9999V14.4999H8.49998H10.6666V20.6666V21.1666H11.1666H13.8333H14.3333V20.6666V14.4999H16.5ZM27.0448 5.20682L27.1224 5.37751L27.2931 5.4551L29.9583 6.66659L27.2931 7.87807L27.1224 7.95566L27.0448 8.12635L25.8333 10.7916L24.6218 8.12635L24.5442 7.95566L24.3735 7.87807L21.7083 6.66659L24.3735 5.4551L24.5442 5.37751L24.6218 5.20682L25.8333 2.54156L27.0448 5.20682ZM27.0448 23.8735L27.1224 24.0442L27.2931 24.1218L29.9583 25.3333L27.2931 26.5447L27.1224 26.6223L27.0448 26.793L25.8333 29.4583L24.6218 26.793L24.5442 26.6223L24.3735 26.5447L21.7083 25.3333L24.3735 24.1218L24.5442 24.0442L24.6218 23.8735L25.8333 21.2082L27.0448 23.8735ZM2.33331 15.9999C2.33331 10.3827 6.88279 5.83325 12.5 5.83325C18.1172 5.83325 22.6666 10.3827 22.6666 15.9999C22.6666 21.6171 18.1172 26.1666 12.5 26.1666C6.88279 26.1666 2.33331 21.6171 2.33331 15.9999Z" fill="white" stroke="white"/>
</svg>
