<svg width="32" height="32" viewBox="0 0 32 32" fill="none" xmlns="http://www.w3.org/2000/svg">
<path d="M12.0002 5.33334C6.10683 5.33334 1.3335 10.1067 1.3335 16C1.3335 21.8933 6.10683 26.6667 12.0002 26.6667C17.8935 26.6667 22.6668 21.8933 22.6668 16C22.6668 10.1067 17.8935 5.33334 12.0002 5.33334ZM16.0002 14H13.3335V20.6667H10.6668V14H8.00016V12H16.0002V14ZM27.0002 5L30.6668 6.66667L27.0002 8.33334L25.3335 12L23.6668 8.33334L20.0002 6.66667L23.6668 5L25.3335 1.33334L27.0002 5ZM27.0002 23.6667L30.6668 25.3333L27.0002 27L25.3335 30.6667L23.6668 27L20.0002 25.3333L23.6668 23.6667L25.3335 20L27.0002 23.6667Z" fill="white"/>
</svg>
