<svg width="33" height="32" viewBox="0 0 33 32" fill="none" xmlns="http://www.w3.org/2000/svg">
<path d="M16.5 14.5H17V14V12V11.5H16.5H8.49998H7.99998V12V14V14.5H8.49998H10.6666V20.6667V21.1667H11.1666H13.8333H14.3333V20.6667V14.5H16.5ZM27.0448 5.20691L27.1224 5.37761L27.2931 5.45519L29.9583 6.66668L27.2931 7.87816L27.1224 7.95575L27.0448 8.12644L25.8333 10.7917L24.6218 8.12644L24.5442 7.95575L24.3735 7.87816L21.7083 6.66668L24.3735 5.45519L24.5442 5.37761L24.6218 5.20691L25.8333 2.54165L27.0448 5.20691ZM27.0448 23.8736L27.1224 24.0443L27.2931 24.1219L29.9583 25.3333L27.2931 26.5448L27.1224 26.6224L27.0448 26.7931L25.8333 29.4584L24.6218 26.7931L24.5442 26.6224L24.3735 26.5448L21.7083 25.3333L24.3735 24.1219L24.5442 24.0443L24.6218 23.8736L25.8333 21.2083L27.0448 23.8736ZM2.33331 16C2.33331 10.3828 6.88279 5.83334 12.5 5.83334C18.1172 5.83334 22.6666 10.3828 22.6666 16C22.6666 21.6172 18.1172 26.1667 12.5 26.1667C6.88279 26.1667 2.33331 21.6172 2.33331 16Z" fill="white" stroke="white"/>
</svg>
