<svg width="33" height="32" viewBox="0 0 33 32" fill="none" xmlns="http://www.w3.org/2000/svg">
<path d="M12.5 5.33334C6.60665 5.33334 1.83331 10.1067 1.83331 16C1.83331 21.8933 6.60665 26.6667 12.5 26.6667C18.3933 26.6667 23.1666 21.8933 23.1666 16C23.1666 10.1067 18.3933 5.33334 12.5 5.33334ZM16.5 14H13.8333V20.6667H11.1666V14H8.49998V12H16.5V14ZM27.5 5.00001L31.1666 6.66668L27.5 8.33334L25.8333 12L24.1666 8.33334L20.5 6.66668L24.1666 5.00001L25.8333 1.33334L27.5 5.00001ZM27.5 23.6667L31.1666 25.3333L27.5 27L25.8333 30.6667L24.1666 27L20.5 25.3333L24.1666 23.6667L25.8333 20L27.5 23.6667Z" fill="white"/>
</svg>
