<svg width="17" height="16" viewBox="0 0 17 16" fill="none" xmlns="http://www.w3.org/2000/svg">
<path fill-rule="evenodd" clip-rule="evenodd" d="M9.56135 10.376C9.71602 10.2673 9.92135 10.066 9.92135 9.56663C9.92135 9.21196 9.68069 8.9993 9.16669 8.7793V10.552C9.31669 10.506 9.45469 10.4513 9.56135 10.376Z" fill="#7F8592"/>
<path fill-rule="evenodd" clip-rule="evenodd" d="M8.5 0C4.08867 0 0.5 3.58867 0.5 8C0.5 12.4113 4.08867 16 8.5 16C12.9113 16 16.5 12.4113 16.5 8C16.5 3.58867 12.9113 0 8.5 0ZM11.2547 9.56733C11.2547 10.6 10.7507 11.1707 10.3273 11.468C9.996 11.7007 9.59667 11.8393 9.16667 11.9193V13.3333H7.83333V11.9753C7.066 11.9173 6.28333 11.7347 5.60667 11.4907L4.98 11.2647L5.43267 10.0107L6.06 10.2373C6.67333 10.4587 7.28267 10.5907 7.83333 10.6413V8.302C6.774 7.922 5.59867 7.32867 5.59867 5.82067C5.59867 5.06867 5.94733 4.448 6.58133 4.07333C6.94267 3.86 7.37733 3.74467 7.83333 3.69067V2.66667H9.16667V3.70067C9.95133 3.792 10.67 4.00733 11.0707 4.22867L11.6553 4.54933L11.0133 5.718L10.4293 5.39667C10.1407 5.238 9.66933 5.10867 9.16667 5.03867V7.348C10.1853 7.708 11.2547 8.22933 11.2547 9.56733Z" fill="#7F8592"/>
<path fill-rule="evenodd" clip-rule="evenodd" d="M7.26067 5.22202C7.03067 5.35802 6.93201 5.53669 6.93201 5.82069C6.93201 6.32535 7.21801 6.60069 7.83334 6.86802V5.03735C7.61467 5.07535 7.41334 5.13135 7.26067 5.22202Z" fill="#7F8592"/>
</svg>
