<svg width="32" height="32" viewBox="0 0 32 32" fill="none" xmlns="http://www.w3.org/2000/svg">
<mask id="mask0_416_1540" style="mask-type:alpha" maskUnits="userSpaceOnUse" x="2" y="1" width="28" height="29">
<path d="M26.6667 20V9.99996L18.3333 5.31262M13.6667 5.31262L5.33334 9.99996V20M7.33334 23.1253L16 28L21.3333 25L24.6667 23.1246" stroke="white" stroke-width="2.66667" stroke-linecap="round" stroke-linejoin="round"/>
<path d="M14 12.4999L12 13.6666V18.3333L14 19.4999L16 20.6666L18 19.4999L20 18.3333V13.6666L18 12.4999L16 11.3333L14 12.4999Z" fill="white" stroke="white" stroke-width="2.66667" stroke-linecap="round" stroke-linejoin="round"/>
<path d="M16 11.3333V6.66663M20 18L24.6667 20.6666M12 18L7.33334 20.6666" stroke="white" stroke-width="2.66667" stroke-linecap="round" stroke-linejoin="round"/>
<path d="M16 6.66663C17.1046 6.66663 18 5.7712 18 4.66663C18 3.56206 17.1046 2.66663 16 2.66663C14.8954 2.66663 14 3.56206 14 4.66663C14 5.7712 14.8954 6.66663 16 6.66663Z" fill="white" stroke="white" stroke-width="2.66667" stroke-linecap="round" stroke-linejoin="round"/>
<path d="M5.33334 24C6.43791 24 7.33334 23.1046 7.33334 22C7.33334 20.8954 6.43791 20 5.33334 20C4.22877 20 3.33334 20.8954 3.33334 22C3.33334 23.1046 4.22877 24 5.33334 24Z" fill="white" stroke="white" stroke-width="2.66667" stroke-linecap="round" stroke-linejoin="round"/>
<path d="M26.6667 24C27.7713 24 28.6667 23.1046 28.6667 22C28.6667 20.8954 27.7713 20 26.6667 20C25.5621 20 24.6667 20.8954 24.6667 22C24.6667 23.1046 25.5621 24 26.6667 24Z" fill="white" stroke="white" stroke-width="2.66667" stroke-linecap="round" stroke-linejoin="round"/>
</mask>
<g mask="url(#mask0_416_1540)">
<path d="M0 0H32V32H0V0Z" fill="#272C34"/>
</g>
</svg>
