<svg width="21" height="17" viewBox="0 0 21 17" fill="none" xmlns="http://www.w3.org/2000/svg">
<path fill-rule="evenodd" clip-rule="evenodd" d="M11.8611 11.1376C12.0487 11.0249 12.2979 10.8162 12.2979 10.2984C12.2979 9.93064 12.0059 9.71012 11.3822 9.48199V11.3201C11.5642 11.2724 11.7316 11.2157 11.8611 11.1376Z" fill="#7F8592"/>
<path fill-rule="evenodd" clip-rule="evenodd" d="M10.5733 0.378479C5.22089 0.378479 0.866638 4.09965 0.866638 8.67386C0.866638 13.2481 5.22089 16.9692 10.5733 16.9692C15.9257 16.9692 20.28 13.2481 20.28 8.67386C20.28 4.09965 15.9257 0.378479 10.5733 0.378479ZM13.9156 10.2991C13.9156 11.3699 13.3041 11.9616 12.7905 12.2699C12.3884 12.5112 11.9039 12.655 11.3822 12.7379V14.2041H9.76441V12.796C8.83338 12.7358 7.88375 12.5464 7.06272 12.2934L6.30237 12.0591L6.8516 10.7588L7.61277 10.9938C8.35695 11.2233 9.09627 11.3602 9.76441 11.4127V8.98701C8.47909 8.59298 7.05302 7.97774 7.05302 6.41406C7.05302 5.6343 7.47607 4.99071 8.24532 4.60221C8.68374 4.381 9.21113 4.26141 9.76441 4.20542V3.14361H11.3822V4.21579C12.3343 4.31049 13.2062 4.53378 13.6924 4.76328L14.4018 5.09579L13.6228 6.30761L12.9142 5.97441C12.564 5.80988 11.9921 5.67577 11.3822 5.60319V7.99779C12.6182 8.37108 13.9156 8.91166 13.9156 10.2991Z" fill="#7F8592"/>
<path fill-rule="evenodd" clip-rule="evenodd" d="M9.06956 5.79329C8.79049 5.93431 8.67078 6.11958 8.67078 6.41406C8.67078 6.93736 9.01779 7.22286 9.76439 7.50007V5.60181C9.49908 5.64121 9.25479 5.69928 9.06956 5.79329Z" fill="#7F8592"/>
</svg>
