<svg width="12" height="12" viewBox="0 0 12 12" fill="none" xmlns="http://www.w3.org/2000/svg">
<path fill-rule="evenodd" clip-rule="evenodd" d="M6.796 7.78197C6.912 7.70047 7.066 7.54947 7.066 7.17497C7.066 6.90897 6.8855 6.74947 6.5 6.58447V7.91397C6.6125 7.87947 6.716 7.83847 6.796 7.78197Z" fill="white"/>
<path fill-rule="evenodd" clip-rule="evenodd" d="M6 0C2.6915 0 0 2.6915 0 6C0 9.3085 2.6915 12 6 12C9.3085 12 12 9.3085 12 6C12 2.6915 9.3085 0 6 0ZM8.066 7.1755C8.066 7.95 7.688 8.378 7.3705 8.601C7.122 8.7755 6.8225 8.8795 6.5 8.9395V10H5.5V8.9815C4.9245 8.938 4.3375 8.801 3.83 8.618L3.36 8.4485L3.6995 7.508L4.17 7.678C4.63 7.844 5.087 7.943 5.5 7.981V6.2265C4.7055 5.9415 3.824 5.4965 3.824 4.3655C3.824 3.8015 4.0855 3.336 4.561 3.055C4.832 2.895 5.158 2.8085 5.5 2.768V2H6.5V2.7755C7.0885 2.844 7.6275 3.0055 7.928 3.1715L8.3665 3.412L7.885 4.2885L7.447 4.0475C7.2305 3.9285 6.877 3.8315 6.5 3.779V5.511C7.264 5.781 8.066 6.172 8.066 7.1755Z" fill="white"/>
<path fill-rule="evenodd" clip-rule="evenodd" d="M5.07047 3.91652C4.89797 4.01852 4.82397 4.15252 4.82397 4.36552C4.82397 4.74402 5.03847 4.95052 5.49997 5.15102V3.77802C5.33597 3.80652 5.18497 3.84852 5.07047 3.91652Z" fill="white"/>
</svg>
