<svg width="32" height="32" viewBox="0 0 32 32" fill="none" xmlns="http://www.w3.org/2000/svg">
<mask id="mask0_416_1540" style="mask-type:alpha" maskUnits="userSpaceOnUse" x="2" y="1" width="29" height="29">
<path d="M26.6667 20V10L18.3334 5.31268M13.6667 5.31268L5.33337 10V20M7.33337 23.1254L16 28L21.3334 25L24.6667 23.1247" stroke="white" stroke-width="2.66667" stroke-linecap="round" stroke-linejoin="round"/>
<path d="M14 12.5L12 13.6667V18.3334L14 19.5L16 20.6667L18 19.5L20 18.3334V13.6667L18 12.5L16 11.3334L14 12.5Z" fill="white" stroke="white" stroke-width="2.66667" stroke-linecap="round" stroke-linejoin="round"/>
<path d="M16 11.3334V6.66669M20 18L24.6667 20.6667M12 18L7.33337 20.6667" stroke="white" stroke-width="2.66667" stroke-linecap="round" stroke-linejoin="round"/>
<path d="M16 6.66669C17.1046 6.66669 18 5.77126 18 4.66669C18 3.56212 17.1046 2.66669 16 2.66669C14.8954 2.66669 14 3.56212 14 4.66669C14 5.77126 14.8954 6.66669 16 6.66669Z" fill="white" stroke="white" stroke-width="2.66667" stroke-linecap="round" stroke-linejoin="round"/>
<path d="M5.33337 24C6.43794 24 7.33337 23.1046 7.33337 22C7.33337 20.8954 6.43794 20 5.33337 20C4.2288 20 3.33337 20.8954 3.33337 22C3.33337 23.1046 4.2288 24 5.33337 24Z" fill="white" stroke="white" stroke-width="2.66667" stroke-linecap="round" stroke-linejoin="round"/>
<path d="M26.6667 24C27.7713 24 28.6667 23.1046 28.6667 22C28.6667 20.8954 27.7713 20 26.6667 20C25.5622 20 24.6667 20.8954 24.6667 22C24.6667 23.1046 25.5622 24 26.6667 24Z" fill="white" stroke="white" stroke-width="2.66667" stroke-linecap="round" stroke-linejoin="round"/>
</mask>
<g mask="url(#mask0_416_1540)">
<path d="M0 0H32V32H0V0Z" fill="#272C34"/>
</g>
</svg>
