<svg width="17" height="16" viewBox="0 0 17 16" fill="none" xmlns="http://www.w3.org/2000/svg">
<path fill-rule="evenodd" clip-rule="evenodd" d="M15.1079 5.92268L10.7503 5.28945L8.80387 1.3436C8.68872 1.14809 8.47876 1.02808 8.25187 1.02808C8.02497 1.02808 7.81501 1.14809 7.69987 1.3436L5.74971 5.28945L1.39217 5.92268C1.16036 5.95614 0.967639 6.11829 0.895025 6.34096C0.822411 6.56364 0.882495 6.80823 1.05002 6.97191L4.20387 10.0451L3.45987 14.3854C3.42031 14.6163 3.51524 14.8496 3.70474 14.9873C3.89425 15.1249 4.14547 15.1431 4.35279 15.0341L8.25002 12.9854L12.1473 15.0341C12.3546 15.1431 12.6058 15.1249 12.7953 14.9873C12.9848 14.8496 13.0797 14.6163 13.0402 14.3854L12.2962 10.0451L15.45 6.97191C15.6175 6.80839 15.6777 6.56403 15.6054 6.34143C15.533 6.11882 15.3407 5.95652 15.1091 5.92268H15.1079Z" fill="#1B2749"/>
</svg>
