<svg width="21" height="17" viewBox="0 0 21 17" fill="none" xmlns="http://www.w3.org/2000/svg">
<path fill-rule="evenodd" clip-rule="evenodd" d="M11.8611 10.9684C12.0487 10.8557 12.2979 10.6469 12.2979 10.1291C12.2979 9.76139 12.0059 9.54087 11.3822 9.31274V11.1509C11.5642 11.1032 11.7316 11.0465 11.8611 10.9684Z" fill="#7F8592"/>
<path fill-rule="evenodd" clip-rule="evenodd" d="M10.5733 0.209229C5.22089 0.209229 0.866638 3.9304 0.866638 8.50461C0.866638 13.0788 5.22089 16.8 10.5733 16.8C15.9257 16.8 20.28 13.0788 20.28 8.50461C20.28 3.9304 15.9257 0.209229 10.5733 0.209229ZM13.9156 10.1298C13.9156 11.2006 13.3041 11.7924 12.7905 12.1007C12.3884 12.3419 11.9039 12.4857 11.3822 12.5687V14.0349H9.76441V12.6267C8.83338 12.5666 7.88375 12.3772 7.06272 12.1242L6.30237 11.8898L6.8516 10.5895L7.61277 10.8246C8.35695 11.0541 9.09627 11.1909 9.76441 11.2435V8.81776C8.47909 8.42373 7.05302 7.80849 7.05302 6.24481C7.05302 5.46505 7.47607 4.82146 8.24532 4.43296C8.68374 4.21175 9.21113 4.09216 9.76441 4.03617V2.97436H11.3822V4.04654C12.3343 4.14124 13.2062 4.36452 13.6924 4.59403L14.4018 4.92654L13.6228 6.13835L12.9142 5.80516C12.564 5.64063 11.9921 5.50652 11.3822 5.43394V7.82854C12.6182 8.20183 13.9156 8.74241 13.9156 10.1298Z" fill="#7F8592"/>
<path fill-rule="evenodd" clip-rule="evenodd" d="M9.06956 5.62404C8.79049 5.76506 8.67078 5.95033 8.67078 6.24481C8.67078 6.76811 9.01779 7.05361 9.76439 7.33082V5.43256C9.49908 5.47196 9.25479 5.53003 9.06956 5.62404Z" fill="#7F8592"/>
</svg>
