<svg width="21" height="17" viewBox="0 0 21 17" fill="none" xmlns="http://www.w3.org/2000/svg">
<path fill-rule="evenodd" clip-rule="evenodd" d="M18.8942 6.46442L13.607 5.80781L11.2453 1.71627C11.1056 1.51355 10.8508 1.3891 10.5755 1.3891C10.3002 1.3891 10.0455 1.51355 9.90578 1.71627L7.53959 5.80781L2.25245 6.46442C1.97118 6.49912 1.73734 6.66726 1.64924 6.89815C1.56113 7.12905 1.63404 7.38267 1.8373 7.5524L5.66397 10.7391L4.76125 15.2397C4.71325 15.4791 4.82843 15.721 5.05837 15.8637C5.2883 16.0064 5.59311 16.0253 5.84466 15.9122L10.5733 13.788L15.3019 15.9122C15.5535 16.0253 15.8583 16.0064 16.0882 15.8637C16.3182 15.721 16.4334 15.4791 16.3854 15.2397L15.4826 10.7391L19.3093 7.5524C19.5125 7.38284 19.5856 7.12946 19.4978 6.89863C19.41 6.66781 19.1767 6.49952 18.8957 6.46442H18.8942Z" fill="#FA7268"/>
</svg>
