<svg width="21" height="18" viewBox="0 0 21 18" fill="none" xmlns="http://www.w3.org/2000/svg">
<path fill-rule="evenodd" clip-rule="evenodd" d="M18.8942 6.63367L13.607 5.97706L11.2453 1.88552C11.1056 1.6828 10.8508 1.55835 10.5755 1.55835C10.3002 1.55835 10.0455 1.6828 9.90578 1.88552L7.53959 5.97706L2.25245 6.63367C1.97118 6.66837 1.73734 6.83651 1.64924 7.0674C1.56113 7.2983 1.63404 7.55192 1.8373 7.72165L5.66397 10.9084L4.76125 15.4089C4.71325 15.6483 4.82843 15.8902 5.05837 16.033C5.2883 16.1757 5.59311 16.1945 5.84466 16.0815L10.5733 13.9572L15.3019 16.0815C15.5535 16.1945 15.8583 16.1757 16.0882 16.033C16.3182 15.8902 16.4334 15.6483 16.3854 15.4089L15.4826 10.9084L19.3093 7.72165C19.5125 7.55209 19.5856 7.29871 19.4978 7.06789C19.41 6.83706 19.1767 6.66877 18.8957 6.63367H18.8942Z" fill="#FA7268"/>
</svg>
