<svg width="17" height="16" viewBox="0 0 17 16" fill="none" xmlns="http://www.w3.org/2000/svg">
<path fill-rule="evenodd" clip-rule="evenodd" d="M9.31135 10.376C9.46602 10.2673 9.67135 10.066 9.67135 9.56663C9.67135 9.21196 9.43069 8.9993 8.91669 8.7793V10.552C9.06669 10.506 9.20469 10.4513 9.31135 10.376Z" fill="#7F8592"/>
<path fill-rule="evenodd" clip-rule="evenodd" d="M8.25 0C3.83867 0 0.25 3.58867 0.25 8C0.25 12.4113 3.83867 16 8.25 16C12.6613 16 16.25 12.4113 16.25 8C16.25 3.58867 12.6613 0 8.25 0ZM11.0047 9.56733C11.0047 10.6 10.5007 11.1707 10.0773 11.468C9.746 11.7007 9.34667 11.8393 8.91667 11.9193V13.3333H7.58333V11.9753C6.816 11.9173 6.03333 11.7347 5.35667 11.4907L4.73 11.2647L5.18267 10.0107L5.81 10.2373C6.42333 10.4587 7.03267 10.5907 7.58333 10.6413V8.302C6.524 7.922 5.34867 7.32867 5.34867 5.82067C5.34867 5.06867 5.69733 4.448 6.33133 4.07333C6.69267 3.86 7.12733 3.74467 7.58333 3.69067V2.66667H8.91667V3.70067C9.70133 3.792 10.42 4.00733 10.8207 4.22867L11.4053 4.54933L10.7633 5.718L10.1793 5.39667C9.89067 5.238 9.41933 5.10867 8.91667 5.03867V7.348C9.93533 7.708 11.0047 8.22933 11.0047 9.56733Z" fill="#7F8592"/>
<path fill-rule="evenodd" clip-rule="evenodd" d="M7.01067 5.22202C6.78067 5.35802 6.68201 5.53669 6.68201 5.82069C6.68201 6.32535 6.96801 6.60069 7.58334 6.86802V5.03735C7.36467 5.07535 7.16334 5.13135 7.01067 5.22202Z" fill="#7F8592"/>
</svg>
