<svg width="14" height="14" viewBox="0 0 14 14" fill="none" xmlns="http://www.w3.org/2000/svg">
<g opacity="0.5">
<path fill-rule="evenodd" clip-rule="evenodd" d="M13.4522 12.2144L10.108 8.87017C11.6955 6.63905 11.3083 3.56362 9.21736 1.79559C7.1264 0.0275574 4.0294 0.156915 2.09316 2.09316C0.156915 4.0294 0.0275574 7.1264 1.79559 9.21736C3.56362 11.3083 6.63905 11.6955 8.87017 10.108L12.2144 13.4522L13.4522 12.2144ZM2.33333 5.83333C2.33333 3.90034 3.90034 2.33333 5.83333 2.33333C7.76633 2.33333 9.33333 3.90034 9.33333 5.83333C9.33333 7.76633 7.76633 9.33333 5.83333 9.33333C3.90125 9.33113 2.33554 7.76542 2.33333 5.83333Z" fill="#1B2749"/>
</g>
</svg>
