<svg width="13" height="12" viewBox="0 0 13 12" fill="none" xmlns="http://www.w3.org/2000/svg">
<path fill-rule="evenodd" clip-rule="evenodd" d="M7.296 7.78197C7.412 7.70047 7.566 7.54947 7.566 7.17497C7.566 6.90897 7.3855 6.74947 7 6.58447V7.91397C7.1125 7.87947 7.216 7.83847 7.296 7.78197Z" fill="white"/>
<path fill-rule="evenodd" clip-rule="evenodd" d="M6.5 0C3.1915 0 0.5 2.6915 0.5 6C0.5 9.3085 3.1915 12 6.5 12C9.8085 12 12.5 9.3085 12.5 6C12.5 2.6915 9.8085 0 6.5 0ZM8.566 7.1755C8.566 7.95 8.188 8.378 7.8705 8.601C7.622 8.7755 7.3225 8.8795 7 8.9395V10H6V8.9815C5.4245 8.938 4.8375 8.801 4.33 8.618L3.86 8.4485L4.1995 7.508L4.67 7.678C5.13 7.844 5.587 7.943 6 7.981V6.2265C5.2055 5.9415 4.324 5.4965 4.324 4.3655C4.324 3.8015 4.5855 3.336 5.061 3.055C5.332 2.895 5.658 2.8085 6 2.768V2H7V2.7755C7.5885 2.844 8.1275 3.0055 8.428 3.1715L8.8665 3.412L8.385 4.2885L7.947 4.0475C7.7305 3.9285 7.377 3.8315 7 3.779V5.511C7.764 5.781 8.566 6.172 8.566 7.1755Z" fill="white"/>
<path fill-rule="evenodd" clip-rule="evenodd" d="M5.57047 3.91652C5.39797 4.01852 5.32397 4.15252 5.32397 4.36552C5.32397 4.74402 5.53847 4.95052 5.99997 5.15102V3.77802C5.83597 3.80652 5.68497 3.84852 5.57047 3.91652Z" fill="white"/>
</svg>
