<svg width="16" height="16" viewBox="0 0 16 16" fill="none" xmlns="http://www.w3.org/2000/svg">
<path fill-rule="evenodd" clip-rule="evenodd" d="M14.8579 5.92268L10.5003 5.28945L8.55387 1.3436C8.43872 1.14809 8.22876 1.02808 8.00187 1.02808C7.77497 1.02808 7.56501 1.14809 7.44987 1.3436L5.49971 5.28945L1.14217 5.92268C0.910361 5.95614 0.717639 6.11829 0.645025 6.34096C0.572411 6.56364 0.632495 6.80823 0.800019 6.97191L3.95387 10.0451L3.20987 14.3854C3.17031 14.6163 3.26524 14.8496 3.45474 14.9873C3.64425 15.1249 3.89547 15.1431 4.10279 15.0341L8.00002 12.9854L11.8973 15.0341C12.1046 15.1431 12.3558 15.1249 12.5453 14.9873C12.7348 14.8496 12.8297 14.6163 12.7902 14.3854L12.0462 10.0451L15.2 6.97191C15.3675 6.80839 15.4277 6.56403 15.3554 6.34143C15.283 6.11882 15.0907 5.95652 14.8591 5.92268H14.8579Z" fill="#1B2749"/>
</svg>
