<svg width="17" height="16" viewBox="0 0 17 16" fill="none" xmlns="http://www.w3.org/2000/svg">
<path fill-rule="evenodd" clip-rule="evenodd" d="M15.3579 5.92268L11.0003 5.28945L9.05387 1.3436C8.93873 1.14809 8.72876 1.02808 8.50187 1.02808C8.27497 1.02808 8.06501 1.14809 7.94987 1.3436L5.99971 5.28945L1.64217 5.92268C1.41036 5.95614 1.21764 6.11829 1.14503 6.34096C1.07241 6.56364 1.1325 6.80823 1.30002 6.97191L4.45387 10.0451L3.70987 14.3854C3.67031 14.6163 3.76524 14.8496 3.95474 14.9873C4.14425 15.1249 4.39547 15.1431 4.60279 15.0341L8.50002 12.9854L12.3973 15.0341C12.6046 15.1431 12.8558 15.1249 13.0453 14.9873C13.2348 14.8496 13.3297 14.6163 13.2902 14.3854L12.5462 10.0451L15.7 6.97191C15.8675 6.80839 15.9277 6.56403 15.8554 6.34143C15.783 6.11882 15.5907 5.95652 15.3591 5.92268H15.3579Z" fill="#1B2749"/>
</svg>
