<svg width="32" height="32" viewBox="0 0 32 32" fill="none" xmlns="http://www.w3.org/2000/svg">
<path d="M10.6667 22.6667H13.3334V21.3334H14.6667C15.4 21.3334 16 20.7334 16 20V16C16 15.2667 15.4 14.6667 14.6667 14.6667H10.6667V13.3334H16V10.6667H13.3334V9.33337H10.6667V10.6667H9.33335C8.60002 10.6667 8.00002 11.2667 8.00002 12V16C8.00002 16.7334 8.60002 17.3334 9.33335 17.3334H13.3334V18.6667H8.00002V21.3334H10.6667V22.6667ZM26.6667 5.33337H5.33335C3.85335 5.33337 2.68002 6.52004 2.68002 8.00004L2.66669 24C2.66669 25.48 3.85335 26.6667 5.33335 26.6667H26.6667C28.1467 26.6667 29.3334 25.48 29.3334 24V8.00004C29.3334 6.52004 28.1467 5.33337 26.6667 5.33337ZM26.6667 24H5.33335V8.00004H26.6667V24ZM18.6667 13.3334L21.3334 10.6667L24 13.3334M24 19L21.3334 21.6667L18.6667 19" fill="#272C34"/>
</svg>
