<svg width="32" height="32" viewBox="0 0 32 32" fill="none" xmlns="http://www.w3.org/2000/svg">
<path d="M16 8.66667C18.4517 8.65852 20.8559 9.34238 22.9362 10.6396C25.0165 11.9369 26.6886 13.7949 27.76 16C25.56 20.4933 21.0667 23.3333 16 23.3333C10.9334 23.3333 6.44004 20.4933 4.24004 16C5.31153 13.7949 6.98355 11.9369 9.06388 10.6396C11.1442 9.34238 13.5484 8.65852 16 8.66667ZM16 6C9.33337 6 3.64004 10.1467 1.33337 16C3.64004 21.8533 9.33337 26 16 26C22.6667 26 28.36 21.8533 30.6667 16C28.36 10.1467 22.6667 6 16 6ZM16 12.6667C16.8841 12.6667 17.7319 13.0179 18.3571 13.643C18.9822 14.2681 19.3334 15.1159 19.3334 16C19.3334 16.8841 18.9822 17.7319 18.3571 18.357C17.7319 18.9821 16.8841 19.3333 16 19.3333C15.116 19.3333 14.2681 18.9821 13.643 18.357C13.0179 17.7319 12.6667 16.8841 12.6667 16C12.6667 15.1159 13.0179 14.2681 13.643 13.643C14.2681 13.0179 15.116 12.6667 16 12.6667ZM16 10C12.6934 10 10 12.6933 10 16C10 19.3067 12.6934 22 16 22C19.3067 22 22 19.3067 22 16C22 12.6933 19.3067 10 16 10Z" fill="#272C34"/>
</svg>
