<svg width="33" height="32" viewBox="0 0 33 32" fill="none" xmlns="http://www.w3.org/2000/svg">
<path d="M16.5 8.66667C18.9516 8.65852 21.3558 9.34238 23.4362 10.6396C25.5165 11.9369 27.1885 13.7949 28.26 16C26.06 20.4933 21.5667 23.3333 16.5 23.3333C11.4333 23.3333 6.94 20.4933 4.74 16C5.81149 13.7949 7.48351 11.9369 9.56383 10.6396C11.6442 9.34238 14.0483 8.65852 16.5 8.66667ZM16.5 6C9.83333 6 4.14 10.1467 1.83333 16C4.14 21.8533 9.83333 26 16.5 26C23.1667 26 28.86 21.8533 31.1667 16C28.86 10.1467 23.1667 6 16.5 6ZM16.5 12.6667C17.3841 12.6667 18.2319 13.0179 18.857 13.643C19.4821 14.2681 19.8333 15.1159 19.8333 16C19.8333 16.8841 19.4821 17.7319 18.857 18.357C18.2319 18.9821 17.3841 19.3333 16.5 19.3333C15.6159 19.3333 14.7681 18.9821 14.143 18.357C13.5179 17.7319 13.1667 16.8841 13.1667 16C13.1667 15.1159 13.5179 14.2681 14.143 13.643C14.7681 13.0179 15.6159 12.6667 16.5 12.6667ZM16.5 10C13.1933 10 10.5 12.6933 10.5 16C10.5 19.3067 13.1933 22 16.5 22C19.8067 22 22.5 19.3067 22.5 16C22.5 12.6933 19.8067 10 16.5 10Z" fill="#272C34"/>
</svg>
