<svg width="32" height="32" viewBox="0 0 32 32" fill="none" xmlns="http://www.w3.org/2000/svg">
<path d="M10.6667 22.6667H13.3333V21.3334H14.6667C15.4 21.3334 16 20.7334 16 20V16C16 15.2667 15.4 14.6667 14.6667 14.6667H10.6667V13.3334H16V10.6667H13.3333V9.33337H10.6667V10.6667H9.33332C8.59999 10.6667 7.99999 11.2667 7.99999 12V16C7.99999 16.7334 8.59999 17.3334 9.33332 17.3334H13.3333V18.6667H7.99999V21.3334H10.6667V22.6667ZM26.6667 5.33337H5.33332C3.85332 5.33337 2.67999 6.52004 2.67999 8.00004L2.66666 24C2.66666 25.48 3.85332 26.6667 5.33332 26.6667H26.6667C28.1467 26.6667 29.3333 25.48 29.3333 24V8.00004C29.3333 6.52004 28.1467 5.33337 26.6667 5.33337ZM26.6667 24H5.33332V8.00004H26.6667V24ZM18.6667 13.3334L21.3333 10.6667L24 13.3334M24 19L21.3333 21.6667L18.6667 19" fill="#272C34"/>
</svg>
