<svg width="33" height="32" viewBox="0 0 33 32" fill="none" xmlns="http://www.w3.org/2000/svg">
<path d="M11.1667 22.6668H13.8333V21.3335H15.1667C15.9 21.3335 16.5 20.7335 16.5 20.0002V16.0002C16.5 15.2668 15.9 14.6668 15.1667 14.6668H11.1667V13.3335H16.5V10.6668H13.8333V9.3335H11.1667V10.6668H9.83334C9.10001 10.6668 8.50001 11.2668 8.50001 12.0002V16.0002C8.50001 16.7335 9.10001 17.3335 9.83334 17.3335H13.8333V18.6668H8.50001V21.3335H11.1667V22.6668ZM27.1667 5.3335H5.83334C4.35334 5.3335 3.18001 6.52016 3.18001 8.00016L3.16667 24.0002C3.16667 25.4802 4.35334 26.6668 5.83334 26.6668H27.1667C28.6467 26.6668 29.8333 25.4802 29.8333 24.0002V8.00016C29.8333 6.52016 28.6467 5.3335 27.1667 5.3335ZM27.1667 24.0002H5.83334V8.00016H27.1667V24.0002ZM19.1667 13.3335L21.8333 10.6668L24.5 13.3335M24.5 19.0002L21.8333 21.6668L19.1667 19.0002" fill="#272C34"/>
</svg>
