<svg width="32" height="32" viewBox="0 0 32 32" fill="none" xmlns="http://www.w3.org/2000/svg">
<path d="M16 8.66667C18.4516 8.65852 20.8558 9.34238 22.9361 10.6396C25.0165 11.9369 26.6885 13.7949 27.76 16C25.56 20.4933 21.0666 23.3333 16 23.3333C10.9333 23.3333 6.43998 20.4933 4.23998 16C5.31147 13.7949 6.98349 11.9369 9.06382 10.6396C11.1441 9.34238 13.5483 8.65852 16 8.66667M16 6C9.33331 6 3.63998 10.1467 1.33331 16C3.63998 21.8533 9.33331 26 16 26C22.6666 26 28.36 21.8533 30.6666 16C28.36 10.1467 22.6666 6 16 6ZM16 12.6667C16.884 12.6667 17.7319 13.0179 18.357 13.643C18.9821 14.2681 19.3333 15.1159 19.3333 16C19.3333 16.8841 18.9821 17.7319 18.357 18.357C17.7319 18.9821 16.884 19.3333 16 19.3333C15.1159 19.3333 14.2681 18.9821 13.643 18.357C13.0178 17.7319 12.6666 16.8841 12.6666 16C12.6666 15.1159 13.0178 14.2681 13.643 13.643C14.2681 13.0179 15.1159 12.6667 16 12.6667M16 10C12.6933 10 9.99998 12.6933 9.99998 16C9.99998 19.3067 12.6933 22 16 22C19.3066 22 22 19.3067 22 16C22 12.6933 19.3066 10 16 10Z" fill="#272C34"/>
</svg>
