<svg width="21" height="20" viewBox="0 0 21 20" fill="none" xmlns="http://www.w3.org/2000/svg">
<path d="M15.5 10.8317H11.3333V14.9984C11.3333 15.2194 11.2455 15.4313 11.0893 15.5876C10.933 15.7439 10.721 15.8317 10.5 15.8317C10.279 15.8317 10.067 15.7439 9.91074 15.5876C9.75446 15.4313 9.66666 15.2194 9.66666 14.9984V10.8317H5.5C5.27898 10.8317 5.06702 10.7439 4.91074 10.5876C4.75446 10.4313 4.66666 10.2194 4.66666 9.99837C4.66666 9.77736 4.75446 9.5654 4.91074 9.40912C5.06702 9.25284 5.27898 9.16504 5.5 9.16504H9.66666V4.99837C9.66666 4.77736 9.75446 4.5654 9.91074 4.40912C10.067 4.25284 10.279 4.16504 10.5 4.16504C10.721 4.16504 10.933 4.25284 11.0893 4.40912C11.2455 4.5654 11.3333 4.77736 11.3333 4.99837V9.16504H15.5C15.721 9.16504 15.933 9.25284 16.0893 9.40912C16.2455 9.5654 16.3333 9.77736 16.3333 9.99837C16.3333 10.2194 16.2455 10.4313 16.0893 10.5876C15.933 10.7439 15.721 10.8317 15.5 10.8317Z" fill="#272C34"/>
</svg>
