<svg width="21" height="20" viewBox="0 0 21 20" fill="none" xmlns="http://www.w3.org/2000/svg">
<path d="M15.5 10.8317H11.3333V14.9984C11.3333 15.2194 11.2455 15.4313 11.0892 15.5876C10.9329 15.7439 10.721 15.8317 10.5 15.8317C10.2789 15.8317 10.067 15.7439 9.9107 15.5876C9.75442 15.4313 9.66663 15.2194 9.66663 14.9984V10.8317H5.49996C5.27895 10.8317 5.06698 10.7439 4.9107 10.5876C4.75442 10.4313 4.66663 10.2194 4.66663 9.99837C4.66663 9.77736 4.75442 9.5654 4.9107 9.40912C5.06698 9.25284 5.27895 9.16504 5.49996 9.16504H9.66663V4.99837C9.66663 4.77736 9.75442 4.5654 9.9107 4.40912C10.067 4.25284 10.2789 4.16504 10.5 4.16504C10.721 4.16504 10.9329 4.25284 11.0892 4.40912C11.2455 4.5654 11.3333 4.77736 11.3333 4.99837V9.16504H15.5C15.721 9.16504 15.9329 9.25284 16.0892 9.40912C16.2455 9.5654 16.3333 9.77736 16.3333 9.99837C16.3333 10.2194 16.2455 10.4313 16.0892 10.5876C15.9329 10.7439 15.721 10.8317 15.5 10.8317Z" fill="#272C34"/>
</svg>
