<svg width="21" height="20" viewBox="0 0 21 20" fill="none" xmlns="http://www.w3.org/2000/svg">
<path d="M15.5 10.8317H11.3334V14.9983C11.3334 15.2193 11.2456 15.4313 11.0893 15.5876C10.933 15.7439 10.721 15.8317 10.5 15.8317C10.279 15.8317 10.067 15.7439 9.91076 15.5876C9.75448 15.4313 9.66669 15.2193 9.66669 14.9983V10.8317H5.50002C5.27901 10.8317 5.06705 10.7439 4.91076 10.5876C4.75448 10.4313 4.66669 10.2193 4.66669 9.99833C4.66669 9.77732 4.75448 9.56536 4.91076 9.40908C5.06705 9.2528 5.27901 9.165 5.50002 9.165H9.66669V4.99833C9.66669 4.77732 9.75448 4.56536 9.91076 4.40908C10.067 4.2528 10.279 4.165 10.5 4.165C10.721 4.165 10.933 4.2528 11.0893 4.40908C11.2456 4.56536 11.3334 4.77732 11.3334 4.99833V9.165H15.5C15.721 9.165 15.933 9.2528 16.0893 9.40908C16.2456 9.56536 16.3334 9.77732 16.3334 9.99833C16.3334 10.2193 16.2456 10.4313 16.0893 10.5876C15.933 10.7439 15.721 10.8317 15.5 10.8317Z" fill="#272C34"/>
</svg>
