<svg width="253" height="252" viewBox="0 0 253 252" fill="none" xmlns="http://www.w3.org/2000/svg">
<path opacity="0.1" fill-rule="evenodd" clip-rule="evenodd" d="M145.1 41.656C130.381 41.2104 116.362 37.0804 102.975 32.5597C89.5883 28.0401 76.3297 23.0318 61.9633 20.6369C52.7222 19.0966 42.1532 18.8792 34.7097 23.1857C27.5436 27.3383 25.2284 34.4864 23.9844 41.1253C23.0474 46.1207 22.497 51.3776 25.0623 56.0522C26.8454 59.2985 30.0067 62.0271 32.1945 65.1378C39.8064 75.9573 34.4261 89.2998 26.179 99.8642C22.3127 104.821 17.8211 109.553 14.8349 114.825C11.8487 120.095 10.4682 126.145 13.0813 131.526C15.6695 136.865 21.8397 140.867 28.5238 143.685C42.0992 149.409 58.0897 151.046 73.6941 151.973C108.224 154.028 142.937 153.137 177.558 152.248C190.372 151.918 203.239 151.584 215.844 149.861C222.844 148.904 230.07 147.388 235.153 143.723C241.603 139.069 243.201 131.193 238.878 125.358C231.627 115.571 211.586 113.142 206.513 102.64C203.724 96.859 206.587 90.4214 210.643 85.059C219.34 73.5592 233.916 63.4683 234.682 50.3239C235.21 41.2954 228.202 32.254 217.368 27.9809C206.012 23.5043 190.262 24.0662 181.889 31.479C173.258 39.1104 158.097 42.0467 145.1 41.656Z" fill="#FA7268"/>
<path fill-rule="evenodd" clip-rule="evenodd" d="M170.034 232.038C174.98 232.038 178.99 231.347 178.99 230.495C178.99 229.644 174.98 228.953 170.034 228.953C165.087 228.953 161.077 229.644 161.077 230.495C161.077 231.347 165.087 232.038 170.034 232.038Z" fill="#417505"/>
<path fill-rule="evenodd" clip-rule="evenodd" d="M174.336 228.091C174.744 227.75 175.042 227.293 175.19 226.778C175.3 226.258 175.082 225.643 174.593 225.441C174.045 225.229 173.459 225.617 173.016 226.007C172.572 226.397 172.063 226.844 171.481 226.759C171.78 226.484 172.004 226.134 172.131 225.744C172.258 225.354 172.284 224.937 172.205 224.535C172.179 224.368 172.108 224.211 172.002 224.081C171.7 223.75 171.146 223.89 170.784 224.154C169.625 224.982 169.303 226.584 169.296 228.025C169.177 227.505 169.278 226.963 169.274 226.437C169.269 225.912 169.129 225.304 168.686 225.024C168.412 224.875 168.105 224.801 167.794 224.811C167.273 224.791 166.694 224.845 166.338 225.233C165.892 225.714 166.012 226.521 166.395 227.047C166.778 227.574 167.364 227.911 167.904 228.277C168.335 228.538 168.703 228.896 168.979 229.323C169.013 229.381 169.04 229.445 169.06 229.51H172.313C173.048 229.132 173.728 228.654 174.336 228.091Z" fill="#417505"/>
<path fill-rule="evenodd" clip-rule="evenodd" d="M224.258 201.489C230.577 201.489 235.7 200.606 235.7 199.518C235.7 198.43 230.577 197.548 224.258 197.548C217.939 197.548 212.816 198.43 212.816 199.518C212.816 200.606 217.939 201.489 224.258 201.489Z" fill="#417505"/>
<path fill-rule="evenodd" clip-rule="evenodd" d="M229.369 196.839C229.89 196.405 230.27 195.82 230.459 195.162C230.601 194.498 230.322 193.713 229.696 193.455C228.996 193.183 228.248 193.678 227.682 194.176C227.115 194.674 226.464 195.246 225.72 195.138C226.103 194.787 226.389 194.339 226.551 193.842C226.713 193.343 226.745 192.81 226.646 192.296C226.612 192.083 226.522 191.882 226.386 191.716C225.999 191.294 225.294 191.473 224.83 191.809C223.35 192.867 222.938 194.915 222.93 196.755C222.778 196.092 222.907 195.399 222.901 194.727C222.895 194.054 222.716 193.278 222.15 192.922C221.8 192.731 221.407 192.637 221.011 192.649C220.346 192.624 219.605 192.693 219.15 193.188C218.581 193.803 218.735 194.834 219.224 195.506C219.714 196.179 220.462 196.61 221.151 197.076C221.702 197.411 222.171 197.867 222.525 198.413C222.567 198.489 222.602 198.57 222.627 198.653H226.785C227.722 198.169 228.592 197.56 229.369 196.839Z" fill="#417505"/>
<path fill-rule="evenodd" clip-rule="evenodd" d="M117.857 164.202C119.154 164.371 120.501 164.478 121.743 164.068C121.939 164.006 122.154 163.869 122.135 163.669C122.121 163.597 122.09 163.529 122.047 163.47C121.578 162.754 121.185 161.991 120.873 161.192C120.86 161.151 120.835 161.114 120.8 161.089C120.759 161.074 120.715 161.074 120.675 161.089C120.102 161.242 119.606 161.619 119.037 161.781C118.746 161.862 118.443 161.884 118.144 161.848C117.886 161.818 117.534 161.601 117.299 161.629C117.432 162.5 117.756 163.312 117.857 164.202Z" fill="#6C63FF"/>
<path fill-rule="evenodd" clip-rule="evenodd" d="M142.603 161.545C143.458 160.947 144.345 160.32 144.85 159.397C144.886 159.342 144.907 159.277 144.911 159.211C144.902 159.146 144.877 159.085 144.838 159.032C144.357 158.254 143.738 157.573 143.013 157.025C142.634 157.298 142.291 157.62 141.995 157.981C141.779 158.213 141.184 158.58 141.178 158.933C141.178 159.131 141.406 159.363 141.511 159.53C141.654 159.745 141.789 159.965 141.918 160.188C141.993 160.297 142.671 161.501 142.603 161.545Z" fill="#6C63FF"/>
<path fill-rule="evenodd" clip-rule="evenodd" d="M122.6 166.461C122.616 166.665 122.56 166.87 122.443 167.038C122.352 167.132 122.238 167.2 122.114 167.238C120.3 167.899 118.2 167.075 116.39 167.726C116.018 167.86 115.666 168.052 115.292 168.18C114.846 168.317 114.386 168.4 113.922 168.427C113.282 168.489 112.638 168.529 111.996 168.547C111.509 168.582 111.018 168.538 110.544 168.417C110.307 168.355 110.085 168.244 109.893 168.089C109.701 167.934 109.544 167.739 109.43 167.518C109.332 167.321 109.312 167.092 109.376 166.879C109.403 166.806 109.444 166.738 109.495 166.68C109.617 166.54 109.762 166.42 109.922 166.327L110.588 165.888C110.902 165.663 111.242 165.48 111.6 165.342C111.865 165.255 112.145 165.217 112.413 165.144C113.35 164.864 114.067 164.107 114.732 163.38L115.64 162.393C115.725 162.285 115.833 162.197 115.955 162.136C116.082 162.093 116.215 162.08 116.346 162.098C117.229 162.162 118.081 162.453 118.823 162.943C119.012 163.088 119.217 163.211 119.433 163.31C119.966 163.521 120.649 163.362 121.14 163.094C121.373 162.968 121.322 162.896 121.42 162.669C121.517 162.441 121.756 162.296 121.964 162.503C122.027 162.575 122.07 162.661 122.093 162.754C122.288 163.411 122.215 164.12 122.215 164.808C122.209 164.917 122.222 165.024 122.253 165.128C122.303 165.231 122.363 165.33 122.432 165.422C122.445 165.447 122.457 165.472 122.468 165.498C122.589 165.803 122.633 166.133 122.6 166.461Z" fill="#514E7F"/>
<path fill-rule="evenodd" clip-rule="evenodd" d="M122.6 167.111C122.616 167.316 122.56 167.52 122.443 167.689C122.352 167.783 122.238 167.851 122.114 167.888C120.3 168.55 118.2 167.725 116.39 168.377C116.018 168.51 115.666 168.703 115.292 168.83C114.846 168.967 114.386 169.05 113.922 169.078C113.282 169.139 112.638 169.18 111.996 169.197C111.509 169.233 111.018 169.189 110.544 169.067C110.307 169.006 110.085 168.894 109.893 168.739C109.701 168.584 109.544 168.39 109.43 168.169C109.332 167.971 109.312 167.742 109.376 167.53C109.403 167.457 109.444 167.389 109.495 167.33C109.6 167.555 109.677 167.854 109.744 167.962C109.833 168.121 109.956 168.259 110.102 168.367C110.248 168.475 110.415 168.549 110.592 168.585C110.858 168.602 111.124 168.568 111.375 168.484C113.019 168.07 114.767 168.063 116.346 167.435C116.889 167.219 117.406 166.93 117.975 166.798C118.544 166.666 119.149 166.702 119.736 166.652C120.664 166.577 121.563 166.292 122.476 166.143C122.595 166.451 122.636 166.783 122.6 167.111Z" fill="#464353"/>
<path fill-rule="evenodd" clip-rule="evenodd" d="M146.479 162.242C146.394 162.944 145.957 163.548 145.477 164.059C144.998 164.572 144.456 165.032 144.075 165.621C143.605 166.353 143.393 167.26 142.783 167.877C142.548 168.102 142.285 168.293 142 168.446C141.681 168.637 141.342 168.795 140.992 168.918C140.08 169.215 139.098 169.147 138.145 169.075C137.835 169.072 137.529 169.012 137.24 168.898C137.109 168.83 136.983 168.752 136.864 168.663C136.625 168.513 136.424 168.308 136.277 168.065C136.205 167.932 136.184 167.777 136.22 167.63C136.275 167.468 136.369 167.323 136.493 167.208C136.707 166.981 136.937 166.77 137.181 166.577C137.517 166.356 137.818 166.087 138.078 165.779C138.237 165.535 138.354 165.266 138.424 164.982C138.562 164.485 138.647 163.974 138.677 163.457C138.676 163.115 138.711 162.773 138.78 162.437C138.926 161.912 139.309 161.441 139.266 160.897C139.248 160.819 139.255 160.737 139.286 160.663C139.331 160.607 139.394 160.566 139.465 160.55C139.764 160.428 140.08 160.354 140.401 160.329C140.562 160.318 140.724 160.343 140.874 160.403C141.024 160.463 141.159 160.556 141.27 160.676C141.403 160.839 141.491 161.075 141.687 161.139C141.784 161.165 141.886 161.169 141.984 161.15C142.466 161.1 142.974 161.038 143.354 160.721C143.529 160.561 143.671 160.366 143.768 160.148C143.866 159.929 143.918 159.692 143.921 159.452C143.921 159.27 143.842 159.082 144.117 159.054C144.325 159.025 144.489 159.253 144.595 159.392C144.977 159.913 145.368 160.457 145.511 161.09C145.567 161.069 145.626 161.057 145.685 161.057C145.807 161.055 145.928 161.084 146.037 161.141C146.145 161.197 146.239 161.279 146.309 161.382C146.465 161.638 146.526 161.944 146.479 162.242Z" fill="#514E7F"/>
<path fill-rule="evenodd" clip-rule="evenodd" d="M146.406 162.293C146.32 162.994 145.883 163.598 145.404 164.111C144.924 164.622 144.382 165.083 144.001 165.673C143.531 166.404 143.319 167.311 142.708 167.929C142.474 168.153 142.211 168.344 141.926 168.496C141.607 168.689 141.269 168.847 140.918 168.968C140.006 169.266 139.024 169.198 138.071 169.126C137.761 169.123 137.455 169.063 137.166 168.949C137.035 168.881 136.91 168.802 136.79 168.714C136.551 168.564 136.35 168.359 136.203 168.116C136.386 168.026 136.587 167.977 136.79 167.972C137.213 167.997 137.522 168.403 137.927 168.529C138.504 168.706 139.081 168.291 139.666 168.15C140.047 168.057 140.449 168.082 140.826 167.95C141.141 167.826 141.432 167.647 141.685 167.42C142.033 167.167 142.342 166.864 142.603 166.52C142.82 166.175 143.001 165.808 143.141 165.425C143.45 164.691 143.814 163.983 144.23 163.305C144.291 163.198 144.365 163.098 144.45 163.01C144.543 162.924 144.646 162.864 144.75 162.789C145.141 162.489 145.304 161.992 145.44 161.506C145.478 161.358 145.53 161.214 145.596 161.077C145.718 161.076 145.838 161.105 145.947 161.161C146.055 161.218 146.149 161.301 146.219 161.403C146.389 161.665 146.454 161.983 146.406 162.293Z" fill="#464353"/>
<path fill-rule="evenodd" clip-rule="evenodd" d="M105.128 100.152C105.615 100.523 106.016 101 106.302 101.547C106.577 102.093 108.156 106.329 108.064 106.945C108.578 106.417 110.608 106.331 111.128 105.804C111.345 105.582 112.518 104.478 112.695 104.221C112.871 103.964 114.178 103.424 114.32 103.153C114.855 102.179 110.532 98.4862 111.086 97.5237C111.116 97.4792 111.131 97.4265 111.13 97.3718C111.118 97.3262 111.093 97.2857 111.058 97.2543C110.704 96.8855 110.234 96.6566 109.807 96.384C109.38 96.1105 108.969 95.7296 108.854 95.2281C108.447 95.4186 108.074 95.6759 107.749 95.989C106.956 96.6809 106.176 97.387 105.409 98.1073C105.11 98.3899 104.531 98.7668 104.392 99.171C104.227 99.6056 104.842 99.9146 105.128 100.152Z" fill="#FFCDD3"/>
<path fill-rule="evenodd" clip-rule="evenodd" d="M112.796 98.2673C112.133 98.7212 111.513 99.2379 110.944 99.8102C110.409 100.35 109.899 100.975 109.77 101.731C109.715 102.028 109.723 102.329 109.678 102.63C109.482 103.934 108.375 104.892 107.885 106.113C107.744 106.49 107.64 106.88 107.574 107.279C107.437 108.033 107.361 108.799 107.349 109.566C107.337 110.31 108.054 110.822 108.316 111.515C108.578 112.209 108.649 112.922 108.782 113.634C109.033 114.977 109.492 116.272 109.956 117.559C110.921 120.273 114.048 127.776 115.013 130.492C117.97 129.737 125.843 128.001 128.461 126.409C129.334 125.878 122.404 119.898 123.337 119.486C123.39 119.478 123.441 119.457 123.486 119.425C123.529 119.393 123.565 119.351 123.591 119.303C123.616 119.254 123.63 119.2 123.632 119.146C123.633 119.091 123.622 119.036 123.599 118.986C122.666 114.829 119.745 111.414 118.421 107.367C117.96 105.962 117.135 104.762 116.509 103.427C115.941 102.217 115.637 100.88 114.959 99.7302C114.83 99.4931 114.663 99.2804 114.463 99.1021C114.294 98.9704 114.111 98.8569 113.917 98.7658C113.53 98.5743 113.17 98.4608 112.796 98.2673Z" fill="#F7F6FF"/>
<path fill-rule="evenodd" clip-rule="evenodd" d="M106.008 99.5884C108.564 99.5884 110.636 97.4782 110.636 94.8756C110.636 92.272 108.564 90.1628 106.008 90.1628C103.451 90.1628 101.379 92.272 101.379 94.8756C101.379 97.4782 103.451 99.5884 106.008 99.5884Z" fill="#FFCDD3"/>
<path fill-rule="evenodd" clip-rule="evenodd" d="M110.334 96.6605C110.565 96.4437 110.854 96.3029 111.165 96.2573C111.475 96.2117 111.792 96.2634 112.074 96.4052C112.386 96.5704 112.661 96.9057 112.59 97.2562L114.886 97.2917C115.252 97.2815 115.617 97.316 115.974 97.393C116.335 97.473 116.655 97.6787 116.883 97.9735C116.91 98.0109 116.941 98.0565 116.988 98.0626C117.026 98.0636 117.064 98.0504 117.094 98.0271C117.447 97.8468 117.845 97.7769 118.237 97.8276C119.478 97.9096 120.625 98.5408 121.597 99.33C121.773 99.4535 121.908 99.6258 121.989 99.8264C122.069 100.092 121.973 100.424 122.184 100.614C122.184 102.806 122.924 104.854 123.418 106.991C123.505 107.371 123.863 107.708 124.112 108.007C124.42 108.338 124.67 108.719 124.853 109.134C125.272 110.243 124.695 111.545 125.102 112.658C125.274 113.128 125.608 113.515 125.885 113.923C126.251 114.395 126.483 114.961 126.555 115.557C126.573 115.825 126.539 116.093 126.555 116.355C126.581 116.713 126.646 117.069 126.751 117.412C126.917 118.055 127.092 118.698 127.275 119.339C127.573 120.375 127.96 121.494 128.872 122.046C126.67 122.426 124.349 122.799 122.251 122.02C121.958 121.918 121.68 121.776 121.425 121.599C120.668 121.049 120.301 120.109 119.975 119.219C119.611 118.224 119.241 117.21 119.166 116.149C119.167 115.812 119.12 115.476 119.028 115.153C118.814 114.575 118.245 114.226 117.727 113.905C117.144 113.58 116.616 113.161 116.162 112.666C115.938 112.416 115.764 112.122 115.656 111.802C115.547 111.482 115.503 111.142 115.529 110.805C115.567 110.476 115.695 110.159 115.707 109.828C115.718 109.497 115.573 109.119 115.262 109.031C113.659 108.537 112.894 106.604 112.538 104.938C112.383 104.077 112.315 103.203 112.332 102.328L112.311 100.628C112.089 100.423 111.912 100.174 111.788 99.8973C111.664 99.6197 111.596 99.3198 111.591 99.0159C111.611 98.8376 111.608 98.6583 111.581 98.481C111.503 98.2652 111.378 98.0707 111.212 97.9137C110.858 97.5439 110.563 97.1215 110.334 96.6605Z" fill="#FA7268"/>
<path fill-rule="evenodd" clip-rule="evenodd" d="M105.682 101.694C105.628 102.22 105.745 102.76 105.63 103.277C105.585 103.475 105.508 103.675 105.45 103.86C105.277 104.603 105.352 105.384 105.664 106.078C105.975 106.766 106.347 107.423 106.777 108.041C106.922 108.252 107.042 108.48 107.133 108.72C107.208 108.973 107.254 109.233 107.271 109.496C107.384 110.551 107.565 111.597 107.815 112.628C108.034 113.521 110.523 121.153 111.102 121.86C111.208 122.018 111.367 122.128 111.549 122.169C111.679 122.175 111.81 122.147 111.928 122.089L113.103 121.632C113.203 121.6 113.295 121.548 113.375 121.48C113.485 121.349 113.545 121.182 113.543 121.01C113.628 120.037 111.132 112.351 110.815 111.433C109.856 108.659 108.58 105.985 107.955 103.113C107.781 102.315 107.69 101.089 107.116 100.452C106.879 100.19 106.959 100.301 106.676 100.438C106.532 100.502 106.393 100.576 106.261 100.66C106.095 100.778 105.956 100.932 105.856 101.11C105.755 101.289 105.696 101.489 105.682 101.694Z" fill="#FA7268"/>
<path fill-rule="evenodd" clip-rule="evenodd" d="M108.621 107.437C108.937 109.132 109.261 110.824 109.584 112.52L114.18 111.295C114.217 110.805 113.96 110.35 113.788 109.9C113.369 108.83 113.359 107.638 113.021 106.538C112.764 105.701 112.318 104.932 112.078 104.089C111.938 103.599 111.868 103.093 111.731 102.596C111.584 102.109 111.404 101.633 111.191 101.172C110.933 100.502 110.596 99.868 110.189 99.2804C109.602 99.5043 108.975 99.7626 108.641 100.303C108.469 100.608 108.371 100.949 108.355 101.299C108.275 102.35 108.649 103.406 108.526 104.45C108.398 105.444 108.431 106.453 108.621 107.437Z" fill="#DADADA"/>
<path fill-rule="evenodd" clip-rule="evenodd" d="M114.878 129.657C115.136 130.654 114.761 131.703 114.457 132.688C113.997 134.175 113.684 135.703 113.521 137.252C113.501 137.646 113.423 138.035 113.29 138.406C113.146 138.738 112.899 139.02 112.731 139.336C112.268 140.17 112.28 141.186 112.381 142.138C112.446 142.766 112.547 143.391 112.67 144.009C112.82 144.765 113.006 145.553 112.789 146.291C113.154 146.21 113.399 146.69 113.376 147.066C113.353 147.443 113.233 147.863 113.411 148.188C113.862 148.355 113.866 148.986 113.852 149.474C113.859 150.32 113.965 151.163 114.166 151.984C114.846 155.319 115.569 158.644 116.334 161.96C117.987 162.483 119.919 163.026 121.496 162.302C121.79 162.17 122.083 161.956 122.15 161.634C122.167 161.459 122.146 161.283 122.087 161.119L121.34 158.349C121.158 157.68 120.976 156.988 121.072 156.301C121.144 155.788 121.363 155.236 121.116 154.784C121.033 154.628 120.899 154.507 120.802 154.36C120.41 153.775 120.616 152.994 120.647 152.287C120.66 152.128 120.649 151.969 120.616 151.813C120.562 151.631 120.488 151.456 120.393 151.293C119.775 150.072 119.478 148.708 119.531 147.335C119.555 147.16 119.531 146.982 119.463 146.82C119.416 146.752 119.373 146.682 119.335 146.608C119.307 146.48 119.321 146.345 119.377 146.227C119.152 146.054 118.95 145.853 118.774 145.629C118.883 145.56 118.974 145.468 119.043 145.358C119.111 145.247 119.153 145.123 119.167 144.994C119.181 144.864 119.166 144.734 119.123 144.611C119.08 144.489 119.01 144.377 118.918 144.286C118.999 144.27 119.073 144.231 119.132 144.174C119.192 144.119 119.235 144.046 119.257 143.966C119.278 143.887 119.278 143.802 119.255 143.723C119.233 143.643 119.188 143.571 119.128 143.515C119.033 143.447 118.906 143.418 118.837 143.315C118.731 143.169 118.817 142.963 118.904 142.806L119.359 141.967C119.7 141.343 119.776 140.572 120.142 139.974C120.667 139.103 121.009 138.133 121.348 137.172L122.665 133.471L123.551 134.255C123.847 134.485 124.094 134.772 124.279 135.099C124.406 135.424 124.485 135.765 124.516 136.113C124.842 138.12 126.082 139.863 126.542 141.841C126.643 142.282 126.712 142.744 126.961 143.121C127.049 143.236 127.13 143.359 127.2 143.488C127.264 143.683 127.298 143.889 127.299 144.095C127.341 144.5 127.466 144.891 127.669 145.241C127.872 145.592 128.146 145.895 128.474 146.128C128.91 146.433 129.452 146.641 129.689 147.124C129.737 147.273 129.802 147.416 129.885 147.548C130.096 147.807 130.553 147.838 130.642 148.162C130.693 148.343 130.599 148.561 130.699 148.72C130.756 148.794 130.83 148.851 130.916 148.885L132.19 149.534C133.615 150.259 134.343 151.924 135.394 153.138C135.757 153.533 136.079 153.966 136.353 154.43C136.807 155.256 137.017 156.295 137.784 156.821C137.99 156.93 138.178 157.072 138.339 157.241C138.58 157.564 138.492 158.016 138.513 158.423C138.535 158.83 138.841 159.314 139.221 159.19C139.087 159.683 139.087 160.202 139.221 160.695C140.887 160.607 142.477 159.952 143.734 158.834C144.105 158.502 144.463 158.08 144.467 157.578C144.473 157.491 144.454 157.405 144.413 157.329C144.338 157.231 144.238 157.155 144.125 157.107C142.933 156.45 142.575 154.925 141.972 153.688C141.446 152.596 140.666 151.656 140.015 150.641C138.598 148.459 137.631 145.819 135.488 144.378C135.016 144.061 134.469 143.78 134.232 143.256C134.101 142.963 134.085 142.629 133.981 142.326C133.878 142.023 133.629 141.728 133.312 141.728C133.488 141.289 133.453 140.755 133.465 140.281C133.477 140.071 133.453 139.86 133.394 139.657C133.313 139.439 133.207 139.233 133.079 139.039C132.52 138.076 132.24 136.971 132.273 135.851C132.288 135.275 132.388 134.681 132.218 134.131C132.132 133.854 131.981 133.601 131.877 133.335C131.721 132.85 131.638 132.345 131.632 131.835L131.515 129.921C131.498 129.282 131.416 128.648 131.272 128.027C130.881 126.541 130.49 120.314 129.149 119.612C127.809 118.911 125.505 123.703 123.996 123.797C123.328 123.825 122.669 123.955 122.039 124.182C121.035 124.565 120.193 125.278 119.373 125.975L116.598 128.348C116.01 128.841 115.526 129.311 114.878 129.657Z" fill="#464353"/>
<path fill-rule="evenodd" clip-rule="evenodd" d="M101.562 89.4768C102.173 88.6279 103.221 88.1781 104.254 88.1396C105.288 88.1021 106.306 88.4334 107.231 88.9014C107.505 89.0594 107.797 89.181 108.101 89.2641C108.589 89.3654 109.133 89.2296 109.576 89.4636C110.163 89.7797 110.277 90.5871 110.226 91.2568C110.175 91.9264 110.052 92.67 110.402 93.2495C110.526 93.4146 110.64 93.5889 110.74 93.7692C110.892 94.1146 110.803 94.5128 110.713 94.8775C110.485 94.6779 110.355 94.377 110.151 94.146C109.948 93.9151 109.594 93.7601 109.341 93.9333C109.089 94.1065 109.093 94.4216 109.079 94.7042C109.065 94.9869 108.995 95.3263 108.732 95.4174C108.623 95.4428 108.509 95.4347 108.404 95.3931C108.3 95.3516 108.209 95.2786 108.145 95.1844C107.698 94.6262 107.877 93.7357 107.433 93.1735C107.18 92.8544 106.759 92.6994 106.527 92.3651C106.343 92.1017 106.296 91.7663 106.136 91.4837C105.975 91.2011 105.601 90.9934 105.353 91.1889C105.268 91.271 105.197 91.3682 105.144 91.4736C104.988 91.6995 104.763 91.8666 104.504 91.9457C104.244 92.0257 103.967 92.0135 103.715 91.9122C103.522 91.7917 103.314 91.7005 103.096 91.6397C102.954 91.6316 102.811 91.665 102.687 91.736C102.562 91.8059 102.459 91.9112 102.39 92.0378C102.249 92.2911 102.182 92.5798 102.194 92.8706C102.194 93.2697 102.264 93.6942 102.041 94.0123C101.956 94.1329 101.85 94.2352 101.728 94.3152C101.402 94.529 100.945 94.6718 100.643 94.4287C100.542 94.3324 100.465 94.2099 100.423 94.0751C100.381 93.9394 100.373 93.7955 100.401 93.6557C100.459 93.3781 100.537 93.1056 100.631 92.8392C100.805 92.2212 100.579 91.5252 100.767 90.9437C100.964 90.42 101.231 89.9266 101.562 89.4768Z" fill="#464353"/>
<path fill-rule="evenodd" clip-rule="evenodd" d="M103.383 103.721C103.355 103.866 103.37 104.017 103.426 104.152C103.485 104.246 103.564 104.323 103.657 104.378C104.316 104.796 105.064 105.043 105.838 105.098C105.944 105.1 106.046 105.127 106.14 105.177C106.324 105.3 106.335 105.576 106.267 105.795C106.175 106.001 106.128 106.226 106.128 106.452C106.184 106.868 106.67 107.05 107.079 107.112C107.652 107.185 108.281 107.148 108.734 106.783C109.042 106.498 109.277 106.14 109.417 105.741C110.541 103.113 110.934 100.207 112.072 97.5867C112.157 97.4155 112.215 97.2311 112.242 97.0406C112.254 96.9454 112.241 96.8482 112.203 96.76C112.166 96.6719 112.106 96.5949 112.03 96.5382C111.819 96.4055 111.49 96.4804 111.347 96.2717C111.277 96.1654 111.285 96.0225 111.222 95.9111C111.091 95.674 110.746 95.7115 110.511 95.5737C110.327 95.4744 110.2 95.2688 109.995 95.2293C109.894 95.2232 109.793 95.2414 109.701 95.283C109.608 95.3235 109.525 95.3853 109.461 95.4643C108.793 96.0985 108.443 96.9971 108.071 97.846C107.503 99.1468 106.838 100.402 106.083 101.6C106.17 101.461 105.66 100.404 105.46 100.358C105.11 100.287 104.662 100.913 104.472 101.146C103.876 101.881 103.499 102.775 103.383 103.721Z" fill="#DADADA"/>
<path opacity="0.1" fill-rule="evenodd" clip-rule="evenodd" d="M110.526 95.2281C110.386 95.2312 110.247 95.2656 110.122 95.3294C109.996 95.3943 109.886 95.4855 109.801 95.5989C109.591 95.8765 109.55 96.2432 109.497 96.5958C109.319 97.7132 108.927 98.784 108.344 99.7484" fill="black"/>
<path opacity="0.1" fill-rule="evenodd" clip-rule="evenodd" d="M111.476 96.2412C111.282 96.2453 111.092 96.301 110.926 96.4023C110.76 96.5046 110.622 96.6485 110.527 96.8207C110.398 97.1337 110.317 97.466 110.288 97.8054C110.12 98.5561 109.797 99.2622 109.339 99.8751" fill="black"/>
<path fill-rule="evenodd" clip-rule="evenodd" d="M158.138 134.964V132.489C158.138 130.667 157.427 128.92 156.161 127.632C154.896 126.343 153.179 125.62 151.39 125.62H55.3938C53.6048 125.62 51.8885 126.343 50.6229 127.632C49.3573 128.92 48.6469 130.667 48.6459 132.489V137.053L158.138 134.964Z" fill="#33323D"/>
<path fill-rule="evenodd" clip-rule="evenodd" d="M82.4812 122.643C82.4812 122.643 82.2076 139.952 85.2213 145.647C88.2351 151.343 89.5276 176.118 89.5276 176.118C89.5276 176.118 121.124 179.446 143.141 172.133C165.159 164.82 212.009 161.828 212.009 161.828L204.114 107.647C204.114 107.647 165.11 105.1 142.923 115.875C120.734 126.65 82.4812 122.643 82.4812 122.643Z" fill="#8DD070"/>
<path opacity="0.1" fill-rule="evenodd" clip-rule="evenodd" d="M82.4812 122.643C82.4812 122.643 82.2076 139.952 85.2213 145.647C88.2351 151.343 89.5276 176.118 89.5276 176.118C89.5276 176.118 121.124 179.446 143.141 172.133C165.159 164.82 212.009 161.828 212.009 161.828L204.114 107.647C204.114 107.647 165.11 105.1 142.923 115.875C120.734 126.65 82.4812 122.643 82.4812 122.643Z" fill="black"/>
<path fill-rule="evenodd" clip-rule="evenodd" d="M89.6339 129.193C89.6339 129.193 88.6459 143.474 91.1254 148.038C93.6048 152.602 93.7202 172.974 93.7202 172.974C93.7202 172.974 122.155 174.316 142.383 167.305C162.61 160.295 205.115 155.748 205.115 155.748L200.285 111.439C200.285 111.439 165.115 111.07 144.589 120.938C124.062 130.807 89.6339 129.193 89.6339 129.193Z" fill="#8DD070"/>
<path opacity="0.1" fill-rule="evenodd" clip-rule="evenodd" d="M143.755 159.669C147.8 159.156 150.204 151.578 149.123 142.742C148.042 133.907 143.886 127.161 139.841 127.674C135.794 128.187 133.391 135.765 134.472 144.6C135.552 153.436 139.708 160.182 143.755 159.669Z" fill="black"/>
<path opacity="0.2" fill-rule="evenodd" clip-rule="evenodd" d="M182.777 81.0452C182.777 81.0452 144.884 90.8102 127.016 107.997C109.146 125.184 71.5302 133.323 71.5302 133.323C71.5302 133.323 76.4851 149.881 81.0689 154.361C85.6527 158.841 94.3468 182.019 94.3468 182.019C94.3468 182.019 125.42 175.312 144.17 161.466C162.919 147.621 206.616 130.134 206.616 130.134L182.777 81.0452Z" fill="black"/>
<path fill-rule="evenodd" clip-rule="evenodd" d="M70.5352 131.294C70.5352 131.294 75.4891 147.854 80.0689 152.334C84.6478 156.813 93.3458 179.991 93.3458 179.991C93.3458 179.991 124.424 173.286 143.175 159.44C161.926 145.595 205.619 128.114 205.619 128.114L181.78 79.0191C181.78 79.0191 143.889 88.783 126.021 105.971C108.152 123.158 70.5352 131.294 70.5352 131.294Z" fill="#8DD070"/>
<path opacity="0.1" fill-rule="evenodd" clip-rule="evenodd" d="M70.5352 131.294C70.5352 131.294 75.4891 147.854 80.0689 152.334C84.6478 156.813 93.3458 179.991 93.3458 179.991C93.3458 179.991 124.424 173.286 143.175 159.44C161.926 145.595 205.619 128.114 205.619 128.114L181.78 79.0191C181.78 79.0191 143.889 88.783 126.021 105.971C108.152 123.158 70.5352 131.294 70.5352 131.294Z" fill="black"/>
<path fill-rule="evenodd" clip-rule="evenodd" d="M79.4899 135.557C79.4899 135.557 82.8549 149.461 86.591 153.028C90.3271 156.595 96.5725 175.944 96.5725 175.944C96.5725 175.944 124.039 168.336 141.177 155.343C158.316 142.35 197.405 124.76 197.405 124.76L179.455 84.0844C179.455 84.0844 145.872 94.7196 129.309 110.526C112.746 126.332 79.4899 135.557 79.4899 135.557Z" fill="#8DD070"/>
<path opacity="0.1" fill-rule="evenodd" clip-rule="evenodd" d="M140.406 147.088C144.101 145.336 144.105 137.372 140.414 129.301C136.723 121.229 130.734 116.107 127.038 117.859C123.341 119.612 123.338 127.576 127.03 135.647C130.721 143.718 136.71 148.841 140.406 147.088Z" fill="black"/>
<path opacity="0.1" fill-rule="evenodd" clip-rule="evenodd" d="M160.724 137.617V206.366C160.724 207.147 160.573 207.92 160.279 208.642C159.986 209.363 159.555 210.018 159.013 210.57C158.471 211.122 157.827 211.559 157.118 211.858C156.41 212.157 155.651 212.311 154.884 212.31H54.4824C52.9342 212.31 51.4497 211.683 50.3552 210.569C49.2608 209.454 48.6459 207.942 48.6459 206.366V130.685C51.5223 131.773 51.5223 131.773 54.4824 131.682H154.884C156.431 131.682 157.914 132.307 159.009 133.42C160.104 134.532 160.72 136.042 160.724 137.617Z" fill="black"/>
<path fill-rule="evenodd" clip-rule="evenodd" d="M160.724 138.631V207.381C160.723 208.957 160.107 210.469 159.013 211.584C157.917 212.698 156.432 213.325 154.884 213.325H54.4824C52.9342 213.324 51.4497 212.698 50.3552 211.583C49.2608 210.468 48.6459 208.957 48.6459 207.381V131.698C51.5223 132.784 51.5223 132.784 54.4824 132.694H154.884C156.431 132.694 157.914 133.319 159.01 134.433C160.104 135.545 160.721 137.056 160.724 138.631Z" fill="#504F60"/>
<path opacity="0.1" fill-rule="evenodd" clip-rule="evenodd" d="M160.832 164.117V186.103H139.89C137.052 186.064 134.343 184.888 132.35 182.831C130.356 180.773 129.238 178 129.238 175.109C129.238 172.219 130.356 169.445 132.35 167.389C134.343 165.331 137.052 164.156 139.89 164.117H160.832Z" fill="black"/>
<path fill-rule="evenodd" clip-rule="evenodd" d="M160.832 163.104V185.093H139.89C137.052 185.055 134.342 183.879 132.35 181.822C130.356 179.764 129.238 176.991 129.238 174.1C129.238 171.21 130.356 168.436 132.35 166.379C134.342 164.322 137.052 163.146 139.89 163.108L160.832 163.104Z" fill="#33323D"/>
<path opacity="0.1" fill-rule="evenodd" clip-rule="evenodd" d="M141.408 178.768C143.733 178.768 145.617 176.849 145.617 174.481C145.617 172.115 143.733 170.195 141.408 170.195C139.082 170.195 137.198 172.115 137.198 174.481C137.198 176.849 139.082 178.768 141.408 178.768Z" fill="black"/>
<path fill-rule="evenodd" clip-rule="evenodd" d="M141.408 178.768C143.732 178.768 145.617 176.849 145.617 174.481C145.617 172.114 143.732 170.195 141.408 170.195C139.082 170.195 137.198 172.114 137.198 174.481C137.198 176.849 139.082 178.768 141.408 178.768Z" fill="#FA7268"/>
<path fill-rule="evenodd" clip-rule="evenodd" d="M127.794 119.675C127.413 120.02 127.06 120.397 126.739 120.802C126.417 121.212 126.245 121.725 126.254 122.251C126.256 122.404 126.303 122.552 126.391 122.675C126.436 122.735 126.498 122.779 126.567 122.8C126.638 122.822 126.712 122.821 126.782 122.797C126.861 122.756 126.928 122.696 126.978 122.622C127.185 122.368 127.404 122.126 127.636 121.896C127.719 121.81 127.832 121.721 127.945 121.752C127.996 121.772 128.042 121.802 128.078 121.843C128.21 121.958 128.305 122.111 128.354 122.281C128.423 122.586 128.249 122.891 128.051 123.13C127.853 123.369 127.62 123.598 127.539 123.899C127.509 123.978 127.509 124.066 127.539 124.146C127.577 124.204 127.631 124.25 127.692 124.278C127.973 124.435 128.283 124.527 128.603 124.548C128.922 124.57 129.242 124.52 129.54 124.402C129.931 124.239 130.279 123.963 130.683 123.819C130.857 123.77 131.027 123.704 131.188 123.62C131.303 123.541 131.402 123.441 131.479 123.324C131.556 123.206 131.61 123.075 131.636 122.937C131.687 122.66 131.697 122.377 131.665 122.098C131.617 121.015 131.389 119.948 130.992 118.943C130.969 118.878 130.93 118.821 130.878 118.776C130.82 118.74 130.752 118.72 130.683 118.722C130.182 118.668 129.36 118.407 128.876 118.597C128.707 118.691 128.561 118.823 128.45 118.983C128.36 119.085 127.794 119.541 127.794 119.675Z" fill="#FFCDD3"/>
<path fill-rule="evenodd" clip-rule="evenodd" d="M128.306 118.917C128.306 118.431 127.719 117.257 128.652 117.179C128.652 116.659 127.93 116.336 128.065 115.784C128.108 115.601 128.261 115.452 128.279 115.264C128.338 114.732 127.394 114.444 127.551 113.933C127.61 113.733 127.816 113.618 127.862 113.421C127.968 112.96 127.159 112.756 127.144 112.283C127.144 112.124 127.231 111.974 127.223 111.815C127.223 111.615 127.053 111.464 126.96 111.291C126.715 110.846 126.834 110.158 126.388 109.929C126.683 109.956 126.78 109.509 126.658 109.236C126.537 108.963 126.288 108.726 126.286 108.423C126.301 108.314 126.301 108.202 126.286 108.093C126.205 107.801 125.736 107.778 125.658 107.495C125.648 107.386 125.644 107.277 125.648 107.168C125.617 106.943 125.39 106.799 125.177 106.735C124.955 106.697 124.742 106.62 124.546 106.506C124.41 106.401 124.25 106.226 124.104 106.307C124.05 106.341 124.022 106.405 123.981 106.453C123.805 106.661 123.468 106.57 123.247 106.416C122.593 105.964 122.269 105.153 122.129 104.362C121.99 103.57 121.994 102.754 121.82 101.971C121.767 101.727 121.696 101.486 121.609 101.253C121.534 101.054 121.295 100.741 121.28 100.54C121.245 100.081 122.176 100.394 122.53 100.44C122.874 100.474 123.215 100.541 123.546 100.64C123.9 100.775 124.248 100.93 124.586 101.104C125.999 101.74 127.705 101.817 128.84 102.886C129.214 103.236 129.53 103.696 130.014 103.856C130.237 103.9 130.457 103.957 130.672 104.029C131.21 104.287 131.295 105.014 131.588 105.54C131.681 105.679 131.762 105.825 131.829 105.978C131.886 106.158 131.912 106.347 131.907 106.536L131.949 107.917C132.015 110.23 132.082 112.55 131.839 114.85C131.761 115.609 131.643 116.39 131.864 117.119C131.923 117.319 132.005 117.506 132.06 117.708C132.109 117.944 132.134 118.184 132.135 118.425L132.165 119.319C132.176 119.389 132.161 119.46 132.123 119.519C132.09 119.545 132.052 119.565 132.01 119.575C131.969 119.585 131.927 119.586 131.886 119.577C130.662 119.465 129.425 118.763 128.271 119.188" fill="#FA7268"/>
<path fill-rule="evenodd" clip-rule="evenodd" d="M196.149 185.506C195.894 184.397 195.736 183.422 195.736 183.422C195.736 183.422 195.795 182.215 195.263 181.308V181.005V178.773C195.414 178.367 195.599 177.976 195.816 177.603C196.208 176.901 195.816 174.331 195.816 174.331C195.816 174.331 194.354 170.706 194.708 168.407C195.063 166.107 191.707 158.196 191.707 158.196C191.726 157.433 191.833 156.674 192.021 155.936C192.057 155.781 192.072 155.621 192.064 155.462C192.064 155.442 192.064 155.424 192.064 155.404C192.064 155.384 192.064 155.416 192.064 155.422C192.013 153.906 190.835 151.064 190.835 151.064L190.994 145.647C190.994 145.647 191.745 142.459 190.52 138.165C190.092 136.668 189.817 135.471 189.643 134.546C189.624 134.443 189.604 134.346 189.588 134.245C192.112 133.847 194.039 133.528 194.039 133.528C194.039 133.528 192.575 127.292 191.587 126.2C190.598 125.108 189.807 121.679 189.807 121.679C189.807 121.679 189.293 117.277 190.125 115.99C190.956 114.702 191.074 112.482 191.074 112.482C191.074 112.482 192.97 111.087 193.209 110.455C193.448 109.824 193.842 108.429 193.842 107.69C193.842 106.95 193.605 106.295 193.683 105.897C193.761 105.497 193.129 104.025 193.446 103.323C193.528 103.109 193.57 102.88 193.571 102.649C193.572 102.642 193.572 102.634 193.571 102.628C193.574 102.014 193.518 101.402 193.405 100.799C192.857 100.328 192.216 99.9792 191.527 99.7766L191.485 99.6095L191.377 99.1708C191.318 99.1303 191.255 99.0928 191.191 99.0594V98.8993L191.173 98.2661L191.471 96.8438C192.059 94.3679 188.811 94.0001 188.811 94.0001C188.614 93.6202 188.287 93.3274 187.892 93.1785C187.24 92.9455 187.784 96.9015 188.087 97.1639C188.317 97.3635 189.025 98.5954 189.367 99.2042L189.422 99.3045C189.368 99.3531 189.319 99.4068 189.273 99.4636L189.396 100.323L189.416 100.454C189.201 100.726 189.026 101.029 188.898 101.353C188.898 101.353 189.485 102.014 189.373 102.748C189.262 103.481 189.555 104.411 189.569 104.462C189.534 104.419 189.117 103.962 188.7 104.073C188.283 104.184 187.119 104.541 187.119 104.541C187.119 104.541 186.249 104.697 186.336 104.892C186.422 105.087 185.749 105.944 185.749 105.944L183.412 103.688C183.389 103.62 183.363 103.553 183.343 103.489C183.248 103.164 183.183 102.83 183.148 102.493C183.403 102.431 183.652 102.351 183.895 102.252C184.141 102.165 184.363 102.021 184.541 101.829C184.778 101.544 184.822 101.157 184.919 100.803C185.103 100.109 185.506 99.494 185.786 98.8345C186.26 97.7191 186.412 96.4902 186.226 95.2908C186.19 94.921 186.067 94.5654 185.868 94.2544C185.486 93.7205 184.794 93.5037 184.29 93.0772C183.788 92.6507 183.462 91.9993 182.875 91.6822C182.345 91.3935 181.701 91.4269 181.102 91.5262C179.932 91.7227 178.809 92.1391 177.789 92.754C177.449 92.9536 177.073 93.1988 176.682 93.1248C176.344 93.063 176.094 92.7905 175.883 92.5271C175.885 92.516 175.889 92.5058 175.893 92.4947C175.883 92.4856 175.875 92.4744 175.867 92.4633C175.619 93.0225 175.495 93.6314 175.503 94.2443C175.503 94.3405 175.503 94.4438 175.514 94.5299V94.6292C175.514 94.6576 175.514 94.6849 175.514 94.7113C175.514 94.7538 175.509 94.7954 175.497 94.8369C175.448 94.9585 175.373 95.0679 175.278 95.157C175.206 95.2401 175.14 95.3293 175.082 95.4225C175.082 95.3911 175.102 95.3586 175.114 95.3252C174.964 95.5471 174.88 95.8074 174.871 96.0759C174.86 96.2714 174.922 96.4639 175.047 96.6138C175.164 96.7303 175.292 96.8337 175.429 96.9248C175.382 97.1882 175.358 97.4547 175.358 97.7221C175.362 98.5143 175.567 99.2924 175.953 99.9802C176.339 100.668 176.894 101.244 177.562 101.65C177.589 101.716 177.615 101.783 177.64 101.849C177.939 102.647 178.165 103.583 178.065 104.44C178.065 104.502 178.048 104.565 178.038 104.627C178.028 104.689 177.979 104.693 177.953 104.726C177.953 104.726 174.092 104.766 173.183 103.929C172.276 103.092 170.89 105.976 170.89 105.976C170.89 105.976 169.506 106.249 169.228 105.976C168.951 105.703 167.332 105.938 167.332 105.938C166.668 105.337 165.806 105.017 164.919 105.042C164.381 104.625 163.788 104.29 163.157 104.045L163.114 104.029C162.836 103.926 162.538 103.888 162.244 103.918C162.244 103.918 160.345 102.323 159.791 101.462C159.237 100.601 156.601 97.4233 156.589 97.4091V97.2561L156.559 96.7931C156.482 96.8063 156.402 96.8124 156.323 96.8134C156.31 96.7678 156.29 96.7141 156.27 96.6523C156.119 96.2015 155.931 95.7628 155.711 95.3424C155.711 95.3424 155.711 94.7589 155.877 94.611C156.043 94.4641 155.808 92.3215 155.808 92.3215C155.808 92.3215 154.098 88.251 152.566 91.2891C152.566 91.2891 149.668 93.2565 152.099 95.5481C152.099 95.5481 153.078 96.0262 153.207 96.4051C153.297 96.6503 153.626 97.3371 153.847 97.8001L153.947 97.9987L153.92 98.023L153.955 98.4059L153.97 98.5528C153.513 98.8183 153.201 99.0806 153.278 99.2782C153.412 99.6155 153.505 99.9691 153.554 100.331C153.554 100.331 156.916 104.619 157.35 106.451C157.35 106.451 166.367 111.906 169.332 112.295L168.807 115.015C168.731 115.754 168.692 116.495 168.69 117.237C168.729 117.821 168.334 120.472 168.334 120.472C168.334 120.472 167.819 124.369 167.385 124.915C166.95 125.461 167.028 127.799 167.028 127.799C166.926 128.917 166.73 130.026 166.441 131.111C166.007 132.591 166.322 134.424 166.322 134.424C166.322 134.424 164.821 137.932 168.418 135.554C168.418 135.554 170.179 135.443 172.219 135.371C172.219 135.439 172.219 135.508 172.219 135.57C172.219 135.838 172.219 136.126 172.205 136.429C172.177 138.438 172.166 141.212 172.256 143.3C172.414 147.003 173.523 154.33 173.523 154.33V158.019C173.451 158.364 173.415 158.717 173.417 159.07C173.393 160.368 173.732 161.647 174.395 162.755L174.673 165.211C174.673 165.211 175.322 166.828 175.334 167.801C175.332 167.879 175.322 167.957 175.308 168.034C175.282 168.158 175.272 168.284 175.276 168.411C175.239 169.526 175.899 172.197 175.899 172.197C175.899 172.197 175.937 174.885 176.332 175.042C176.672 175.176 175.881 176.591 175.646 176.998C175.64 176.972 175.635 176.947 175.632 176.922L175.583 177.002C175.502 177.219 175.46 177.45 175.46 177.683C175.438 177.867 175.467 178.053 175.544 178.22C175.622 178.387 175.745 178.528 175.899 178.628C176.65 179.096 177.053 179.485 176.415 179.64C176.18 179.677 175.947 179.727 175.718 179.79C175.718 179.759 175.695 179.728 175.685 179.699C175.595 179.736 175.519 179.802 175.473 179.888C175.425 179.973 175.408 180.073 175.425 180.169C175.431 180.486 175.51 180.797 175.658 181.074C176.29 182.518 176.728 183.067 176.728 183.067L177.032 183.033C176.987 183.152 176.927 183.263 176.856 183.367C176.74 183.534 176.587 183.67 176.409 183.765C176.244 183.866 176.059 183.93 175.867 183.954C175.653 183.961 175.442 184.014 175.249 184.109C175.057 184.205 174.886 184.341 174.747 184.508C174.356 185.028 174.106 185.735 174.885 186.357L177.712 187.354C177.712 187.354 182.578 187.997 182.32 186.885C182.061 185.774 181.905 184.801 181.905 184.801C181.926 184.122 181.792 183.448 181.513 182.83C181.462 182.729 181.405 182.632 181.341 182.539L181.513 182.522C181.513 182.522 181.869 180.064 182.343 179.598C182.452 179.491 182.478 179.398 182.452 179.343C182.502 179.209 182.377 179.132 182.218 179.085L182.183 179.184C182.028 179.149 181.869 179.131 181.711 179.13C181.711 179.13 181.553 177.844 182.067 177.376C182.109 177.323 182.139 177.261 182.156 177.195C182.174 177.129 182.177 177.06 182.167 176.993C182.171 176.817 182.153 176.641 182.112 176.47C182.107 176.481 182.101 176.491 182.094 176.501C181.837 175.333 180.959 173.478 180.959 173.478C180.959 173.478 180.92 172.31 181.238 171.842C181.554 171.374 181.196 165.489 181.196 165.489C181.196 165.489 181.315 162.645 180.959 161.32C180.603 159.995 181.394 158.435 181.394 158.435C181.394 158.435 181.394 158.405 181.394 158.351V158.332L181.349 157.883C181.348 157.892 181.348 157.901 181.349 157.911C181.268 157.158 181.118 155.793 181.007 155.163C180.848 154.266 181.047 149.982 181.047 149.982L181.758 148.148L183.024 151.307L184.369 155.515C184.369 155.515 185.034 156.404 185.05 157.309C185.05 157.353 185.05 157.397 185.05 157.44C185.039 157.533 185.033 157.628 185.034 157.722C185.01 158.254 185.154 158.779 185.443 159.222C185.443 159.222 185.799 161.215 186.354 161.715C186.907 162.215 186.907 163.196 186.907 163.196C186.907 163.196 187.578 166.081 187.886 166.583C188.152 167.01 188.166 168.178 188.164 168.542C188.164 168.608 188.164 168.646 188.164 168.646C188.164 168.646 188.258 169.678 188.254 170.543C188.254 170.651 188.254 170.754 188.254 170.852C188.255 170.844 188.255 170.837 188.254 170.83C188.253 171.066 188.226 171.302 188.171 171.531L188.16 171.572C188.16 171.521 188.16 171.473 188.173 171.426C188.036 172.013 187.97 172.615 187.977 173.219C187.961 174.255 188.115 175.483 188.732 176.208C189.8 177.455 190.471 177.3 190.471 177.3C190.471 177.3 189.958 178.859 189.325 179.172C189.301 179.183 189.278 179.198 189.258 179.215C189.258 179.184 189.246 179.153 189.242 179.124C189.171 179.201 189.118 179.293 189.084 179.393C189.05 179.494 189.037 179.6 189.046 179.705C189.001 180.391 189.426 181.499 189.829 182.015C189.979 182.164 190.162 182.274 190.363 182.334C190.332 182.357 190.299 182.378 190.264 182.396C190.193 182.435 190.121 182.47 190.046 182.502C189.944 182.546 189.835 182.574 189.724 182.587C189.509 182.593 189.298 182.645 189.105 182.741C188.912 182.837 188.742 182.973 188.604 183.141C188.212 183.659 187.963 184.367 188.741 184.989L191.569 185.984C191.569 185.984 196.403 186.617 196.149 185.506Z" fill="url(#paint0_linear_8_201)"/>
<path fill-rule="evenodd" clip-rule="evenodd" d="M178.241 187.816L175.501 186.819C174.745 186.198 174.986 185.49 175.367 184.97C175.499 184.804 175.664 184.669 175.851 184.573C176.038 184.478 176.243 184.424 176.452 184.416C176.637 184.391 176.816 184.328 176.974 184.226C177.148 184.13 177.296 183.994 177.409 183.828C177.609 183.505 177.716 183.132 177.72 182.75C177.72 182.75 180.726 181.854 181.548 182.75C181.695 182.912 181.818 183.096 181.912 183.294C182.186 183.913 182.319 184.586 182.303 185.265C182.303 185.265 182.456 186.237 182.705 187.35C182.954 188.461 178.241 187.816 178.241 187.816Z" fill="#2D293D"/>
<path fill-rule="evenodd" clip-rule="evenodd" d="M191.175 185.794L188.435 184.798C187.68 184.176 187.921 183.468 188.302 182.951C188.432 182.784 188.596 182.648 188.783 182.553C188.97 182.456 189.175 182.404 189.384 182.397C189.493 182.386 189.598 182.356 189.698 182.311C189.769 182.279 189.84 182.245 189.909 182.205C190.674 181.777 190.655 180.724 190.655 180.724C190.655 180.724 193.659 179.828 194.483 180.724C194.593 180.846 194.689 180.979 194.77 181.123C195.285 182.03 195.229 183.24 195.229 183.24C195.229 183.24 195.381 184.214 195.62 185.323C195.859 186.434 191.175 185.794 191.175 185.794Z" fill="#2D293D"/>
<path opacity="0.1" fill-rule="evenodd" clip-rule="evenodd" d="M181.134 182.751C181.281 182.913 181.404 183.096 181.498 183.295L176.997 183.827C177.197 183.504 177.304 183.131 177.308 182.749C177.308 182.749 180.312 181.854 181.134 182.751Z" fill="black"/>
<path opacity="0.1" fill-rule="evenodd" clip-rule="evenodd" d="M195.005 181.123V181.981C194.303 183.155 190.915 182.898 189.931 182.311C190.004 182.279 190.075 182.245 190.143 182.205C190.908 181.777 190.889 180.724 190.889 180.724C190.889 180.724 193.892 179.828 194.716 180.724C194.827 180.846 194.923 180.979 195.005 181.123Z" fill="black"/>
<path fill-rule="evenodd" clip-rule="evenodd" d="M194.901 178.272C194.691 178.646 194.512 179.037 194.367 179.441V182.52C193.599 183.806 189.62 183.377 189.083 182.676C188.544 181.974 187.982 180.148 188.587 179.832C189.192 179.515 189.696 177.961 189.696 177.961C189.696 177.961 189.045 178.116 188.012 176.869C186.978 175.621 187.286 172.855 187.478 172.194C187.669 171.532 187.478 169.311 187.478 169.311C187.478 169.311 187.516 167.75 187.211 167.244C186.906 166.737 186.254 163.856 186.254 163.856C186.254 163.856 186.254 162.882 185.718 162.375C185.181 161.87 184.837 159.881 184.837 159.881C184.524 159.384 184.388 158.792 184.455 158.204C184.569 157.231 183.803 156.178 183.803 156.178L182.502 151.968L181.277 148.811L180.589 150.642C180.589 150.642 180.393 154.929 180.551 155.824C180.71 156.718 180.943 159.098 180.943 159.098C180.943 159.098 180.177 160.656 180.522 161.981C180.866 163.306 180.741 166.154 180.741 166.154C180.741 166.154 181.085 172.037 180.778 172.505C180.471 172.973 180.51 174.143 180.51 174.143C180.51 174.143 182.075 177.57 181.582 178.038C181.089 178.507 181.238 179.792 181.238 179.792C181.238 179.792 182.309 179.792 181.85 180.261C181.392 180.729 181.046 183.183 181.046 183.183L176.418 183.736C176.418 183.736 175.995 183.192 175.382 181.743C174.77 180.294 175.495 180.457 176.112 180.3C176.729 180.143 176.339 179.756 175.611 179.288C174.883 178.819 175.305 177.768 175.305 177.768C175.305 177.768 176.416 175.858 176.032 175.703C175.648 175.548 175.611 172.857 175.611 172.857C175.611 172.857 174.846 169.669 175.038 168.804C175.23 167.939 174.425 165.882 174.425 165.882L174.157 163.428C173.338 162.035 173.039 160.387 173.315 158.789V155.002C173.315 155.002 172.243 147.677 172.09 143.975C171.992 141.603 172.02 138.366 172.051 136.348C172.071 135.217 172.09 134.465 172.09 134.465L188.624 132.712C188.624 132.712 188.608 133.489 188.923 135.213C189.094 136.137 189.358 137.335 189.773 138.831C190.959 143.118 190.233 146.312 190.233 146.312L190.079 151.73C190.079 151.73 191.532 155.354 191.227 156.601C191.043 157.341 190.939 158.1 190.918 158.864C190.918 158.864 194.171 166.776 193.827 169.076C193.481 171.375 194.897 175 194.897 175C194.897 175 195.284 177.57 194.901 178.272Z" fill="#1B2749"/>
<path opacity="0.05" fill-rule="evenodd" clip-rule="evenodd" d="M185.952 157.709L190.986 157.025C190.986 157.025 188.134 159.988 185.952 157.709Z" fill="black"/>
<path opacity="0.1" fill-rule="evenodd" clip-rule="evenodd" d="M189.854 151.96C189.854 151.96 190.026 153.773 188.936 154.455C188.936 154.455 190.888 154.144 189.854 151.96Z" fill="black"/>
<path opacity="0.1" fill-rule="evenodd" clip-rule="evenodd" d="M189.911 145.881C189.911 145.881 185.703 149.409 184.173 149.116C182.643 148.822 189.911 145.881 189.911 145.881Z" fill="black"/>
<path opacity="0.1" fill-rule="evenodd" clip-rule="evenodd" d="M179.296 159.051C179.296 159.051 176.1 159.791 176.004 161.099C175.908 162.406 179.296 159.051 179.296 159.051Z" fill="black"/>
<path opacity="0.05" fill-rule="evenodd" clip-rule="evenodd" d="M180.459 175.26C180.459 175.26 175.944 176.117 177.226 176.702C178.508 177.285 180.614 177.753 180.614 177.753C180.614 177.753 182.072 177.831 180.459 175.26Z" fill="black"/>
<g opacity="0.05">
<path opacity="0.05" fill-rule="evenodd" clip-rule="evenodd" d="M175.902 177.695C175.789 177.623 175.693 177.526 175.622 177.41C175.55 177.295 175.505 177.165 175.489 177.029L175.443 177.111C175.443 177.111 175.022 178.163 175.75 178.63C175.832 178.683 175.912 178.737 175.985 178.789C176.12 178.762 176.264 178.743 176.404 178.707C177.02 178.552 176.631 178.163 175.902 177.695Z" fill="black"/>
<path opacity="0.05" fill-rule="evenodd" clip-rule="evenodd" d="M181.72 177.381C181.845 177.265 181.841 176.966 181.765 176.584C181.569 176.885 181.512 177.355 181.508 177.712C181.556 177.588 181.627 177.476 181.72 177.381Z" fill="black"/>
<path opacity="0.05" fill-rule="evenodd" clip-rule="evenodd" d="M181.024 157.996C180.857 158.457 180.755 158.939 180.719 159.428C180.806 159.09 180.923 158.761 181.069 158.444L181.024 157.996Z" fill="black"/>
<path opacity="0.05" fill-rule="evenodd" clip-rule="evenodd" d="M191.366 155.95C191.396 155.809 191.41 155.667 191.407 155.524C191.35 155.815 191.31 156.083 191.282 156.32C191.307 156.198 191.334 156.083 191.366 155.95Z" fill="black"/>
<path opacity="0.05" fill-rule="evenodd" clip-rule="evenodd" d="M180.917 171.849C180.98 171.754 181.015 171.431 181.03 170.982C180.889 171.33 180.815 171.7 180.81 172.076C180.836 171.996 180.872 171.92 180.917 171.849Z" fill="black"/>
<path opacity="0.05" fill-rule="evenodd" clip-rule="evenodd" d="M181.856 179.2C181.618 179.981 181.442 180.782 181.33 181.591L176.701 182.135C176.701 182.135 176.278 181.591 175.666 180.142C175.617 180.031 175.573 179.916 175.534 179.8C175.257 179.93 175.143 180.222 175.511 181.077C176.123 182.52 176.548 183.07 176.548 183.07L181.177 182.524C181.177 182.524 181.522 180.068 181.98 179.6C182.214 179.375 182.069 179.258 181.856 179.2Z" fill="black"/>
<path opacity="0.05" fill-rule="evenodd" clip-rule="evenodd" d="M175.75 172.201C175.75 172.201 175.787 174.89 176.17 175.045C176.366 174.6 176.493 174.177 176.321 174.108C175.93 173.952 175.9 171.263 175.9 171.263C175.9 171.263 175.135 168.074 175.327 167.209C175.518 166.344 174.714 164.288 174.714 164.288L174.447 161.833C173.627 160.439 173.328 158.793 173.605 157.193V153.407C173.605 153.407 172.532 146.082 172.379 142.379C172.282 140.009 172.31 136.772 172.34 134.753C172.34 134.389 172.352 134.066 172.358 133.792L172.227 133.807C172.227 133.807 172.205 134.556 172.188 135.69C172.156 137.709 172.127 140.945 172.227 143.314C172.379 147.017 173.45 154.344 173.45 154.344V158.13C173.175 159.729 173.475 161.375 174.293 162.767L174.56 165.223C174.56 165.223 175.364 167.286 175.172 168.146C174.981 169.005 175.75 172.201 175.75 172.201Z" fill="black"/>
<path opacity="0.05" fill-rule="evenodd" clip-rule="evenodd" d="M189.375 181.083C188.999 180.529 188.748 179.897 188.642 179.233C188.17 179.667 188.712 181.353 189.229 182.023C189.763 182.724 193.744 183.152 194.513 181.864V181.124C193.469 182.165 189.881 181.747 189.375 181.083Z" fill="black"/>
<path opacity="0.05" fill-rule="evenodd" clip-rule="evenodd" d="M195.193 176.681C194.983 177.054 194.803 177.445 194.656 177.85V178.402C194.744 178.202 194.867 177.936 195.048 177.621C195.169 177.314 195.226 176.985 195.216 176.654C195.216 176.654 195.198 176.673 195.193 176.681Z" fill="black"/>
<path opacity="0.05" fill-rule="evenodd" clip-rule="evenodd" d="M189.611 177.297C189.756 176.997 189.883 176.687 189.988 176.37C189.988 176.37 189.336 176.526 188.304 175.278C187.551 174.371 187.509 172.658 187.616 171.537C187.42 172.201 187.118 174.967 188.15 176.215C188.826 177.029 189.336 177.245 189.611 177.297Z" fill="black"/>
<path opacity="0.05" fill-rule="evenodd" clip-rule="evenodd" d="M187.614 168.654C187.681 169.422 187.707 170.193 187.69 170.964C187.71 170.842 187.735 170.722 187.768 170.603C187.964 169.94 187.768 167.719 187.768 167.719C187.768 167.719 187.807 166.159 187.501 165.652C187.193 165.147 186.552 162.262 186.552 162.262C186.552 162.262 186.552 161.287 186.017 160.781C185.481 160.274 185.136 158.285 185.136 158.285C184.819 157.79 184.681 157.197 184.745 156.61C184.86 155.635 184.095 154.584 184.095 154.584L182.793 150.374L181.568 147.218L180.877 149.051C180.877 149.051 180.877 149.282 180.853 149.649L181.413 148.161L182.638 151.311L183.94 155.52C183.94 155.52 184.706 156.572 184.59 157.547C184.527 158.134 184.665 158.726 184.981 159.222C184.981 159.222 185.326 161.215 185.862 161.718C186.398 162.219 186.396 163.198 186.396 163.198C186.396 163.198 187.048 166.081 187.353 166.585C187.659 167.09 187.614 168.654 187.614 168.654Z" fill="black"/>
</g>
<path fill-rule="evenodd" clip-rule="evenodd" d="M190.708 96.8723L190.42 98.2956L190.438 98.9288L190.449 99.3958L188.852 99.563L188.674 99.2266C188.344 98.6168 187.656 97.3768 187.435 97.1853C187.14 96.9341 186.613 92.977 187.24 93.2121C187.625 93.364 187.942 93.6558 188.129 94.0306C188.129 94.0306 191.274 94.3974 190.708 96.8723Z" fill="#FFCDD3"/>
<path opacity="0.1" fill-rule="evenodd" clip-rule="evenodd" d="M190.711 100.032L189.115 100.199L188.936 99.8625C189.151 99.6133 189.444 99.4482 189.765 99.3945C190.087 99.3398 190.416 99.4016 190.697 99.5677L190.711 100.032Z" fill="black"/>
<path fill-rule="evenodd" clip-rule="evenodd" d="M191.207 100.561L189.101 101.057L189.056 100.738L188.936 99.8788C188.936 99.8788 189.77 98.7472 190.976 99.5962L191.082 100.033L191.207 100.561Z" fill="white"/>
<path fill-rule="evenodd" clip-rule="evenodd" d="M157.197 97.0024L154.948 98.2303L154.752 97.7997C154.539 97.3428 154.22 96.656 154.132 96.4047C153.999 96.0259 153.062 95.5477 153.062 95.5477C150.712 93.2582 153.511 91.2898 153.511 91.2898C154.995 88.2506 156.642 92.3211 156.642 92.3211C156.642 92.3211 156.873 94.4678 156.711 94.6116C156.549 94.7545 156.549 95.343 156.549 95.343C156.763 95.7635 156.944 96.2011 157.091 96.6519C157.16 96.8687 157.197 97.0024 157.197 97.0024Z" fill="#FFCDD3"/>
<path opacity="0.1" fill-rule="evenodd" clip-rule="evenodd" d="M157.552 97.616L155.303 98.8439L155.107 98.4133C155.425 98.1418 156.55 97.2179 156.92 97.2554C157.096 97.2777 157.274 97.2827 157.453 97.2696C157.515 97.4823 157.552 97.616 157.552 97.616Z" fill="black"/>
<path fill-rule="evenodd" clip-rule="evenodd" d="M157.72 98.1503L155.193 99.4176L155.142 98.8655L155.107 98.4826C155.107 98.4826 156.571 97.2051 157.004 97.2557C157.223 97.2871 157.445 97.2871 157.664 97.2557L157.692 97.7177L157.72 98.1503Z" fill="white"/>
<path fill-rule="evenodd" clip-rule="evenodd" d="M185.214 106.96C185.214 106.96 174.199 108.225 176.258 107.544C177.69 107.068 178.26 106.149 178.38 105.112C178.477 104.25 178.258 103.319 177.971 102.522C177.712 101.815 177.384 101.136 176.992 100.496C176.992 100.496 185.407 95.781 183.727 100.067C183.467 100.716 183.306 101.4 183.249 102.097C183.198 102.791 183.272 103.487 183.466 104.154C183.783 105.236 184.388 106.206 185.214 106.96Z" fill="#FFCDD3"/>
<path opacity="0.1" fill-rule="evenodd" clip-rule="evenodd" d="M183.726 100.067C183.467 100.716 183.306 101.4 183.248 102.097C182.456 102.777 181.587 102.732 180.469 102.732C179.612 102.732 178.66 102.942 177.976 102.522C177.717 101.815 177.389 101.136 176.997 100.496C176.997 100.496 185.411 95.781 183.726 100.067Z" fill="black"/>
<path fill-rule="evenodd" clip-rule="evenodd" d="M179.561 102.477C182.076 102.477 184.115 100.4 184.115 97.8388C184.115 95.2778 182.076 93.202 179.561 93.202C177.046 93.202 175.007 95.2778 175.007 97.8388C175.007 100.4 177.046 102.477 179.561 102.477Z" fill="#FFCDD3"/>
<path opacity="0.1" fill-rule="evenodd" clip-rule="evenodd" d="M185.214 106.628C185.214 106.628 174.199 107.893 176.258 107.212C177.69 106.736 178.26 105.817 178.38 104.781C178.928 104.183 180.029 103.738 180.728 103.508C181.375 103.287 182.071 103.274 182.725 103.474C182.981 103.552 183.225 103.668 183.45 103.816C183.771 104.901 184.381 105.875 185.214 106.628Z" fill="black"/>
<path opacity="0.1" fill-rule="evenodd" clip-rule="evenodd" d="M191.088 100.897L188.981 101.394L188.936 101.074C189.162 100.759 189.478 100.522 189.84 100.396C190.203 100.269 190.594 100.26 190.962 100.369L191.088 100.897Z" fill="black"/>
<path opacity="0.1" fill-rule="evenodd" clip-rule="evenodd" d="M157.685 97.6889L155.159 98.9562L155.107 98.4041C155.926 97.9563 156.777 97.5724 157.653 97.2543L157.685 97.6889Z" fill="black"/>
<path opacity="0.1" fill-rule="evenodd" clip-rule="evenodd" d="M188.895 135.213C184.626 135.906 178.559 136.79 177.597 136.491C176.796 136.244 174.244 136.27 172.022 136.348C172.042 135.216 172.062 134.465 172.062 134.465L188.595 132.712C188.595 132.712 188.58 133.489 188.895 135.213Z" fill="black"/>
<path fill-rule="evenodd" clip-rule="evenodd" d="M193.58 133.378C193.58 133.378 179.533 135.834 178.027 135.371C176.519 134.909 168.779 135.409 168.779 135.409C165.295 137.786 166.75 134.279 166.75 134.279C166.75 134.279 166.444 132.448 166.865 130.967C167.148 129.88 167.341 128.771 167.442 127.651C167.442 127.651 167.366 125.312 167.786 124.766C168.207 124.22 168.707 120.324 168.707 120.324C168.707 120.324 169.088 117.674 169.051 117.09C169.014 116.506 169.164 114.867 169.164 114.867L169.664 112.139C166.792 111.751 158.066 106.295 158.066 106.295C157.645 104.463 154.392 100.177 154.392 100.177C154.344 99.8173 154.255 99.4638 154.123 99.1254C153.895 98.5014 157.339 97.2543 157.339 97.2543C157.339 97.2543 159.903 100.442 160.44 101.308C160.976 102.172 162.812 103.762 162.812 103.762C163.097 103.733 163.385 103.77 163.653 103.874L163.698 103.888C164.313 104.134 164.89 104.469 165.41 104.884C166.274 104.863 167.111 105.185 167.746 105.781C167.746 105.781 169.312 105.546 169.583 105.819C169.855 106.091 171.19 105.819 171.19 105.819C171.19 105.819 172.528 102.936 173.41 103.772C174.29 104.609 178.027 104.57 178.027 104.57C178.523 103.896 179.735 103.414 180.492 103.175C181.139 102.954 181.835 102.943 182.489 103.14C182.771 103.226 183.035 103.361 183.272 103.539L185.544 105.798C185.544 105.798 186.193 104.94 186.118 104.747C186.041 104.553 186.883 104.396 186.883 104.396C186.883 104.396 187.992 104.045 188.413 103.927C188.834 103.81 189.219 104.275 189.255 104.316C189.241 104.267 188.953 103.319 189.059 102.602C189.164 101.885 188.599 101.207 188.599 101.207C189.937 97.856 192.961 100.661 192.961 100.661C192.961 100.661 193.306 102.493 193.001 103.194C192.695 103.896 193.306 105.376 193.23 105.767C193.153 106.157 193.384 106.819 193.384 107.56C193.384 108.302 192.993 109.703 192.772 110.326C192.55 110.95 190.704 112.353 190.704 112.353C190.704 112.353 190.589 114.575 189.785 115.86C188.98 117.146 189.486 121.541 189.486 121.541C189.486 121.541 190.251 124.971 191.208 126.063C192.165 127.155 193.58 133.378 193.58 133.378Z" fill="#FA7268"/>
<path opacity="0.1" fill-rule="evenodd" clip-rule="evenodd" d="M172.941 107.74C172.941 107.74 172.52 106.455 172.136 106.345C171.755 106.203 171.385 106.033 171.027 105.839L171.274 105.359C171.274 105.359 172.71 105.757 172.941 106.19C173.172 106.622 172.941 107.74 172.941 107.74Z" fill="black"/>
<path opacity="0.1" fill-rule="evenodd" clip-rule="evenodd" d="M165.556 105.364C165.48 105.762 162.072 106.103 162.072 106.103L163.795 104.346L163.837 104.362C164.455 104.609 165.034 104.946 165.556 105.364Z" fill="black"/>
<path fill-rule="evenodd" clip-rule="evenodd" d="M155.605 100.097C155.773 100.097 155.91 99.9586 155.91 99.7874C155.91 99.6152 155.773 99.4764 155.605 99.4764C155.436 99.4764 155.299 99.6152 155.299 99.7874C155.299 99.9586 155.436 100.097 155.605 100.097Z" fill="#575988"/>
<path fill-rule="evenodd" clip-rule="evenodd" d="M155.604 101.111C155.774 101.111 155.91 100.971 155.91 100.8C155.91 100.628 155.774 100.489 155.604 100.489C155.436 100.489 155.3 100.628 155.3 100.8C155.3 100.971 155.436 101.111 155.604 101.111Z" fill="#575988"/>
<path fill-rule="evenodd" clip-rule="evenodd" d="M156.6 101.111C156.769 101.111 156.905 100.972 156.905 100.8C156.905 100.629 156.769 100.489 156.6 100.489C156.432 100.489 156.294 100.629 156.294 100.8C156.294 100.972 156.432 101.111 156.6 101.111Z" fill="#575988"/>
<path fill-rule="evenodd" clip-rule="evenodd" d="M156.6 102.124C156.768 102.124 156.905 101.985 156.905 101.813C156.905 101.641 156.768 101.503 156.6 101.503C156.431 101.503 156.294 101.641 156.294 101.813C156.294 101.985 156.431 102.124 156.6 102.124Z" fill="#575988"/>
<path fill-rule="evenodd" clip-rule="evenodd" d="M192.419 102.066C192.556 102.066 192.668 101.953 192.668 101.813C192.668 101.673 192.556 101.56 192.419 101.56C192.282 101.56 192.17 101.673 192.17 101.813C192.17 101.953 192.282 102.066 192.419 102.066Z" fill="#575988"/>
<path fill-rule="evenodd" clip-rule="evenodd" d="M192.418 103.079C192.556 103.079 192.667 102.966 192.667 102.826C192.667 102.686 192.556 102.573 192.418 102.573C192.281 102.573 192.171 102.686 192.171 102.826C192.171 102.966 192.281 103.079 192.418 103.079Z" fill="#575988"/>
<path fill-rule="evenodd" clip-rule="evenodd" d="M192.419 103.079C192.556 103.079 192.668 102.966 192.668 102.827C192.668 102.687 192.556 102.573 192.419 102.573C192.282 102.573 192.17 102.687 192.17 102.827C192.17 102.966 192.282 103.079 192.419 103.079Z" fill="#575988"/>
<path opacity="0.1" fill-rule="evenodd" clip-rule="evenodd" d="M173.017 118.529C172.98 118.483 181.609 129.577 188.307 123.167C188.312 123.169 177.73 124.628 173.017 118.529Z" fill="black"/>
<path opacity="0.1" fill-rule="evenodd" clip-rule="evenodd" d="M168.042 124.607C168.042 124.607 173.205 124.75 173.745 126.262V127.837C173.599 127.92 173.433 127.963 173.265 127.963C173.097 127.963 172.931 127.92 172.785 127.837C172.264 127.55 169.143 125.936 168.042 126.713V124.607Z" fill="black"/>
<path fill-rule="evenodd" clip-rule="evenodd" d="M168.042 124.607C168.042 124.607 172.979 124.744 173.497 126.186V127.686C173.355 127.765 173.197 127.806 173.036 127.806C172.876 127.806 172.717 127.765 172.576 127.686C172.08 127.414 169.095 125.874 168.042 126.615V124.607Z" fill="#DADADA"/>
<path opacity="0.1" fill-rule="evenodd" clip-rule="evenodd" d="M171.027 113.463C171.555 114.706 172.227 115.88 173.03 116.96C173.902 118.154 174.96 119.195 176.161 120.043C176.161 120.043 171.114 114.185 171.027 113.463Z" fill="black"/>
<path opacity="0.1" fill-rule="evenodd" clip-rule="evenodd" d="M169.037 107.385C169.037 107.385 169.899 111.171 172.118 112.456L169.037 107.385Z" fill="black"/>
<path opacity="0.1" fill-rule="evenodd" clip-rule="evenodd" d="M168.119 107.386C168.097 107.316 167.354 110.375 170.981 112.075C170.981 112.075 169.44 111.543 168.119 107.386Z" fill="black"/>
<path opacity="0.1" fill-rule="evenodd" clip-rule="evenodd" d="M190.928 105.361C190.87 105.361 192.716 106.557 193.219 107.115C193.219 107.115 192.017 105.282 190.928 105.361Z" fill="black"/>
<path fill-rule="evenodd" clip-rule="evenodd" d="M178.795 102.655C178.795 102.757 178.817 102.857 178.856 102.949C178.897 103.041 178.956 103.124 179.03 103.192C179.103 103.26 179.19 103.312 179.284 103.344C179.379 103.376 179.478 103.388 179.577 103.379C180.965 103.467 182.411 103.529 183.687 102.98C183.927 102.893 184.142 102.748 184.314 102.558C184.541 102.272 184.585 101.886 184.678 101.532C184.858 100.838 185.241 100.222 185.517 99.5624C185.984 98.448 186.141 97.2242 185.969 96.0258C185.933 95.658 185.814 95.3045 185.621 94.9914C185.253 94.4555 184.581 94.2377 184.094 93.8112C183.607 93.3847 183.294 92.7333 182.724 92.4162C182.211 92.1255 181.584 92.1619 181.006 92.2612C179.87 92.4577 178.782 92.8731 177.8 93.487C177.469 93.6856 177.107 93.9307 176.727 93.8578C176.395 93.794 176.152 93.5083 175.945 93.2419C175.678 93.8791 175.566 94.573 175.618 95.2639C175.633 95.3652 175.629 95.4686 175.608 95.5689C175.56 95.6904 175.487 95.7998 175.395 95.89C175.053 96.2881 174.839 96.9365 175.178 97.3468C175.324 97.5241 175.551 97.6213 175.694 97.8027C175.951 98.1279 175.865 98.6 175.859 99.0143C175.845 99.1592 175.88 99.305 175.96 99.4256C176.035 99.4955 176.125 99.5451 176.224 99.5695C176.322 99.5928 176.425 99.5907 176.522 99.5624C176.716 99.5036 176.919 99.4833 177.121 99.5046C177.333 99.5755 177.516 99.7153 177.642 99.9038C178.273 100.743 178.524 101.655 178.795 102.655Z" fill="#2D293D"/>
<g opacity="0.1">
<path opacity="0.1" fill-rule="evenodd" clip-rule="evenodd" d="M184.256 101.589C184.084 101.78 183.869 101.925 183.629 102.012C182.346 102.556 180.901 102.494 179.52 102.411C179.372 102.412 179.225 102.378 179.091 102.313C178.879 102.187 178.8 101.925 178.735 101.685C178.464 100.689 178.217 99.7738 177.574 98.9431C177.451 98.7516 177.267 98.6077 177.054 98.5348C176.853 98.5155 176.649 98.5348 176.455 98.5925C176.358 98.6209 176.255 98.6239 176.156 98.5996C176.058 98.5763 175.967 98.5267 175.893 98.4568C175.813 98.3362 175.777 98.1914 175.791 98.0465C175.791 97.6281 175.883 97.159 175.627 96.8349C175.484 96.6535 175.257 96.5553 175.11 96.3759C175.015 96.2442 174.956 96.0882 174.94 95.9241C174.924 95.761 174.953 95.5959 175.022 95.448C174.777 95.8461 174.674 96.3466 174.957 96.689C175.104 96.8663 175.331 96.9645 175.475 97.1459C175.73 97.4721 175.645 97.9432 175.639 98.3575C175.624 98.5014 175.659 98.6472 175.738 98.7678C175.813 98.8387 175.903 98.8883 176.003 98.9127C176.101 98.936 176.205 98.9339 176.302 98.9056C176.496 98.8458 176.699 98.8265 176.901 98.8478C177.113 98.9177 177.296 99.0575 177.422 99.246C178.061 100.077 178.312 100.989 178.582 101.99C178.614 102.237 178.735 102.461 178.921 102.621C179.055 102.687 179.203 102.72 179.351 102.718C180.739 102.805 182.186 102.869 183.461 102.319C183.701 102.232 183.916 102.088 184.088 101.896C184.174 101.784 184.24 101.657 184.283 101.521C184.285 101.548 184.272 101.57 184.256 101.589Z" fill="black"/>
<path opacity="0.1" fill-rule="evenodd" clip-rule="evenodd" d="M175.398 94.831C175.46 94.7631 175.507 94.6831 175.537 94.596C175.555 94.4957 175.555 94.3924 175.537 94.2911C175.499 93.7237 175.571 93.1534 175.75 92.6134L175.725 92.584C175.458 93.2202 175.345 93.9142 175.398 94.6041C175.404 94.6801 175.404 94.756 175.398 94.831Z" fill="black"/>
</g>
<path opacity="0.1" fill-rule="evenodd" clip-rule="evenodd" d="M177.992 104.746C177.992 104.746 183.681 105.515 184.192 104.645L177.992 104.746Z" fill="black"/>
<path opacity="0.1" fill-rule="evenodd" clip-rule="evenodd" d="M188.936 102.32C188.936 102.32 192.099 102.32 192.794 103.531L188.936 102.32Z" fill="black"/>
<path opacity="0.1" fill-rule="evenodd" clip-rule="evenodd" d="M185.75 193.471C198.277 193.471 208.433 190.982 208.433 187.911C208.433 184.841 198.277 182.352 185.75 182.352C173.222 182.352 163.067 184.841 163.067 187.911C163.067 190.982 173.222 193.471 185.75 193.471Z" fill="#B643D5"/>
<path fill-rule="evenodd" clip-rule="evenodd" d="M78.6876 72.9617C78.6876 72.9617 62.8517 71.9891 64.7182 83.2868C64.7182 83.2868 64.3421 85.2846 66.1241 86.1903C66.1241 86.1903 66.153 85.3535 67.7499 85.6392C68.318 85.7344 68.8951 85.7628 69.4702 85.7233C70.2463 85.6716 70.9836 85.3636 71.5726 84.848C71.5726 84.848 76.0251 82.9748 77.7553 75.5683C77.7553 75.5683 79.0358 73.9525 78.9851 73.5361L76.3126 74.6991C76.3126 74.6991 77.226 76.6614 76.5007 78.2934C76.5007 78.2934 76.4141 74.77 75.9007 74.846C75.7972 74.8612 74.5127 75.5258 74.5127 75.5258C74.5127 75.5258 76.0828 78.9438 74.8978 81.4299C74.8978 81.4299 75.3475 77.2166 74.0212 75.7729L72.1407 76.8914C72.1407 76.8914 73.9764 80.4229 72.7317 83.3041C72.7317 83.3041 73.0511 78.8851 71.7437 77.1639L70.0403 78.5173C70.0403 78.5173 71.7646 81.9962 70.7139 84.386C70.7139 84.386 70.5766 79.2427 69.6712 78.8547C69.6712 78.8547 68.1797 80.195 67.9529 80.742C67.9529 80.742 69.1339 83.2696 68.4006 84.6028C68.4006 84.6028 67.9509 81.1756 67.5818 81.1564C67.5818 81.1564 66.0963 83.4266 65.9421 84.9858C65.9421 84.9858 66.0057 82.6709 67.2226 80.9416C67.2226 80.9416 65.7858 81.1928 64.9471 82.1401C64.9471 82.1401 65.1789 80.5354 67.5897 80.3935C67.5897 80.3935 68.8175 78.6703 69.1449 78.567C69.1449 78.567 66.749 78.3623 65.2953 79.0188C65.2953 79.0188 66.5739 77.5043 69.5846 78.1932L71.2681 76.7941C71.2681 76.7941 68.1121 76.3555 66.7738 76.8397C66.7738 76.8397 68.3141 75.4994 71.7218 76.476L73.5536 75.3616C73.5536 75.3616 70.8622 74.772 69.2593 74.9787C69.2593 74.9787 70.9527 74.0497 74.0908 75.0567L75.4082 74.458C75.4082 74.458 73.4372 74.0629 72.8591 74.0001C72.282 73.9363 72.2521 73.7762 72.2521 73.7762C73.5008 73.5634 74.7823 73.7093 75.9554 74.1956C75.9554 74.1956 78.7344 73.14 78.6876 72.9617Z" fill="#FF9F00"/>
<path fill-rule="evenodd" clip-rule="evenodd" d="M65.0056 60.7948C65.0056 60.7948 56.7026 60.2923 57.6807 66.1275C57.6807 66.1275 57.4837 67.1588 58.4189 67.6269C58.4189 67.6269 58.4339 67.1953 59.2706 67.3422C59.5681 67.3918 59.8716 67.406 60.1731 67.3858C60.579 67.3594 60.9661 67.2004 61.2755 66.9339C61.2755 66.9339 63.6087 65.9665 64.5161 62.1411C64.5161 62.1411 65.1877 61.3064 65.1608 61.0916L63.7599 61.6923C63.7599 61.6923 64.2395 62.7054 63.8584 63.5483C63.8584 63.5483 63.8137 61.7288 63.544 61.7683C63.4903 61.7764 62.8167 62.1188 62.8167 62.1188C62.8167 62.1188 63.6395 63.8846 63.0187 65.1682C63.0187 65.1682 63.2545 62.9921 62.559 62.2465L61.573 62.8239C61.573 62.8239 62.5351 64.6485 61.8824 66.1367C61.8824 66.1367 62.0506 63.8542 61.365 62.9648L60.4716 63.6638C60.4716 63.6638 61.376 65.4609 60.8248 66.6959C60.8248 66.6959 60.7521 64.0386 60.2785 63.838C60.2785 63.838 59.4965 64.5299 59.3771 64.8136C59.3771 64.8136 59.996 66.1184 59.6119 66.8073C59.6119 66.8073 59.3761 65.0365 59.1831 65.0274C59.1831 65.0274 58.404 66.1995 58.3234 67.0049C58.3234 67.0049 58.3563 65.8094 58.994 64.9159C58.994 64.9159 58.2408 65.0456 57.8011 65.5349C57.8011 65.5349 57.9225 64.7062 59.1871 64.6333C59.1871 64.6333 59.8308 63.7428 60.0019 63.6901C60.0019 63.6901 58.7463 63.5837 57.9841 63.9231C57.9841 63.9231 58.6547 63.141 60.2328 63.4966L61.1153 62.7743C61.1153 62.7743 59.4607 62.5474 58.7592 62.7976C58.7592 62.7976 59.5661 62.1057 61.3531 62.6102L62.3132 62.0337C62.3132 62.0337 60.9024 61.7298 60.0626 61.8362C60.0626 61.8362 60.9501 61.357 62.5958 61.8767L63.2853 61.5677C63.2853 61.5677 62.2526 61.3631 61.9501 61.3307C61.6466 61.2983 61.6307 61.2152 61.6307 61.2152C62.2854 61.1058 62.958 61.1807 63.5729 61.432C63.5729 61.432 65.0305 60.887 65.0056 60.7948Z" fill="#FF9F00"/>
<path fill-rule="evenodd" clip-rule="evenodd" d="M34.2351 153.986C34.2351 153.986 23.4066 161.192 29.7377 167.312C29.7377 167.312 30.3938 168.742 31.9729 168.427C31.9729 168.427 31.6131 167.891 32.7895 167.281C33.2059 167.062 33.5976 166.794 33.9566 166.485C34.4419 166.071 34.7872 165.515 34.9405 164.903C34.9405 164.903 37.0143 161.539 34.8013 156.07C34.8013 156.07 34.9109 154.431 34.6897 154.197L33.4619 156.24C33.4619 156.24 34.9488 157.012 35.21 158.387C35.21 158.387 33.5605 156.234 33.2584 156.535C33.1974 156.596 32.655 157.643 32.655 157.643C32.655 157.643 35.2305 158.999 35.5768 161.132C35.5768 161.132 33.9672 158.285 32.4447 158.039L31.7164 159.664C31.7164 159.664 34.5168 160.959 35.0028 163.369C35.0028 163.369 33.2147 160.457 31.579 160.029L31.0731 161.714C31.0731 161.714 33.7774 163.031 34.168 165.039C34.168 165.039 31.7529 161.901 30.9837 162.106C30.9837 162.106 30.6112 163.677 30.7095 164.13C30.7095 164.13 32.6269 165.123 32.7482 166.315C32.7482 166.315 30.9039 164.4 30.6533 164.57C30.6533 164.57 30.7053 166.719 31.3087 167.767C31.3087 167.767 30.3041 166.292 30.3207 164.614C30.3207 164.614 29.4915 165.479 29.3697 166.484C29.3697 166.484 28.796 165.37 30.3138 164.092C30.3138 164.092 30.3404 162.412 30.5084 162.186C30.5084 162.186 28.8438 163.24 28.187 164.367C28.187 164.367 28.3413 162.793 30.6283 161.736L31.0998 160.034C31.0998 160.034 28.8312 161.317 28.1717 162.28C28.1717 162.28 28.5763 160.684 31.2534 159.611L31.9514 158.014C31.9514 158.014 29.9192 158.974 28.9614 159.893C28.9614 159.893 29.652 158.48 32.1666 157.559L32.7594 156.536C32.7594 156.536 31.288 157.262 30.8807 157.507C30.4733 157.753 30.3808 157.667 30.3808 157.667C31.1042 156.92 32.0109 156.378 32.9998 156.102C32.9998 156.102 34.3465 154.073 34.2351 153.986Z" fill="#FF9F00"/>
<path fill-rule="evenodd" clip-rule="evenodd" d="M32.6976 218.762C37.0777 218.762 40.6286 214.921 40.6286 210.181C40.6286 205.442 37.0777 201.6 32.6976 201.6C28.3174 201.6 24.7666 205.442 24.7666 210.181C24.7666 214.921 28.3174 218.762 32.6976 218.762Z" fill="#FBD56F"/>
<path opacity="0.1" fill-rule="evenodd" clip-rule="evenodd" d="M32.6976 218.762C37.0777 218.762 40.6286 214.921 40.6286 210.181C40.6286 205.442 37.0777 201.6 32.6976 201.6C28.3174 201.6 24.7666 205.442 24.7666 210.181C24.7666 214.921 28.3174 218.762 32.6976 218.762Z" fill="black"/>
<path fill-rule="evenodd" clip-rule="evenodd" d="M33.6926 218.379C38.0727 218.379 41.6236 214.623 41.6236 209.989C41.6236 205.356 38.0727 201.6 33.6926 201.6C29.3124 201.6 25.7616 205.356 25.7616 209.989C25.7616 214.623 29.3124 218.379 33.6926 218.379Z" fill="#FBD56F"/>
<path fill-rule="evenodd" clip-rule="evenodd" d="M36.8221 217.455L35.9965 216.988C35.9965 216.988 35.6101 218.628 35.7368 219.799C35.7487 219.917 35.7956 220.028 35.871 220.118C35.9464 220.207 36.0469 220.272 36.1592 220.303C38.0596 220.783 47.101 222.829 53.3216 219.945C53.4121 219.903 53.4897 219.839 53.5474 219.757C53.6051 219.675 53.641 219.578 53.6509 219.478C53.7295 218.76 53.4589 217.277 53.3514 216.988C53.1256 216.366 36.8221 217.455 36.8221 217.455Z" fill="#FBD56F"/>
<path opacity="0.1" fill-rule="evenodd" clip-rule="evenodd" d="M36.8221 217.455L35.9965 216.988C35.9965 216.988 35.6101 218.628 35.7368 219.799C35.7487 219.917 35.7956 220.028 35.871 220.118C35.9464 220.207 36.0469 220.272 36.1592 220.303C38.0596 220.783 47.101 222.829 53.3216 219.945C53.4121 219.903 53.4897 219.839 53.5474 219.757C53.6051 219.675 53.641 219.578 53.6509 219.478C53.7295 218.76 53.4589 217.277 53.3514 216.988C53.1256 216.366 36.8221 217.455 36.8221 217.455Z" fill="black"/>
<path fill-rule="evenodd" clip-rule="evenodd" d="M45.387 218.76C50.1807 218.76 54.0671 217.868 54.0671 216.766C54.0671 215.663 50.1807 214.77 45.387 214.77C40.5926 214.77 36.7062 215.663 36.7062 216.766C36.7062 217.868 40.5926 218.76 45.387 218.76Z" fill="#FBD56F"/>
<path fill-rule="evenodd" clip-rule="evenodd" d="M40.7999 214.416L39.9763 213.949C39.9763 213.949 39.59 215.589 39.7167 216.76C39.7285 216.877 39.7753 216.988 39.8507 217.078C39.9262 217.167 40.0268 217.231 40.1389 217.261C42.0393 217.743 51.0806 219.79 57.3011 216.906C57.3917 216.863 57.4693 216.798 57.527 216.716C57.5847 216.635 57.6205 216.539 57.6315 216.439C57.7071 215.72 57.4365 214.237 57.329 213.949C57.0942 213.327 40.7999 214.416 40.7999 214.416Z" fill="#FBD56F"/>
<path opacity="0.1" fill-rule="evenodd" clip-rule="evenodd" d="M40.7999 214.416L39.9763 213.949C39.9763 213.949 39.59 215.589 39.7167 216.76C39.7285 216.877 39.7753 216.988 39.8507 217.078C39.9262 217.167 40.0268 217.231 40.1389 217.261C42.0393 217.743 51.0806 219.79 57.3011 216.906C57.3917 216.863 57.4693 216.798 57.527 216.716C57.5847 216.635 57.6205 216.539 57.6315 216.439C57.7071 215.72 57.4365 214.237 57.329 213.949C57.0942 213.327 40.7999 214.416 40.7999 214.416Z" fill="black"/>
<path fill-rule="evenodd" clip-rule="evenodd" d="M48.372 215.721C53.1657 215.721 57.0521 214.828 57.0521 213.726C57.0521 212.624 53.1657 211.731 48.372 211.731C43.5772 211.731 39.6912 212.624 39.6912 213.726C39.6912 214.828 43.5772 215.721 48.372 215.721Z" fill="#FBD56F"/>
<path fill-rule="evenodd" clip-rule="evenodd" d="M43.7864 210.363L42.9612 209.896C42.9612 209.896 42.5749 211.536 42.7015 212.707C42.7135 212.824 42.7603 212.936 42.8357 213.026C42.9112 213.116 43.0117 213.18 43.1239 213.21C45.0242 213.69 54.0684 215.737 60.286 212.854C60.3765 212.811 60.4542 212.746 60.5129 212.664C60.5706 212.582 60.6074 212.487 60.6183 212.387C60.6939 211.667 60.4233 210.184 60.3159 209.896C60.09 209.274 43.7864 210.363 43.7864 210.363Z" fill="#FBD56F"/>
<path opacity="0.1" fill-rule="evenodd" clip-rule="evenodd" d="M43.7864 210.363L42.9612 209.896C42.9612 209.896 42.5749 211.536 42.7015 212.707C42.7135 212.824 42.7603 212.936 42.8357 213.026C42.9112 213.116 43.0117 213.18 43.1239 213.21C45.0242 213.69 54.0684 215.737 60.286 212.854C60.3765 212.811 60.4542 212.746 60.5129 212.664C60.5706 212.582 60.6074 212.487 60.6183 212.387C60.6939 211.667 60.4233 210.184 60.3159 209.896C60.09 209.274 43.7864 210.363 43.7864 210.363Z" fill="black"/>
<path fill-rule="evenodd" clip-rule="evenodd" d="M51.3565 212.682C56.1503 212.682 60.0366 211.788 60.0366 210.686C60.0366 209.585 56.1503 208.691 51.3565 208.691C46.5628 208.691 42.676 209.585 42.676 210.686C42.676 211.788 46.5628 212.682 51.3565 212.682Z" fill="#FBD56F"/>
<path fill-rule="evenodd" clip-rule="evenodd" d="M39.8063 206.315L38.9807 205.845C38.9807 205.845 38.5964 207.487 38.721 208.656C38.7333 208.773 38.7801 208.885 38.8555 208.975C38.9309 209.064 39.0312 209.129 39.1433 209.159C41.0437 209.64 50.0857 211.686 56.3043 208.805C56.3938 208.762 56.4724 208.697 56.5302 208.615C56.5889 208.534 56.6247 208.438 56.6356 208.338C56.7112 207.618 56.4406 206.135 56.3332 205.845C56.1093 205.221 39.8063 206.315 39.8063 206.315Z" fill="#FBD56F"/>
<path opacity="0.1" fill-rule="evenodd" clip-rule="evenodd" d="M39.8063 206.315L38.9807 205.845C38.9807 205.845 38.5964 207.487 38.721 208.656C38.7333 208.773 38.7801 208.885 38.8555 208.975C38.9309 209.064 39.0312 209.129 39.1433 209.159C41.0437 209.64 50.0857 211.686 56.3043 208.805C56.3938 208.762 56.4724 208.697 56.5302 208.615C56.5889 208.534 56.6247 208.438 56.6356 208.338C56.7112 207.618 56.4406 206.135 56.3332 205.845C56.1093 205.221 39.8063 206.315 39.8063 206.315Z" fill="black"/>
<path fill-rule="evenodd" clip-rule="evenodd" d="M48.3714 208.63C53.1661 208.63 57.0525 207.736 57.0525 206.635C57.0525 205.533 53.1661 204.639 48.3714 204.639C43.5776 204.639 39.6912 205.533 39.6912 206.635C39.6912 207.736 43.5776 208.63 48.3714 208.63Z" fill="#FBD56F"/>
<path fill-rule="evenodd" clip-rule="evenodd" d="M47.7641 203.275L46.9413 202.806C46.9413 202.806 46.5542 204.449 46.6816 205.617C46.6925 205.735 46.7393 205.847 46.8149 205.936C46.8905 206.026 46.991 206.091 47.1035 206.121C49.0039 206.6 58.0461 208.648 64.2637 205.766C64.3542 205.723 64.4318 205.658 64.4905 205.576C64.5483 205.495 64.5851 205.399 64.596 205.299C64.6716 204.579 64.401 203.094 64.2935 202.806C64.0677 202.18 47.7641 203.275 47.7641 203.275Z" fill="#FBD56F"/>
<path opacity="0.1" fill-rule="evenodd" clip-rule="evenodd" d="M47.7641 203.275L46.9413 202.806C46.9413 202.806 46.5542 204.449 46.6816 205.617C46.6925 205.735 46.7393 205.847 46.8149 205.936C46.8905 206.026 46.991 206.091 47.1035 206.121C49.0039 206.6 58.0461 208.648 64.2637 205.766C64.3542 205.723 64.4318 205.658 64.4905 205.576C64.5483 205.495 64.5851 205.399 64.596 205.299C64.6716 204.579 64.401 203.094 64.2935 202.806C64.0677 202.18 47.7641 203.275 47.7641 203.275Z" fill="black"/>
<path fill-rule="evenodd" clip-rule="evenodd" d="M55.336 204.577C60.1307 204.577 64.0171 203.684 64.0171 202.582C64.0171 201.479 60.1307 200.587 55.336 200.587C50.5422 200.587 46.6559 201.479 46.6559 202.582C46.6559 203.684 50.5422 204.577 55.336 204.577Z" fill="#FBD56F"/>
<path fill-rule="evenodd" clip-rule="evenodd" d="M42.7913 201.248L41.9657 200.779C41.9657 200.779 41.5813 202.421 41.7059 203.589C41.7181 203.706 41.7651 203.818 41.8404 203.908C41.9158 203.997 42.0161 204.062 42.1282 204.092C44.0285 204.573 53.0698 206.62 59.2884 203.738C59.3789 203.696 59.4575 203.63 59.5152 203.549C59.5739 203.467 59.6097 203.371 59.6207 203.271C59.6963 202.551 59.4257 201.066 59.3182 200.779C59.0943 200.157 42.7913 201.248 42.7913 201.248Z" fill="#FBD56F"/>
<path opacity="0.1" fill-rule="evenodd" clip-rule="evenodd" d="M42.7913 201.248L41.9657 200.779C41.9657 200.779 41.5813 202.421 41.7059 203.589C41.7181 203.706 41.7651 203.818 41.8404 203.908C41.9158 203.997 42.0161 204.062 42.1282 204.092C44.0285 204.573 53.0698 206.62 59.2884 203.738C59.3789 203.696 59.4575 203.63 59.5152 203.549C59.5739 203.467 59.6097 203.371 59.6207 203.271C59.6963 202.551 59.4257 201.066 59.3182 200.779C59.0943 200.157 42.7913 201.248 42.7913 201.248Z" fill="black"/>
<path fill-rule="evenodd" clip-rule="evenodd" d="M50.3613 202.551C55.1561 202.551 59.0424 201.658 59.0424 200.557C59.0424 199.454 55.1561 198.561 50.3613 198.561C45.5676 198.561 41.681 199.454 41.681 200.557C41.681 201.658 45.5676 202.551 50.3613 202.551Z" fill="#FBD56F"/>
<path fill-rule="evenodd" clip-rule="evenodd" d="M45.7743 197.195L44.9514 196.726C44.9514 196.726 44.5644 198.369 44.6917 199.538C44.7037 199.655 44.7494 199.767 44.8251 199.857C44.9007 199.946 45.0012 200.011 45.1136 200.041C47.014 200.52 56.0563 202.568 62.2768 199.686C62.3664 199.644 62.444 199.579 62.5017 199.497C62.5594 199.415 62.5952 199.319 62.6061 199.218C62.6818 198.5 62.4111 197.017 62.3037 196.726C62.0798 196.104 45.7743 197.195 45.7743 197.195Z" fill="#FBD56F"/>
<path opacity="0.1" fill-rule="evenodd" clip-rule="evenodd" d="M45.7743 197.195L44.9514 196.726C44.9514 196.726 44.5644 198.369 44.6917 199.538C44.7037 199.655 44.7494 199.767 44.8251 199.857C44.9007 199.946 45.0012 200.011 45.1136 200.041C47.014 200.52 56.0563 202.568 62.2768 199.686C62.3664 199.644 62.444 199.579 62.5017 199.497C62.5594 199.415 62.5952 199.319 62.6061 199.218C62.6818 198.5 62.4111 197.017 62.3037 196.726C62.0798 196.104 45.7743 197.195 45.7743 197.195Z" fill="black"/>
<path fill-rule="evenodd" clip-rule="evenodd" d="M53.3461 198.499C58.1409 198.499 62.0272 197.606 62.0272 196.504C62.0272 195.402 58.1409 194.509 53.3461 194.509C48.5524 194.509 44.666 195.402 44.666 196.504C44.666 197.606 48.5524 198.499 53.3461 198.499Z" fill="#FBD56F"/>
<path fill-rule="evenodd" clip-rule="evenodd" d="M47.7662 192.13L46.9404 191.661C46.9404 191.661 46.5563 193.303 46.6807 194.471C46.6926 194.59 46.7394 194.7 46.815 194.79C46.8906 194.881 46.9911 194.944 47.1025 194.976C49.0029 195.455 58.0452 197.502 64.2638 194.62C64.3533 194.579 64.4319 194.514 64.4896 194.432C64.5483 194.35 64.5841 194.253 64.5951 194.153C64.6707 193.434 64.4011 191.952 64.2926 191.661C64.0667 191.039 47.7662 192.13 47.7662 192.13Z" fill="#FBD56F"/>
<path opacity="0.1" fill-rule="evenodd" clip-rule="evenodd" d="M47.7662 192.13L46.9404 191.661C46.9404 191.661 46.5563 193.303 46.6807 194.471C46.6926 194.59 46.7394 194.7 46.815 194.79C46.8906 194.881 46.9911 194.944 47.1025 194.976C49.0029 195.455 58.0452 197.502 64.2638 194.62C64.3533 194.579 64.4319 194.514 64.4896 194.432C64.5483 194.35 64.5841 194.253 64.5951 194.153C64.6707 193.434 64.4011 191.952 64.2926 191.661C64.0667 191.039 47.7662 192.13 47.7662 192.13Z" fill="black"/>
<path fill-rule="evenodd" clip-rule="evenodd" d="M55.337 193.434C60.1307 193.434 64.0171 192.54 64.0171 191.439C64.0171 190.337 60.1307 189.443 55.337 189.443C50.5422 189.443 46.6559 190.337 46.6559 191.439C46.6559 192.54 50.5422 193.434 55.337 193.434Z" fill="#FBD56F"/>
<path fill-rule="evenodd" clip-rule="evenodd" d="M61.6957 218.47L60.8709 218.001C60.8709 218.001 60.4838 219.643 60.6112 220.811C60.6231 220.928 60.6699 221.04 60.7455 221.13C60.8201 221.22 60.9206 221.284 61.033 221.314C62.9334 221.795 71.9747 223.841 78.1962 220.96C78.2858 220.917 78.3634 220.851 78.4211 220.769C78.4788 220.687 78.5146 220.591 78.5256 220.491C78.6032 219.772 78.3326 218.288 78.2251 218.001C77.9992 217.379 61.6957 218.47 61.6957 218.47Z" fill="#FBD56F"/>
<path opacity="0.1" fill-rule="evenodd" clip-rule="evenodd" d="M61.6957 218.47L60.8709 218.001C60.8709 218.001 60.4838 219.643 60.6112 220.811C60.6231 220.928 60.6699 221.04 60.7455 221.13C60.8201 221.22 60.9206 221.284 61.033 221.314C62.9334 221.795 71.9747 223.841 78.1962 220.96C78.2858 220.917 78.3634 220.851 78.4211 220.769C78.4788 220.687 78.5146 220.591 78.5256 220.491C78.6032 219.772 78.3326 218.288 78.2251 218.001C77.9992 217.379 61.6957 218.47 61.6957 218.47Z" fill="black"/>
<path fill-rule="evenodd" clip-rule="evenodd" d="M70.2615 219.773C75.0553 219.773 78.9417 218.88 78.9417 217.779C78.9417 216.676 75.0553 215.783 70.2615 215.783C65.4668 215.783 61.5804 216.676 61.5804 217.779C61.5804 218.88 65.4668 219.773 70.2615 219.773Z" fill="#FBD56F"/>
<path fill-rule="evenodd" clip-rule="evenodd" d="M64.6807 214.418L63.8549 213.948C63.8549 213.948 63.4709 215.591 63.5952 216.76C63.6072 216.877 63.6539 216.989 63.7295 217.078C63.8052 217.168 63.9057 217.233 64.0171 217.263C65.9175 217.743 74.9598 219.79 81.1783 216.908C81.2679 216.866 81.3465 216.801 81.4042 216.719C81.4629 216.637 81.4987 216.542 81.5096 216.441C81.5852 215.722 81.3146 214.237 81.2072 213.948C80.9833 213.326 64.6807 214.418 64.6807 214.418Z" fill="#FBD56F"/>
<path opacity="0.1" fill-rule="evenodd" clip-rule="evenodd" d="M64.6807 214.418L63.8549 213.948C63.8549 213.948 63.4709 215.591 63.5952 216.76C63.6072 216.877 63.6539 216.989 63.7295 217.078C63.8052 217.168 63.9057 217.233 64.0171 217.263C65.9175 217.743 74.9598 219.79 81.1783 216.908C81.2679 216.866 81.3465 216.801 81.4042 216.719C81.4629 216.637 81.4987 216.542 81.5096 216.441C81.5852 215.722 81.3146 214.237 81.2072 213.948C80.9833 213.326 64.6807 214.418 64.6807 214.418Z" fill="black"/>
<path fill-rule="evenodd" clip-rule="evenodd" d="M73.2464 216.734C78.0402 216.734 81.9265 215.841 81.9265 214.738C81.9265 213.636 78.0402 212.744 73.2464 212.744C68.4526 212.744 64.5653 213.636 64.5653 214.738C64.5653 215.841 68.4526 216.734 73.2464 216.734Z" fill="#FBD56F"/>
<path fill-rule="evenodd" clip-rule="evenodd" d="M61.6937 210.359L60.8709 209.892C60.8709 209.892 60.4838 211.532 60.6112 212.702C60.6231 212.819 60.6699 212.931 60.7445 213.02C60.8201 213.11 60.9206 213.174 61.033 213.203C62.9334 213.685 71.9757 215.733 78.1962 212.849C78.2858 212.807 78.3644 212.741 78.4221 212.66C78.4798 212.578 78.5156 212.482 78.5256 212.382C78.6012 211.662 78.3306 210.179 78.2231 209.892C77.9992 209.282 61.6937 210.359 61.6937 210.359Z" fill="#FBD56F"/>
<path opacity="0.1" fill-rule="evenodd" clip-rule="evenodd" d="M61.6937 210.359L60.8709 209.892C60.8709 209.892 60.4838 211.532 60.6112 212.702C60.6231 212.819 60.6699 212.931 60.7445 213.02C60.8201 213.11 60.9206 213.174 61.033 213.203C62.9334 213.685 71.9757 215.733 78.1962 212.849C78.2858 212.807 78.3644 212.741 78.4221 212.66C78.4798 212.578 78.5156 212.482 78.5256 212.382C78.6012 211.662 78.3306 210.179 78.2231 209.892C77.9992 209.282 61.6937 210.359 61.6937 210.359Z" fill="black"/>
<path fill-rule="evenodd" clip-rule="evenodd" d="M69.2656 212.682C74.0603 212.682 77.9467 211.788 77.9467 210.687C77.9467 209.585 74.0603 208.691 69.2656 208.691C64.4718 208.691 60.5854 209.585 60.5854 210.687C60.5854 211.788 64.4718 212.682 69.2656 212.682Z" fill="#FBD56F"/>
<path fill-rule="evenodd" clip-rule="evenodd" d="M68.6605 207.324L67.8357 206.857C67.8357 206.857 67.4487 208.497 67.576 209.655C67.587 209.772 67.6337 209.884 67.7093 209.974C67.785 210.064 67.8854 210.129 67.9979 210.158C69.8983 210.641 78.9395 212.686 85.1601 209.804C85.2506 209.762 85.3282 209.696 85.3859 209.615C85.4447 209.533 85.4795 209.437 85.4894 209.337C85.566 208.617 85.2974 207.134 85.1899 206.847C84.9641 206.248 68.6605 207.324 68.6605 207.324Z" fill="#FBD56F"/>
<path opacity="0.1" fill-rule="evenodd" clip-rule="evenodd" d="M68.6605 207.324L67.8357 206.857C67.8357 206.857 67.4487 208.497 67.576 209.655C67.587 209.772 67.6337 209.884 67.7093 209.974C67.785 210.064 67.8854 210.129 67.9979 210.158C69.8983 210.641 78.9395 212.686 85.1601 209.804C85.2506 209.762 85.3282 209.696 85.3859 209.615C85.4447 209.533 85.4795 209.437 85.4894 209.337C85.566 208.617 85.2974 207.134 85.1899 206.847C84.9641 206.248 68.6605 207.324 68.6605 207.324Z" fill="black"/>
<path fill-rule="evenodd" clip-rule="evenodd" d="M77.2253 208.63C82.019 208.63 85.9054 207.736 85.9054 206.634C85.9054 205.532 82.019 204.639 77.2253 204.639C72.4315 204.639 68.5452 205.532 68.5452 206.634C68.5452 207.736 72.4315 208.63 77.2253 208.63Z" fill="#FBD56F"/>
<path fill-rule="evenodd" clip-rule="evenodd" d="M63.6837 205.298L62.8608 204.831C62.8608 204.831 62.4738 206.471 62.6012 207.641C62.6131 207.759 62.6599 207.87 62.7355 207.959C62.8111 208.05 62.9106 208.113 63.023 208.143C64.9234 208.625 73.9647 210.67 80.1852 207.788C80.2758 207.747 80.3534 207.682 80.4121 207.6C80.4698 207.518 80.5046 207.422 80.5156 207.321C80.5912 206.602 80.3206 205.119 80.2131 204.831C79.9892 204.209 63.6837 205.298 63.6837 205.298Z" fill="#FBD56F"/>
<path opacity="0.1" fill-rule="evenodd" clip-rule="evenodd" d="M63.6837 205.298L62.8608 204.831C62.8608 204.831 62.4738 206.471 62.6012 207.641C62.6131 207.759 62.6599 207.87 62.7355 207.959C62.8111 208.05 62.9106 208.113 63.023 208.143C64.9234 208.625 73.9647 210.67 80.1852 207.788C80.2758 207.747 80.3534 207.682 80.4121 207.6C80.4698 207.518 80.5046 207.422 80.5156 207.321C80.5912 206.602 80.3206 205.119 80.2131 204.831C79.9892 204.209 63.6837 205.298 63.6837 205.298Z" fill="black"/>
<path fill-rule="evenodd" clip-rule="evenodd" d="M72.2505 206.604C77.0443 206.604 80.9316 205.71 80.9316 204.608C80.9316 203.507 77.0443 202.613 72.2505 202.613C67.4568 202.613 63.5704 203.507 63.5704 204.608C63.5704 205.71 67.4568 206.604 72.2505 206.604Z" fill="#FBD56F"/>
<path fill-rule="evenodd" clip-rule="evenodd" d="M67.6655 201.246L66.8407 200.779C66.8407 200.779 66.4537 202.419 66.581 203.59C66.593 203.708 66.6397 203.819 66.7143 203.909C66.79 203.998 66.8905 204.063 67.0029 204.094C68.9033 204.574 77.9446 206.62 84.1631 203.736C84.2536 203.694 84.3313 203.63 84.39 203.548C84.4477 203.465 84.4845 203.369 84.4954 203.269C84.571 202.551 84.3004 201.068 84.193 200.779C83.9691 200.157 67.6655 201.246 67.6655 201.246Z" fill="#FBD56F"/>
<path opacity="0.1" fill-rule="evenodd" clip-rule="evenodd" d="M67.6655 201.246L66.8407 200.779C66.8407 200.779 66.4537 202.419 66.581 203.59C66.593 203.708 66.6397 203.819 66.7143 203.909C66.79 203.998 66.8905 204.063 67.0029 204.094C68.9033 204.574 77.9446 206.62 84.1631 203.736C84.2536 203.694 84.3313 203.63 84.39 203.548C84.4477 203.465 84.4845 203.369 84.4954 203.269C84.571 202.551 84.3004 201.068 84.193 200.779C83.9691 200.157 67.6655 201.246 67.6655 201.246Z" fill="black"/>
<path fill-rule="evenodd" clip-rule="evenodd" d="M75.2354 202.551C80.0292 202.551 83.9165 201.658 83.9165 200.557C83.9165 199.454 80.0292 198.561 75.2354 198.561C70.4416 198.561 66.5553 199.454 66.5553 200.557C66.5553 201.658 70.4416 202.551 75.2354 202.551Z" fill="#FBD56F"/>
<path fill-rule="evenodd" clip-rule="evenodd" d="M68.6592 196.181L67.8354 195.714C67.8354 195.714 67.4493 197.354 67.5757 198.525C67.5876 198.642 67.6344 198.754 67.71 198.843C67.7856 198.933 67.8861 198.998 67.9986 199.028C69.899 199.508 78.9402 201.555 85.1608 198.671C85.2513 198.629 85.3289 198.564 85.3866 198.482C85.4443 198.4 85.4802 198.304 85.4901 198.204C85.5667 197.484 85.2961 196.002 85.1886 195.714C84.9648 195.092 68.6592 196.181 68.6592 196.181Z" fill="#FBD56F"/>
<path opacity="0.1" fill-rule="evenodd" clip-rule="evenodd" d="M68.6592 196.181L67.8354 195.714C67.8354 195.714 67.4493 197.354 67.5757 198.525C67.5876 198.642 67.6344 198.754 67.71 198.843C67.7856 198.933 67.8861 198.998 67.9986 199.028C69.899 199.508 78.9402 201.555 85.1608 198.671C85.2513 198.629 85.3289 198.564 85.3866 198.482C85.4443 198.4 85.4802 198.304 85.4901 198.204C85.5667 197.484 85.2961 196.002 85.1886 195.714C84.9648 195.092 68.6592 196.181 68.6592 196.181Z" fill="black"/>
<path fill-rule="evenodd" clip-rule="evenodd" d="M77.2253 197.486C82.02 197.486 85.9064 196.592 85.9064 195.491C85.9064 194.389 82.02 193.495 77.2253 193.495C72.4315 193.495 68.5452 194.389 68.5452 195.491C68.5452 196.592 72.4315 197.486 77.2253 197.486Z" fill="#FBD56F"/>
<path opacity="0.1" fill-rule="evenodd" clip-rule="evenodd" d="M88.7913 195.522C88.7913 195.522 84.8294 197.428 84.4831 198.268C84.1369 199.107 88.7913 195.522 88.7913 195.522Z" fill="black"/>
<path opacity="0.1" fill-rule="evenodd" clip-rule="evenodd" d="M88.5717 197.548C88.5717 197.548 84.9818 199.097 84.5003 199.485C84.0197 199.872 88.5717 197.548 88.5717 197.548Z" fill="black"/>
<path opacity="0.1" fill-rule="evenodd" clip-rule="evenodd" d="M87.073 200.904C87.073 200.904 85.487 202.109 84.6114 201.162C83.7349 200.215 87.073 200.904 87.073 200.904Z" fill="black"/>
<path fill-rule="evenodd" clip-rule="evenodd" d="M50.6067 230.919C54.9876 230.919 58.5376 227.078 58.5376 222.337C58.5376 217.598 54.9876 213.757 50.6067 213.757C46.2269 213.757 42.676 217.598 42.676 222.337C42.676 227.078 46.2269 230.919 50.6067 230.919Z" fill="#FBD56F"/>
<path opacity="0.1" fill-rule="evenodd" clip-rule="evenodd" d="M50.6067 230.919C54.9876 230.919 58.5376 227.078 58.5376 222.337C58.5376 217.598 54.9876 213.757 50.6067 213.757C46.2269 213.757 42.676 217.598 42.676 222.337C42.676 227.078 46.2269 230.919 50.6067 230.919Z" fill="black"/>
<path fill-rule="evenodd" clip-rule="evenodd" d="M51.6019 230.536C55.9828 230.536 59.5328 226.78 59.5328 222.146C59.5328 217.513 55.9828 213.757 51.6019 213.757C47.2221 213.757 43.671 217.513 43.671 222.146C43.671 226.78 47.2221 230.536 51.6019 230.536Z" fill="#FBD56F"/>
<defs>
<linearGradient id="paint0_linear_8_201" x1="196.154" y1="187.533" x2="196.154" y2="90.1555" gradientUnits="userSpaceOnUse">
<stop stop-color="#808080" stop-opacity="0.25"/>
<stop offset="0.54" stop-color="#808080" stop-opacity="0.12"/>
<stop offset="1" stop-color="#808080" stop-opacity="0.1"/>
</linearGradient>
</defs>
</svg>
