<svg width="213" height="209" viewBox="0 0 213 209" fill="none" xmlns="http://www.w3.org/2000/svg">
<path opacity="0.1" fill-rule="evenodd" clip-rule="evenodd" d="M121.845 43.5947C109.91 43.1806 98.5425 39.339 87.6874 35.1342C76.8322 30.9302 66.0809 26.2711 54.4316 24.0439C46.9383 22.611 38.3684 22.4089 32.3326 26.4149C26.5216 30.2771 24.6442 36.926 23.6355 43.1018C22.8757 47.7477 22.4294 52.6385 24.5096 56.9863C25.9555 60.0063 28.5189 62.5442 30.293 65.4369C36.4654 75.5011 32.1021 87.9125 25.4151 97.7393C22.28 102.35 18.6378 106.752 16.2164 111.655C13.7949 116.558 12.6755 122.184 14.7945 127.191C16.8931 132.156 21.8964 135.879 27.3164 138.5C38.3247 143.824 51.2905 145.347 63.944 146.21C91.9439 148.121 120.091 147.293 148.166 146.466C158.555 146.158 168.99 145.848 179.21 144.246C184.887 143.355 190.746 141.945 194.867 138.535C200.098 134.207 201.394 126.879 197.888 121.452C192.009 112.35 175.758 110.09 171.644 100.321C169.382 94.9435 171.705 88.9551 174.992 83.9673C182.045 73.2705 193.864 63.885 194.486 51.6576C194.913 43.2603 189.232 34.8491 180.446 30.8752C171.238 26.7107 158.467 27.2332 151.677 34.1286C144.678 41.2278 132.385 43.9587 121.845 43.5947Z" fill="#FA7268"/>
<path opacity="0.1" fill-rule="evenodd" clip-rule="evenodd" d="M113.549 172.667C144.509 172.667 169.606 169.28 169.606 165.104C169.606 160.927 144.509 157.541 113.549 157.541C82.589 157.541 57.4912 160.927 57.4912 165.104C57.4912 169.28 82.589 172.667 113.549 172.667Z" fill="#B643D5"/>
<path fill-rule="evenodd" clip-rule="evenodd" d="M144.141 74.7673H143.351C143.117 74.7673 142.929 74.9555 142.929 75.188V87.776C142.929 88.0085 143.117 88.1975 143.351 88.1975H144.141C144.374 88.1975 144.562 88.0085 144.562 87.776V75.188C144.562 74.9555 144.374 74.7673 144.141 74.7673Z" fill="#3A3768"/>
<path fill-rule="evenodd" clip-rule="evenodd" d="M89.1251 64.2447H89.0526C88.8195 64.2447 88.6309 64.4337 88.6309 64.6662V68.2449C88.6309 68.4774 88.8195 68.6664 89.0526 68.6664H89.1251C89.3583 68.6664 89.5469 68.4774 89.5469 68.2449V64.6662C89.5469 64.4337 89.3583 64.2447 89.1251 64.2447Z" fill="#3A3768"/>
<path fill-rule="evenodd" clip-rule="evenodd" d="M89.2066 72.3412H89.0188C88.7857 72.3412 88.5962 72.5294 88.5962 72.7619V79.6154C88.5962 79.8479 88.7857 80.036 89.0188 80.036H89.2066C89.4398 80.036 89.6292 79.8479 89.6292 79.6154V72.7619C89.6292 72.5294 89.4398 72.3412 89.2066 72.3412Z" fill="#3A3768"/>
<path fill-rule="evenodd" clip-rule="evenodd" d="M89.1744 82.7283H89.036C88.8029 82.7283 88.6143 82.9173 88.6143 83.1498V90.069C88.6143 90.3015 88.8029 90.4897 89.036 90.4897H89.1744C89.4076 90.4897 89.597 90.3015 89.597 90.069V83.1498C89.597 82.9173 89.4076 82.7283 89.1744 82.7283Z" fill="#3A3768"/>
<path fill-rule="evenodd" clip-rule="evenodd" d="M136.62 49.6339H96.3395C92.3688 49.6339 89.1494 52.8446 89.1494 56.8054V153.255C89.1494 157.216 92.3688 160.426 96.3395 160.426H136.62C140.591 160.426 143.811 157.216 143.811 153.255V56.8054C143.811 52.8446 140.591 49.6339 136.62 49.6339Z" fill="#3A3768"/>
<path fill-rule="evenodd" clip-rule="evenodd" d="M136.099 52.5127H129.829V53.2653C129.829 53.7328 129.737 54.1969 129.557 54.6291C129.377 55.062 129.114 55.4548 128.781 55.7859C128.449 56.1169 128.056 56.3798 127.622 56.5581C127.188 56.7372 126.723 56.8292 126.253 56.8292H106.312C105.843 56.8292 105.378 56.7372 104.944 56.5581C104.51 56.3798 104.116 56.1169 103.784 55.7859C103.452 55.4548 103.189 55.062 103.009 54.6291C102.829 54.1969 102.736 53.7328 102.736 53.2653V52.5127H96.8668C95.7151 52.5127 94.6112 52.9687 93.7965 53.7804C92.9826 54.5929 92.5254 55.6938 92.5254 56.8424V153.211C92.5254 154.36 92.9826 155.461 93.7965 156.273C94.6112 157.084 95.7151 157.541 96.8668 157.541H136.099C137.251 157.541 138.355 157.084 139.17 156.273C139.983 155.461 140.441 154.36 140.441 153.211V56.8498C140.441 56.2804 140.33 55.7168 140.112 55.1902C139.894 54.6644 139.575 54.1863 139.172 53.7837C138.768 53.3803 138.29 53.0607 137.762 52.843C137.235 52.6253 136.67 52.5127 136.099 52.5127Z" fill="white"/>
<path fill-rule="evenodd" clip-rule="evenodd" d="M118.127 52.9424H111.921C111.526 52.9424 111.208 53.2612 111.208 53.6547V53.7755C111.208 54.169 111.526 54.4878 111.921 54.4878H118.127C118.52 54.4878 118.84 54.169 118.84 53.7755V53.6547C118.84 53.2612 118.52 52.9424 118.127 52.9424Z" fill="#E6E8EC"/>
<path fill-rule="evenodd" clip-rule="evenodd" d="M120.874 54.5929C121.36 54.5929 121.754 54.2002 121.754 53.7155C121.754 53.2316 121.36 52.8381 120.874 52.8381C120.388 52.8381 119.994 53.2316 119.994 53.7155C119.994 54.2002 120.388 54.5929 120.874 54.5929Z" fill="#E6E8EC"/>
<path fill-rule="evenodd" clip-rule="evenodd" d="M162.735 44.7752C162.735 44.7752 147.206 43.8411 149.036 54.6923C149.036 54.6923 148.667 56.6107 150.416 57.4807C150.416 57.4807 150.443 56.6764 152.009 56.9508C152.567 57.0428 153.133 57.0699 153.696 57.0322C154.457 56.982 155.181 56.6871 155.758 56.1909C155.758 56.1909 160.124 54.3925 161.82 47.2785C161.82 47.2785 163.076 45.7257 163.026 45.3273L160.405 46.4438C160.405 46.4438 161.302 48.3285 160.59 49.896C160.59 49.896 160.505 46.5112 160.002 46.5851C159.9 46.5999 158.641 47.2382 158.641 47.2382C158.641 47.2382 160.18 50.5212 159.019 52.9079C159.019 52.9079 159.46 48.8617 158.16 47.4749L156.315 48.5495C156.315 48.5495 158.115 51.9409 156.894 54.7088C156.894 54.7088 157.208 50.4637 155.926 48.8107L154.256 50.1104C154.256 50.1104 155.946 53.4526 154.916 55.748C154.916 55.748 154.781 50.808 153.894 50.4341C153.894 50.4341 152.431 51.7224 152.209 52.2482C152.209 52.2482 153.366 54.6759 152.647 55.9559C152.647 55.9559 152.206 52.6639 151.845 52.645C151.845 52.645 150.388 54.8262 150.237 56.324C150.237 56.324 150.3 54.1 151.493 52.4396C151.493 52.4396 150.084 52.6803 149.261 53.5906C149.261 53.5906 149.488 52.0493 151.853 51.913C151.853 51.913 153.056 50.2583 153.377 50.1589C153.377 50.1589 151.028 49.9617 149.602 50.5927C149.602 50.5927 150.857 49.1377 153.809 49.7999L155.459 48.4558C155.459 48.4558 152.365 48.0343 151.052 48.4994C151.052 48.4994 152.562 47.212 155.904 48.1502L157.7 47.0797C157.7 47.0797 155.061 46.5136 153.49 46.7116C153.49 46.7116 155.149 45.8202 158.228 46.7872L159.519 46.2121C159.519 46.2121 157.585 45.8325 157.019 45.7717C156.454 45.7118 156.424 45.5573 156.424 45.5573C157.648 45.3536 158.905 45.4924 160.055 45.9599C160.055 45.9599 162.781 44.9461 162.735 44.7752Z" fill="#FA7268"/>
<path fill-rule="evenodd" clip-rule="evenodd" d="M146.807 39.9485C146.807 39.9485 139.799 39.5278 140.618 44.431C140.618 44.431 140.454 45.2969 141.241 45.6904C141.241 45.6904 141.254 45.3232 141.962 45.4497C142.214 45.4916 142.47 45.5047 142.723 45.4867C143.068 45.4637 143.395 45.3297 143.655 45.1038C143.655 45.1038 145.628 44.2913 146.396 41.0765C146.396 41.0765 146.962 40.3757 146.94 40.195L145.756 40.6994C145.756 40.6994 146.159 41.5505 145.842 42.2587C145.842 42.2587 145.804 40.7306 145.577 40.7651C145.531 40.7651 144.961 41.0617 144.961 41.0617C144.961 41.0617 145.658 42.5455 145.132 43.6234C145.132 43.6234 145.332 41.7954 144.743 41.1677L143.91 41.6606C143.91 41.6606 144.723 43.1929 144.172 44.4441C144.172 44.4441 144.313 42.5257 143.734 41.7789L142.98 42.3672C142.98 42.3672 143.743 43.8772 143.279 44.9149C143.279 44.9149 143.216 42.6818 142.816 42.5126C142.816 42.5126 142.156 43.0934 142.055 43.3325C142.055 43.3325 142.578 44.4367 142.254 45.0085C142.254 45.0085 142.055 43.5207 141.885 43.5133C141.885 43.5133 141.227 44.4991 141.158 45.1687C141.191 44.5443 141.387 43.9397 141.726 43.4139C141.346 43.4853 140.996 43.6661 140.717 43.9339C140.717 43.9339 140.82 43.2372 141.888 43.1764C141.888 43.1764 142.442 42.428 142.578 42.382C142.578 42.382 141.516 42.2941 140.872 42.5791C140.872 42.5791 141.438 41.9219 142.772 42.2201L143.509 41.613C143.509 41.613 142.11 41.4289 141.517 41.6335C141.517 41.6335 142.2 41.0518 143.71 41.475L144.522 40.9919C144.522 40.9919 143.329 40.7355 142.619 40.8276C142.619 40.8276 143.369 40.425 144.76 40.8612L145.341 40.6016C145.341 40.6016 144.467 40.4307 144.21 40.4028C143.954 40.3757 143.941 40.3059 143.941 40.3059C144.495 40.2138 145.063 40.2771 145.582 40.4891C145.582 40.4891 146.829 40.0257 146.807 39.9485Z" fill="#FA7268"/>
<path fill-rule="evenodd" clip-rule="evenodd" d="M72.1167 139.846C72.1167 139.846 79.1247 139.425 78.3058 144.329C78.3058 144.329 78.4698 145.195 77.6822 145.588C77.6822 145.588 77.6699 145.22 76.9614 145.347C76.7102 145.389 76.454 145.402 76.1994 145.384C75.8559 145.361 75.5288 145.227 75.2685 145.002C75.2685 145.002 73.2947 144.188 72.5277 140.973C72.5277 140.973 71.9618 140.273 71.984 140.093L73.1678 140.596C73.1678 140.596 72.7642 141.448 73.0813 142.156C73.0813 142.156 73.1201 140.627 73.3466 140.663C73.3927 140.663 73.9628 140.959 73.9628 140.959C73.9628 140.959 73.2659 142.443 73.7914 143.521C73.7914 143.521 73.5921 141.693 74.1803 141.065L75.014 141.558C75.014 141.558 74.2009 143.091 74.752 144.341C74.752 144.341 74.6103 142.423 75.1894 141.676L75.9432 142.265C75.9432 142.265 75.1795 143.775 75.6442 144.812C75.6442 144.812 75.7076 142.58 76.1071 142.41C76.1071 142.41 76.7678 142.991 76.8691 143.23C76.8691 143.23 76.3452 144.334 76.6698 144.906C76.6698 144.906 76.8691 143.418 77.0388 143.411C77.0388 143.411 77.6971 144.396 77.7654 145.066C77.7325 144.442 77.5364 143.837 77.197 143.312C77.5776 143.383 77.9277 143.564 78.2062 143.832C78.2062 143.832 78.1032 143.135 77.0347 143.074C77.0347 143.074 76.482 142.326 76.3452 142.28C76.3452 142.28 77.4079 142.191 78.0513 142.476C78.0513 142.476 77.4853 141.82 76.1516 142.118L75.4143 141.511C75.4143 141.511 76.814 141.327 77.4054 141.531C77.4054 141.531 76.7233 140.95 75.2133 141.373L74.4019 140.889C74.4019 140.889 75.5947 140.633 76.3048 140.725C76.3048 140.725 75.5544 140.323 74.1638 140.758L73.583 140.499C73.583 140.499 74.4571 140.328 74.7133 140.3C74.9695 140.273 74.9827 140.203 74.9827 140.203C74.4291 140.112 73.8606 140.175 73.3408 140.387C73.3408 140.387 72.0944 139.923 72.1167 139.846Z" fill="#FA7268"/>
<path fill-rule="evenodd" clip-rule="evenodd" d="M66.3724 111.008C66.3724 111.008 56.4588 110.435 57.6171 117.095C57.6171 117.095 57.3848 118.272 58.4994 118.807C58.4994 118.807 58.5175 118.306 59.5192 118.479C59.8751 118.536 60.2367 118.553 60.5967 118.529C61.0828 118.499 61.5458 118.315 61.914 118.01C61.914 118.01 64.705 116.906 65.7908 112.538C65.7908 112.538 66.5915 111.587 66.5602 111.342L64.8854 112.026C64.8854 112.026 65.4563 113.183 65.0082 114.145C65.0082 114.145 64.953 112.069 64.6325 112.117C64.5666 112.117 63.7609 112.518 63.7609 112.518C63.7609 112.518 64.747 114.534 64.0031 115.999C64.0031 115.999 64.2849 113.515 63.4528 112.663L62.274 113.333C62.274 113.333 63.424 115.414 62.6447 117.113C62.6447 117.113 62.8449 114.507 62.026 113.493L60.9592 114.292C60.9592 114.292 62.0392 116.343 61.3818 117.752C61.3818 117.752 61.2929 114.719 60.7269 114.489C60.7269 114.489 59.7927 115.279 59.6494 115.603C59.6494 115.603 60.3908 117.103 59.9311 117.879C59.9311 117.879 59.6494 115.859 59.4097 115.848C59.4097 115.848 58.4779 117.187 58.3816 118.097C58.4285 117.249 58.7053 116.427 59.1848 115.713C58.6476 115.811 58.1517 116.057 57.7579 116.421C57.7579 116.421 57.9046 115.474 59.4146 115.391C59.4146 115.391 60.1972 114.374 60.3908 114.312C60.3908 114.312 58.8874 114.192 57.9771 114.58C57.9771 114.58 58.7778 113.687 60.6643 114.092L61.708 113.268C61.708 113.268 59.7276 113.018 58.8907 113.296C58.8907 113.296 59.8553 112.506 61.9923 113.08L63.1398 112.424C63.1398 112.424 61.4518 112.076 60.4476 112.201C60.4476 112.201 61.5095 111.654 63.4767 112.246L64.2981 111.894C64.2981 111.894 63.0615 111.661 62.6991 111.625C62.3366 111.587 62.3185 111.491 62.3185 111.491C63.1011 111.367 63.9051 111.454 64.6399 111.741C64.6399 111.741 66.4037 111.112 66.3724 111.008Z" fill="#FA7268"/>
<path opacity="0.1" fill-rule="evenodd" clip-rule="evenodd" d="M41.1837 171.401C43.9265 171.401 46.15 171.026 46.15 170.564C46.15 170.102 43.9265 169.727 41.1837 169.727C38.4409 169.727 36.2173 170.102 36.2173 170.564C36.2173 171.026 38.4409 171.401 41.1837 171.401Z" fill="#6C63FF"/>
<path opacity="0.1" fill-rule="evenodd" clip-rule="evenodd" d="M60.3936 175.891C63.1368 175.891 65.3602 175.516 65.3602 175.054C65.3602 174.592 63.1368 174.217 60.3936 174.217C57.6512 174.217 55.4277 174.592 55.4277 175.054C55.4277 175.516 57.6512 175.891 60.3936 175.891Z" fill="#6C63FF"/>
<path fill-rule="evenodd" clip-rule="evenodd" d="M172.882 173.915C176.977 173.915 180.297 173.355 180.297 172.665C180.297 171.974 176.977 171.414 172.882 171.414C168.786 171.414 165.466 171.974 165.466 172.665C165.466 173.355 168.786 173.915 172.882 173.915Z" fill="#417505"/>
<path fill-rule="evenodd" clip-rule="evenodd" d="M175.948 170.619C176.287 170.344 176.533 169.972 176.655 169.554C176.747 169.133 176.566 168.635 176.161 168.471C175.707 168.298 175.221 168.613 174.855 168.929C174.487 169.245 174.066 169.607 173.584 169.539C173.832 169.316 174.017 169.032 174.122 168.716C174.227 168.4 174.249 168.062 174.183 167.735C174.162 167.6 174.104 167.472 174.015 167.367C173.765 167.098 173.308 167.213 173.007 167.426C172.048 168.097 171.78 169.398 171.775 170.565C171.677 170.145 171.76 169.705 171.757 169.278C171.753 168.852 171.636 168.359 171.27 168.133C171.043 168.011 170.789 167.952 170.532 167.959C170.101 167.943 169.621 167.987 169.326 168.302C168.957 168.691 169.057 169.346 169.374 169.773C169.691 170.2 170.176 170.473 170.622 170.77C170.98 170.982 171.284 171.272 171.514 171.618C171.541 171.666 171.563 171.717 171.579 171.771H174.274C174.881 171.463 175.445 171.076 175.948 170.619Z" fill="#417505"/>
<path fill-rule="evenodd" clip-rule="evenodd" d="M76.3865 164.569C80.4816 164.569 83.8015 164.009 83.8015 163.318C83.8015 162.627 80.4816 162.068 76.3865 162.068C72.2906 162.068 68.9707 162.627 68.9707 163.318C68.9707 164.009 72.2906 164.569 76.3865 164.569Z" fill="#417505"/>
<path fill-rule="evenodd" clip-rule="evenodd" d="M79.4526 161.273C79.7904 160.997 80.0367 160.626 80.1594 160.208C80.2509 159.786 80.0705 159.289 79.6652 159.125C79.2112 158.952 78.726 159.266 78.3594 159.583C77.992 159.899 77.5702 160.261 77.0883 160.193C77.3363 159.97 77.5216 159.686 77.6271 159.37C77.7317 159.054 77.7531 158.716 77.688 158.389C77.6666 158.253 77.6081 158.126 77.52 158.021C77.2696 157.752 76.8115 157.866 76.5117 158.08C75.5519 158.751 75.285 160.052 75.2793 161.219C75.1812 160.799 75.2644 160.359 75.2611 159.932C75.257 159.505 75.1409 159.013 74.7743 158.787C74.5477 158.665 74.2932 158.606 74.0362 158.613C73.6045 158.597 73.125 158.641 72.8301 158.956C72.4611 159.345 72.5607 160 72.8779 160.427C73.1951 160.854 73.6803 161.127 74.1268 161.424C74.4835 161.636 74.7883 161.926 75.0173 162.272C75.0453 162.32 75.0676 162.371 75.084 162.424H77.7778C78.3858 162.117 78.9493 161.73 79.4526 161.273Z" fill="#417505"/>
<path fill-rule="evenodd" clip-rule="evenodd" d="M62.5344 156.172C62.5344 156.637 62.4825 157.014 62.4182 157.014C62.3532 157.014 62.3021 156.637 62.3021 156.172C62.3021 155.707 62.3663 155.926 62.4314 155.926C62.4957 155.926 62.5344 155.707 62.5344 156.172Z" fill="#FFD037"/>
<path fill-rule="evenodd" clip-rule="evenodd" d="M63.1803 156.982C62.7709 157.205 62.4134 157.339 62.3837 157.282C62.3549 157.225 62.6589 156.999 63.0683 156.776C63.4777 156.554 63.3171 156.715 63.3467 156.776C63.3764 156.837 63.5898 156.76 63.1803 156.982Z" fill="#FFD037"/>
<path fill-rule="evenodd" clip-rule="evenodd" d="M76.4325 103.253C76.4588 103.277 76.4926 103.294 76.5289 103.299C76.5651 103.303 76.6022 103.296 76.6335 103.278C76.5659 103.279 76.4984 103.271 76.4325 103.253Z" fill="url(#paint0_linear_192_588)"/>
<path fill-rule="evenodd" clip-rule="evenodd" d="M98.5317 66.6527C98.1429 66.5385 97.5893 66.3528 96.9204 66.1195C97.6148 65.2142 98.1223 64.1806 98.4139 63.0789L98.3571 63.1011C98.3661 63.067 98.3758 63.0335 98.3855 63C98.3952 62.9665 98.4049 62.9331 98.4139 62.899C97.1337 63.4248 95.716 62.5309 94.8139 61.3889C94.422 60.8928 94.0845 60.3437 93.7472 59.7949C93.3081 59.0806 92.8693 58.3668 92.3112 57.7708C91.8993 57.3534 91.4561 56.9681 90.9858 56.6181C90.6941 56.3897 90.3786 56.1523 90.0227 56.1416C89.684 56.1319 89.3878 56.325 89.0881 56.5204C88.8791 56.6566 88.6683 56.794 88.4402 56.8646C88.0745 56.9475 87.693 56.9336 87.3339 56.8235C86.7857 56.6962 86.245 56.5279 85.7048 56.3599C84.8333 56.0887 83.9631 55.818 83.065 55.7201C82.2824 55.6224 81.4882 55.7127 80.7484 55.983C80.2729 56.1658 79.966 56.4641 79.6495 56.7717C79.4753 56.9411 79.2982 57.1132 79.0885 57.2704C78.5722 57.6594 77.6437 57.7277 76.9079 57.7818C76.7315 57.7948 76.5662 57.8069 76.4202 57.8225C75.5058 57.9277 74.5848 57.9663 73.6646 57.9384C73.1357 57.8907 72.6028 57.9104 72.0788 57.9975C70.9832 58.2399 70.1042 59.1189 69.2829 59.9652C69.058 60.1582 68.8965 60.4146 68.8207 60.7013C68.81 60.7818 68.81 60.8631 68.8207 60.9436C68.8116 61.1638 68.8495 61.3832 68.9311 61.5878C69.1791 62.3477 69.5325 63.0699 69.9823 63.732C70.0541 63.8361 70.1285 63.9388 70.2029 64.0416C70.4757 64.4184 70.7494 64.7965 70.9041 65.247C70.9947 65.5296 71.0425 65.8246 71.0466 66.1212C71.0359 66.4358 71.0029 66.7505 70.9486 67.061C70.8036 67.9171 70.5655 68.7551 70.2385 69.5602C70.2168 69.6138 70.1947 69.6674 70.1726 69.721L70.1724 69.7216C70.0185 70.0951 69.8636 70.471 69.8233 70.8789C69.8183 70.9725 69.8183 71.0654 69.8233 71.159C69.7928 71.9546 70.2193 72.6279 70.6532 73.313C71.0044 73.8675 71.3605 74.4296 71.4832 75.0705C71.5055 75.1888 71.5186 75.3088 71.5236 75.4295C71.4923 76.3234 70.9889 77.1967 70.2475 77.5426C70.2947 77.5611 70.3424 77.5778 70.3905 77.5947L70.3905 77.5947L70.4452 77.6141C70.381 77.6543 70.3151 77.6913 70.2475 77.725C70.3826 77.7759 70.521 77.8203 70.6611 77.8605C69.8126 78.6016 69.1008 79.484 68.5563 80.469C66.0742 85.1643 49.1559 94.3749 49.1559 94.3749C49.1559 94.3749 49.2514 94.4283 49.4063 94.5203C49.3523 94.5536 49.2958 94.5913 49.2336 94.6326L49.2332 94.6329L49.2037 94.6526C47.7398 95.6384 44.302 98.5147 47.4094 102.142C47.4094 102.142 49.8347 98.2707 51.5334 96.6243C51.6108 96.5512 51.6841 96.483 51.7558 96.4181C51.7945 96.4764 51.8192 96.5413 51.8308 96.6104C51.8423 96.6785 51.8398 96.7484 51.8225 96.8157L62.9487 90.4946C62.9487 90.4946 66.9021 87.6947 68.0052 87.0621C68.0393 87.0426 68.0781 87.02 68.1214 86.9948C68.5603 86.7396 69.4569 86.2182 70.5111 85.9752L70.3826 86.0327C70.7978 85.9168 71.227 85.8544 71.6587 85.8486C73.6284 85.8799 75.7604 87.3381 76.4647 93.1154C77.4071 100.851 76.9697 102.245 76.6674 102.436C76.6295 102.434 76.5924 102.427 76.557 102.416C76.566 102.425 76.5759 102.432 76.5858 102.438C76.5446 102.435 76.5042 102.428 76.4647 102.416C76.4853 102.436 76.5117 102.451 76.5405 102.457C76.5685 102.465 76.5982 102.464 76.627 102.457C76.6476 102.462 76.669 102.464 76.6896 102.462C76.711 102.459 76.7316 102.453 76.7506 102.442H76.8997C76.8997 102.49 76.8946 102.54 76.8896 102.589L76.8896 102.589C76.8873 102.612 76.885 102.635 76.8832 102.657C76.8684 102.657 76.7942 102.699 76.8832 102.705C76.861 103.141 76.8626 103.624 76.8832 104.112C75.9037 104.167 74.9267 104.225 74.0691 104.279L74.1465 103.869L74.1811 103.685C74.9316 103.624 75.6459 103.402 75.7282 102.784C75.9128 101.43 74.0691 100.708 72.5105 100.617C70.9519 100.527 61.5688 101.16 61.5688 101.16C61.5688 101.16 60.1618 102.999 64.6226 103.571C64.7561 103.641 64.8937 103.719 65.0345 103.799C66.781 104.807 69.1519 106.661 70.2862 107.575L70.4452 107.702L69.9361 108.112C72.3231 108.658 74.6304 116.667 76.1624 121.986C76.4059 122.831 76.6298 123.608 76.8313 124.277C78.3009 129.153 81.5212 128.973 84.1878 128.251C86.6864 127.573 87.006 120.236 87.0357 119.314V119.221L91.4776 124.759L91.8153 125.18C91.9463 125.248 92.0732 125.313 92.1992 125.373C95.5644 126.994 99.2822 123.889 98.2236 120.358C97.156 116.79 95.496 111.517 94.3897 109.287C93.4678 107.421 92.2676 104.322 91.541 102.375C91.6349 102.337 91.7263 102.293 91.8153 102.243C91.8153 102.243 91.7988 102.157 91.7692 101.997L91.8153 101.973C91.8153 101.973 90.746 96.354 90.6867 92.3645V92.155V92.0244C91.4907 91.8403 91.9998 91.7672 91.9998 91.7672L92.0147 91.5939L91.9208 91.6144L92.3664 86.4385C92.3664 86.4385 94.0083 82.9091 92.752 81.4376C92.3697 81.0063 92.1143 80.4772 92.0147 79.9095C91.8046 78.5556 92.0147 76.3028 94.9416 74.4289C99.447 71.5394 101.195 69.1905 101.195 69.1905C101.195 69.1905 101.291 67.4652 98.5317 66.6527ZM89.5837 70.243V67.8514C89.9765 67.8325 90.3736 67.844 90.7712 67.8557H90.7713C91.2191 67.8687 91.6677 67.8818 92.1119 67.8514C92.5246 67.8226 92.934 67.7536 93.3327 67.646L93.5362 67.7873C92.3079 68.7411 90.9841 69.5644 89.5837 70.243ZM77.7993 108.441C77.473 108.2 77.141 107.959 76.8115 107.728C77.3585 108.61 77.8215 109.542 78.1947 110.51C78.1815 110.454 78.0027 109.62 77.7993 108.441Z" fill="url(#paint1_linear_192_588)"/>
<path fill-rule="evenodd" clip-rule="evenodd" d="M84.0338 106.217L83.8345 107.295L83.6812 108.119L83.4028 109.627L80.7032 111.512C80.7032 111.512 80.4594 111.304 80.0574 110.977C78.951 110.068 76.6254 108.218 74.9177 107.225C74.4786 106.946 74.0033 106.727 73.5049 106.576L84.0338 106.217Z" fill="#FFBDC6"/>
<path opacity="0.1" fill-rule="evenodd" clip-rule="evenodd" d="M84.0338 106.217L83.8345 107.295C83.2388 107.327 82.6416 107.296 82.0526 107.203L75.753 107.293C75.4565 107.274 75.178 107.252 74.9177 107.225C74.4786 106.946 74.0033 106.727 73.5049 106.576L84.0338 106.217Z" fill="black"/>
<path fill-rule="evenodd" clip-rule="evenodd" d="M82.0519 107.02C82.0519 107.02 85.2004 107.559 85.3849 106.218C85.5686 104.877 83.7637 104.152 82.2347 104.062C80.7058 103.972 71.5254 104.601 71.5254 104.601C71.5254 104.601 69.9066 106.754 75.7539 107.115L82.0519 107.02Z" fill="#474463"/>
<path opacity="0.1" fill-rule="evenodd" clip-rule="evenodd" d="M84.0338 106.217L83.8345 107.295L83.6812 108.119L83.4028 109.627L80.7032 111.512C80.7032 111.512 80.4594 111.304 80.0574 110.977C78.951 110.068 76.6254 108.218 74.9177 107.225C74.4786 106.946 74.0033 106.727 73.5049 106.576L84.0338 106.217Z" fill="black"/>
<path opacity="0.1" fill-rule="evenodd" clip-rule="evenodd" d="M84.0338 106.217L83.8345 107.295C83.2388 107.327 82.6416 107.296 82.0526 107.203L75.753 107.293C75.4565 107.274 75.178 107.252 74.9177 107.225C74.4786 106.946 74.0033 106.727 73.5049 106.576L84.0338 106.217Z" fill="black"/>
<path opacity="0.1" fill-rule="evenodd" clip-rule="evenodd" d="M82.0527 107.016C82.0527 107.016 85.2029 107.554 85.3833 106.207C85.5646 104.861 83.7621 104.143 82.234 104.053C80.705 103.963 71.5246 104.592 71.5246 104.592C71.5246 104.592 69.905 106.746 75.7532 107.104L82.0527 107.016Z" fill="black"/>
<path fill-rule="evenodd" clip-rule="evenodd" d="M88.9353 62.7749H72.4668V82.2502H88.9353V62.7749Z" fill="#474463"/>
<path opacity="0.1" fill-rule="evenodd" clip-rule="evenodd" d="M88.9353 62.8636H72.4668V82.3389H88.9353V62.8636Z" fill="black"/>
<path fill-rule="evenodd" clip-rule="evenodd" d="M53.1681 96.1149C52.8971 96.1823 52.5503 96.4436 52.1647 96.8223C50.5048 98.4613 48.1281 102.307 48.1281 102.307C45.0887 98.6971 48.4527 95.8438 49.8853 94.8637C50.2338 94.6263 50.4685 94.4965 50.4685 94.4965L53.1681 96.1149Z" fill="#FFBDC6"/>
<path fill-rule="evenodd" clip-rule="evenodd" d="M83.8526 68.9219C83.8526 68.9219 84.6624 74.5751 87.4526 75.9216C90.2428 77.2682 83.8526 79.7838 83.8526 79.7838L75.1245 76.551C75.1245 76.551 80.0739 74.9341 79.0837 70.1781L83.8526 68.9219Z" fill="#FFBDC6"/>
<path fill-rule="evenodd" clip-rule="evenodd" d="M74.4926 102.936L74.2948 104.01L74.135 104.838L73.8566 106.346L71.1562 108.23C71.1562 108.23 70.9132 108.024 70.5111 107.697C69.4048 106.788 67.0792 104.938 65.369 103.944C64.9299 103.664 64.4554 103.447 63.957 103.295L74.4926 102.936Z" fill="#FFBDC6"/>
<path opacity="0.1" fill-rule="evenodd" clip-rule="evenodd" d="M74.492 102.936L74.2951 104.01C73.6995 104.043 73.1022 104.012 72.5132 103.918L66.2137 104.009C65.9171 103.99 65.6362 103.968 65.3767 103.94C64.9376 103.661 64.4623 103.443 63.9639 103.291L74.492 102.936Z" fill="black"/>
<path fill-rule="evenodd" clip-rule="evenodd" d="M72.5141 103.744C72.5141 103.744 75.6643 104.281 75.843 102.937C76.0218 101.592 74.2234 100.872 72.6928 100.781C71.1622 100.691 61.986 101.32 61.986 101.32C61.986 101.32 60.3647 103.474 66.2145 103.834L72.5141 103.744Z" fill="#474463"/>
<path opacity="0.1" fill-rule="evenodd" clip-rule="evenodd" d="M74.1351 104.838L73.8567 106.346L71.1571 108.229C71.1571 108.229 70.9132 108.024 70.5112 107.696L74.0816 104.775L74.1351 104.838Z" fill="black"/>
<path fill-rule="evenodd" clip-rule="evenodd" d="M91.9669 125.383C91.8433 125.322 91.7198 125.26 91.5987 125.199L91.2667 124.782L86.9121 119.276C86.9121 119.276 86.9121 119.309 86.9121 119.371C86.8824 120.29 86.5694 127.578 84.1236 128.251C81.5146 128.968 78.366 129.149 76.9318 124.302C75.4968 119.456 72.8746 108.866 70.1816 108.236L74.1878 104.961C74.1878 104.961 76.8396 108.055 77.9204 111.016C77.8792 110.832 76.0479 102.298 77.5513 100.788H90.6909C90.6909 100.788 92.7199 106.55 94.1104 109.405C95.1929 111.62 96.8174 116.86 97.8628 120.407C98.8992 123.909 95.2604 127 91.9669 125.383Z" fill="#002D51"/>
<path opacity="0.1" fill-rule="evenodd" clip-rule="evenodd" d="M91.5915 102.397C89.5633 103.595 80.658 103.107 77.7608 102.913L76.9707 102.856C76.8867 102.856 76.9839 102.807 76.9839 102.807L77.0655 101.993L79.2246 96.52L90.7874 89.8324C90.5535 90.5365 90.476 91.6144 90.4942 92.8484C90.5477 96.8141 91.5915 102.397 91.5915 102.397Z" fill="black"/>
<path fill-rule="evenodd" clip-rule="evenodd" d="M91.592 102.127C89.563 103.325 80.6578 102.837 77.7605 102.642L76.9713 102.587L76.8403 102.577L76.9837 102.54L77.6954 102.356L79.2244 96.253L90.788 89.567C90.5532 90.272 90.4758 91.3498 90.4947 92.5838C90.5483 96.5454 91.592 102.127 91.592 102.127Z" fill="#F6F6F6"/>
<path opacity="0.1" fill-rule="evenodd" clip-rule="evenodd" d="M90.4883 92.5797C88.1372 93.1211 82.9621 94.7084 80.9743 98.5394C79.6479 101.09 78.5325 102.185 77.754 102.642L76.9648 102.587C76.9698 102.572 76.9747 102.555 76.978 102.54L77.6898 102.356L79.2187 96.253L90.7815 89.567C90.5492 90.2678 90.4701 91.3457 90.4883 92.5797Z" fill="black"/>
<path opacity="0.1" fill-rule="evenodd" clip-rule="evenodd" d="M50.4677 94.4998L53.1673 96.115C52.8962 96.1831 52.5494 96.4444 52.1647 96.8231C51.939 96.1684 50.527 95.254 49.8853 94.8645C50.2337 94.6304 50.4677 94.4998 50.4677 94.4998Z" fill="black"/>
<path opacity="0.1" fill-rule="evenodd" clip-rule="evenodd" d="M76.4828 102.692C76.4531 102.707 76.4201 102.713 76.3864 102.708C76.3534 102.704 76.3229 102.689 76.299 102.666C76.3584 102.683 76.421 102.692 76.4828 102.692Z" fill="black"/>
<path fill-rule="evenodd" clip-rule="evenodd" d="M82.5913 75.5634C82.5913 75.5634 80.1611 75.8321 78.4517 74.037C78.4517 74.037 71.2592 76.1024 68.8232 80.7681C66.3864 85.4346 49.8281 94.5901 49.8281 94.5901C49.8281 94.5901 52.7081 96.2045 52.4371 97.0121L63.3277 90.7296C63.3277 90.7296 67.2003 87.9486 68.2754 87.3192C69.3504 86.6907 75.2958 82.8318 76.5553 93.3315C77.8149 103.832 76.5553 102.576 76.5553 102.576C76.5553 102.576 78.3553 103.205 80.9651 98.1779C83.5749 93.1516 91.672 91.9858 91.672 91.9858L92.1226 86.6924C92.1226 86.6924 93.7282 83.1827 92.4908 81.726C92.116 81.2955 91.8672 80.7697 91.77 80.2069C91.5657 78.8629 91.77 76.6224 94.636 74.7616C99.045 71.8886 100.755 69.5561 100.755 69.5561C100.755 69.5561 100.845 67.8497 98.1454 67.0421C95.4458 66.2345 84.4671 61.8375 84.4671 61.8375L84.098 63.364L92.7602 69.4608C92.7602 69.4608 88.4411 72.955 85.0149 72.8703C85.0149 72.8703 85.6509 75.4731 82.5913 75.5634Z" fill="#FA7268"/>
<path opacity="0.1" fill-rule="evenodd" clip-rule="evenodd" d="M84.2595 71.3825C84.047 70.6636 83.8806 69.9308 83.762 69.1905L78.993 70.4467C79.2031 71.3545 79.1652 72.3018 78.8843 73.1907C79.8588 73.4504 80.8894 73.4167 81.8458 73.0954C82.8014 72.7742 83.6417 72.1778 84.2595 71.3825Z" fill="black"/>
<path fill-rule="evenodd" clip-rule="evenodd" d="M80.2979 73.0955C83.1301 73.0955 85.426 70.8057 85.426 67.9804C85.426 65.1558 83.1301 62.8661 80.2979 62.8661C77.4649 62.8661 75.1689 65.1558 75.1689 67.9804C75.1689 70.8057 77.4649 73.0955 80.2979 73.0955Z" fill="#FFBDC6"/>
<path opacity="0.1" fill-rule="evenodd" clip-rule="evenodd" d="M83.0262 56.347C84.4497 56.5072 85.8016 57.1176 87.2029 57.4503C87.553 57.5596 87.9262 57.5744 88.2837 57.4931C88.8282 57.3238 89.2706 56.7569 89.8349 56.7742C90.1817 56.7742 90.4898 57.0207 90.7757 57.2466C91.2345 57.5958 91.6654 57.9794 92.0665 58.3943C93.0329 59.441 93.6318 60.8492 94.5132 61.9879C95.3947 63.1265 96.7852 64.0114 98.0374 63.4889C97.1856 66.7998 94.3954 69.3212 91.3762 69.5266C90.1726 69.6079 88.9386 69.3581 87.7729 69.7106C87.4821 69.8289 87.1765 69.9028 86.8635 69.9316C86.1929 69.9316 85.6525 69.3171 85.2332 68.7198C84.2528 67.3141 83.476 65.7178 82.3713 64.4361C82.0022 64.013 81.5763 63.6104 81.0598 63.5332C80.5441 63.456 80.0696 63.7 79.6108 63.9374C78.8529 64.3293 78.0785 64.736 77.4895 65.4089C76.9013 66.0817 76.5306 67.0824 76.7744 67.9837C76.9054 68.4733 77.2036 68.9145 77.2094 69.4255C77.2209 70.2405 76.4976 70.8386 76.3559 71.6331C76.3238 71.9666 76.3123 72.3018 76.3205 72.637C76.2579 73.7256 75.5445 74.6178 74.799 75.3022C74.5082 75.5684 74.1869 75.8534 74.102 76.2659C74.0452 76.5452 74.102 76.8434 74.065 77.1269C73.9562 77.8326 73.2502 78.1916 72.625 78.2853C71.8943 78.3913 71.1487 78.3034 70.4633 78.0298C71.3374 77.6157 71.8761 76.4442 71.6735 75.3925C71.395 73.9359 69.927 72.8909 70.0523 71.4063C70.1215 70.952 70.2582 70.51 70.4584 70.0951C70.778 69.2949 71.0103 68.4626 71.1512 67.6123C71.2624 66.9542 71.3151 66.2567 71.1092 65.6315C70.9247 65.0597 70.5391 64.607 70.2129 64.1256C69.7697 63.4691 69.4204 62.7544 69.1741 62.0026C69.0843 61.7808 69.0505 61.5401 69.0752 61.3018C69.1469 61.0168 69.3043 60.7596 69.5267 60.5665C70.3291 59.7261 71.1866 58.8503 72.2617 58.6112C72.7741 58.5249 73.2964 58.5044 73.8145 58.5504C74.7149 58.58 75.617 58.5414 76.5125 58.4362C77.2498 58.3499 78.497 58.3631 79.1222 57.8849C79.7047 57.438 80.0334 56.8802 80.7501 56.5975C81.4775 56.3305 82.2584 56.2451 83.0262 56.347Z" fill="black"/>
<path opacity="0.1" fill-rule="evenodd" clip-rule="evenodd" d="M85.8765 109.174C85.8765 109.174 88.8454 115.008 87.9458 116.8L85.8765 109.174Z" fill="black"/>
<path opacity="0.1" fill-rule="evenodd" clip-rule="evenodd" d="M91.2604 124.775L86.9116 119.275C86.9116 119.275 86.9116 119.309 86.9116 119.371C86.9116 119.371 86.6611 117.591 87.489 118.188C89.3039 119.498 92.2061 121.644 92.2687 122.014C92.3321 122.384 91.6805 123.86 91.2604 124.775Z" fill="black"/>
<g opacity="0.1">
<path opacity="0.1" fill-rule="evenodd" clip-rule="evenodd" d="M85.1133 72.8712C85.1133 72.8712 85.4815 74.3861 84.2944 75.1444C86.12 74.8331 86.2007 73.415 86.1381 72.7989C85.7995 72.8531 85.456 72.8769 85.1133 72.8712Z" fill="black"/>
<path opacity="0.1" fill-rule="evenodd" clip-rule="evenodd" d="M50.9174 94.2294C50.9174 94.2294 67.4741 85.0755 69.9125 80.4099C71.6549 77.0603 75.8562 75.0524 78.0879 74.184C76.4609 74.7353 70.9802 76.8155 68.9223 80.7681C66.4929 85.4346 49.9272 94.5901 49.9272 94.5901L50.9174 94.2294Z" fill="black"/>
<path opacity="0.1" fill-rule="evenodd" clip-rule="evenodd" d="M88.336 72.1572C91.1542 71.2831 93.8464 69.1018 93.8464 69.1018L85.2007 62.9959L85.3984 62.1612L84.5704 61.8301L84.2104 63.3566L92.8504 69.4592C91.4656 70.5445 89.949 71.4515 88.336 72.1572Z" fill="black"/>
<path opacity="0.1" fill-rule="evenodd" clip-rule="evenodd" d="M88.3853 92.8394C89.4891 92.4639 90.6219 92.1788 91.7719 91.9857L91.7859 91.8132C90.6276 92.0671 89.4908 92.4105 88.3853 92.8394Z" fill="black"/>
<path opacity="0.1" fill-rule="evenodd" clip-rule="evenodd" d="M77.9142 102.241H77.8351C77.8054 102.256 77.7717 102.262 77.7387 102.258C77.7058 102.253 77.6753 102.238 77.6506 102.216C77.7107 102.233 77.7725 102.241 77.8351 102.241C78.13 102.07 78.5724 100.73 77.6506 92.9716C76.6587 84.6952 72.7539 85.3409 70.6187 86.2939C72.8025 85.6942 75.8061 86.2126 76.6604 93.3307C77.5913 101.088 77.1472 102.429 76.8449 102.6C77.228 102.586 77.5995 102.462 77.9142 102.241Z" fill="black"/>
<path opacity="0.1" fill-rule="evenodd" clip-rule="evenodd" d="M76.845 102.601C76.7824 102.601 76.7206 102.593 76.6605 102.575C76.6852 102.598 76.7156 102.613 76.7486 102.617C76.7816 102.622 76.8153 102.616 76.845 102.601Z" fill="black"/>
</g>
<path fill-rule="evenodd" clip-rule="evenodd" d="M83.0265 56.1671C84.4501 56.3289 85.8019 56.9377 87.2032 57.2712C87.5533 57.3797 87.9265 57.3937 88.284 57.3115C88.8277 57.1439 89.2709 56.5754 89.8352 56.5926C90.1812 56.6033 90.4893 56.8391 90.7752 57.065C91.234 57.415 91.6657 57.7987 92.066 58.2128C93.0324 59.2594 93.6321 60.6676 94.5135 61.8063C95.395 62.945 96.7856 63.8298 98.0377 63.3073C97.1859 66.6182 94.3957 69.1396 91.3765 69.345C90.1721 69.428 88.9389 69.1782 87.7732 69.529C87.4824 69.6482 87.176 69.7221 86.8638 69.75C86.1924 69.75 85.652 69.1355 85.2335 68.5382C84.2523 67.1325 83.4763 65.5379 82.3716 64.2562C82.0026 63.8315 81.5767 63.4289 81.0601 63.3517C80.5436 63.2744 80.0699 63.5209 79.6111 63.7575C78.8524 64.1494 78.078 64.5544 77.4898 65.2289C76.9016 65.9043 76.5309 66.9008 76.7748 67.8046C76.9049 68.2934 77.204 68.7346 77.2097 69.2464C77.2204 70.063 76.498 70.6587 76.3554 71.4531C76.3233 71.7867 76.3118 72.1219 76.3208 72.4571C76.2582 73.5465 75.544 74.4362 74.7993 75.1223C74.5077 75.3876 74.1872 75.6744 74.1024 76.0843C74.0447 76.3653 74.1024 76.6619 74.0653 76.947C73.9565 77.6535 73.2506 78.0117 72.6253 78.1037C71.8946 78.2114 71.1482 78.1234 70.4637 77.8482C71.3377 77.4358 71.8765 76.2626 71.673 75.2126C71.3945 73.756 69.9265 72.7093 70.0526 71.2272C70.121 70.7721 70.2577 70.3301 70.4579 69.9152C70.7783 69.1141 71.0107 68.2811 71.1515 67.4307C71.2619 66.7743 71.3155 66.0768 71.1087 65.4499C70.925 64.8798 70.5394 64.4254 70.2124 63.944C69.77 63.2876 69.4207 62.5745 69.1744 61.8227C69.0854 61.6001 69.0508 61.3594 69.0747 61.1203C69.1489 60.8385 69.3062 60.5854 69.527 60.394C70.3294 59.5536 71.1861 58.6802 72.262 58.4387C72.7744 58.3541 73.2967 58.3343 73.8149 58.3804C74.7153 58.4083 75.6173 58.3705 76.5128 58.2662C77.2501 58.1799 78.4965 58.1906 79.1217 57.7141C79.705 57.2688 80.0329 56.7101 80.7504 56.4267C81.477 56.158 82.2579 56.0693 83.0265 56.1671Z" fill="#474463"/>
<path fill-rule="evenodd" clip-rule="evenodd" d="M116.812 116.703C122.524 116.703 127.154 112.085 127.154 106.389C127.154 100.694 122.524 96.0771 116.812 96.0771C111.102 96.0771 106.472 100.694 106.472 106.389C106.472 112.085 111.102 116.703 116.812 116.703Z" fill="white"/>
<path fill-rule="evenodd" clip-rule="evenodd" d="M128.071 112.688C129.589 110.423 130.4 107.757 130.4 105.031C130.4 101.376 128.943 97.8698 126.351 95.2852C123.76 92.7005 120.245 91.248 116.58 91.248C113.845 91.248 111.174 92.0564 108.901 93.5714C106.628 95.0855 104.857 97.238 103.811 99.757C102.764 102.275 102.491 105.047 103.025 107.72C103.558 110.394 104.874 112.849 106.807 114.778C108.739 116.705 111.202 118.018 113.883 118.549C116.564 119.081 119.343 118.808 121.868 117.765C124.393 116.722 126.552 114.955 128.071 112.688ZM125.233 102.103L114.982 112.328V112.335C114.899 112.417 114.801 112.483 114.693 112.528C114.584 112.573 114.468 112.596 114.351 112.596C114.234 112.596 114.118 112.573 114.01 112.528C113.901 112.483 113.803 112.417 113.721 112.335L107.925 106.556C107.757 106.389 107.664 106.163 107.664 105.927C107.664 105.691 107.757 105.465 107.925 105.298L109.186 104.032C109.353 103.866 109.581 103.773 109.816 103.773C110.053 103.773 110.28 103.866 110.447 104.032L114.351 107.936L122.713 99.5968C122.795 99.5138 122.894 99.4481 123.002 99.4037C123.11 99.3585 123.226 99.3355 123.343 99.3355C123.46 99.3355 123.575 99.3585 123.684 99.4037C123.792 99.4481 123.89 99.5138 123.972 99.5968L125.233 100.846C125.317 100.928 125.383 101.026 125.428 101.134C125.472 101.242 125.495 101.357 125.495 101.474C125.495 101.592 125.472 101.707 125.428 101.815C125.383 101.923 125.317 102.021 125.233 102.103Z" fill="#FA7268"/>
<path opacity="0.1" fill-rule="evenodd" clip-rule="evenodd" d="M183.249 164.463C185.988 164.463 188.208 164.088 188.208 163.626C188.208 163.164 185.988 162.789 183.249 162.789C180.509 162.789 178.289 163.164 178.289 163.626C178.289 164.088 180.509 164.463 183.249 164.463Z" fill="#6C63FF"/>
<defs>
<linearGradient id="paint0_linear_192_588" x1="76.5577" y1="103.3" x2="76.5577" y2="103.253" gradientUnits="userSpaceOnUse">
<stop stop-color="#808080" stop-opacity="0.25"/>
<stop offset="0.54" stop-color="#808080" stop-opacity="0.12"/>
<stop offset="1" stop-color="#808080" stop-opacity="0.1"/>
</linearGradient>
<linearGradient id="paint1_linear_192_588" x1="30915.6" y1="44761.3" x2="30915.6" y2="15829.8" gradientUnits="userSpaceOnUse">
<stop stop-color="#808080" stop-opacity="0.25"/>
<stop offset="0.54" stop-color="#808080" stop-opacity="0.12"/>
<stop offset="1" stop-color="#808080" stop-opacity="0.1"/>
</linearGradient>
</defs>
</svg>
