<svg width="213" height="210" viewBox="0 0 213 210" fill="none" xmlns="http://www.w3.org/2000/svg">
<path opacity="0.1" fill-rule="evenodd" clip-rule="evenodd" d="M121.845 44.0946C109.91 43.6806 98.5423 39.8389 87.6871 35.6341C76.832 31.4302 66.0806 26.7711 54.4313 24.5438C46.9381 23.111 38.3682 22.9089 32.3324 26.9148C26.5214 30.777 24.644 37.426 23.6352 43.6017C22.8754 48.2477 22.4291 53.1385 24.5094 57.4862C25.9552 60.5063 28.5186 63.0441 30.2927 65.9368C36.4652 76.001 32.1019 88.4125 25.4149 98.2392C22.2798 102.85 18.6375 107.252 16.2161 112.155C13.7947 117.058 12.6753 122.684 14.7943 127.691C16.8929 132.656 21.8962 136.379 27.3162 139C38.3245 144.324 51.2902 145.847 63.9437 146.71C91.9437 148.621 120.091 147.793 148.165 146.966C158.555 146.658 168.99 146.348 179.21 144.746C184.887 143.855 190.746 142.444 194.867 139.035C200.097 134.707 201.394 127.379 197.888 121.952C192.008 112.85 175.757 110.59 171.643 100.821C169.382 95.4434 171.704 89.455 174.992 84.4673C182.045 73.7705 193.864 64.3849 194.486 52.1575C194.913 43.7603 189.231 35.3491 180.446 31.3751C171.237 27.2106 158.467 27.7331 151.676 34.6285C144.678 41.7277 132.385 44.4586 121.845 44.0946Z" fill="#FA7268"/>
<path opacity="0.1" fill-rule="evenodd" clip-rule="evenodd" d="M113.549 173.167C144.508 173.167 169.606 169.78 169.606 165.604C169.606 161.427 144.508 158.041 113.549 158.041C82.5887 158.041 57.4909 161.427 57.4909 165.604C57.4909 169.78 82.5887 173.167 113.549 173.167Z" fill="#B643D5"/>
<path fill-rule="evenodd" clip-rule="evenodd" d="M144.14 75.2673H143.351C143.117 75.2673 142.928 75.4555 142.928 75.688V88.276C142.928 88.5085 143.117 88.6975 143.351 88.6975H144.14C144.373 88.6975 144.562 88.5085 144.562 88.276V75.688C144.562 75.4555 144.373 75.2673 144.14 75.2673Z" fill="#3A3768"/>
<path fill-rule="evenodd" clip-rule="evenodd" d="M89.1246 64.7446H89.0522C88.819 64.7446 88.6304 64.9336 88.6304 65.1661V68.7448C88.6304 68.9773 88.819 69.1663 89.0522 69.1663H89.1246C89.3578 69.1663 89.5464 68.9773 89.5464 68.7448V65.1661C89.5464 64.9336 89.3578 64.7446 89.1246 64.7446Z" fill="#3A3768"/>
<path fill-rule="evenodd" clip-rule="evenodd" d="M89.2063 72.8413H89.0184C88.7853 72.8413 88.5958 73.0294 88.5958 73.262V80.1155C88.5958 80.348 88.7853 80.5361 89.0184 80.5361H89.2063C89.4394 80.5361 89.6289 80.348 89.6289 80.1155V73.262C89.6289 73.0294 89.4394 72.8413 89.2063 72.8413Z" fill="#3A3768"/>
<path fill-rule="evenodd" clip-rule="evenodd" d="M89.1741 83.2283H89.0357C88.8026 83.2283 88.614 83.4172 88.614 83.6497V90.569C88.614 90.8015 88.8026 90.9896 89.0357 90.9896H89.1741C89.4073 90.9896 89.5967 90.8015 89.5967 90.569V83.6497C89.5967 83.4172 89.4073 83.2283 89.1741 83.2283Z" fill="#3A3768"/>
<path fill-rule="evenodd" clip-rule="evenodd" d="M136.62 50.1338H96.3395C92.3688 50.1338 89.1494 53.3445 89.1494 57.3053V153.755C89.1494 157.716 92.3688 160.926 96.3395 160.926H136.62C140.591 160.926 143.811 157.716 143.811 153.755V57.3053C143.811 53.3445 140.591 50.1338 136.62 50.1338Z" fill="#3A3768"/>
<path fill-rule="evenodd" clip-rule="evenodd" d="M136.099 53.0127H129.829V53.7653C129.829 54.2327 129.737 54.6969 129.557 55.1291C129.377 55.562 129.114 55.9547 128.781 56.2858C128.449 56.6169 128.056 56.8798 127.621 57.0581C127.188 57.2372 126.723 57.3292 126.253 57.3292H106.312C105.843 57.3292 105.378 57.2372 104.944 57.0581C104.51 56.8798 104.116 56.6169 103.784 56.2858C103.452 55.9547 103.189 55.562 103.009 55.1291C102.829 54.6969 102.736 54.2327 102.736 53.7653V53.0127H96.8667C95.7151 53.0127 94.6112 53.4687 93.7964 54.2804C92.9825 55.0929 92.5253 56.1938 92.5253 57.3424V153.711C92.5253 154.86 92.9825 155.961 93.7964 156.773C94.6112 157.584 95.7151 158.041 96.8667 158.041H136.099C137.251 158.041 138.355 157.584 139.169 156.773C139.983 155.961 140.441 154.86 140.441 153.711V57.3498C140.441 56.7804 140.33 56.2168 140.112 55.6902C139.894 55.1644 139.575 54.6862 139.172 54.2837C138.768 53.8803 138.29 53.5607 137.762 53.343C137.235 53.1253 136.67 53.0127 136.099 53.0127Z" fill="white"/>
<path fill-rule="evenodd" clip-rule="evenodd" d="M118.126 53.4424H111.921C111.526 53.4424 111.207 53.7612 111.207 54.1547V54.2755C111.207 54.669 111.526 54.9878 111.921 54.9878H118.126C118.52 54.9878 118.84 54.669 118.84 54.2755V54.1547C118.84 53.7612 118.52 53.4424 118.126 53.4424Z" fill="#E6E8EC"/>
<path fill-rule="evenodd" clip-rule="evenodd" d="M120.874 55.0928C121.36 55.0928 121.754 54.7 121.754 54.2153C121.754 53.7314 121.36 53.3379 120.874 53.3379C120.388 53.3379 119.994 53.7314 119.994 54.2153C119.994 54.7 120.388 55.0928 120.874 55.0928Z" fill="#E6E8EC"/>
<path fill-rule="evenodd" clip-rule="evenodd" d="M162.735 45.275C162.735 45.275 147.206 44.3409 149.036 55.1922C149.036 55.1922 148.667 57.1105 150.416 57.9806C150.416 57.9806 150.443 57.1763 152.009 57.4507C152.567 57.5427 153.133 57.5698 153.696 57.532C154.457 57.4819 155.181 57.1869 155.758 56.6907C155.758 56.6907 160.123 54.8923 161.82 47.7784C161.82 47.7784 163.076 46.2256 163.026 45.8271L160.405 46.9436C160.405 46.9436 161.302 48.8283 160.59 50.3959C160.59 50.3959 160.505 47.011 160.002 47.0849C159.9 47.0997 158.641 47.7381 158.641 47.7381C158.641 47.7381 160.18 51.0211 159.019 53.4077C159.019 53.4077 159.46 49.3615 158.16 47.9747L156.315 49.0493C156.315 49.0493 158.115 52.4407 156.894 55.2086C156.894 55.2086 157.208 50.9636 155.926 49.3106L154.256 50.6103C154.256 50.6103 155.946 53.9524 154.915 56.2479C154.915 56.2479 154.781 51.3078 153.894 50.934C153.894 50.934 152.431 52.2222 152.208 52.748C152.208 52.748 153.366 55.1757 152.647 56.4557C152.647 56.4557 152.206 53.1637 151.845 53.1448C151.845 53.1448 150.388 55.3261 150.237 56.8238C150.237 56.8238 150.3 54.5998 151.493 52.9394C151.493 52.9394 150.084 53.1802 149.261 54.0905C149.261 54.0905 149.488 52.5492 151.853 52.4128C151.853 52.4128 153.056 50.7582 153.377 50.6588C153.377 50.6588 151.028 50.4616 149.602 51.0926C149.602 51.0926 150.857 49.6376 153.809 50.2997L155.459 48.9557C155.459 48.9557 152.365 48.5342 151.052 48.9992C151.052 48.9992 152.562 47.7118 155.904 48.65L157.7 47.5795C157.7 47.5795 155.061 47.0135 153.489 47.2115C153.489 47.2115 155.149 46.3201 158.228 47.2871L159.519 46.712C159.519 46.712 157.585 46.3324 157.019 46.2716C156.453 46.2116 156.424 46.0572 156.424 46.0572C157.648 45.8534 158.905 45.9923 160.055 46.4597C160.055 46.4597 162.781 45.4459 162.735 45.275Z" fill="#FA7268"/>
<path fill-rule="evenodd" clip-rule="evenodd" d="M146.807 40.4485C146.807 40.4485 139.799 40.0278 140.618 44.9309C140.618 44.9309 140.454 45.7969 141.241 46.1904C141.241 46.1904 141.254 45.8232 141.962 45.9497C142.213 45.9916 142.47 46.0047 142.723 45.9867C143.068 45.9637 143.395 45.8297 143.655 45.6038C143.655 45.6038 145.628 44.7913 146.396 41.5765C146.396 41.5765 146.962 40.8757 146.939 40.6949L145.756 41.1994C145.756 41.1994 146.159 42.0505 145.842 42.7587C145.842 42.7587 145.803 41.2306 145.577 41.2651C145.531 41.2651 144.961 41.5617 144.961 41.5617C144.961 41.5617 145.658 43.0455 145.132 44.1233C145.132 44.1233 145.331 42.2954 144.743 41.6677L143.91 42.1606C143.91 42.1606 144.723 43.6928 144.171 44.9441C144.171 44.9441 144.313 43.0257 143.734 42.2789L142.98 42.8672C142.98 42.8672 143.743 44.3772 143.278 45.4149C143.278 45.4149 143.216 43.1818 142.816 43.0126C142.816 43.0126 142.156 43.5934 142.054 43.8325C142.054 43.8325 142.578 44.9367 142.254 45.5085C142.254 45.5085 142.054 44.0207 141.885 44.0133C141.885 44.0133 141.226 44.9991 141.158 45.6687C141.191 45.0443 141.387 44.4397 141.726 43.9138C141.346 43.9853 140.996 44.1661 140.717 44.4339C140.717 44.4339 140.82 43.7372 141.888 43.6764C141.888 43.6764 142.442 42.928 142.578 42.882C142.578 42.882 141.516 42.7941 140.872 43.0791C140.872 43.0791 141.438 42.4219 142.772 42.7201L143.509 42.113C143.509 42.113 142.11 41.9289 141.517 42.1335C141.517 42.1335 142.2 41.5518 143.71 41.9749L144.522 41.4919C144.522 41.4919 143.329 41.2355 142.619 41.3276C142.619 41.3276 143.369 40.925 144.76 41.3612L145.34 41.1016C145.34 41.1016 144.466 40.9307 144.21 40.9028C143.954 40.8757 143.941 40.8059 143.941 40.8059C144.494 40.7138 145.063 40.7771 145.582 40.9891C145.582 40.9891 146.829 40.5257 146.807 40.4485Z" fill="#FA7268"/>
<path fill-rule="evenodd" clip-rule="evenodd" d="M72.1166 140.346C72.1166 140.346 79.1246 139.925 78.3058 144.828C78.3058 144.828 78.4697 145.694 77.6822 146.088C77.6822 146.088 77.6698 145.72 76.9613 145.847C76.7101 145.889 76.4539 145.901 76.1993 145.884C75.8558 145.861 75.5288 145.726 75.2684 145.501C75.2684 145.501 73.2946 144.688 72.5277 141.473C72.5277 141.473 71.9617 140.772 71.984 140.592L73.1678 141.096C73.1678 141.096 72.7641 141.948 73.0813 142.656C73.0813 142.656 73.12 141.127 73.3465 141.163C73.3927 141.163 73.9627 141.458 73.9627 141.458C73.9627 141.458 73.2658 142.943 73.7914 144.021C73.7914 144.021 73.592 142.193 74.1802 141.565L75.0139 142.058C75.0139 142.058 74.2008 143.59 74.7519 144.841C74.7519 144.841 74.6102 142.922 75.1894 142.176L75.9431 142.765C75.9431 142.765 75.1795 144.275 75.6441 145.312C75.6441 145.312 75.7075 143.079 76.1071 142.91C76.1071 142.91 76.7678 143.491 76.8691 143.73C76.8691 143.73 76.3451 144.833 76.6697 145.406C76.6697 145.406 76.8691 143.917 77.0388 143.911C77.0388 143.911 77.697 144.896 77.7654 145.565C77.7324 144.942 77.5364 144.336 77.197 143.811C77.5775 143.883 77.9277 144.064 78.2061 144.331C78.2061 144.331 78.1031 143.635 77.0347 143.574C77.0347 143.574 76.4819 142.825 76.3451 142.779C76.3451 142.779 77.4078 142.691 78.0512 142.976C78.0512 142.976 77.4853 142.319 76.1516 142.618L75.4143 142.01C75.4143 142.01 76.8139 141.826 77.4054 142.031C77.4054 142.031 76.7233 141.449 75.2133 141.872L74.4018 141.389C74.4018 141.389 75.5947 141.133 76.3048 141.225C76.3048 141.225 75.5543 140.822 74.1637 141.258L73.583 140.999C73.583 140.999 74.457 140.828 74.7132 140.8C74.9694 140.772 74.9826 140.703 74.9826 140.703C74.429 140.611 73.8606 140.675 73.3408 140.887C73.3408 140.887 72.0944 140.423 72.1166 140.346Z" fill="#FA7268"/>
<path fill-rule="evenodd" clip-rule="evenodd" d="M66.3723 111.507C66.3723 111.507 56.4587 110.935 57.617 117.595C57.617 117.595 57.3846 118.772 58.4992 119.307C58.4992 119.307 58.5174 118.806 59.5191 118.979C59.875 119.036 60.2366 119.053 60.5966 119.029C61.0827 118.998 61.5456 118.815 61.9139 118.51C61.9139 118.51 64.7049 117.405 65.7907 113.038C65.7907 113.038 66.5914 112.087 66.5601 111.842L64.8853 112.526C64.8853 112.526 65.4562 113.683 65.008 114.645C65.008 114.645 64.9529 112.569 64.6324 112.617C64.5665 112.617 63.7608 113.018 63.7608 113.018C63.7608 113.018 64.7469 115.034 64.003 116.498C64.003 116.498 64.2848 114.015 63.4527 113.163L62.2739 113.832C62.2739 113.832 63.4239 115.914 62.6446 117.613C62.6446 117.613 62.8448 115.007 62.0259 113.993L60.9591 114.792C60.9591 114.792 62.0391 116.843 61.3817 118.252C61.3817 118.252 61.2927 115.219 60.7268 114.989C60.7268 114.989 59.7926 115.779 59.6493 116.103C59.6493 116.103 60.3907 117.603 59.931 118.379C59.931 118.379 59.6493 116.359 59.4095 116.348C59.4095 116.348 58.4778 117.687 58.3814 118.597C58.4284 117.749 58.7052 116.927 59.1846 116.213C58.6475 116.311 58.1516 116.557 57.7578 116.921C57.7578 116.921 57.9045 115.973 59.4145 115.891C59.4145 115.891 60.1971 114.874 60.3907 114.812C60.3907 114.812 58.8872 114.692 57.977 115.08C57.977 115.08 58.7777 114.187 60.6642 114.592L61.7079 113.768C61.7079 113.768 59.7275 113.518 58.8905 113.796C58.8905 113.796 59.8552 113.006 61.9921 113.58L63.1397 112.924C63.1397 112.924 61.4517 112.576 60.4475 112.701C60.4475 112.701 61.5094 112.154 63.4766 112.746L64.2979 112.394C64.2979 112.394 63.0614 112.161 62.6989 112.124C62.3365 112.087 62.3184 111.991 62.3184 111.991C63.101 111.867 63.905 111.954 64.6398 112.241C64.6398 112.241 66.4036 111.612 66.3723 111.507Z" fill="#FA7268"/>
<path opacity="0.1" fill-rule="evenodd" clip-rule="evenodd" d="M41.1834 171.901C43.9262 171.901 46.1497 171.526 46.1497 171.064C46.1497 170.602 43.9262 170.227 41.1834 170.227C38.4406 170.227 36.217 170.602 36.217 171.064C36.217 171.526 38.4406 171.901 41.1834 171.901Z" fill="#6C63FF"/>
<path opacity="0.1" fill-rule="evenodd" clip-rule="evenodd" d="M60.3931 176.391C63.1364 176.391 65.3598 176.016 65.3598 175.554C65.3598 175.092 63.1364 174.717 60.3931 174.717C57.6507 174.717 55.4273 175.092 55.4273 175.554C55.4273 176.016 57.6507 176.391 60.3931 176.391Z" fill="#6C63FF"/>
<path fill-rule="evenodd" clip-rule="evenodd" d="M172.882 174.415C176.977 174.415 180.297 173.855 180.297 173.164C180.297 172.474 176.977 171.914 172.882 171.914C168.786 171.914 165.466 172.474 165.466 173.164C165.466 173.855 168.786 174.415 172.882 174.415Z" fill="#417505"/>
<path fill-rule="evenodd" clip-rule="evenodd" d="M175.948 171.119C176.286 170.843 176.533 170.472 176.655 170.054C176.747 169.632 176.566 169.135 176.16 168.971C175.706 168.798 175.221 169.112 174.855 169.429C174.487 169.745 174.065 170.107 173.583 170.039C173.831 169.816 174.017 169.532 174.122 169.216C174.227 168.9 174.248 168.562 174.183 168.235C174.162 168.099 174.103 167.972 174.015 167.867C173.765 167.598 173.308 167.712 173.007 167.926C172.048 168.597 171.78 169.898 171.774 171.065C171.677 170.645 171.76 170.205 171.756 169.778C171.753 169.351 171.636 168.859 171.269 168.633C171.043 168.511 170.788 168.452 170.532 168.459C170.1 168.443 169.621 168.487 169.325 168.802C168.957 169.191 169.057 169.846 169.374 170.272C169.691 170.7 170.175 170.973 170.622 171.27C170.979 171.482 171.283 171.772 171.513 172.118C171.54 172.166 171.563 172.217 171.579 172.27H174.274C174.881 171.963 175.444 171.576 175.948 171.119Z" fill="#417505"/>
<path fill-rule="evenodd" clip-rule="evenodd" d="M76.3863 165.069C80.4814 165.069 83.8013 164.509 83.8013 163.818C83.8013 163.127 80.4814 162.568 76.3863 162.568C72.2904 162.568 68.9705 163.127 68.9705 163.818C68.9705 164.509 72.2904 165.069 76.3863 165.069Z" fill="#417505"/>
<path fill-rule="evenodd" clip-rule="evenodd" d="M79.4525 161.772C79.7903 161.497 80.0366 161.126 80.1593 160.708C80.2508 160.286 80.0703 159.788 79.665 159.625C79.2111 159.452 78.7259 159.766 78.3593 160.082C77.9919 160.399 77.5701 160.761 77.0882 160.693C77.3362 160.469 77.5215 160.186 77.627 159.87C77.7316 159.553 77.753 159.216 77.6879 158.889C77.6665 158.753 77.608 158.626 77.5199 158.521C77.2694 158.252 76.8114 158.366 76.5115 158.58C75.5518 159.251 75.2849 160.552 75.2791 161.719C75.1811 161.298 75.2643 160.859 75.261 160.432C75.2569 160.005 75.1408 159.512 74.7742 159.286C74.5476 159.165 74.2931 159.106 74.036 159.113C73.6044 159.097 73.1249 159.141 72.83 159.456C72.4609 159.845 72.5606 160.5 72.8778 160.927C73.1949 161.353 73.6802 161.627 74.1267 161.924C74.4834 162.136 74.7882 162.426 75.0172 162.771C75.0452 162.82 75.0674 162.871 75.0839 162.924H77.7777C78.3857 162.617 78.9492 162.23 79.4525 161.772Z" fill="#417505"/>
<path fill-rule="evenodd" clip-rule="evenodd" d="M62.5342 156.672C62.5342 157.137 62.4823 157.514 62.4181 157.514C62.353 157.514 62.3019 157.137 62.3019 156.672C62.3019 156.207 62.3662 156.426 62.4312 156.426C62.4955 156.426 62.5342 156.207 62.5342 156.672Z" fill="#FFD037"/>
<path fill-rule="evenodd" clip-rule="evenodd" d="M63.18 157.482C62.7706 157.705 62.4131 157.839 62.3834 157.782C62.3546 157.725 62.6586 157.499 63.068 157.276C63.4774 157.053 63.3168 157.215 63.3464 157.276C63.3761 157.337 63.5895 157.26 63.18 157.482Z" fill="#FFD037"/>
<path fill-rule="evenodd" clip-rule="evenodd" d="M76.4325 103.753C76.4588 103.777 76.4926 103.794 76.5289 103.799C76.5651 103.803 76.6022 103.796 76.6335 103.778C76.5659 103.779 76.4984 103.771 76.4325 103.753Z" fill="url(#paint0_linear_192_588)"/>
<path fill-rule="evenodd" clip-rule="evenodd" d="M98.5316 67.1527C98.1428 67.0385 97.5892 66.8529 96.9203 66.6195C97.6147 65.7142 98.1222 64.6806 98.4138 63.5789L98.3569 63.6011C98.366 63.567 98.3757 63.5335 98.3854 63.5C98.3951 63.4666 98.4047 63.4331 98.4138 63.399C97.1336 63.9248 95.7159 63.0309 94.8138 61.8889C94.4219 61.3928 94.0844 60.8437 93.747 60.2949C93.308 59.5807 92.8692 58.8669 92.3111 58.2708C91.8992 57.8534 91.456 57.4681 90.9856 57.1181C90.694 56.8897 90.3785 56.6523 90.0226 56.6416C89.6838 56.6319 89.3877 56.825 89.0879 57.0204C88.8789 57.1567 88.6682 57.294 88.4401 57.3646C88.0743 57.4476 87.6929 57.4336 87.3337 57.3235C86.7856 57.1962 86.2449 57.028 85.7047 56.8599C84.8332 56.5888 83.963 56.318 83.0648 56.2201C82.2822 56.1224 81.4881 56.2127 80.7483 56.483C80.2728 56.6658 79.9659 56.9642 79.6494 57.2718C79.4752 57.4411 79.2981 57.6132 79.0884 57.7704C78.5721 58.1594 77.6436 58.2277 76.9078 58.2818C76.7314 58.2948 76.566 58.307 76.4201 58.3225C75.5057 58.4277 74.5847 58.4663 73.6645 58.4384C73.1356 58.3907 72.6026 58.4104 72.0787 58.4975C70.983 58.7399 70.1041 59.619 69.2827 60.4652C69.0578 60.6582 68.8964 60.9146 68.8206 61.2013C68.8099 61.2818 68.8099 61.3631 68.8206 61.4437C68.8115 61.6638 68.8494 61.8832 68.931 62.0878C69.1789 62.8477 69.5323 63.5699 69.9821 64.2321C70.054 64.3361 70.1283 64.4388 70.2028 64.5416C70.4756 64.9184 70.7493 65.2965 70.904 65.747C70.9946 66.0296 71.0424 66.3246 71.0465 66.6212C71.0358 66.9358 71.0028 67.2505 70.9485 67.5611C70.8035 68.4171 70.5654 69.2551 70.2383 70.0603C70.2166 70.1139 70.1946 70.1674 70.1725 70.221L70.1722 70.2216C70.0183 70.5951 69.8635 70.971 69.8231 71.3789C69.8182 71.4725 69.8182 71.5654 69.8231 71.659C69.7926 72.4546 70.2191 73.1279 70.6531 73.813C71.0043 74.3675 71.3604 74.9296 71.4831 75.5705C71.5053 75.6888 71.5185 75.8088 71.5235 75.9295C71.4922 76.8234 70.9888 77.6967 70.2474 78.0426C70.2946 78.0611 70.3423 78.0778 70.3903 78.0947L70.3904 78.0947L70.4451 78.1141C70.3809 78.1543 70.315 78.1913 70.2474 78.225C70.3825 78.2759 70.5209 78.3203 70.6609 78.3606C69.8124 79.1016 69.1007 79.984 68.5562 80.969C66.0741 85.6643 49.1558 94.8749 49.1558 94.8749C49.1558 94.8749 49.2513 94.9283 49.4062 95.0203C49.3521 95.0536 49.2956 95.0913 49.2335 95.1326L49.2331 95.1329L49.2035 95.1526C47.7397 96.1385 44.3019 99.0148 47.4093 102.642C47.4093 102.642 49.8346 98.7708 51.5332 97.1243C51.6107 97.0512 51.684 96.983 51.7557 96.9181C51.7944 96.9765 51.8191 97.0414 51.8306 97.1104C51.8422 97.1786 51.8397 97.2484 51.8224 97.3158L62.9486 90.9946C62.9486 90.9946 66.902 88.1947 68.005 87.5621C68.0391 87.5426 68.078 87.52 68.1213 87.4949C68.5602 87.2396 69.4568 86.7182 70.511 86.4752L70.3825 86.5327C70.7977 86.4168 71.2269 86.3544 71.6586 86.3487C73.6283 86.3799 75.7602 87.8382 76.4646 93.6154C77.407 101.351 76.9696 102.745 76.6672 102.936C76.6293 102.934 76.5923 102.927 76.5569 102.916C76.5659 102.925 76.5758 102.932 76.5857 102.938C76.5445 102.935 76.5041 102.928 76.4646 102.916C76.4852 102.936 76.5115 102.951 76.5404 102.957C76.5684 102.965 76.598 102.964 76.6269 102.957C76.6475 102.962 76.6689 102.964 76.6895 102.962C76.7109 102.959 76.7315 102.953 76.7504 102.942H76.8995C76.8995 102.99 76.8945 103.04 76.8895 103.089L76.8895 103.089C76.8872 103.112 76.8849 103.135 76.8831 103.157C76.8682 103.157 76.7941 103.199 76.8831 103.205C76.8608 103.641 76.8625 104.124 76.8831 104.612C75.9036 104.667 74.9266 104.725 74.069 104.779L74.1464 104.369L74.181 104.185C74.9315 104.124 75.6457 103.902 75.7281 103.284C75.9126 101.931 74.069 101.208 72.5104 101.117C70.9517 101.027 61.5687 101.66 61.5687 101.66C61.5687 101.66 60.1617 103.499 64.6225 104.071C64.756 104.141 64.8936 104.219 65.0344 104.299C66.7809 105.307 69.1518 107.161 70.2861 108.075L70.4451 108.202L69.936 108.612C72.323 109.158 74.6303 117.168 76.1623 122.486C76.4058 123.331 76.6297 124.108 76.8312 124.777C78.3008 129.653 81.521 129.473 84.1877 128.751C86.6862 128.073 87.0059 120.736 87.0355 119.814V119.721L91.4774 125.259L91.8152 125.68C91.9462 125.748 92.073 125.813 92.1991 125.873C95.5643 127.494 99.2821 124.389 98.2235 120.858C97.1559 117.29 95.4959 112.017 94.3895 109.787C93.4677 107.921 92.2675 104.822 91.5409 102.875C91.6348 102.837 91.7262 102.793 91.8152 102.743C91.8152 102.743 91.7987 102.657 91.7691 102.497L91.8152 102.473C91.8152 102.473 90.7459 96.854 90.6866 92.8645V92.655V92.5244C91.4906 92.3403 91.9997 92.2672 91.9997 92.2672L92.0145 92.0939L91.9206 92.1144L92.3663 86.9385C92.3663 86.9385 94.0081 83.4091 92.7518 81.9377C92.3696 81.5063 92.1142 80.9772 92.0145 80.4095C91.8045 79.0556 92.0145 76.8029 94.9415 74.9289C99.4468 72.0394 101.195 69.6906 101.195 69.6906C101.195 69.6906 101.29 67.9653 98.5316 67.1527ZM89.5835 70.743V68.3514C89.9764 68.3325 90.3735 68.3441 90.7711 68.3557H90.7712C91.219 68.3688 91.6676 68.3819 92.1118 68.3514C92.5245 68.3226 92.9339 68.2536 93.3326 68.146L93.5361 68.2873C92.3078 69.2412 90.984 70.0644 89.5835 70.743ZM77.7991 108.941C77.4729 108.7 77.1409 108.46 76.8114 108.228C77.3584 109.11 77.8214 110.042 78.1946 111.01C78.1814 110.954 78.0026 110.12 77.7991 108.941Z" fill="url(#paint1_linear_192_588)"/>
<path fill-rule="evenodd" clip-rule="evenodd" d="M84.0336 106.717L83.8343 107.795L83.681 108.619L83.4026 110.127L80.703 112.012C80.703 112.012 80.4592 111.804 80.0572 111.477C78.9508 110.568 76.6252 108.718 74.9175 107.725C74.4784 107.446 74.0031 107.227 73.5047 107.076L84.0336 106.717Z" fill="#FFBDC6"/>
<path opacity="0.1" fill-rule="evenodd" clip-rule="evenodd" d="M84.0336 106.717L83.8343 107.795C83.2387 107.827 82.6414 107.796 82.0524 107.703L75.7528 107.793C75.4563 107.774 75.1778 107.752 74.9175 107.725C74.4784 107.446 74.0031 107.227 73.5047 107.076L84.0336 106.717Z" fill="black"/>
<path fill-rule="evenodd" clip-rule="evenodd" d="M82.0516 107.52C82.0516 107.52 85.2001 108.058 85.3846 106.718C85.5683 105.377 83.7634 104.652 82.2344 104.562C80.7055 104.471 71.5251 105.101 71.5251 105.101C71.5251 105.101 69.9063 107.254 75.7536 107.615L82.0516 107.52Z" fill="#474463"/>
<path opacity="0.1" fill-rule="evenodd" clip-rule="evenodd" d="M84.0336 106.717L83.8343 107.795L83.681 108.619L83.4026 110.127L80.703 112.012C80.703 112.012 80.4592 111.804 80.0572 111.477C78.9508 110.568 76.6252 108.718 74.9175 107.725C74.4784 107.446 74.0031 107.227 73.5047 107.076L84.0336 106.717Z" fill="black"/>
<path opacity="0.1" fill-rule="evenodd" clip-rule="evenodd" d="M84.0336 106.717L83.8343 107.795C83.2387 107.827 82.6414 107.796 82.0524 107.703L75.7528 107.793C75.4563 107.774 75.1778 107.752 74.9175 107.725C74.4784 107.446 74.0031 107.227 73.5047 107.076L84.0336 106.717Z" fill="black"/>
<path opacity="0.1" fill-rule="evenodd" clip-rule="evenodd" d="M82.0524 107.516C82.0524 107.516 85.2026 108.054 85.383 106.707C85.5642 105.361 83.7617 104.643 82.2336 104.553C80.7046 104.463 71.5243 105.092 71.5243 105.092C71.5243 105.092 69.9047 107.246 75.7528 107.604L82.0524 107.516Z" fill="black"/>
<path fill-rule="evenodd" clip-rule="evenodd" d="M88.9352 63.2749H72.4667V82.7502H88.9352V63.2749Z" fill="#474463"/>
<path opacity="0.1" fill-rule="evenodd" clip-rule="evenodd" d="M88.9352 63.3635H72.4667V82.8388H88.9352V63.3635Z" fill="black"/>
<path fill-rule="evenodd" clip-rule="evenodd" d="M53.1676 96.6148C52.8966 96.6822 52.5498 96.9435 52.1643 97.3222C50.5043 98.9612 48.1277 102.807 48.1277 102.807C45.0882 99.197 48.4522 96.3437 49.8848 95.3636C50.2333 95.1261 50.4681 94.9963 50.4681 94.9963L53.1676 96.6148Z" fill="#FFBDC6"/>
<path fill-rule="evenodd" clip-rule="evenodd" d="M83.8524 69.4219C83.8524 69.4219 84.6622 75.0751 87.4524 76.4216C90.2426 77.7682 83.8524 80.2838 83.8524 80.2838L75.1243 77.051C75.1243 77.051 80.0736 75.4341 79.0834 70.6781L83.8524 69.4219Z" fill="#FFBDC6"/>
<path fill-rule="evenodd" clip-rule="evenodd" d="M74.4924 103.436L74.2947 104.51L74.1349 105.338L73.8565 106.846L71.1561 108.73C71.1561 108.73 70.913 108.523 70.511 108.196C69.4047 107.288 67.0791 105.438 65.3689 104.444C64.9298 104.164 64.4553 103.946 63.9569 103.794L74.4924 103.436Z" fill="#FFBDC6"/>
<path opacity="0.1" fill-rule="evenodd" clip-rule="evenodd" d="M74.4916 103.436L74.2947 104.51C73.6991 104.543 73.1019 104.512 72.5129 104.418L66.2133 104.508C65.9167 104.49 65.6358 104.468 65.3763 104.44C64.9372 104.161 64.4619 103.942 63.9635 103.791L74.4916 103.436Z" fill="black"/>
<path fill-rule="evenodd" clip-rule="evenodd" d="M72.5136 104.244C72.5136 104.244 75.6638 104.781 75.8426 103.437C76.0214 102.092 74.223 101.372 72.6924 101.281C71.1618 101.191 61.9855 101.82 61.9855 101.82C61.9855 101.82 60.3643 103.974 66.2141 104.334L72.5136 104.244Z" fill="#474463"/>
<path opacity="0.1" fill-rule="evenodd" clip-rule="evenodd" d="M74.1349 105.337L73.8564 106.846L71.1568 108.729C71.1568 108.729 70.913 108.523 70.511 108.196L74.0813 105.275L74.1349 105.337Z" fill="black"/>
<path fill-rule="evenodd" clip-rule="evenodd" d="M91.9668 125.883C91.8432 125.823 91.7197 125.76 91.5986 125.699L91.2666 125.282L86.912 119.776C86.912 119.776 86.912 119.809 86.912 119.871C86.8823 120.79 86.5693 128.078 84.1234 128.751C81.5145 129.468 78.3659 129.649 76.9317 124.802C75.4966 119.956 72.8745 109.366 70.1815 108.736L74.1876 105.461C74.1876 105.461 76.8394 108.555 77.9203 111.516C77.8791 111.332 76.0478 102.798 77.5512 101.288H90.6907C90.6907 101.288 92.7197 107.05 94.1103 109.905C95.1928 112.12 96.8173 117.36 97.8627 120.907C98.899 124.409 95.2603 127.5 91.9668 125.883Z" fill="#002D51"/>
<path opacity="0.1" fill-rule="evenodd" clip-rule="evenodd" d="M91.5911 102.897C89.5629 104.095 80.6577 103.607 77.7604 103.412L76.9704 103.356C76.8863 103.356 76.9835 103.307 76.9835 103.307L77.0651 102.493L79.2243 97.0198L90.7871 90.3323C90.5531 91.0364 90.4757 92.1143 90.4938 93.3482C90.5473 97.314 91.5911 102.897 91.5911 102.897Z" fill="black"/>
<path fill-rule="evenodd" clip-rule="evenodd" d="M91.5919 102.627C89.5629 103.825 80.6577 103.337 77.7604 103.142L76.9712 103.087L76.8402 103.076L76.9836 103.039L77.6953 102.855L79.2243 96.7528L90.7879 90.0669C90.5531 90.7718 90.4757 91.8497 90.4946 93.0837C90.5482 97.0453 91.5919 102.627 91.5919 102.627Z" fill="#F6F6F6"/>
<path opacity="0.1" fill-rule="evenodd" clip-rule="evenodd" d="M90.488 93.0796C88.1369 93.621 82.9618 95.2083 80.974 99.0392C79.6477 101.59 78.5323 102.685 77.7538 103.142L76.9646 103.087C76.9695 103.071 76.9745 103.055 76.9778 103.039L77.6895 102.855L79.2185 96.7528L90.7813 90.0669C90.549 90.7677 90.4699 91.8456 90.488 93.0796Z" fill="black"/>
<path opacity="0.1" fill-rule="evenodd" clip-rule="evenodd" d="M50.4673 94.9998L53.1668 96.615C52.8958 96.6831 52.549 96.9444 52.1643 97.3231C51.9385 96.6684 50.5266 95.754 49.8848 95.3645C50.2333 95.1304 50.4673 94.9998 50.4673 94.9998Z" fill="black"/>
<path opacity="0.1" fill-rule="evenodd" clip-rule="evenodd" d="M76.4827 103.192C76.453 103.207 76.4201 103.213 76.3863 103.208C76.3534 103.204 76.3229 103.189 76.299 103.166C76.3583 103.183 76.4209 103.192 76.4827 103.192Z" fill="black"/>
<path fill-rule="evenodd" clip-rule="evenodd" d="M82.5912 76.0633C82.5912 76.0633 80.161 76.332 78.4516 74.5369C78.4516 74.5369 71.259 76.6023 68.8231 81.268C66.3863 85.9345 49.828 95.09 49.828 95.09C49.828 95.09 52.708 96.7044 52.437 97.512L63.3275 91.2295C63.3275 91.2295 67.2002 88.4485 68.2753 87.8191C69.3503 87.1906 75.2956 83.3317 76.5552 93.8314C77.8148 104.332 76.5552 103.076 76.5552 103.076C76.5552 103.076 78.3552 103.705 80.965 98.6778C83.5748 93.6514 91.6719 92.4856 91.6719 92.4856L92.1225 87.1923C92.1225 87.1923 93.7281 83.6825 92.4907 82.2259C92.1159 81.7954 91.8671 81.2696 91.7699 80.7068C91.5656 79.3627 91.7699 77.1223 94.6359 75.2615C99.0448 72.3885 100.755 70.056 100.755 70.056C100.755 70.056 100.845 68.3496 98.1453 67.542C95.4457 66.7344 84.467 62.3374 84.467 62.3374L84.0979 63.8639L92.7601 69.9607C92.7601 69.9607 88.4409 73.4549 85.0148 73.3702C85.0148 73.3702 85.6507 75.973 82.5912 76.0633Z" fill="#FA7268"/>
<path opacity="0.1" fill-rule="evenodd" clip-rule="evenodd" d="M84.2594 71.8824C84.0468 71.1635 83.8804 70.4307 83.7618 69.6904L78.9928 70.9466C79.2029 71.8544 79.165 72.8017 78.8841 73.6906C79.8586 73.9503 80.8892 73.9166 81.8456 73.5953C82.8012 73.2741 83.6415 72.6776 84.2594 71.8824Z" fill="black"/>
<path fill-rule="evenodd" clip-rule="evenodd" d="M80.2977 73.5953C83.1299 73.5953 85.4258 71.3056 85.4258 68.4802C85.4258 65.6557 83.1299 63.366 80.2977 63.366C77.4647 63.366 75.1688 65.6557 75.1688 68.4802C75.1688 71.3056 77.4647 73.5953 80.2977 73.5953Z" fill="#FFBDC6"/>
<path opacity="0.1" fill-rule="evenodd" clip-rule="evenodd" d="M83.0261 56.8468C84.4496 57.0071 85.8015 57.6175 87.2027 57.9502C87.5528 58.0595 87.926 58.0743 88.2836 57.9929C88.8281 57.8237 89.2705 57.2568 89.8348 57.2741C90.1816 57.2741 90.4897 57.5205 90.7755 57.7465C91.2344 58.0956 91.6652 58.4793 92.0664 58.8942C93.0327 59.9409 93.6316 61.349 94.5131 62.4877C95.3946 63.6264 96.7851 64.5112 98.0373 63.9887C97.1855 67.2996 94.3953 69.821 91.3761 70.0264C90.1725 70.1078 88.9385 69.858 87.7728 70.2105C87.482 70.3288 87.1764 70.4027 86.8633 70.4315C86.1928 70.4315 85.6524 69.8169 85.233 69.2197C84.2527 67.814 83.4759 66.2176 82.3712 64.936C82.0021 64.5129 81.5762 64.1103 81.0597 64.0331C80.544 63.9559 80.0695 64.1999 79.6106 64.4373C78.8527 64.8292 78.0784 65.2359 77.4894 65.9087C76.9012 66.5816 76.5305 67.5823 76.7743 68.4835C76.9053 68.9732 77.2035 69.4144 77.2093 69.9254C77.2208 70.7404 76.4975 71.3385 76.3558 72.1329C76.3237 72.4665 76.3122 72.8017 76.3204 73.1369C76.2578 74.2255 75.5444 75.1177 74.7988 75.8021C74.508 76.0682 74.1868 76.3533 74.1019 76.7658C74.0451 77.0451 74.1019 77.3433 74.0648 77.6268C73.9561 78.3325 73.2501 78.6915 72.6249 78.7852C71.8941 78.8911 71.1486 78.8032 70.4632 78.5297C71.3373 78.1156 71.876 76.944 71.6734 75.8924C71.3949 74.4358 69.9269 73.3908 70.0521 71.9062C70.1213 71.4519 70.2581 71.0098 70.4583 70.595C70.7779 69.7948 71.0102 68.9625 71.1511 68.1122C71.2623 67.4541 71.315 66.7566 71.1091 66.1314C70.9245 65.5596 70.539 65.1069 70.2128 64.6254C69.7696 63.969 69.4203 63.2543 69.174 62.5025C69.0842 62.2807 69.0504 62.04 69.0751 61.8017C69.1468 61.5166 69.3041 61.2595 69.5266 61.0664C70.3289 60.226 71.1865 59.3502 72.2616 59.1111C72.774 59.0248 73.2962 59.0043 73.8144 59.0503C74.7148 59.0799 75.6169 59.0413 76.5123 58.9361C77.2496 58.8498 78.4969 58.863 79.1221 58.3848C79.7045 57.9379 80.0332 57.38 80.7499 57.0974C81.4774 56.8304 82.2583 56.745 83.0261 56.8468Z" fill="black"/>
<path opacity="0.1" fill-rule="evenodd" clip-rule="evenodd" d="M85.8765 109.674C85.8765 109.674 88.8454 115.508 87.9458 117.3L85.8765 109.674Z" fill="black"/>
<path opacity="0.1" fill-rule="evenodd" clip-rule="evenodd" d="M91.2599 125.274L86.9111 119.775C86.9111 119.775 86.9111 119.809 86.9111 119.871C86.9111 119.871 86.6607 118.091 87.4886 118.688C89.3034 119.998 92.2057 122.144 92.2683 122.514C92.3317 122.884 91.6801 124.36 91.2599 125.274Z" fill="black"/>
<g opacity="0.1">
<path opacity="0.1" fill-rule="evenodd" clip-rule="evenodd" d="M85.1128 73.3711C85.1128 73.3711 85.481 74.8861 84.2939 75.6444C86.1195 75.333 86.2002 73.915 86.1376 73.2988C85.799 73.3531 85.4555 73.3769 85.1128 73.3711Z" fill="black"/>
<path opacity="0.1" fill-rule="evenodd" clip-rule="evenodd" d="M50.917 94.7295C50.917 94.7295 67.4737 85.5756 69.9121 80.9099C71.6544 77.5604 75.8558 75.5525 78.0874 74.6841C76.4604 75.2354 70.9797 77.3156 68.9219 81.2681C66.4925 85.9346 49.9268 95.0902 49.9268 95.0902L50.917 94.7295Z" fill="black"/>
<path opacity="0.1" fill-rule="evenodd" clip-rule="evenodd" d="M88.3355 72.6572C91.1537 71.783 93.8458 69.6018 93.8458 69.6018L85.2001 63.4959L85.3978 62.6612L84.5699 62.3301L84.2099 63.8566L92.8499 69.9592C91.4651 71.0444 89.9485 71.9515 88.3355 72.6572Z" fill="black"/>
<path opacity="0.1" fill-rule="evenodd" clip-rule="evenodd" d="M88.3849 93.3394C89.4888 92.9639 90.6215 92.6788 91.7715 92.4858L91.7855 92.3132C90.6273 92.5671 89.4904 92.9105 88.3849 93.3394Z" fill="black"/>
<path opacity="0.1" fill-rule="evenodd" clip-rule="evenodd" d="M77.9136 102.741H77.8346C77.8049 102.756 77.7711 102.762 77.7382 102.758C77.7052 102.753 77.6747 102.738 77.65 102.716C77.7102 102.733 77.7719 102.741 77.8346 102.741C78.1295 102.57 78.5718 101.23 77.65 93.4716C76.6582 85.1951 72.7534 85.8409 70.6181 86.7939C72.802 86.1941 75.8055 86.7125 76.6598 93.8306C77.5907 101.588 77.1467 102.929 76.8443 103.1C77.2274 103.086 77.5989 102.961 77.9136 102.741Z" fill="black"/>
<path opacity="0.1" fill-rule="evenodd" clip-rule="evenodd" d="M76.8443 103.101C76.7817 103.101 76.7199 103.093 76.6598 103.075C76.6845 103.098 76.715 103.113 76.7479 103.117C76.7809 103.122 76.8147 103.116 76.8443 103.101Z" fill="black"/>
</g>
<path fill-rule="evenodd" clip-rule="evenodd" d="M83.0261 56.667C84.4496 56.8288 85.8015 57.4376 87.2028 57.7712C87.5529 57.8796 87.926 57.8936 88.2836 57.8114C88.8273 57.6438 89.2705 57.0753 89.8348 57.0925C90.1808 57.1032 90.4889 57.339 90.7747 57.5649C91.2336 57.9149 91.6653 58.2986 92.0656 58.7127C93.0319 59.7594 93.6317 61.1675 94.5131 62.3062C95.3946 63.4449 96.7851 64.3297 98.0373 63.8072C97.1855 67.1181 94.3953 69.6395 91.3761 69.8449C90.1717 69.9279 88.9385 69.6781 87.7728 70.0289C87.482 70.1481 87.1756 70.222 86.8633 70.25C86.192 70.25 85.6515 69.6354 85.2331 69.0381C84.2519 67.6324 83.4759 66.0378 82.3712 64.7561C82.0021 64.3314 81.5762 63.9288 81.0597 63.8516C80.5432 63.7744 80.0695 64.0208 79.6107 64.2574C78.8519 64.6493 78.0776 65.0544 77.4894 65.7289C76.9012 66.4042 76.5305 67.4008 76.7743 68.3045C76.9045 68.7933 77.2035 69.2345 77.2093 69.7463C77.22 70.563 76.4975 71.1586 76.355 71.9531C76.3229 72.2866 76.3114 72.6218 76.3204 72.957C76.2578 74.0464 75.5436 74.9362 74.7989 75.6222C74.5072 75.8875 74.1868 76.1743 74.1019 76.5842C74.0443 76.8652 74.1019 77.1618 74.0649 77.4469C73.9561 78.1534 73.2501 78.5116 72.6249 78.6037C71.8942 78.7113 71.1478 78.6234 70.4632 78.3481C71.3373 77.9357 71.876 76.7625 71.6726 75.7126C71.3941 74.2559 69.9261 73.2092 70.0522 71.7271C70.1205 71.272 70.2573 70.83 70.4575 70.4151C70.7779 69.6141 71.0102 68.781 71.1511 67.9307C71.2615 67.2742 71.315 66.5767 71.1083 65.9499C70.9246 65.3797 70.539 64.9254 70.212 64.4439C69.7696 63.7875 69.4203 63.0744 69.174 62.3226C69.085 62.1 69.0504 61.8593 69.0743 61.6202C69.1485 61.3384 69.3058 61.0854 69.5266 60.8939C70.329 60.0535 71.1857 59.1802 72.2616 58.9386C72.774 58.854 73.2963 58.8343 73.8144 58.8803C74.7148 58.9082 75.6169 58.8704 76.5124 58.7661C77.2497 58.6798 78.4961 58.6905 79.1213 58.214C79.7046 57.7687 80.0324 57.21 80.75 56.9266C81.4766 56.6579 82.2575 56.5692 83.0261 56.667Z" fill="#474463"/>
<path fill-rule="evenodd" clip-rule="evenodd" d="M116.812 117.203C122.524 117.203 127.154 112.585 127.154 106.889C127.154 101.194 122.524 96.5771 116.812 96.5771C111.102 96.5771 106.472 101.194 106.472 106.889C106.472 112.585 111.102 117.203 116.812 117.203Z" fill="white"/>
<path fill-rule="evenodd" clip-rule="evenodd" d="M128.07 113.188C129.589 110.923 130.399 108.257 130.399 105.531C130.399 101.876 128.943 98.3699 126.351 95.7852C123.76 93.2006 120.244 91.748 116.579 91.748C113.845 91.748 111.174 92.5565 108.901 94.0714C106.628 95.5856 104.857 97.7381 103.811 100.257C102.764 102.775 102.491 105.547 103.025 108.22C103.558 110.894 104.874 113.35 106.807 115.278C108.739 117.205 111.202 118.518 113.883 119.05C116.564 119.581 119.342 119.308 121.868 118.265C124.393 117.222 126.551 115.455 128.07 113.188ZM125.233 102.603L114.982 112.828V112.835C114.899 112.917 114.801 112.983 114.693 113.028C114.584 113.073 114.468 113.096 114.351 113.096C114.234 113.096 114.118 113.073 114.01 113.028C113.901 112.983 113.803 112.917 113.721 112.835L107.925 107.056C107.757 106.889 107.664 106.663 107.664 106.427C107.664 106.191 107.757 105.965 107.925 105.798L109.186 104.532C109.353 104.367 109.58 104.273 109.816 104.273C110.052 104.273 110.28 104.367 110.447 104.532L114.351 108.436L122.712 100.097C122.795 100.014 122.894 99.9481 123.002 99.9037C123.11 99.8586 123.226 99.8356 123.343 99.8356C123.46 99.8356 123.575 99.8586 123.684 99.9037C123.792 99.9481 123.89 100.014 123.972 100.097L125.233 101.346C125.317 101.428 125.382 101.526 125.428 101.634C125.472 101.742 125.495 101.857 125.495 101.974C125.495 102.092 125.472 102.207 125.428 102.315C125.382 102.423 125.317 102.521 125.233 102.603Z" fill="#FA7268"/>
<path opacity="0.1" fill-rule="evenodd" clip-rule="evenodd" d="M183.249 164.963C185.987 164.963 188.208 164.589 188.208 164.126C188.208 163.664 185.987 163.289 183.249 163.289C180.509 163.289 178.289 163.664 178.289 164.126C178.289 164.589 180.509 164.963 183.249 164.963Z" fill="#6C63FF"/>
<defs>
<linearGradient id="paint0_linear_192_588" x1="76.5577" y1="103.8" x2="76.5577" y2="103.753" gradientUnits="userSpaceOnUse">
<stop stop-color="#808080" stop-opacity="0.25"/>
<stop offset="0.54" stop-color="#808080" stop-opacity="0.12"/>
<stop offset="1" stop-color="#808080" stop-opacity="0.1"/>
</linearGradient>
<linearGradient id="paint1_linear_192_588" x1="30915.6" y1="44761.8" x2="30915.6" y2="15830.3" gradientUnits="userSpaceOnUse">
<stop stop-color="#808080" stop-opacity="0.25"/>
<stop offset="0.54" stop-color="#808080" stop-opacity="0.12"/>
<stop offset="1" stop-color="#808080" stop-opacity="0.1"/>
</linearGradient>
</defs>
</svg>
