<svg width="32" height="33" viewBox="0 0 32 33" fill="none" xmlns="http://www.w3.org/2000/svg">
<path d="M31.5214 20.3692C29.3836 28.9452 20.6947 34.1585 12.131 32.0206C3.55473 29.8829 -1.65852 21.1944 0.479358 12.6307C2.61711 4.05473 11.2934 -1.15852 19.8696 0.979359C28.4334 3.10461 33.6592 11.7931 31.5214 20.3692Z" fill="url(#paint0_linear_717_2472)"/>
<path d="M23.6181 14.5063C23.9306 12.3813 22.3181 11.2313 20.0931 10.4688L20.8181 7.58127L19.0681 7.14377L18.3681 9.95627C17.9056 9.84377 17.4306 9.73127 16.9556 9.63127L17.6556 6.80627L15.9056 6.36877L15.1931 9.24377C14.8056 9.15627 14.4306 9.06877 14.0681 8.98127V8.96877L11.6431 8.36877L11.1806 10.2438C11.1806 10.2438 12.4806 10.5438 12.4556 10.5563C13.1681 10.7313 13.2931 11.2063 13.2681 11.5813L12.4431 14.8688C12.4931 14.8813 12.5556 14.8938 12.6306 14.9313C12.5681 14.9188 12.5056 14.9063 12.4431 14.8813L11.2931 19.4813C11.2056 19.6938 10.9806 20.0188 10.4931 19.8938C10.5056 19.9188 9.21814 19.5813 9.21814 19.5813L8.34314 21.5938L10.6306 22.1688C11.0556 22.2813 11.4681 22.3813 11.8806 22.4938L11.1556 25.4063L12.9056 25.8438L13.6306 22.9563C14.1056 23.0813 14.5806 23.2063 15.0306 23.3188L14.3181 26.1938L16.0681 26.6313L16.7931 23.7188C19.7931 24.2813 22.0431 24.0563 22.9806 21.3438C23.7431 19.1688 22.9431 17.9063 21.3681 17.0813C22.5306 16.8188 23.3931 16.0563 23.6181 14.5063ZM19.6056 20.1313C19.0681 22.3063 15.3931 21.1313 14.2056 20.8313L15.1681 16.9688C16.3556 17.2688 20.1806 17.8563 19.6056 20.1313ZM20.1556 14.4688C19.6556 16.4563 16.6056 15.4438 15.6181 15.1938L16.4931 11.6938C17.4806 11.9438 20.6681 12.4063 20.1556 14.4688Z" fill="white"/>
<defs>
<linearGradient id="paint0_linear_717_2472" x1="15.9913" y1="0.49232" x2="15.9913" y2="32.4968" gradientUnits="userSpaceOnUse">
<stop stop-color="#F9AA4B"/>
<stop offset="1" stop-color="#F7931A"/>
</linearGradient>
</defs>
</svg>
