<svg width="24" height="24" viewBox="0 0 24 24" fill="none" xmlns="http://www.w3.org/2000/svg">
<path d="M20.91 8.84001L8.55996 2.23001C8.28126 2.08204 7.97052 2.00467 7.65496 2.00467C7.33941 2.00467 7.02867 2.08204 6.74996 2.23001L3.09996 4.13001C2.77086 4.31036 2.49553 4.57483 2.30209 4.89642C2.10866 5.21801 2.00406 5.58518 1.99897 5.96043C1.99389 6.33567 2.0885 6.70554 2.27315 7.03225C2.4578 7.35897 2.72587 7.63081 3.04996 7.82001L15.27 14.75C15.5668 14.9146 15.9006 15.001 16.24 15.001C16.5794 15.001 16.9132 14.9146 17.21 14.75L21 12.51C21.3174 12.316 21.5782 12.042 21.7562 11.7153C21.9341 11.3887 22.023 11.0209 22.0139 10.649C22.0048 10.2772 21.898 9.91422 21.7042 9.59668C21.5104 9.27914 21.2365 9.01818 20.91 8.84001V8.84001Z" stroke="white" stroke-width="2" stroke-linecap="round" stroke-linejoin="round"/>
<path d="M11.9999 22V13M3.08994 8.84001L15.4399 2.23001C15.7186 2.08204 16.0294 2.00467 16.3449 2.00467C16.6605 2.00467 16.9712 2.08204 17.2499 2.23001L20.8999 4.13001C21.2317 4.3058 21.5108 4.56655 21.7088 4.88559C21.9067 5.20463 22.0164 5.57051 22.0265 5.94583C22.0367 6.32115 21.947 6.69243 21.7666 7.02173C21.5863 7.35102 21.3217 7.6265 20.9999 7.82001L8.72994 14.75C8.43314 14.9146 8.09933 15.001 7.75994 15.001C7.42055 15.001 7.08674 14.9146 6.78994 14.75L2.99994 12.51C2.68252 12.316 2.42172 12.042 2.24374 11.7153C2.06576 11.3887 1.97687 11.0209 1.98599 10.649C1.99511 10.2772 2.10192 9.91422 2.2957 9.59668C2.48947 9.27914 2.76339 9.01818 3.08994 8.84001V8.84001Z" stroke="white" stroke-width="2" stroke-linecap="round" stroke-linejoin="round"/>
<path d="M19.9999 13.5V16.87C20.0003 17.2474 19.8969 17.6178 19.7012 17.9405C19.5054 18.2632 19.2248 18.5259 18.8899 18.7L12.8899 21.78C12.615 21.9229 12.3097 21.9975 11.9999 21.9975C11.6901 21.9975 11.3848 21.9229 11.1099 21.78L5.10988 18.7C4.77496 18.5259 4.49431 18.2632 4.29856 17.9405C4.10281 17.6178 3.99949 17.2474 3.99988 16.87V13.5" stroke="white" stroke-width="2" stroke-linecap="round" stroke-linejoin="round"/>
</svg>
