<svg width="110" height="111" viewBox="0 0 110 111" fill="none" xmlns="http://www.w3.org/2000/svg">
<g clip-path="url(#clip0_593_2379)">
<path d="M43.6168 66.649C46.93 69.7326 49.6163 73.3214 52.052 77.1126C52.2945 77.49 52.5438 77.8629 52.9204 78.4365C58.288 68.2879 65.8936 60.501 75.5514 55.0242C71.8039 52.1024 68.0394 49.1673 64.2856 46.1015C64.3267 45.8291 64.3569 45.6873 64.3872 45.5456C64.3872 45.5456 64.3945 45.5779 64.4342 45.5391C64.5341 45.4302 64.5943 45.3601 64.6546 45.29C64.6546 45.29 64.6555 45.3357 64.6886 45.2942C64.7819 45.1825 64.8422 45.1124 64.9025 45.0423C64.9025 45.0423 64.9034 45.0881 64.9365 45.0465C65.0298 44.9348 65.09 44.8647 65.1503 44.7945C65.1503 44.7945 65.1513 44.8404 65.1843 44.7988C65.2775 44.6871 65.3378 44.6169 65.3981 44.5468C65.3981 44.5468 65.3991 44.5926 65.4321 44.5511C65.5253 44.4393 65.5856 44.3692 65.6458 44.299C65.6458 44.299 65.6468 44.3449 65.6798 44.3033C65.773 44.1916 65.8333 44.1214 65.8936 44.0513C65.8936 44.0513 65.8945 44.0971 65.9275 44.0555C66.0208 43.9438 66.0811 43.8736 66.1413 43.8035C66.1413 43.8035 66.1423 43.8493 66.1753 43.8078C66.2686 43.696 66.3288 43.6259 66.3891 43.5558C66.3891 43.5558 66.3901 43.6016 66.4231 43.56C66.5163 43.4483 66.5766 43.3781 66.6368 43.308C66.6368 43.308 66.6378 43.3538 66.6708 43.3122C66.7641 43.2005 66.8243 43.1304 66.8846 43.0602C66.8846 43.0602 66.8856 43.106 66.9186 43.0645C67.0118 42.9527 67.0721 42.8826 67.1323 42.8124C67.1323 42.8124 67.1333 42.8582 67.1663 42.8167C67.2595 42.7049 67.3198 42.6348 67.38 42.5647C67.38 42.5647 67.381 42.6105 67.414 42.5689C67.5073 42.4572 67.5675 42.387 67.6278 42.3169C67.6278 42.3169 67.6288 42.3627 67.6618 42.3211C67.755 42.2094 67.8153 42.1393 67.8755 42.0691C67.8755 42.0691 67.8765 42.1149 67.9095 42.0734C68.0028 41.9617 68.0631 41.8915 68.1233 41.8214C68.1233 41.8214 68.1243 41.8672 68.1573 41.8256C68.2506 41.714 68.3108 41.6438 68.3711 41.5737C68.3711 41.5737 68.3721 41.6195 68.4051 41.5779C68.4984 41.4662 68.5587 41.3961 68.6189 41.326C68.6189 41.326 68.6199 41.3718 68.6529 41.3302C68.7462 41.2185 68.8065 41.1484 68.8667 41.0783C68.8667 41.0783 68.8677 41.124 68.9007 41.0824C68.994 40.9707 69.0542 40.9006 69.1145 40.8305C69.1145 40.8305 69.1155 40.8763 69.1485 40.8347C69.2417 40.7229 69.302 40.6528 69.3623 40.5827C69.3623 40.5827 69.3633 40.6285 69.3962 40.5869C69.4894 40.4751 69.5497 40.405 69.61 40.3349C69.61 40.3348 69.611 40.3807 69.6439 40.3391C69.7371 40.2273 69.7974 40.1571 69.8576 40.087C69.8576 40.087 69.8586 40.1329 69.8916 40.0913C69.9848 39.9795 70.045 39.9093 70.1053 39.8391C70.1053 39.8391 70.1063 39.885 70.1392 39.8434C70.2325 39.7317 70.2927 39.6615 70.3529 39.5913C70.3529 39.5913 70.3539 39.6372 70.3869 39.5956C70.4802 39.4839 70.5404 39.4137 70.6007 39.3435C70.6007 39.3435 70.6017 39.3894 70.6347 39.3479C70.728 39.2362 70.7882 39.166 70.8485 39.0959C70.8485 39.0959 70.8495 39.1417 70.8825 39.1002C70.9758 38.9885 71.036 38.9183 71.0963 38.8482C71.0963 38.8482 71.0973 38.894 71.1303 38.8524C71.2235 38.7407 71.2838 38.6706 71.3441 38.6004C71.3441 38.6004 71.3451 38.6463 71.3781 38.6047C71.4713 38.4929 71.5316 38.4228 71.5918 38.3527C71.5918 38.3527 71.5928 38.3985 71.6258 38.3569C71.719 38.2452 71.7793 38.175 71.8395 38.1048C71.8395 38.1048 71.8405 38.1507 71.8735 38.1091C71.9667 37.9973 72.027 37.9272 72.0872 37.857C72.0872 37.857 72.0882 37.9028 72.1212 37.8613C72.2144 37.7495 72.2747 37.6794 72.3349 37.6092C72.3349 37.6092 72.3359 37.655 72.3689 37.6135C72.4622 37.5018 72.5224 37.4316 72.5827 37.3614C72.5827 37.3614 72.5836 37.4073 72.6166 37.3657C72.7099 37.254 72.7702 37.1838 72.8304 37.1137C72.8304 37.1137 72.8314 37.1595 72.8644 37.118C72.9577 37.0063 73.018 36.9361 73.0782 36.866C73.0782 36.866 73.0792 36.9118 73.1122 36.8702C73.2055 36.7585 73.2657 36.6884 73.326 36.6182C73.326 36.6182 73.327 36.6641 73.36 36.6225C73.4532 36.5107 73.5135 36.4406 73.5737 36.3704C73.5737 36.3704 73.5748 36.4163 73.6077 36.3747C73.701 36.263 73.7612 36.1928 73.8215 36.1227C73.8215 36.1227 73.8225 36.1685 73.8555 36.1269C73.9487 36.0152 74.009 35.945 74.0692 35.8749C74.0692 35.8749 74.0702 35.9207 74.1032 35.8792C74.1965 35.7674 74.2567 35.6972 74.3169 35.627C74.3169 35.627 74.3113 35.6587 74.4121 35.6556C74.7384 35.6013 74.964 35.55 75.1896 35.4988C75.1896 35.4988 75.2174 35.5029 75.2334 35.5903C75.3697 35.7514 75.49 35.8252 75.6103 35.8989C75.6103 35.8989 75.575 35.9081 75.6175 35.9448C75.7384 36.035 75.8168 36.0884 75.8951 36.1419C75.8951 36.1419 75.8297 36.1598 75.8812 36.1903C76.0277 36.2863 76.1228 36.3518 76.2179 36.4173C76.4226 36.5401 76.6273 36.6629 76.8335 36.7865C75.1911 38.4192 73.597 40.004 71.973 41.6183C80.4345 48.8494 90.3061 52.4332 100.793 54.9168C100.031 55.0599 99.2682 55.1984 98.5076 55.3475C97.7905 55.488 97.0641 55.5981 96.3613 55.7925C81.7931 59.8223 69.4297 66.9427 61.5328 80.4378C58.3818 85.8226 56.5617 91.6279 55.4715 97.7178C55.225 99.0947 54.8308 100.447 54.4618 101.799C54.3372 102.256 54.0802 102.677 53.8837 103.114C53.7536 103.141 53.6235 103.169 53.4934 103.196C53.2484 102.663 52.904 102.153 52.7741 101.594C51.6918 96.9308 50.3008 92.3734 48.2858 88.0203C46.0029 83.0886 43.0863 78.5793 39.3206 74.4852C38.179 75.6348 37.0648 76.7221 35.9953 77.8519C35.6018 78.2677 35.3161 78.4299 34.9125 77.6948C34.7579 77.4765 34.6774 77.4004 34.5969 77.3243C34.5199 77.3256 34.4663 77.2907 34.3903 77.1114C34.2757 76.9392 34.207 76.8752 34.1382 76.8112C34.1382 76.8112 34.1714 76.8188 34.1736 76.7275C34.1713 76.3487 34.1669 76.0612 34.1625 75.7736C34.1625 75.7736 34.1707 75.8062 34.2097 75.7672C34.3095 75.6582 34.3702 75.5883 34.4309 75.5184C34.4309 75.5184 34.4319 75.5648 34.4642 75.5226C34.5572 75.4105 34.618 75.3406 34.6787 75.2707C34.6787 75.2707 34.6796 75.317 34.712 75.2749C34.805 75.1627 34.8657 75.0928 34.9264 75.0229C34.9264 75.0229 34.9274 75.0693 34.9597 75.0271C35.0527 74.915 35.1134 74.845 35.1742 74.7751C35.1742 74.7751 35.1752 74.8215 35.2074 74.7793C35.3004 74.6672 35.3612 74.5973 35.4219 74.5273C35.4219 74.5273 35.4229 74.5737 35.4552 74.5315C35.5482 74.4194 35.6089 74.3495 35.6696 74.2795C35.6696 74.2795 35.6706 74.3259 35.7029 74.2837C35.7959 74.1716 35.8566 74.1017 35.9174 74.0318C35.9174 74.0318 35.9184 74.0782 35.9507 74.036C36.0437 73.9239 36.1044 73.854 36.1652 73.784C36.1652 73.784 36.1661 73.8304 36.1984 73.7882C36.2915 73.6762 36.3522 73.6062 36.4129 73.5363C36.4129 73.5363 36.4139 73.5827 36.4462 73.5405C36.5393 73.4284 36.6 73.3585 36.6607 73.2886C36.6607 73.2886 36.6617 73.3349 36.694 73.2928C36.787 73.1807 36.8478 73.1108 36.9085 73.0409C36.9085 73.0409 36.9095 73.0872 36.9418 73.045C37.0348 72.9329 37.0956 72.863 37.1563 72.7932C37.1563 72.7932 37.1573 72.8395 37.1896 72.7973C37.2826 72.6852 37.3433 72.6153 37.4041 72.5454C37.4041 72.5454 37.4051 72.5917 37.4374 72.5495C37.5304 72.4374 37.5911 72.3675 37.6518 72.2976C37.6518 72.2976 37.6528 72.344 37.6851 72.3017C37.7781 72.1896 37.8388 72.1197 37.8995 72.0498C37.8995 72.0498 37.9005 72.0962 37.9328 72.0539C38.0258 71.9418 38.0865 71.8718 38.1472 71.8019C38.1472 71.8019 38.1482 71.8483 38.1805 71.8061C38.2734 71.6939 38.3342 71.624 38.3949 71.554C38.3949 71.554 38.3959 71.6005 38.4281 71.5583C38.5211 71.4461 38.5818 71.3761 38.6425 71.3062C38.6425 71.3062 38.6435 71.3527 38.6758 71.3105C38.7688 71.1984 38.8296 71.1284 38.8903 71.0584C38.8903 71.0584 38.8913 71.1049 38.9236 71.0627C39.0166 70.9506 39.0773 70.8807 39.1381 70.8108C39.1381 70.8108 39.1391 70.8572 39.1714 70.815C39.2644 70.7029 39.3251 70.633 39.3859 70.5631C39.3859 70.5631 39.3869 70.6094 39.4192 70.5673C39.5122 70.4552 39.5729 70.3853 39.6337 70.3153C39.6337 70.3153 39.6347 70.3617 39.667 70.3195C39.76 70.2074 39.8207 70.1375 39.8814 70.0676C39.8814 70.0676 39.8824 70.1139 39.9147 70.0717C40.0077 69.9596 40.0684 69.8897 40.1291 69.8197C40.1291 69.8197 40.1301 69.8661 40.1624 69.8239C40.2554 69.7118 40.3161 69.6418 40.3768 69.5719C40.3768 69.5719 40.3778 69.6183 40.4101 69.5761C40.5031 69.464 40.5638 69.394 40.6245 69.3241C40.6245 69.3241 40.6255 69.3705 40.6578 69.3283C40.7508 69.2162 40.8115 69.1463 40.8722 69.0763C40.8722 69.0763 40.8733 69.1227 40.9056 69.0806C40.9986 68.9685 41.0593 68.8985 41.12 68.8286C41.12 68.8286 41.121 68.875 41.1533 68.8328C41.2464 68.7207 41.3071 68.6508 41.3678 68.5808C41.3678 68.5808 41.3688 68.6273 41.4011 68.5851C41.4941 68.473 41.5549 68.403 41.6156 68.3331C41.6156 68.3331 41.6166 68.3795 41.6489 68.3373C41.7419 68.2252 41.8026 68.1553 41.8634 68.0853C41.8634 68.0853 41.8644 68.1318 41.8966 68.0896C41.9896 67.9774 42.0504 67.9075 42.1111 67.8376C42.1111 67.8376 42.1121 67.884 42.1444 67.8418C42.2374 67.7297 42.2981 67.6598 42.3589 67.5898C42.3589 67.5898 42.3598 67.6362 42.3921 67.5941C42.4851 67.482 42.5459 67.4121 42.6066 67.3422C42.6066 67.3422 42.6076 67.3885 42.6399 67.3463C42.7329 67.2343 42.7936 67.1644 42.8544 67.0945C42.8544 67.0945 42.8554 67.1408 42.8877 67.0986C42.9807 66.9865 43.0414 66.9167 43.1022 66.8468C43.1022 66.8468 43.0961 66.8791 43.1573 66.8706C43.3513 66.7911 43.4841 66.72 43.6168 66.649Z" fill="#F5CC4A"/>
<path d="M70.1585 30.8404C70.5845 31.1889 71.0105 31.5374 71.3899 31.8478C67.7934 35.4613 64.2831 38.9882 60.54 42.7489C57.9424 38.9564 55.3675 35.1972 52.754 31.3815C46.7338 41.2851 38.2771 48.8157 28.1871 54.6526C32.2709 57.5188 36.1987 60.2756 40.4339 63.2482C39.154 64.4299 38.0858 65.3695 37.0707 66.3635C35.2718 68.1251 33.5048 69.9194 31.725 71.7005C30.2381 73.1885 30.2384 73.1888 28.5102 71.6643C28.4693 71.3473 28.4661 71.2055 28.4629 71.0637C28.4629 71.0637 28.4697 71.0963 28.5098 71.0582C28.6096 70.9496 28.6694 70.8793 28.7291 70.8089C28.7291 70.8089 28.73 70.854 28.764 70.8132C28.8576 70.7021 28.9174 70.6317 28.9771 70.5614C28.9771 70.5614 28.978 70.6064 29.0119 70.5656C29.1056 70.4544 29.1653 70.3841 29.2249 70.3137C29.2249 70.3137 29.2259 70.3587 29.2598 70.3179C29.3534 70.2068 29.4131 70.1364 29.4728 70.066C29.4728 70.066 29.4737 70.111 29.5077 70.0702C29.6012 69.9591 29.6609 69.8887 29.7206 69.8183C29.7206 69.8183 29.7215 69.8633 29.7555 69.8225C29.849 69.7113 29.9087 69.641 29.9683 69.5706C29.9683 69.5706 29.9693 69.6155 30.0032 69.5747C30.0968 69.4636 30.1564 69.3932 30.2161 69.3228C30.2161 69.3228 30.2171 69.3678 30.251 69.327C30.3445 69.2158 30.4042 69.1454 30.4638 69.075C30.4638 69.075 30.4648 69.12 30.4987 69.0792C30.5922 68.968 30.6519 68.8976 30.7115 68.8272C30.7115 68.8272 30.7125 68.8722 30.7464 68.8314C30.84 68.7202 30.8996 68.6498 30.9593 68.5794C30.9593 68.5794 30.9603 68.6244 30.9941 68.5836C31.0877 68.4724 31.1474 68.402 31.2071 68.3317C31.2071 68.3317 31.208 68.3767 31.2419 68.3359C31.3355 68.2247 31.3952 68.1543 31.4548 68.084C31.4548 68.084 31.4547 68.1278 31.4895 68.0902C31.5858 67.9873 31.6472 67.922 31.7087 67.8567C31.7087 67.8567 31.7038 67.8803 31.7578 67.8636C31.8808 67.773 31.9497 67.699 32.0186 67.625C31.9033 67.5505 31.788 67.476 31.6727 67.4015C31.597 67.4101 31.5327 67.3868 31.4185 67.2215C31.274 67.0562 31.191 67.0012 31.108 66.9461C31.108 66.9461 31.1739 66.9456 31.1313 66.9213C31.005 66.8618 30.9214 66.8265 30.8379 66.7912C30.8379 66.7912 30.8238 66.7046 30.822 66.6603C30.5886 66.4948 30.357 66.3737 30.1255 66.2526C30.1255 66.2526 30.1605 66.2419 30.1267 66.2035C30.0129 66.1332 29.933 66.1014 29.8531 66.0696C29.8531 66.0696 29.8388 66.0688 29.8164 65.9889C29.6635 65.8474 29.533 65.7858 29.4025 65.7243C29.4025 65.7243 29.4444 65.7138 29.403 65.6811C29.2765 65.6167 29.1913 65.585 29.1061 65.5532C29.1061 65.5532 29.093 65.4943 29.0885 65.4356C28.8493 65.2689 28.6145 65.1609 28.3798 65.0529C28.417 65.0078 28.4542 64.9626 28.4237 64.8966C28.1161 64.7698 27.8763 64.6637 27.6365 64.5577C27.6738 64.5124 27.7111 64.4671 27.6803 64.4013C27.3731 64.2825 27.1342 64.1842 26.8953 64.0858C26.8953 64.0858 26.8934 64.0677 26.8625 63.9967C26.6956 63.8676 26.5595 63.8095 26.4233 63.7515C26.4233 63.7515 26.4655 63.7425 26.4264 63.6945C26.2457 63.5839 26.1041 63.5212 25.9626 63.4585C25.9626 63.4585 25.9966 63.4468 25.9522 63.4127C25.8217 63.3413 25.7355 63.304 25.6493 63.2667C25.6493 63.2667 25.6914 63.2683 25.6674 63.2009C25.4004 63.0391 25.1574 62.9448 24.9144 62.8504C24.9144 62.8504 24.9053 62.8432 24.8751 62.7666C24.7058 62.6406 24.5666 62.5913 24.4274 62.542C24.4274 62.542 24.4534 62.538 24.4304 62.462C24.1003 62.2492 23.7931 62.1124 23.486 61.9757C23.486 61.9757 23.5186 61.9624 23.4726 61.9305C23.3377 61.8703 23.2489 61.8418 23.1601 61.8134C23.1601 61.8134 23.1899 61.8081 23.1653 61.7389C22.5124 61.3587 21.8842 61.0477 21.256 60.7368C21.256 60.7368 21.2891 60.7235 21.2431 60.6949C21.1094 60.6435 21.0218 60.6207 20.9341 60.5979C20.9341 60.5979 20.9969 60.5838 20.9403 60.5228C20.7413 60.4239 20.5988 60.3861 20.4564 60.3483C20.4833 60.3103 20.5102 60.2724 20.4757 60.2095C19.1077 59.5847 17.801 58.9848 16.4943 58.3848C16.4943 58.3848 16.4853 58.3765 16.4617 58.2931C15.0042 57.6339 13.5701 57.0581 12.1361 56.4823C11.7796 56.3894 11.419 56.3096 11.0674 56.201C9.93029 55.8496 8.79647 55.4876 7.29407 55.0138C7.87525 54.6159 8.19248 54.2728 8.57905 54.1525C18.1169 51.1825 26.6443 46.3556 34.2527 39.9416C36.6924 37.8849 38.9322 35.5408 41.0033 33.1068C46.9898 26.0715 50.461 17.7955 52.5434 8.87438C52.7431 8.01901 53.106 7.20175 53.3931 6.3668C53.5721 6.37531 53.7511 6.38383 53.9301 6.39235C54.2068 7.18305 54.554 7.95687 54.748 8.76737C55.592 12.2938 56.2532 15.87 57.2391 19.355C58.7574 24.7223 61.4865 29.512 64.7913 33.9802C64.8739 34.0919 65.0545 34.1311 65.3311 34.1533C65.5308 34.0325 65.5888 33.9627 65.6468 33.8928C65.6468 33.8928 65.648 33.9394 65.6803 33.8974C65.7733 33.7854 65.834 33.7154 65.8947 33.6453C65.8947 33.6453 65.8957 33.6918 65.928 33.6497C66.0211 33.5376 66.0817 33.4676 66.1424 33.3976C66.1424 33.3976 66.1434 33.444 66.1758 33.4019C66.2688 33.2898 66.3295 33.2198 66.3902 33.1498C66.3902 33.1498 66.3911 33.1963 66.4235 33.1542C66.5165 33.0421 66.5772 32.9721 66.6378 32.9021C66.6378 32.9021 66.6388 32.9485 66.6712 32.9064C66.7643 32.7943 66.8249 32.7243 66.8855 32.6543C66.8855 32.6543 66.8866 32.7007 66.919 32.6586C67.012 32.5465 67.0726 32.4765 67.1333 32.4065C67.1333 32.4065 67.1343 32.4529 67.1667 32.4108C67.2597 32.2987 67.3203 32.2287 67.381 32.1587C67.381 32.1587 67.382 32.2051 67.4144 32.163C67.5074 32.0509 67.5681 31.9809 67.6287 31.9109C67.6287 31.9109 67.6298 31.9573 67.6621 31.9152C67.7552 31.8032 67.8158 31.7331 67.8765 31.6631C67.8765 31.6631 67.8775 31.7096 67.9099 31.6675C68.0029 31.5553 68.0635 31.4853 68.1242 31.4153C68.1242 31.4153 68.1252 31.4618 68.1576 31.4197C68.2506 31.3075 68.3112 31.2375 68.3719 31.1675C68.3719 31.1675 68.3729 31.214 68.4053 31.1719C68.4983 31.0597 68.559 30.9897 68.6196 30.9197C68.6196 30.9197 68.6207 30.9662 68.653 30.9241C68.746 30.812 68.8067 30.742 68.8673 30.672C68.8673 30.672 68.8684 30.7184 68.9008 30.6763C68.9938 30.5643 69.0545 30.4943 69.1151 30.4243C69.1151 30.4243 69.1114 30.4541 69.1995 30.4619C69.493 30.4629 69.6986 30.4561 69.9041 30.4493C69.9041 30.4493 69.8737 30.4561 69.92 30.5092C70.0304 30.655 70.0944 30.7477 70.1585 30.8404Z" fill="#F5CD4A"/>
<path d="M12.2083 56.5327C13.5701 57.0581 15.0042 57.6339 16.4558 58.2947C15.0758 57.7807 13.6782 57.1819 12.2083 56.5327Z" fill="#F1E451"/>
<path d="M16.5616 58.435C17.801 58.9848 19.1077 59.5847 20.4383 60.2685C19.1845 59.7299 17.9067 59.1076 16.5616 58.435Z" fill="#F1E451"/>
<path d="M21.3079 60.8041C21.8842 61.0477 22.5124 61.3587 23.1632 61.7539C22.5771 61.5159 21.9684 61.1937 21.3079 60.8041Z" fill="#F1E451"/>
<path d="M34.0839 75.8101C34.1669 76.0612 34.1713 76.3487 34.1692 76.744C33.6771 76.5844 33.4192 76.2815 34.0839 75.8101Z" fill="#F4E752"/>
<path d="M23.5345 62.0413C23.7931 62.1124 24.1003 62.2492 24.4286 62.475C24.1609 62.4117 23.872 62.2593 23.5345 62.0413Z" fill="#F1E451"/>
<path d="M75.1416 35.4377C74.964 35.55 74.7384 35.6013 74.3964 35.6521C74.5511 35.5599 74.8224 35.4682 75.1416 35.4377Z" fill="#F3E652"/>
<path d="M24.9709 62.8995C25.1574 62.9448 25.4004 63.0391 25.6631 63.2215C25.4644 63.1892 25.2459 63.0689 24.9709 62.8995Z" fill="#F1E451"/>
<path d="M26.9501 64.1349C27.1342 64.1842 27.3732 64.2825 27.6246 64.4697C27.4264 64.4336 27.2157 64.3088 26.9501 64.1349Z" fill="#F1E451"/>
<path d="M27.6893 64.6108C27.8763 64.6637 28.1161 64.7698 28.3683 64.9648C28.1678 64.9239 27.9549 64.7939 27.6893 64.6108Z" fill="#F1E451"/>
<path d="M28.4307 65.1056C28.6146 65.1609 28.8493 65.2689 29.0895 65.4658C28.8904 65.4225 28.686 65.2904 28.4307 65.1056Z" fill="#F1E451"/>
<path d="M30.1678 66.3144C30.357 66.3737 30.5886 66.4948 30.8255 66.7042C30.6239 66.6537 30.4169 66.515 30.1678 66.3144Z" fill="#F1E451"/>
<path d="M31.692 67.4793C31.7881 67.476 31.9034 67.5505 32.0187 67.625C31.9497 67.699 31.8808 67.773 31.7461 67.8608C31.6906 67.7688 31.7009 67.663 31.692 67.4793Z" fill="#F1E451"/>
<path d="M28.3974 71.0867C28.4661 71.2055 28.4693 71.3473 28.4663 71.5952C28.4173 71.5042 28.3746 71.3069 28.3974 71.0867Z" fill="#F1E451"/>
<path d="M69.8763 30.3783C69.6986 30.4561 69.493 30.4629 69.1846 30.4593C69.3373 30.4017 69.5929 30.3545 69.8763 30.3783Z" fill="#F4E752"/>
<path d="M43.5852 66.5891C43.4841 66.72 43.3513 66.7911 43.1414 66.8669C43.2273 66.7575 43.3904 66.6434 43.5852 66.5891Z" fill="#F4E752"/>
<path d="M64.3015 45.5866C64.3569 45.6873 64.3266 45.829 64.2506 46.0282C64.2084 45.9329 64.2121 45.7803 64.3015 45.5866Z" fill="#F3E652"/>
<path d="M20.5062 60.3972C20.5988 60.3861 20.7413 60.4239 20.9114 60.5367C20.8113 60.5566 20.6837 60.5014 20.5062 60.3972Z" fill="#F1E451"/>
<path d="M24.4707 62.5978C24.5666 62.5913 24.7058 62.6406 24.8694 62.7655C24.7672 62.7786 24.6406 62.7161 24.4707 62.5978Z" fill="#F1E451"/>
<path d="M26.0067 63.5221C26.1042 63.5212 26.2457 63.5839 26.4285 63.716C26.33 63.7189 26.1903 63.6522 26.0067 63.5221Z" fill="#F1E451"/>
<path d="M26.4624 63.8113C26.5595 63.8095 26.6956 63.8676 26.8547 64.0012C26.7522 64.0082 26.6268 63.9396 26.4624 63.8113Z" fill="#F1E451"/>
<path d="M75.584 35.8356C75.49 35.8252 75.3697 35.7514 75.2385 35.6034C75.3376 35.6101 75.4477 35.6912 75.584 35.8356Z" fill="#F3E652"/>
<path d="M29.4357 65.7854C29.533 65.7858 29.6635 65.8474 29.811 65.9842C29.7083 65.9885 29.5886 65.9175 29.4357 65.7854Z" fill="#F1E451"/>
<path d="M40.3073 69.5971C40.3161 69.6418 40.2554 69.7118 40.1392 69.8242C40.1351 69.7853 40.1865 69.7038 40.3073 69.5971Z" fill="#F4E752"/>
<path d="M29.8995 69.596C29.9087 69.641 29.849 69.7114 29.733 69.8227C29.728 69.7829 29.7793 69.7021 29.8995 69.596Z" fill="#F1E451"/>
<path d="M40.555 69.3493C40.5638 69.394 40.5031 69.464 40.3869 69.5764C40.3828 69.5375 40.4342 69.456 40.555 69.3493Z" fill="#F4E752"/>
<path d="M29.6517 69.8438C29.6609 69.8887 29.6012 69.9591 29.4852 70.0704C29.4801 70.0306 29.5315 69.9499 29.6517 69.8438Z" fill="#F1E451"/>
<path d="M30.1472 69.3482C30.1564 69.3932 30.0968 69.4636 29.9808 69.5749C29.9757 69.5351 30.027 69.4544 30.1472 69.3482Z" fill="#F1E451"/>
<path d="M40.8028 69.1015C40.8115 69.1462 40.7508 69.2162 40.6346 69.3286C40.6305 69.2897 40.6819 69.2082 40.8028 69.1015Z" fill="#F4E752"/>
<path d="M30.3949 69.1004C30.4042 69.1454 30.3445 69.2158 30.2285 69.3271C30.2235 69.2873 30.2748 69.2066 30.3949 69.1004Z" fill="#F1E451"/>
<path d="M41.0506 68.8538C41.0593 68.8985 40.9986 68.9685 40.8823 69.0809C40.8782 69.0419 40.9296 68.9605 41.0506 68.8538Z" fill="#F4E752"/>
<path d="M30.6427 68.8526C30.6519 68.8976 30.5923 68.968 30.4762 69.0793C30.4712 69.0396 30.5225 68.9588 30.6427 68.8526Z" fill="#F1E451"/>
<path d="M41.2983 68.606C41.3071 68.6508 41.2464 68.7207 41.1301 68.8331C41.126 68.7942 41.1774 68.7127 41.2983 68.606Z" fill="#F4E752"/>
<path d="M29.4039 70.0914C29.4131 70.1364 29.3534 70.2068 29.2373 70.3181C29.2323 70.2783 29.2837 70.1976 29.4039 70.0914Z" fill="#F1E451"/>
<path d="M30.8904 68.6048C30.8996 68.6498 30.84 68.7202 30.7239 68.8315C30.7189 68.7918 30.7702 68.711 30.8904 68.6048Z" fill="#F1E451"/>
<path d="M40.0596 69.845C40.0684 69.8897 40.0077 69.9596 39.8915 70.072C39.8874 70.0331 39.9388 69.9516 40.0596 69.845Z" fill="#F4E752"/>
<path d="M41.5461 68.3583C41.5549 68.403 41.4941 68.473 41.3779 68.5854C41.3738 68.5464 41.4252 68.465 41.5461 68.3583Z" fill="#F4E752"/>
<path d="M31.1382 68.3571C31.1474 68.402 31.0877 68.4724 30.9716 68.5838C30.9666 68.544 31.018 68.4632 31.1382 68.3571Z" fill="#F1E451"/>
<path d="M41.7938 68.1105C41.8026 68.1553 41.7419 68.2252 41.6257 68.3376C41.6216 68.2987 41.6729 68.2172 41.7938 68.1105Z" fill="#F4E752"/>
<path d="M31.386 68.1093C31.3952 68.1543 31.3355 68.2247 31.2194 68.336C31.2144 68.2962 31.2657 68.2155 31.386 68.1093Z" fill="#F1E451"/>
<path d="M42.0416 67.8628C42.0504 67.9075 41.9896 67.9774 41.8734 68.0899C41.8693 68.0509 41.9207 67.9694 42.0416 67.8628Z" fill="#F4E752"/>
<path d="M31.6396 67.8766C31.6473 67.922 31.5858 67.9873 31.4676 68.0898C31.4641 68.0501 31.5172 67.9733 31.6396 67.8766Z" fill="#F1E451"/>
<path d="M42.2893 67.615C42.2981 67.6598 42.2374 67.7297 42.1211 67.8421C42.117 67.8031 42.1684 67.7217 42.2893 67.615Z" fill="#F4E752"/>
<path d="M42.5371 67.3673C42.5459 67.4121 42.4851 67.482 42.3689 67.5943C42.3648 67.5554 42.4162 67.4739 42.5371 67.3673Z" fill="#F4E752"/>
<path d="M68.5502 30.945C68.559 30.9897 68.4983 31.0598 68.3821 31.1722C68.3779 31.1332 68.4294 31.0518 68.5502 30.945Z" fill="#F4E752"/>
<path d="M42.7849 67.1197C42.7936 67.1644 42.7329 67.2343 42.6167 67.3466C42.6127 67.3077 42.664 67.2263 42.7849 67.1197Z" fill="#F4E752"/>
<path d="M43.0327 66.872C43.0414 66.9167 42.9807 66.9865 42.8646 67.0989C42.8605 67.06 42.9119 66.9786 43.0327 66.872Z" fill="#F4E752"/>
<path d="M31.1422 67.0159C31.191 67.0012 31.274 67.0562 31.4014 67.1715C31.356 67.183 31.2662 67.1343 31.1422 67.0159Z" fill="#F1E451"/>
<path d="M30.8821 66.8429C30.9215 66.8265 31.005 66.8618 31.1295 66.9542C31.0891 66.9725 31.0077 66.9335 30.8821 66.8429Z" fill="#F1E451"/>
<path d="M37.0868 72.8183C37.0956 72.863 37.0348 72.9329 36.9187 73.0453C36.9146 73.0064 36.9659 72.9249 37.0868 72.8183Z" fill="#F4E752"/>
<path d="M34.6319 77.4021C34.6774 77.4004 34.7579 77.4765 34.8836 77.6236C34.8416 77.623 34.7543 77.5514 34.6319 77.4021Z" fill="#F4E752"/>
<path d="M34.1628 76.8811C34.207 76.8752 34.2757 76.9392 34.3843 77.0612C34.3453 77.0632 34.2664 77.0071 34.1628 76.8811Z" fill="#F4E752"/>
<path d="M69.0458 30.4496C69.0545 30.4943 68.9938 30.5643 68.8775 30.6766C68.8734 30.6377 68.9249 30.5563 69.0458 30.4496Z" fill="#F4E752"/>
<path d="M34.3614 75.5437C34.3702 75.5883 34.3095 75.6582 34.1933 75.7706C34.1892 75.7317 34.2406 75.6503 34.3614 75.5437Z" fill="#F4E752"/>
<path d="M34.6092 75.2959C34.618 75.3406 34.5572 75.4105 34.441 75.5229C34.4369 75.4839 34.4883 75.4025 34.6092 75.2959Z" fill="#F4E752"/>
<path d="M34.8569 75.0481C34.8657 75.0928 34.805 75.1627 34.6888 75.2751C34.6847 75.2362 34.736 75.1547 34.8569 75.0481Z" fill="#F4E752"/>
<path d="M35.1047 74.8003C35.1134 74.845 35.0527 74.915 34.9365 75.0274C34.9324 74.9884 34.9838 74.907 35.1047 74.8003Z" fill="#F4E752"/>
<path d="M70.1473 30.7476C70.0944 30.7477 70.0304 30.655 69.9172 30.4938C69.9575 30.5018 70.0468 30.5783 70.1473 30.7476Z" fill="#F4E752"/>
<path d="M35.3524 74.5526C35.3611 74.5973 35.3004 74.6672 35.1842 74.7796C35.1801 74.7406 35.2315 74.6592 35.3524 74.5526Z" fill="#F4E752"/>
<path d="M35.6001 74.3048C35.6089 74.3495 35.5482 74.4194 35.432 74.5318C35.4279 74.4929 35.4793 74.4114 35.6001 74.3048Z" fill="#F4E752"/>
<path d="M35.8479 74.057C35.8566 74.1017 35.7959 74.1716 35.6797 74.284C35.6756 74.2451 35.727 74.1637 35.8479 74.057Z" fill="#F4E752"/>
<path d="M36.0957 73.8092C36.1044 73.8539 36.0437 73.9239 35.9275 74.0363C35.9234 73.9973 35.9748 73.9159 36.0957 73.8092Z" fill="#F4E752"/>
<path d="M36.3434 73.5615C36.3522 73.6062 36.2915 73.6761 36.1752 73.7885C36.1711 73.7495 36.2225 73.6681 36.3434 73.5615Z" fill="#F4E752"/>
<path d="M36.5912 73.3138C36.6 73.3585 36.5392 73.4284 36.423 73.5408C36.4189 73.5018 36.4703 73.4204 36.5912 73.3138Z" fill="#F4E752"/>
<path d="M36.839 73.066C36.8477 73.1108 36.787 73.1807 36.6708 73.2931C36.6667 73.2541 36.7181 73.1727 36.839 73.066Z" fill="#F4E752"/>
<path d="M29.1523 65.6039C29.1913 65.585 29.2765 65.6167 29.4062 65.7025C29.3667 65.7225 29.2826 65.6885 29.1523 65.6039Z" fill="#F1E451"/>
<path d="M37.3345 72.5706C37.3433 72.6153 37.2826 72.6852 37.1664 72.7976C37.1623 72.7586 37.2137 72.6772 37.3345 72.5706Z" fill="#F4E752"/>
<path d="M37.5823 72.3228C37.5911 72.3675 37.5304 72.4374 37.4142 72.5498C37.4101 72.5109 37.4614 72.4294 37.5823 72.3228Z" fill="#F4E752"/>
<path d="M37.83 72.0749C37.8388 72.1197 37.7781 72.1896 37.6619 72.302C37.6578 72.2631 37.7091 72.1816 37.83 72.0749Z" fill="#F4E752"/>
<path d="M38.0777 71.8271C38.0865 71.8718 38.0258 71.9418 37.9096 72.0542C37.9055 72.0152 37.9568 71.9337 38.0777 71.8271Z" fill="#F4E752"/>
<path d="M38.3253 71.5792C38.3342 71.624 38.2734 71.6939 38.1572 71.8064C38.1531 71.7674 38.2045 71.6859 38.3253 71.5792Z" fill="#F4E752"/>
<path d="M38.573 71.3314C38.5818 71.3761 38.5211 71.4461 38.4049 71.5586C38.4008 71.5196 38.4522 71.4381 38.573 71.3314Z" fill="#F4E752"/>
<path d="M38.8208 71.0836C38.8296 71.1284 38.7689 71.1984 38.6526 71.3108C38.6485 71.2718 38.6999 71.1903 38.8208 71.0836Z" fill="#F4E752"/>
<path d="M68.7979 30.6973C68.8067 30.742 68.746 30.812 68.6298 30.9244C68.6256 30.8854 68.6771 30.804 68.7979 30.6973Z" fill="#F4E752"/>
<path d="M39.0686 70.836C39.0773 70.8807 39.0166 70.9506 38.9003 71.063C38.8962 71.024 38.9476 70.9426 39.0686 70.836Z" fill="#F4E752"/>
<path d="M28.6603 70.8344C28.6694 70.8793 28.6096 70.9496 28.4934 71.0609C28.4884 71.0211 28.54 70.9405 28.6603 70.8344Z" fill="#F1E451"/>
<path d="M39.3164 70.5883C39.3252 70.633 39.2644 70.7029 39.1482 70.8153C39.1441 70.7763 39.1955 70.6949 39.3164 70.5883Z" fill="#F4E752"/>
<path d="M28.9082 70.5868C28.9174 70.6317 28.8576 70.7021 28.7414 70.8133C28.7364 70.7735 28.7879 70.6929 28.9082 70.5868Z" fill="#F1E451"/>
<path d="M39.5642 70.3405C39.5729 70.3853 39.5122 70.4552 39.396 70.5676C39.3919 70.5286 39.4433 70.4472 39.5642 70.3405Z" fill="#F4E752"/>
<path d="M29.1561 70.3392C29.1653 70.3841 29.1056 70.4545 28.9894 70.5657C28.9844 70.5259 29.0358 70.4453 29.1561 70.3392Z" fill="#F1E451"/>
<path d="M39.8119 70.0928C39.8207 70.1375 39.76 70.2074 39.6438 70.3198C39.6397 70.2809 39.691 70.1994 39.8119 70.0928Z" fill="#F4E752"/>
<path d="M72.018 37.8823C72.027 37.9272 71.9668 37.9973 71.8506 38.1093C71.8461 38.07 71.8974 37.9888 72.018 37.8823Z" fill="#F3E652"/>
<path d="M68.5497 41.3513C68.5587 41.3961 68.4984 41.4662 68.3822 41.5781C68.3777 41.5388 68.4291 41.4577 68.5497 41.3513Z" fill="#F3E652"/>
<path d="M68.7975 41.1035C68.8065 41.1484 68.7462 41.2185 68.63 41.3304C68.6255 41.2911 68.6769 41.2099 68.7975 41.1035Z" fill="#F3E652"/>
<path d="M69.0453 40.8558C69.0543 40.9006 68.994 40.9707 68.8778 41.0827C68.8733 41.0434 68.9247 40.9622 69.0453 40.8558Z" fill="#F3E652"/>
<path d="M69.293 40.608C69.302 40.6528 69.2417 40.7229 69.1256 40.8349C69.1211 40.7956 69.1724 40.7144 69.293 40.608Z" fill="#F3E652"/>
<path d="M69.5407 40.3601C69.5497 40.405 69.4895 40.4751 69.3733 40.5871C69.3688 40.5478 69.4201 40.4666 69.5407 40.3601Z" fill="#F3E652"/>
<path d="M69.7884 40.1123C69.7974 40.1571 69.7371 40.2273 69.621 40.3393C69.6164 40.3 69.6678 40.2188 69.7884 40.1123Z" fill="#F3E652"/>
<path d="M70.036 39.8644C70.045 39.9093 69.9848 39.9795 69.8686 40.0915C69.8641 40.0521 69.9154 39.9709 70.036 39.8644Z" fill="#F3E652"/>
<path d="M70.2837 39.6166C70.2927 39.6615 70.2324 39.7317 70.1163 39.8437C70.1117 39.8043 70.1631 39.7231 70.2837 39.6166Z" fill="#F3E652"/>
<path d="M70.5315 39.3689C70.5404 39.4137 70.4802 39.4839 70.364 39.5959C70.3594 39.5565 70.4108 39.4754 70.5315 39.3689Z" fill="#F3E652"/>
<path d="M70.7792 39.1212C70.7882 39.166 70.728 39.2362 70.6118 39.3481C70.6072 39.3088 70.6586 39.2276 70.7792 39.1212Z" fill="#F3E652"/>
<path d="M71.0271 38.8735C71.036 38.9183 70.9758 38.9885 70.8596 39.1004C70.8551 39.061 70.9064 38.9799 71.0271 38.8735Z" fill="#F3E652"/>
<path d="M71.2748 38.6257C71.2838 38.6706 71.2236 38.7407 71.1074 38.8527C71.1029 38.8133 71.1542 38.7322 71.2748 38.6257Z" fill="#F3E652"/>
<path d="M71.5226 38.378C71.5316 38.4228 71.4713 38.4929 71.3552 38.6049C71.3506 38.5656 71.402 38.4844 71.5226 38.378Z" fill="#F3E652"/>
<path d="M71.7703 38.1302C71.7793 38.175 71.719 38.2451 71.6029 38.3571C71.5984 38.3178 71.6497 38.2366 71.7703 38.1302Z" fill="#F3E652"/>
<path d="M68.3019 41.599C68.3109 41.6438 68.2506 41.7139 68.1344 41.8259C68.1299 41.7865 68.1813 41.7054 68.3019 41.599Z" fill="#F3E652"/>
<path d="M72.2657 37.6345C72.2747 37.6794 72.2145 37.7495 72.0983 37.8615C72.0938 37.8222 72.1451 37.741 72.2657 37.6345Z" fill="#F3E652"/>
<path d="M72.5134 37.3867C72.5224 37.4316 72.4621 37.5018 72.346 37.6137C72.3414 37.5744 72.3928 37.4932 72.5134 37.3867Z" fill="#F3E652"/>
<path d="M72.7612 37.139C72.7702 37.1838 72.7099 37.254 72.5937 37.3659C72.5892 37.3266 72.6406 37.2455 72.7612 37.139Z" fill="#F3E652"/>
<path d="M73.009 36.8913C73.018 36.9361 72.9577 37.0063 72.8415 37.1182C72.837 37.0789 72.8884 36.9977 73.009 36.8913Z" fill="#F3E652"/>
<path d="M73.2568 36.6435C73.2657 36.6884 73.2055 36.7585 73.0893 36.8705C73.0848 36.8311 73.1362 36.75 73.2568 36.6435Z" fill="#F3E652"/>
<path d="M73.5045 36.3958C73.5135 36.4406 73.4532 36.5107 73.3371 36.6227C73.3325 36.5834 73.3839 36.5022 73.5045 36.3958Z" fill="#F3E652"/>
<path d="M76.1746 36.3375C76.1228 36.3518 76.0277 36.2863 75.8729 36.1574C75.9191 36.1486 76.0252 36.2031 76.1746 36.3375Z" fill="#F3E652"/>
<path d="M73.7523 36.148C73.7612 36.1928 73.701 36.263 73.5848 36.3749C73.5803 36.3356 73.6317 36.2545 73.7523 36.148Z" fill="#F3E652"/>
<path d="M75.8634 36.0737C75.8168 36.0884 75.7384 36.035 75.6136 35.927C75.6554 35.9168 75.7436 35.9612 75.8634 36.0737Z" fill="#F3E652"/>
<path d="M74 35.9002C74.009 35.945 73.9487 36.0152 73.8326 36.1271C73.828 36.0878 73.8794 36.0066 74 35.9002Z" fill="#F3E652"/>
<path d="M66.0729 33.4228C66.0818 33.4676 66.0211 33.5376 65.9048 33.65C65.9006 33.611 65.952 33.5295 66.0729 33.4228Z" fill="#F4E752"/>
<path d="M74.2477 35.6523C74.2567 35.6972 74.1965 35.7674 74.0803 35.8794C74.0757 35.84 74.1271 35.7588 74.2477 35.6523Z" fill="#F3E652"/>
<path d="M65.8252 33.6706C65.834 33.7154 65.7733 33.7854 65.657 33.8978C65.6529 33.8587 65.7043 33.7773 65.8252 33.6706Z" fill="#F4E752"/>
<path d="M64.8333 45.0676C64.8422 45.1124 64.7819 45.1825 64.6657 45.2944C64.6612 45.2551 64.7127 45.174 64.8333 45.0676Z" fill="#F3E652"/>
<path d="M29.8956 66.1173C29.933 66.1014 30.013 66.1332 30.1288 66.2217C30.0891 66.2406 30.0136 66.2028 29.8956 66.1173Z" fill="#F1E451"/>
<path d="M65.5786 33.9178C65.5888 33.9627 65.5308 34.0325 65.4183 34.1432C65.4127 34.1036 65.4615 34.0232 65.5786 33.9178Z" fill="#F4E752"/>
<path d="M68.0548 31.4406C68.0636 31.4853 68.0029 31.5553 67.8867 31.6677C67.8825 31.6287 67.9339 31.5474 68.0548 31.4406Z" fill="#F4E752"/>
<path d="M67.8071 31.6885C67.8159 31.7331 67.7552 31.8032 67.639 31.9155C67.6348 31.8765 67.6862 31.7952 67.8071 31.6885Z" fill="#F4E752"/>
<path d="M67.5593 31.9363C67.5681 31.9809 67.5074 32.0509 67.3912 32.1633C67.3871 32.1243 67.4385 32.043 67.5593 31.9363Z" fill="#F4E752"/>
<path d="M25.6903 63.3281C25.7355 63.304 25.8217 63.3413 25.9573 63.4299C25.915 63.4506 25.8232 63.42 25.6903 63.3281Z" fill="#F1E451"/>
<path d="M67.3116 32.184C67.3203 32.2287 67.2597 32.2987 67.1435 32.4111C67.1393 32.3721 67.1907 32.2907 67.3116 32.184Z" fill="#F4E752"/>
<path d="M67.0639 32.4318C67.0726 32.4765 67.012 32.5465 66.8958 32.6589C66.8916 32.6199 66.943 32.5385 67.0639 32.4318Z" fill="#F4E752"/>
<path d="M23.2088 61.8661C23.2489 61.8418 23.3377 61.8703 23.4785 61.9472C23.4394 61.97 23.3485 61.9444 23.2088 61.8661Z" fill="#F1E451"/>
<path d="M66.8161 32.6796C66.8249 32.7243 66.7643 32.7943 66.648 32.9067C66.6439 32.8677 66.6953 32.7863 66.8161 32.6796Z" fill="#F4E752"/>
<path d="M20.9847 60.645C21.0218 60.6207 21.1094 60.6435 21.249 60.7117C21.2124 60.7355 21.1239 60.7139 20.9847 60.645Z" fill="#F1E451"/>
<path d="M66.5684 32.9273C66.5772 32.9721 66.5165 33.0421 66.4003 33.1544C66.3961 33.1154 66.4475 33.034 66.5684 32.9273Z" fill="#F4E752"/>
<path d="M66.3207 33.1751C66.3295 33.2198 66.2688 33.2898 66.1525 33.4022C66.1484 33.3632 66.1998 33.2818 66.3207 33.1751Z" fill="#F4E752"/>
<path d="M64.5855 45.3154C64.5943 45.3601 64.5341 45.4302 64.4179 45.542C64.4134 45.5028 64.4649 45.4218 64.5855 45.3154Z" fill="#F3E652"/>
<path d="M68.3025 31.1928C68.3112 31.2375 68.2506 31.3075 68.1344 31.42C68.1302 31.3809 68.1816 31.2996 68.3025 31.1928Z" fill="#F4E752"/>
<path d="M65.0811 44.8198C65.09 44.8647 65.0298 44.9348 64.9135 45.0467C64.909 45.0074 64.9605 44.9263 65.0811 44.8198Z" fill="#F3E652"/>
<path d="M65.3288 44.5721C65.3378 44.6169 65.2775 44.6871 65.1613 44.799C65.1568 44.7597 65.2082 44.6785 65.3288 44.5721Z" fill="#F3E652"/>
<path d="M65.5766 44.3243C65.5855 44.3692 65.5253 44.4393 65.4091 44.5513C65.4046 44.512 65.456 44.4308 65.5766 44.3243Z" fill="#F3E652"/>
<path d="M65.8243 44.0766C65.8333 44.1214 65.7731 44.1915 65.6569 44.3035C65.6524 44.2642 65.7037 44.183 65.8243 44.0766Z" fill="#F3E652"/>
<path d="M66.0721 43.8288C66.0811 43.8736 66.0208 43.9438 65.9046 44.0557C65.9001 44.0164 65.9515 43.9352 66.0721 43.8288Z" fill="#F3E652"/>
<path d="M66.3198 43.581C66.3288 43.6259 66.2686 43.696 66.1524 43.808C66.1478 43.7686 66.1992 43.6875 66.3198 43.581Z" fill="#F3E652"/>
<path d="M66.5676 43.3333C66.5766 43.3781 66.5163 43.4483 66.4002 43.5602C66.3956 43.5209 66.447 43.4397 66.5676 43.3333Z" fill="#F3E652"/>
<path d="M66.8153 43.0855C66.8243 43.1304 66.7641 43.2005 66.6479 43.3125C66.6434 43.2731 66.6948 43.192 66.8153 43.0855Z" fill="#F3E652"/>
<path d="M67.0631 42.8378C67.072 42.8826 67.0118 42.9527 66.8957 43.0647C66.8911 43.0254 66.9425 42.9442 67.0631 42.8378Z" fill="#F3E652"/>
<path d="M67.3108 42.59C67.3198 42.6348 67.2595 42.7049 67.1434 42.8169C67.1389 42.7776 67.1902 42.6964 67.3108 42.59Z" fill="#F3E652"/>
<path d="M67.5586 42.3422C67.5675 42.387 67.5073 42.4572 67.3911 42.5691C67.3866 42.5298 67.438 42.4487 67.5586 42.3422Z" fill="#F3E652"/>
<path d="M67.8063 42.0945C67.8153 42.1393 67.755 42.2094 67.6389 42.3214C67.6343 42.282 67.6857 42.2009 67.8063 42.0945Z" fill="#F3E652"/>
<path d="M68.0541 41.8467C68.0631 41.8915 68.0028 41.9617 67.8867 42.0736C67.8821 42.0343 67.9335 41.9531 68.0541 41.8467Z" fill="#F3E652"/>
</g>
<defs>
<clipPath id="clip0_593_2379">
<rect width="110" height="111" fill="white"/>
</clipPath>
</defs>
</svg>
