<svg width="32" height="32" viewBox="0 0 32 32" fill="none" xmlns="http://www.w3.org/2000/svg">
<path d="M13.5751 3.84009C5.49057 3.84009 0.640015 10.3252 0.640015 13.5681C0.640015 16.811 2.25665 19.243 5.49057 19.243C8.72449 19.243 10.3418 20.0532 10.3418 22.4852C10.3418 25.7274 12.7667 28.1594 16.0007 28.1594C26.5107 28.1594 31.3607 22.4852 31.3607 16.811C31.36 7.08297 23.2743 3.84009 13.5751 3.84009ZM11.5539 7.08297C11.8197 7.0833 12.0828 7.13598 12.3282 7.23799C12.5736 7.34 12.7965 7.48935 12.9841 7.6775C13.1718 7.86565 13.3206 8.08893 13.422 8.33458C13.5234 8.58024 13.5754 8.84345 13.5751 9.10921C13.5751 10.2292 12.6701 11.1361 11.5539 11.1361C10.4378 11.1361 9.53281 10.2286 9.53281 9.10921C9.53248 8.84345 9.58449 8.58024 9.68588 8.33458C9.78727 8.08893 9.93605 7.86565 10.1237 7.6775C10.3114 7.48935 10.5343 7.34 10.7797 7.23799C11.0251 7.13598 11.2882 7.0833 11.5539 7.08297ZM18.0205 7.08297C18.2862 7.0833 18.5493 7.13598 18.7947 7.23799C19.0401 7.34 19.263 7.48935 19.4507 7.6775C19.6384 7.86565 19.7872 8.08893 19.8885 8.33458C19.9899 8.58024 20.042 8.84345 20.0416 9.10921C20.042 9.37501 19.9901 9.6383 19.8887 9.88403C19.7874 10.1298 19.6386 10.3531 19.4509 10.5413C19.2632 10.7296 19.0403 10.879 18.7949 10.981C18.5494 11.0831 18.2863 11.1358 18.0205 11.1361C17.7547 11.1357 17.4917 11.0829 17.2463 10.9808C17.0009 10.8787 16.7781 10.7293 16.5905 10.5411C16.4029 10.3529 16.2541 10.1296 16.1528 9.88388C16.0515 9.6382 15.9996 9.37496 16 9.10921C15.9993 8.57261 16.2118 8.0577 16.5907 7.67773C16.9696 7.29775 17.4839 7.08382 18.0205 7.08297ZM24.4883 10.3252C24.7542 10.3255 25.0174 10.3781 25.2629 10.4801C25.5084 10.5821 25.7314 10.7315 25.9192 10.9197C26.1069 11.108 26.2558 11.3314 26.3572 11.5771C26.4585 11.8229 26.5105 12.0862 26.5101 12.3521C26.5105 12.6179 26.4585 12.8812 26.3571 13.127C26.2557 13.3727 26.1069 13.596 25.9191 13.7842C25.7314 13.9724 25.5084 14.1217 25.2629 14.2237C25.0174 14.3256 24.7542 14.3782 24.4883 14.3783C24.2226 14.3781 23.9595 14.3255 23.7141 14.2235C23.4687 14.1215 23.2458 13.9721 23.0582 13.7839C22.8705 13.5958 22.7218 13.3724 22.6205 13.1268C22.5192 12.8811 22.4673 12.6178 22.4679 12.3521C22.4673 12.0863 22.5192 11.823 22.6205 11.5773C22.7218 11.3316 22.8705 11.1082 23.0581 10.92C23.2458 10.7318 23.4686 10.5824 23.7141 10.4803C23.9595 10.3782 24.2226 10.3255 24.4883 10.3252ZM5.89505 11.947C6.16075 11.9472 6.42379 11.9998 6.66914 12.1018C6.9145 12.2037 7.13736 12.353 7.325 12.5411C7.51263 12.7292 7.66136 12.9525 7.76269 13.1981C7.86402 13.4437 7.91596 13.7069 7.91553 13.9726C7.91553 15.0926 7.01057 15.9994 5.89505 15.9994C4.77953 15.9994 3.87393 15.0919 3.87393 13.9726C3.87343 13.436 4.08606 12.9211 4.46507 12.5413C4.84409 12.1614 5.35845 11.9476 5.89505 11.947ZM16 20.0532C17.3395 20.0532 18.425 21.1412 18.425 22.4858C18.425 23.8286 17.3395 24.9172 16 24.9172C14.6605 24.9172 13.5751 23.8286 13.5751 22.4858C13.5745 22.1669 13.6367 21.8509 13.7583 21.556C13.8799 21.2611 14.0583 20.993 14.2835 20.7671C14.5087 20.5412 14.7762 20.3619 15.0707 20.2394C15.3653 20.1169 15.681 20.0536 16 20.0532Z" fill="white"/>
</svg>
