<svg width="33" height="32" viewBox="0 0 33 32" fill="none" xmlns="http://www.w3.org/2000/svg">
<path d="M14.0751 3.84C5.99057 3.84 1.14001 10.3251 1.14001 13.568C1.14001 16.8109 2.75665 19.2429 5.99057 19.2429C9.22449 19.2429 10.8418 20.0531 10.8418 22.4851C10.8418 25.7274 13.2667 28.1594 16.5007 28.1594C27.0107 28.1594 31.8607 22.4851 31.8607 16.8109C31.86 7.08288 23.7743 3.84 14.0751 3.84ZM12.0539 7.08288C12.3197 7.08321 12.5828 7.13589 12.8282 7.2379C13.0736 7.33991 13.2965 7.48925 13.4841 7.67741C13.6718 7.86556 13.8206 8.08884 13.922 8.33449C14.0234 8.58015 14.0754 8.84336 14.0751 9.10912C14.0751 10.2291 13.1701 11.136 12.0539 11.136C10.9378 11.136 10.0328 10.2285 10.0328 9.10912C10.0325 8.84336 10.0845 8.58015 10.1859 8.33449C10.2873 8.08884 10.436 7.86556 10.6237 7.67741C10.8114 7.48925 11.0343 7.33991 11.2797 7.2379C11.5251 7.13589 11.7882 7.08321 12.0539 7.08288V7.08288ZM18.5205 7.08288C18.7862 7.08321 19.0493 7.13589 19.2947 7.2379C19.5401 7.33991 19.763 7.48925 19.9507 7.67741C20.1384 7.86556 20.2872 8.08884 20.3886 8.33449C20.4899 8.58015 20.542 8.84336 20.5416 9.10912C20.542 9.37492 20.4901 9.63821 20.3887 9.88394C20.2874 10.1297 20.1386 10.353 19.9509 10.5412C19.7632 10.7295 19.5403 10.8789 19.2949 10.9809C19.0494 11.083 18.7863 11.1357 18.5205 11.136C18.2547 11.1356 17.9917 11.0828 17.7463 10.9807C17.5009 10.8786 17.2781 10.7292 17.0905 10.541C16.9029 10.3528 16.7541 10.1295 16.6528 9.88379C16.5515 9.6381 16.4996 9.37487 16.5 9.10912C16.4993 8.57251 16.7118 8.05761 17.0907 7.67763C17.4696 7.29766 17.9839 7.08372 18.5205 7.08288V7.08288ZM24.9883 10.3251C25.2542 10.3254 25.5174 10.378 25.7629 10.48C26.0084 10.582 26.2314 10.7314 26.4192 10.9196C26.6069 11.1079 26.7558 11.3313 26.8572 11.577C26.9585 11.8228 27.0105 12.0861 27.0101 12.352C27.0105 12.6178 26.9585 12.8811 26.8571 13.1269C26.7557 13.3726 26.6069 13.5959 26.4191 13.7841C26.2314 13.9723 26.0084 14.1216 25.7629 14.2236C25.5174 14.3255 25.2542 14.3781 24.9883 14.3782C24.7226 14.378 24.4595 14.3254 24.2141 14.2234C23.9687 14.1214 23.7458 13.972 23.5582 13.7839C23.3705 13.5957 23.2218 13.3724 23.1205 13.1267C23.0192 12.881 22.9673 12.6177 22.9679 12.352C22.9673 12.0862 23.0192 11.8229 23.1205 11.5772C23.2218 11.3315 23.3705 11.1081 23.5581 10.9199C23.7458 10.7317 23.9686 10.5823 24.214 10.4802C24.4595 10.3782 24.7226 10.3255 24.9883 10.3251V10.3251ZM6.39505 11.9469C6.66075 11.9471 6.92379 11.9997 7.16914 12.1017C7.4145 12.2036 7.63736 12.3529 7.825 12.541C8.01263 12.7291 8.16136 12.9524 8.26269 13.198C8.36402 13.4436 8.41596 13.7068 8.41553 13.9725C8.41553 15.0925 7.51057 15.9994 6.39505 15.9994C5.27953 15.9994 4.37393 15.0918 4.37393 13.9725C4.37343 13.4359 4.58606 12.921 4.96507 12.5412C5.34409 12.1613 5.85845 11.9476 6.39505 11.9469V11.9469ZM16.5 20.0531C17.8395 20.0531 18.925 21.1411 18.925 22.4858C18.925 23.8285 17.8395 24.9171 16.5 24.9171C15.1605 24.9171 14.0751 23.8285 14.0751 22.4858C14.0745 22.1668 14.1367 21.8508 14.2583 21.5559C14.3799 21.261 14.5583 20.9929 14.7835 20.767C15.0087 20.5411 15.2762 20.3618 15.5707 20.2393C15.8653 20.1168 16.181 20.0535 16.5 20.0531V20.0531Z" fill="white"/>
</svg>
