<svg width="32" height="32" viewBox="0 0 32 32" fill="none" xmlns="http://www.w3.org/2000/svg">
<path d="M13.5751 3.84C5.49057 3.84 0.640015 10.3251 0.640015 13.568C0.640015 16.8109 2.25665 19.2429 5.49057 19.2429C8.72449 19.2429 10.3418 20.0531 10.3418 22.4851C10.3418 25.7274 12.7667 28.1594 16.0007 28.1594C26.5107 28.1594 31.3607 22.4851 31.3607 16.8109C31.36 7.08288 23.2743 3.84 13.5751 3.84ZM11.5539 7.08288C11.8197 7.08321 12.0828 7.13589 12.3282 7.2379C12.5736 7.33991 12.7965 7.48925 12.9841 7.67741C13.1718 7.86556 13.3206 8.08884 13.422 8.33449C13.5234 8.58015 13.5754 8.84336 13.5751 9.10912C13.5751 10.2291 12.6701 11.136 11.5539 11.136C10.4378 11.136 9.53281 10.2285 9.53281 9.10912C9.53248 8.84336 9.58449 8.58015 9.68588 8.33449C9.78727 8.08884 9.93605 7.86556 10.1237 7.67741C10.3114 7.48925 10.5343 7.33991 10.7797 7.2379C11.0251 7.13589 11.2882 7.08321 11.5539 7.08288V7.08288ZM18.0205 7.08288C18.2862 7.08321 18.5493 7.13589 18.7947 7.2379C19.0401 7.33991 19.263 7.48925 19.4507 7.67741C19.6384 7.86556 19.7872 8.08884 19.8886 8.33449C19.9899 8.58015 20.042 8.84336 20.0416 9.10912C20.042 9.37492 19.9901 9.63821 19.8887 9.88394C19.7874 10.1297 19.6386 10.353 19.4509 10.5412C19.2632 10.7295 19.0403 10.8789 18.7949 10.9809C18.5494 11.083 18.2863 11.1357 18.0205 11.136C17.7547 11.1356 17.4917 11.0828 17.2463 10.9807C17.0009 10.8786 16.7781 10.7292 16.5905 10.541C16.4029 10.3528 16.2541 10.1295 16.1528 9.88379C16.0515 9.6381 15.9996 9.37487 16 9.10912C15.9993 8.57251 16.2118 8.05761 16.5907 7.67763C16.9696 7.29766 17.4839 7.08372 18.0205 7.08288V7.08288ZM24.4883 10.3251C24.7542 10.3254 25.0174 10.378 25.2629 10.48C25.5084 10.582 25.7314 10.7314 25.9192 10.9196C26.1069 11.1079 26.2558 11.3313 26.3572 11.577C26.4585 11.8228 26.5105 12.0861 26.5101 12.352C26.5105 12.6178 26.4585 12.8811 26.3571 13.1269C26.2557 13.3726 26.1069 13.5959 25.9191 13.7841C25.7314 13.9723 25.5084 14.1216 25.2629 14.2236C25.0174 14.3255 24.7542 14.3781 24.4883 14.3782C24.2226 14.378 23.9595 14.3254 23.7141 14.2234C23.4687 14.1214 23.2458 13.972 23.0582 13.7839C22.8705 13.5957 22.7218 13.3724 22.6205 13.1267C22.5192 12.881 22.4673 12.6177 22.4679 12.352C22.4673 12.0862 22.5192 11.8229 22.6205 11.5772C22.7218 11.3315 22.8705 11.1081 23.0581 10.9199C23.2458 10.7317 23.4686 10.5823 23.714 10.4802C23.9595 10.3782 24.2226 10.3255 24.4883 10.3251V10.3251ZM5.89505 11.9469C6.16075 11.9471 6.42379 11.9997 6.66914 12.1017C6.9145 12.2036 7.13736 12.3529 7.325 12.541C7.51263 12.7291 7.66136 12.9524 7.76269 13.198C7.86402 13.4436 7.91596 13.7068 7.91553 13.9725C7.91553 15.0925 7.01057 15.9994 5.89505 15.9994C4.77953 15.9994 3.87393 15.0918 3.87393 13.9725C3.87343 13.4359 4.08606 12.921 4.46507 12.5412C4.84409 12.1613 5.35845 11.9476 5.89505 11.9469V11.9469ZM16 20.0531C17.3395 20.0531 18.425 21.1411 18.425 22.4858C18.425 23.8285 17.3395 24.9171 16 24.9171C14.6605 24.9171 13.5751 23.8285 13.5751 22.4858C13.5745 22.1668 13.6367 21.8508 13.7583 21.5559C13.8799 21.261 14.0583 20.9929 14.2835 20.767C14.5087 20.5411 14.7762 20.3618 15.0707 20.2393C15.3653 20.1168 15.681 20.0535 16 20.0531V20.0531Z" fill="white"/>
</svg>
