<svg width="33" height="33" viewBox="0 0 33 33" fill="none" xmlns="http://www.w3.org/2000/svg">
<path d="M14.0751 4.34C5.99057 4.34 1.14001 10.8251 1.14001 14.068C1.14001 17.3109 2.75665 19.7429 5.99057 19.7429C9.22449 19.7429 10.8418 20.5531 10.8418 22.9851C10.8418 26.2274 13.2667 28.6594 16.5007 28.6594C27.0107 28.6594 31.8607 22.9851 31.8607 17.3109C31.86 7.58288 23.7743 4.34 14.0751 4.34ZM12.0539 7.58288C12.3197 7.58321 12.5828 7.63589 12.8282 7.7379C13.0736 7.83991 13.2965 7.98925 13.4841 8.17741C13.6718 8.36556 13.8206 8.58884 13.922 8.83449C14.0234 9.08015 14.0754 9.34336 14.0751 9.60912C14.0751 10.7291 13.1701 11.636 12.0539 11.636C10.9378 11.636 10.0328 10.7285 10.0328 9.60912C10.0325 9.34336 10.0845 9.08015 10.1859 8.83449C10.2873 8.58884 10.436 8.36556 10.6237 8.17741C10.8114 7.98925 11.0343 7.83991 11.2797 7.7379C11.5251 7.63589 11.7882 7.58321 12.0539 7.58288V7.58288ZM18.5205 7.58288C18.7862 7.58321 19.0493 7.63589 19.2947 7.7379C19.5401 7.83991 19.763 7.98925 19.9507 8.17741C20.1384 8.36556 20.2872 8.58884 20.3886 8.83449C20.4899 9.08015 20.542 9.34336 20.5416 9.60912C20.542 9.87492 20.4901 10.1382 20.3887 10.3839C20.2874 10.6297 20.1386 10.853 19.9509 11.0412C19.7632 11.2295 19.5403 11.3789 19.2949 11.4809C19.0494 11.583 18.7863 11.6357 18.5205 11.636C18.2547 11.6356 17.9917 11.5828 17.7463 11.4807C17.5009 11.3786 17.2781 11.2292 17.0905 11.041C16.9029 10.8528 16.7541 10.6295 16.6528 10.3838C16.5515 10.1381 16.4996 9.87487 16.5 9.60912C16.4993 9.07251 16.7118 8.55761 17.0907 8.17763C17.4696 7.79766 17.9839 7.58372 18.5205 7.58288V7.58288ZM24.9883 10.8251C25.2542 10.8254 25.5174 10.878 25.7629 10.98C26.0084 11.082 26.2314 11.2314 26.4192 11.4196C26.6069 11.6079 26.7558 11.8313 26.8572 12.077C26.9585 12.3228 27.0105 12.5861 27.0101 12.852C27.0105 13.1178 26.9585 13.3811 26.8571 13.6269C26.7557 13.8726 26.6069 14.0959 26.4191 14.2841C26.2314 14.4723 26.0084 14.6216 25.7629 14.7236C25.5174 14.8255 25.2542 14.8781 24.9883 14.8782C24.7226 14.878 24.4595 14.8254 24.2141 14.7234C23.9687 14.6214 23.7458 14.472 23.5582 14.2839C23.3705 14.0957 23.2218 13.8724 23.1205 13.6267C23.0192 13.381 22.9673 13.1177 22.9679 12.852C22.9673 12.5862 23.0192 12.3229 23.1205 12.0772C23.2218 11.8315 23.3705 11.6081 23.5581 11.4199C23.7458 11.2317 23.9686 11.0823 24.214 10.9802C24.4595 10.8782 24.7226 10.8255 24.9883 10.8251V10.8251ZM6.39505 12.4469C6.66075 12.4471 6.92379 12.4997 7.16914 12.6017C7.4145 12.7036 7.63736 12.8529 7.825 13.041C8.01263 13.2291 8.16136 13.4524 8.26269 13.698C8.36402 13.9436 8.41596 14.2068 8.41553 14.4725C8.41553 15.5925 7.51057 16.4994 6.39505 16.4994C5.27953 16.4994 4.37393 15.5918 4.37393 14.4725C4.37343 13.9359 4.58606 13.421 4.96507 13.0412C5.34409 12.6613 5.85845 12.4476 6.39505 12.4469V12.4469ZM16.5 20.5531C17.8395 20.5531 18.925 21.6411 18.925 22.9858C18.925 24.3285 17.8395 25.4171 16.5 25.4171C15.1605 25.4171 14.0751 24.3285 14.0751 22.9858C14.0745 22.6668 14.1367 22.3508 14.2583 22.0559C14.3799 21.761 14.5583 21.4929 14.7835 21.267C15.0087 21.0411 15.2762 20.8618 15.5707 20.7393C15.8653 20.6168 16.181 20.5535 16.5 20.5531V20.5531Z" fill="white"/>
</svg>
