<svg width="33" height="32" viewBox="0 0 33 32" fill="none" xmlns="http://www.w3.org/2000/svg">
<path d="M24.5 29.3334C23.3889 29.3334 22.4444 28.9445 21.6667 28.1667C20.8889 27.389 20.5 26.4445 20.5 25.3334C20.5 25.1779 20.5111 25.0165 20.5333 24.8494C20.5556 24.6832 20.5889 24.5334 20.6333 24.4001L11.2333 18.9334C10.8556 19.2667 10.4333 19.5276 9.96667 19.7161C9.5 19.9054 9.01111 20.0001 8.5 20.0001C7.38889 20.0001 6.44444 19.6112 5.66667 18.8334C4.88889 18.0556 4.5 17.1112 4.5 16.0001C4.5 14.889 4.88889 13.9445 5.66667 13.1667C6.44444 12.389 7.38889 12.0001 8.5 12.0001C9.01111 12.0001 9.5 12.0943 9.96667 12.2827C10.4333 12.4721 10.8556 12.7334 11.2333 13.0667L20.6333 7.60008C20.5889 7.46675 20.5556 7.31697 20.5333 7.15075C20.5111 6.98364 20.5 6.8223 20.5 6.66675C20.5 5.55564 20.8889 4.61119 21.6667 3.83341C22.4444 3.05564 23.3889 2.66675 24.5 2.66675C25.6111 2.66675 26.5556 3.05564 27.3333 3.83341C28.1111 4.61119 28.5 5.55564 28.5 6.66675C28.5 7.77786 28.1111 8.7223 27.3333 9.50008C26.5556 10.2779 25.6111 10.6667 24.5 10.6667C23.9889 10.6667 23.5 10.5721 23.0333 10.3827C22.5667 10.1943 22.1444 9.93341 21.7667 9.60008L12.3667 15.0667C12.4111 15.2001 12.4444 15.3499 12.4667 15.5161C12.4889 15.6832 12.5 15.8445 12.5 16.0001C12.5 16.1556 12.4889 16.3165 12.4667 16.4827C12.4444 16.6499 12.4111 16.8001 12.3667 16.9334L21.7667 22.4001C22.1444 22.0667 22.5667 21.8054 23.0333 21.6161C23.5 21.4276 23.9889 21.3334 24.5 21.3334C25.6111 21.3334 26.5556 21.7223 27.3333 22.5001C28.1111 23.2779 28.5 24.2223 28.5 25.3334C28.5 26.4445 28.1111 27.389 27.3333 28.1667C26.5556 28.9445 25.6111 29.3334 24.5 29.3334Z" fill="#272C34"/>
</svg>
