<svg width="32" height="32" viewBox="0 0 32 32" fill="none" xmlns="http://www.w3.org/2000/svg">
<path d="M24 29.3334C22.8889 29.3334 21.9444 28.9445 21.1667 28.1667C20.3889 27.3889 20 26.4445 20 25.3334C20 25.1778 20.0111 25.0165 20.0333 24.8494C20.0556 24.6831 20.0889 24.5334 20.1333 24.4L10.7333 18.9334C10.3556 19.2667 9.93333 19.5276 9.46667 19.716C9 19.9054 8.51111 20 8 20C6.88889 20 5.94444 19.6111 5.16667 18.8334C4.38889 18.0556 4 17.1111 4 16C4 14.8889 4.38889 13.9445 5.16667 13.1667C5.94444 12.3889 6.88889 12 8 12C8.51111 12 9 12.0942 9.46667 12.2827C9.93333 12.472 10.3556 12.7334 10.7333 13.0667L20.1333 7.60002C20.0889 7.46669 20.0556 7.31691 20.0333 7.15069C20.0111 6.98358 20 6.82224 20 6.66669C20 5.55558 20.3889 4.61113 21.1667 3.83335C21.9444 3.05558 22.8889 2.66669 24 2.66669C25.1111 2.66669 26.0556 3.05558 26.8333 3.83335C27.6111 4.61113 28 5.55558 28 6.66669C28 7.7778 27.6111 8.72224 26.8333 9.50002C26.0556 10.2778 25.1111 10.6667 24 10.6667C23.4889 10.6667 23 10.572 22.5333 10.3827C22.0667 10.1942 21.6444 9.93335 21.2667 9.60002L11.8667 15.0667C11.9111 15.2 11.9444 15.3498 11.9667 15.516C11.9889 15.6831 12 15.8445 12 16C12 16.1556 11.9889 16.3165 11.9667 16.4827C11.9444 16.6498 11.9111 16.8 11.8667 16.9334L21.2667 22.4C21.6444 22.0667 22.0667 21.8054 22.5333 21.616C23 21.4276 23.4889 21.3334 24 21.3334C25.1111 21.3334 26.0556 21.7222 26.8333 22.5C27.6111 23.2778 28 24.2222 28 25.3334C28 26.4445 27.6111 27.3889 26.8333 28.1667C26.0556 28.9445 25.1111 29.3334 24 29.3334Z" fill="#272C34"/>
</svg>
