<svg width="24" height="24" viewBox="0 0 24 24" fill="none" xmlns="http://www.w3.org/2000/svg">
<path d="M9 20C6.76667 20 4.875 19.225 3.325 17.675C1.775 16.125 1 14.2333 1 12C1 9.76666 1.775 7.875 3.325 6.325C4.875 4.775 6.76667 4 9 4C11.2333 4 13.125 4.775 14.675 6.325C16.225 7.875 17 9.76666 17 12C17 14.2333 16.225 16.125 14.675 17.675C13.125 19.225 11.2333 20 9 20ZM9 15.5C9.28333 15.5 9.521 15.404 9.713 15.212C9.90433 15.0207 10 14.7833 10 14.5V10.5H11.25C11.4667 10.5 11.646 10.429 11.788 10.287C11.9293 10.1457 12 9.96666 12 9.75C12 9.53333 11.9293 9.354 11.788 9.212C11.646 9.07067 11.4667 9 11.25 9H6.75C6.53333 9 6.35433 9.07067 6.213 9.212C6.071 9.354 6 9.53333 6 9.75C6 9.96666 6.071 10.1457 6.213 10.287C6.35433 10.429 6.53333 10.5 6.75 10.5H8V14.5C8 14.7833 8.096 15.0207 8.288 15.212C8.47933 15.404 8.71667 15.5 9 15.5ZM18.55 8L17.75 6.25L16 5.45C15.8167 5.36667 15.725 5.21667 15.725 5C15.725 4.78333 15.8167 4.63333 16 4.55L17.75 3.75L18.55 2C18.6333 1.81667 18.7833 1.725 19 1.725C19.2167 1.725 19.3667 1.81667 19.45 2L20.25 3.75L22 4.55C22.1833 4.63333 22.275 4.78333 22.275 5C22.275 5.21667 22.1833 5.36667 22 5.45L20.25 6.25L19.45 8C19.3667 8.18333 19.2167 8.275 19 8.275C18.7833 8.275 18.6333 8.18333 18.55 8ZM18.55 22L17.75 20.25L16 19.45C15.8167 19.3667 15.725 19.2167 15.725 19C15.725 18.7833 15.8167 18.6333 16 18.55L17.75 17.75L18.55 16C18.6333 15.8167 18.7833 15.725 19 15.725C19.2167 15.725 19.3667 15.8167 19.45 16L20.25 17.75L22 18.55C22.1833 18.6333 22.275 18.7833 22.275 19C22.275 19.2167 22.1833 19.3667 22 19.45L20.25 20.25L19.45 22C19.3667 22.1833 19.2167 22.275 19 22.275C18.7833 22.275 18.6333 22.1833 18.55 22Z" fill="black"/>
</svg>
