<svg width="33" height="32" viewBox="0 0 33 32" fill="none" xmlns="http://www.w3.org/2000/svg">
<path d="M16.6333 24.7333L16.5 24.8667L16.3533 24.7333C10.02 18.9867 5.83333 15.1867 5.83333 11.3333C5.83333 8.66667 7.83333 6.66667 10.5 6.66667C12.5533 6.66667 14.5533 8 15.26 9.81333H17.74C18.4467 8 20.4467 6.66667 22.5 6.66667C25.1667 6.66667 27.1667 8.66667 27.1667 11.3333C27.1667 15.1867 22.98 18.9867 16.6333 24.7333ZM22.5 4C20.18 4 17.9533 5.08 16.5 6.77333C15.0467 5.08 12.82 4 10.5 4C6.39333 4 3.16666 7.21333 3.16666 11.3333C3.16666 16.36 7.7 20.48 14.5667 26.7067L16.5 28.4667L18.4333 26.7067C25.3 20.48 29.8333 16.36 29.8333 11.3333C29.8333 7.21333 26.6067 4 22.5 4Z" fill="#272C34"/>
</svg>
