<svg width="33" height="32" viewBox="0 0 33 32" fill="none" xmlns="http://www.w3.org/2000/svg">
<path d="M15.1667 17.9998V28.6665H4.5V17.9998H15.1667ZM12.5 20.6665H7.16667V25.9998H12.5V20.6665ZM16.5 2.6665L23.8333 14.6665H9.16667L16.5 2.6665ZM16.5 7.81317L13.94 11.9998H19.06L16.5 7.81317M23.8333 17.3332C27.1667 17.3332 29.8333 19.9998 29.8333 23.3332C29.8333 26.6665 27.1667 29.3332 23.8333 29.3332C20.5 29.3332 17.8333 26.6665 17.8333 23.3332C17.8333 19.9998 20.5 17.3332 23.8333 17.3332ZM23.8333 19.9998C22.9493 19.9998 22.1014 20.351 21.4763 20.9761C20.8512 21.6013 20.5 22.4491 20.5 23.3332C20.5 24.2172 20.8512 25.0651 21.4763 25.6902C22.1014 26.3153 22.9493 26.6665 23.8333 26.6665C24.7174 26.6665 25.5652 26.3153 26.1904 25.6902C26.8155 25.0651 27.1667 24.2172 27.1667 23.3332C27.1667 22.4491 26.8155 21.6013 26.1904 20.9761C25.5652 20.351 24.7174 19.9998 23.8333 19.9998Z" fill="#272C34"/>
</svg>
