<svg width="32" height="32" viewBox="0 0 32 32" fill="none" xmlns="http://www.w3.org/2000/svg">
<path d="M14.6667 18V28.6666H4V18H14.6667ZM12 20.6666H6.66667V26H12V20.6666ZM16 2.66663L23.3333 14.6666H8.66667L16 2.66663ZM16 7.81329L13.44 12H18.56L16 7.81329M23.3333 17.3333C26.6667 17.3333 29.3333 20 29.3333 23.3333C29.3333 26.6666 26.6667 29.3333 23.3333 29.3333C20 29.3333 17.3333 26.6666 17.3333 23.3333C17.3333 20 20 17.3333 23.3333 17.3333ZM23.3333 20C22.4493 20 21.6014 20.3511 20.9763 20.9763C20.3512 21.6014 20 22.4492 20 23.3333C20 24.2173 20.3512 25.0652 20.9763 25.6903C21.6014 26.3154 22.4493 26.6666 23.3333 26.6666C24.2174 26.6666 25.0652 26.3154 25.6904 25.6903C26.3155 25.0652 26.6667 24.2173 26.6667 23.3333C26.6667 22.4492 26.3155 21.6014 25.6904 20.9763C25.0652 20.3511 24.2174 20 23.3333 20Z" fill="#272C34"/>
</svg>
