<svg width="33" height="32" viewBox="0 0 33 32" fill="none" xmlns="http://www.w3.org/2000/svg">
<path d="M4.50004 5.33334C3.7928 5.33334 3.11452 5.61429 2.61442 6.11439C2.11433 6.61449 1.83337 7.29277 1.83337 8.00001V22.6667H4.50004C4.50004 23.7275 4.92147 24.745 5.67161 25.4951C6.42176 26.2453 7.43918 26.6667 8.50004 26.6667C9.56091 26.6667 10.5783 26.2453 11.3285 25.4951C12.0786 24.745 12.5 23.7275 12.5 22.6667H20.5C20.5 23.7275 20.9215 24.745 21.6716 25.4951C22.4218 26.2453 23.4392 26.6667 24.5 26.6667C25.5609 26.6667 26.5783 26.2453 27.3285 25.4951C28.0786 24.745 28.5 23.7275 28.5 22.6667H31.1667V16L27.1667 10.6667H23.1667V5.33334M13.8334 8.00001L19.1667 13.3333L13.8334 18.6667V14.6667H5.83337V12H13.8334M23.1667 12.6667H26.5L29.1267 16H23.1667M8.50004 20.6667C9.03047 20.6667 9.53918 20.8774 9.91426 21.2525C10.2893 21.6275 10.5 22.1362 10.5 22.6667C10.5 23.1971 10.2893 23.7058 9.91426 24.0809C9.53918 24.456 9.03047 24.6667 8.50004 24.6667C7.96961 24.6667 7.4609 24.456 7.08583 24.0809C6.71075 23.7058 6.50004 23.1971 6.50004 22.6667C6.50004 22.1362 6.71075 21.6275 7.08583 21.2525C7.4609 20.8774 7.96961 20.6667 8.50004 20.6667ZM24.5 20.6667C25.0305 20.6667 25.5392 20.8774 25.9143 21.2525C26.2893 21.6275 26.5 22.1362 26.5 22.6667C26.5 23.1971 26.2893 23.7058 25.9143 24.0809C25.5392 24.456 25.0305 24.6667 24.5 24.6667C23.9696 24.6667 23.4609 24.456 23.0858 24.0809C22.7108 23.7058 22.5 23.1971 22.5 22.6667C22.5 22.1362 22.7108 21.6275 23.0858 21.2525C23.4609 20.8774 23.9696 20.6667 24.5 20.6667Z" fill="white"/>
</svg>
