<svg width="32" height="32" viewBox="0 0 32 32" fill="none" xmlns="http://www.w3.org/2000/svg">
<path d="M4.00004 5.33334C3.2928 5.33334 2.61452 5.61429 2.11442 6.11439C1.61433 6.61449 1.33337 7.29277 1.33337 8.00001V22.6667H4.00004C4.00004 23.7275 4.42147 24.745 5.17161 25.4951C5.92176 26.2453 6.93917 26.6667 8.00004 26.6667C9.06091 26.6667 10.0783 26.2453 10.8285 25.4951C11.5786 24.745 12 23.7275 12 22.6667H20C20 23.7275 20.4215 24.745 21.1716 25.4951C21.9218 26.2453 22.9392 26.6667 24 26.6667C25.0609 26.6667 26.0783 26.2453 26.8285 25.4951C27.5786 24.745 28 23.7275 28 22.6667H30.6667V16L26.6667 10.6667H22.6667V5.33334M13.3334 8.00001L18.6667 13.3333L13.3334 18.6667V14.6667H5.33337V12H13.3334M22.6667 12.6667H26L28.6267 16H22.6667M8.00004 20.6667C8.53047 20.6667 9.03918 20.8774 9.41425 21.2525C9.78933 21.6275 10 22.1362 10 22.6667C10 23.1971 9.78933 23.7058 9.41425 24.0809C9.03918 24.456 8.53047 24.6667 8.00004 24.6667C7.46961 24.6667 6.9609 24.456 6.58583 24.0809C6.21075 23.7058 6.00004 23.1971 6.00004 22.6667C6.00004 22.1362 6.21075 21.6275 6.58583 21.2525C6.9609 20.8774 7.46961 20.6667 8.00004 20.6667M24 20.6667C24.5305 20.6667 25.0392 20.8774 25.4143 21.2525C25.7893 21.6275 26 22.1362 26 22.6667C26 23.1971 25.7893 23.7058 25.4143 24.0809C25.0392 24.456 24.5305 24.6667 24 24.6667C23.4696 24.6667 22.9609 24.456 22.5858 24.0809C22.2108 23.7058 22 23.1971 22 22.6667C22 22.1362 22.2108 21.6275 22.5858 21.2525C22.9609 20.8774 23.4696 20.6667 24 20.6667Z" fill="white"/>
</svg>
