<svg width="33" height="33" viewBox="0 0 33 33" fill="none" xmlns="http://www.w3.org/2000/svg">
<path d="M4.50004 5.83334C3.7928 5.83334 3.11452 6.11429 2.61442 6.61439C2.11433 7.11449 1.83337 7.79277 1.83337 8.50001V23.1667H4.50004C4.50004 24.2275 4.92147 25.245 5.67161 25.9951C6.42176 26.7453 7.43917 27.1667 8.50004 27.1667C9.56091 27.1667 10.5783 26.7453 11.3285 25.9951C12.0786 25.245 12.5 24.2275 12.5 23.1667H20.5C20.5 24.2275 20.9215 25.245 21.6716 25.9951C22.4218 26.7453 23.4392 27.1667 24.5 27.1667C25.5609 27.1667 26.5783 26.7453 27.3285 25.9951C28.0786 25.245 28.5 24.2275 28.5 23.1667H31.1667V16.5L27.1667 11.1667H23.1667V5.83334M13.8334 8.50001L19.1667 13.8333L13.8334 19.1667V15.1667H5.83337V12.5H13.8334M23.1667 13.1667H26.5L29.1267 16.5H23.1667M8.50004 21.1667C9.03047 21.1667 9.53918 21.3774 9.91425 21.7525C10.2893 22.1275 10.5 22.6362 10.5 23.1667C10.5 23.6971 10.2893 24.2058 9.91425 24.5809C9.53918 24.956 9.03047 25.1667 8.50004 25.1667C7.96961 25.1667 7.4609 24.956 7.08583 24.5809C6.71075 24.2058 6.50004 23.6971 6.50004 23.1667C6.50004 22.6362 6.71075 22.1275 7.08583 21.7525C7.4609 21.3774 7.96961 21.1667 8.50004 21.1667M24.5 21.1667C25.0305 21.1667 25.5392 21.3774 25.9143 21.7525C26.2893 22.1275 26.5 22.6362 26.5 23.1667C26.5 23.6971 26.2893 24.2058 25.9143 24.5809C25.5392 24.956 25.0305 25.1667 24.5 25.1667C23.9696 25.1667 23.4609 24.956 23.0858 24.5809C22.7108 24.2058 22.5 23.6971 22.5 23.1667C22.5 22.6362 22.7108 22.1275 23.0858 21.7525C23.4609 21.3774 23.9696 21.1667 24.5 21.1667Z" fill="white"/>
</svg>
