<svg width="24" height="24" viewBox="0 0 24 24" fill="none" xmlns="http://www.w3.org/2000/svg">
<path d="M21.75 5.4375H2.25C1.9019 5.4375 1.56806 5.57578 1.32192 5.82192C1.07578 6.06806 0.9375 6.4019 0.9375 6.75V17.25C0.9375 17.5981 1.07578 17.9319 1.32192 18.1781C1.56806 18.4242 1.9019 18.5625 2.25 18.5625H21.75C22.0981 18.5625 22.4319 18.4242 22.6781 18.1781C22.9242 17.9319 23.0625 17.5981 23.0625 17.25V6.75C23.0625 6.4019 22.9242 6.06806 22.6781 5.82192C22.4319 5.57578 22.0981 5.4375 21.75 5.4375ZM7.71563 17.4375L2.0625 12.4969V11.5031L7.71563 6.5625H16.2844L21.9375 11.5031V12.4969L16.2844 17.4375H7.71563ZM21.9375 6.75V10.0125L18 6.5625H21.75C21.7997 6.5625 21.8474 6.58225 21.8826 6.61742C21.9177 6.65258 21.9375 6.70027 21.9375 6.75ZM2.25 6.5625H6L2.0625 10.0125V6.75C2.0625 6.70027 2.08225 6.65258 2.11742 6.61742C2.15258 6.58225 2.20027 6.5625 2.25 6.5625V6.5625ZM2.0625 17.25V13.9875L6 17.4375H2.25C2.20027 17.4375 2.15258 17.4177 2.11742 17.3826C2.08225 17.3474 2.0625 17.2997 2.0625 17.25ZM21.75 17.4375H18L21.9375 13.9875V17.25C21.9375 17.2997 21.9177 17.3474 21.8826 17.3826C21.8474 17.4177 21.7997 17.4375 21.75 17.4375ZM12 8.4375C11.2954 8.4375 10.6066 8.64644 10.0208 9.03789C9.43493 9.42934 8.97832 9.98573 8.70868 10.6367C8.43904 11.2877 8.36849 12.004 8.50595 12.695C8.64341 13.3861 8.98271 14.0208 9.48093 14.5191C9.97916 15.0173 10.6139 15.3566 11.305 15.494C11.996 15.6315 12.7123 15.561 13.3633 15.2913C14.0143 15.0217 14.5707 14.5651 14.9621 13.9792C15.3536 13.3934 15.5625 12.7046 15.5625 12C15.5625 11.0552 15.1872 10.149 14.5191 9.48093C13.851 8.81283 12.9448 8.4375 12 8.4375V8.4375ZM12 14.4375C11.5179 14.4375 11.0466 14.2945 10.6458 14.0267C10.245 13.7589 9.93253 13.3782 9.74804 12.9328C9.56356 12.4874 9.51528 11.9973 9.60934 11.5245C9.70339 11.0516 9.93554 10.6173 10.2764 10.2764C10.6173 9.93554 11.0516 9.70339 11.5245 9.60934C11.9973 9.51528 12.4874 9.56356 12.9328 9.74804C13.3782 9.93253 13.7589 10.245 14.0267 10.6458C14.2945 11.0466 14.4375 11.5179 14.4375 12C14.435 12.6457 14.1774 13.2643 13.7208 13.7208C13.2643 14.1774 12.6457 14.435 12 14.4375Z" fill="black"/>
</svg>
