<svg width="30" height="30" viewBox="0 0 30 30" fill="none" xmlns="http://www.w3.org/2000/svg">
<path fill-rule="evenodd" clip-rule="evenodd" d="M13.8166 13.8946H0.927734V1.54272H13.8166V13.8946ZM11.2388 4.01284H3.50531V11.4239H11.2388V4.01284ZM13.8166 29.3344H0.927734V16.9825H13.8166V29.3344ZM11.2388 19.4531H3.50531V26.845H11.2388V19.4531ZM5.76107 21.6145H8.98329V24.7024H5.76107V21.6145ZM25.0944 26.2464H21.8722V29.3344H25.0944V26.2464ZM26.7055 26.2464H29.9277V29.3344H26.7055V26.2464ZM24.7724 19.4531H27.35V16.9825H29.9277V24.3939H22.1942V21.9232H19.6168V29.3344H17.0388V16.9825H24.7724V19.4531ZM8.98329 6.17466H5.76107V9.26262H8.98329V6.17466ZM17.0388 13.8946V1.54272H29.9277V13.8946H17.0388ZM19.6168 11.4239H27.3498V4.01284H19.6168V11.4239ZM25.0944 6.17466H21.8722V9.26262H25.0944V6.17466Z" fill="#DFE0E5"/>
</svg>
