<svg width="30" height="30" viewBox="0 0 30 30" fill="none" xmlns="http://www.w3.org/2000/svg">
<path fill-rule="evenodd" clip-rule="evenodd" d="M13.5986 13.8946H0.709717V1.54272H13.5986V13.8946ZM11.0207 4.01284H3.2873V11.4239H11.0207V4.01284ZM13.5986 29.3344H0.709717V16.9825H13.5986V29.3344ZM11.0207 19.4531H3.2873V26.845H11.0207V19.4531ZM5.54305 21.6145H8.76527V24.7024H5.54305V21.6145ZM24.8764 26.2464H21.6542V29.3344H24.8764V26.2464ZM26.4875 26.2464H29.7097V29.3344H26.4875V26.2464ZM24.5544 19.4531H27.132V16.9825H29.7097V24.3939H21.9761V21.9232H19.3988V29.3344H16.8208V16.9825H24.5544V19.4531ZM8.76527 6.17466H5.54305V9.26262H8.76527V6.17466ZM16.8208 13.8946V1.54272H29.7097V13.8946H16.8208ZM19.3988 11.4239H27.1318V4.01284H19.3988V11.4239ZM24.8764 6.17466H21.6542V9.26262H24.8764V6.17466Z" fill="#DFE0E5"/>
</svg>
