<svg width="30" height="30" viewBox="0 0 30 30" fill="none" xmlns="http://www.w3.org/2000/svg">
<path fill-rule="evenodd" clip-rule="evenodd" d="M13.3163 13.8946H0.427368V1.54272H13.3163V13.8946ZM10.7384 4.01284H3.00495V11.4239H10.7384V4.01284ZM13.3163 29.3344H0.427368V16.9825H13.3163V29.3344ZM10.7384 19.4531H3.00495V26.845H10.7384V19.4531ZM5.2607 21.6145H8.48292V24.7024H5.2607V21.6145ZM24.594 26.2464H21.3718V29.3344H24.594V26.2464ZM26.2051 26.2464H29.4274V29.3344H26.2051V26.2464ZM24.2721 19.4531H26.8496V16.9825H29.4274V24.3939H21.6938V21.9232H19.1165V29.3344H16.5385V16.9825H24.2721V19.4531ZM8.48292 6.17466H5.2607V9.26262H8.48292V6.17466ZM16.5385 13.8946V1.54272H29.4274V13.8946H16.5385ZM19.1164 11.4239H26.8494V4.01284H19.1164V11.4239ZM24.594 6.17466H21.3718V9.26262H24.594V6.17466Z" fill="#DFE0E5"/>
</svg>
