<svg width="30" height="30" viewBox="0 0 30 30" fill="none" xmlns="http://www.w3.org/2000/svg">
<path fill-rule="evenodd" clip-rule="evenodd" d="M13.5986 14.3946H0.709717V2.04272H13.5986V14.3946ZM11.0207 4.51284H3.2873V11.9239H11.0207V4.51284ZM13.5986 29.8344H0.709717V17.4825H13.5986V29.8344ZM11.0207 19.9531H3.2873V27.345H11.0207V19.9531ZM5.54305 22.1145H8.76527V25.2024H5.54305V22.1145ZM24.8764 26.7464H21.6542V29.8344H24.8764V26.7464ZM26.4875 26.7464H29.7097V29.8344H26.4875V26.7464ZM24.5544 19.9531H27.132V17.4825H29.7097V24.8939H21.9761V22.4232H19.3988V29.8344H16.8208V17.4825H24.5544V19.9531ZM8.76527 6.67466H5.54305V9.76262H8.76527V6.67466ZM16.8208 14.3946V2.04272H29.7097V14.3946H16.8208ZM19.3988 11.9239H27.1318V4.51284H19.3988V11.9239ZM24.8764 6.67466H21.6542V9.76262H24.8764V6.67466Z" fill="#1B2749"/>
</svg>
