<svg width="30" height="30" viewBox="0 0 30 30" fill="none" xmlns="http://www.w3.org/2000/svg">
<path fill-rule="evenodd" clip-rule="evenodd" d="M13.8163 13.8946H0.927368V1.54272H13.8163V13.8946ZM11.2384 4.01284H3.50495V11.4239H11.2384V4.01284ZM13.8163 29.3344H0.927368V16.9825H13.8163V29.3344ZM11.2384 19.4531H3.50495V26.845H11.2384V19.4531ZM5.7607 21.6145H8.98292V24.7024H5.7607V21.6145ZM25.094 26.2464H21.8718V29.3344H25.094V26.2464ZM26.7051 26.2464H29.9274V29.3344H26.7051V26.2464ZM24.7721 19.4531H27.3496V16.9825H29.9274V24.3939H22.1938V21.9232H19.6165V29.3344H17.0385V16.9825H24.7721V19.4531ZM8.98292 6.17466H5.7607V9.26262H8.98292V6.17466ZM17.0385 13.8946V1.54272H29.9274V13.8946H17.0385ZM19.6164 11.4239H27.3494V4.01284H19.6164V11.4239ZM25.094 6.17466H21.8718V9.26262H25.094V6.17466Z" fill="#DFE0E5"/>
</svg>
