<svg width="30" height="30" viewBox="0 0 30 30" fill="none" xmlns="http://www.w3.org/2000/svg">
<path fill-rule="evenodd" clip-rule="evenodd" d="M13.0986 14.3946H0.209717V2.04272H13.0986V14.3946ZM10.5207 4.51284H2.7873V11.9239H10.5207V4.51284ZM13.0986 29.8344H0.209717V17.4825H13.0986V29.8344ZM10.5207 19.9531H2.7873V27.345H10.5207V19.9531ZM5.04305 22.1145H8.26527V25.2024H5.04305V22.1145ZM24.3764 26.7464H21.1542V29.8344H24.3764V26.7464ZM25.9875 26.7464H29.2097V29.8344H25.9875V26.7464ZM24.0544 19.9531H26.632V17.4825H29.2097V24.8939H21.4761V22.4232H18.8988V29.8344H16.3208V17.4825H24.0544V19.9531ZM8.26527 6.67466H5.04305V9.76262H8.26527V6.67466ZM16.3208 14.3946V2.04272H29.2097V14.3946H16.3208ZM18.8988 11.9239H26.6318V4.51284H18.8988V11.9239ZM24.3764 6.67466H21.1542V9.76262H24.3764V6.67466Z" fill="#1B2749"/>
</svg>
