<svg width="37" height="36" viewBox="0 0 37 36" fill="none" xmlns="http://www.w3.org/2000/svg">
<path fill-rule="evenodd" clip-rule="evenodd" d="M18.25 36C28.1911 36 36.25 27.9411 36.25 18C36.25 8.05887 28.1911 0 18.25 0C8.30887 0 0.25 8.05887 0.25 18C0.25 27.9411 8.30887 36 18.25 36Z" fill="#7ED321"/>
<path fill-rule="evenodd" clip-rule="evenodd" d="M16.4783 13.4681H13.5051C13.18 13.4681 12.9516 13.6147 12.8199 13.9083C12.6883 14.1945 12.7425 14.4475 12.9825 14.6677L18.1856 19.5979C18.3251 19.7373 18.4993 19.8071 18.7082 19.8071C18.9174 19.8071 19.0914 19.7373 19.2309 19.5979L24.4341 14.6677C24.6741 14.4475 24.7284 14.1944 24.5967 13.9083C24.4653 13.6149 24.2368 13.4681 23.9115 13.4681H20.9382V8.53776C20.9382 8.34699 20.8647 8.18186 20.7177 8.04256C20.5704 7.90326 20.3964 7.83337 20.1951 7.83337H17.2216C17.0203 7.83337 16.8461 7.9033 16.699 8.04256C16.5519 8.1819 16.4783 8.34703 16.4783 8.53776V13.4681ZM26.359 19.8071C26.6528 19.8071 26.9027 19.9077 27.108 20.1093C27.3139 20.3109 27.4166 20.5553 27.4166 20.8432V24.2974C27.4166 24.5851 27.3139 24.8298 27.1082 25.0312C26.9027 25.2327 26.6528 25.3334 26.3591 25.3334H10.141C9.84721 25.3334 9.59749 25.2327 9.3918 25.0312C9.18612 24.8301 9.08331 24.5851 9.08331 24.2974V20.8432C9.08331 20.5553 9.18612 20.3106 9.3918 20.1093C9.59753 19.9077 9.84724 19.8071 10.141 19.8071H14.8456C14.9998 20.21 15.2587 20.541 15.6223 20.8C15.9858 21.059 16.3916 21.1886 16.8396 21.1886H19.6604C20.1084 21.1886 20.5141 21.059 20.8778 20.8C21.2413 20.541 21.5003 20.21 21.6544 19.8071H26.359ZM22.4807 23.9521C22.6717 23.9521 22.837 23.8836 22.9767 23.7469C23.1162 23.6102 23.1859 23.4483 23.1859 23.2611C23.1859 23.074 23.1162 22.9119 22.9767 22.7754C22.837 22.6388 22.6717 22.5702 22.4807 22.5702C22.2897 22.5702 22.1246 22.6388 21.9849 22.7754C21.8455 22.9119 21.7757 23.074 21.7757 23.2611C21.7757 23.4483 21.8455 23.6103 21.9849 23.7469C22.1246 23.8836 22.2897 23.9521 22.4807 23.9521ZM25.7971 23.7469C25.6576 23.8836 25.4923 23.9521 25.3013 23.9521C25.1103 23.9521 24.9451 23.8836 24.8055 23.7469C24.6661 23.6103 24.5963 23.4483 24.5963 23.2611C24.5963 23.074 24.6661 22.9119 24.8055 22.7754C24.9451 22.6388 25.1103 22.5702 25.3013 22.5702C25.4922 22.5702 25.6576 22.6388 25.7971 22.7754C25.9366 22.9119 26.0065 23.074 26.0065 23.2611C26.0065 23.4483 25.9368 23.6102 25.7971 23.7469Z" fill="white"/>
</svg>
