<svg width="37" height="36" viewBox="0 0 37 36" fill="none" xmlns="http://www.w3.org/2000/svg">
<path fill-rule="evenodd" clip-rule="evenodd" d="M18.5 36C28.4411 36 36.5 27.9411 36.5 18C36.5 8.05887 28.4411 0 18.5 0C8.55887 0 0.5 8.05887 0.5 18C0.5 27.9411 8.55887 36 18.5 36Z" fill="#7ED321"/>
<path fill-rule="evenodd" clip-rule="evenodd" d="M16.7283 13.4681H13.7551C13.43 13.4681 13.2016 13.6147 13.0699 13.9083C12.9383 14.1945 12.9925 14.4475 13.2325 14.6677L18.4356 19.5979C18.5751 19.7373 18.7493 19.8071 18.9582 19.8071C19.1674 19.8071 19.3414 19.7373 19.4809 19.5979L24.6841 14.6677C24.9241 14.4475 24.9784 14.1944 24.8467 13.9083C24.7153 13.6149 24.4868 13.4681 24.1615 13.4681H21.1882V8.53776C21.1882 8.34699 21.1147 8.18186 20.9677 8.04256C20.8204 7.90326 20.6464 7.83337 20.4451 7.83337H17.4716C17.2703 7.83337 17.0961 7.9033 16.949 8.04256C16.8019 8.1819 16.7283 8.34703 16.7283 8.53776V13.4681ZM26.609 19.8071C26.9028 19.8071 27.1527 19.9077 27.358 20.1093C27.5639 20.3109 27.6666 20.5553 27.6666 20.8432V24.2974C27.6666 24.5851 27.5639 24.8298 27.3582 25.0312C27.1527 25.2327 26.9028 25.3334 26.6091 25.3334H10.391C10.0972 25.3334 9.84749 25.2327 9.6418 25.0312C9.43612 24.8301 9.33331 24.5851 9.33331 24.2974V20.8432C9.33331 20.5553 9.43612 20.3106 9.6418 20.1093C9.84753 19.9077 10.0972 19.8071 10.391 19.8071H15.0956C15.2498 20.21 15.5087 20.541 15.8723 20.8C16.2358 21.059 16.6416 21.1886 17.0896 21.1886H19.9104C20.3584 21.1886 20.7641 21.059 21.1278 20.8C21.4913 20.541 21.7503 20.21 21.9044 19.8071H26.609ZM22.7307 23.9521C22.9217 23.9521 23.087 23.8836 23.2267 23.7469C23.3662 23.6102 23.4359 23.4483 23.4359 23.2611C23.4359 23.074 23.3662 22.9119 23.2267 22.7754C23.087 22.6388 22.9217 22.5702 22.7307 22.5702C22.5397 22.5702 22.3746 22.6388 22.2349 22.7754C22.0955 22.9119 22.0257 23.074 22.0257 23.2611C22.0257 23.4483 22.0955 23.6103 22.2349 23.7469C22.3746 23.8836 22.5397 23.9521 22.7307 23.9521ZM26.0471 23.7469C25.9076 23.8836 25.7423 23.9521 25.5513 23.9521C25.3603 23.9521 25.1951 23.8836 25.0555 23.7469C24.9161 23.6103 24.8463 23.4483 24.8463 23.2611C24.8463 23.074 24.9161 22.9119 25.0555 22.7754C25.1951 22.6388 25.3603 22.5702 25.5513 22.5702C25.7422 22.5702 25.9076 22.6388 26.0471 22.7754C26.1866 22.9119 26.2565 23.074 26.2565 23.2611C26.2565 23.4483 26.1868 23.6102 26.0471 23.7469Z" fill="white"/>
</svg>
