<svg width="36" height="36" viewBox="0 0 36 36" fill="none" xmlns="http://www.w3.org/2000/svg">
<path fill-rule="evenodd" clip-rule="evenodd" d="M18 36C27.9411 36 36 27.9411 36 18C36 8.05887 27.9411 0 18 0C8.05887 0 0 8.05887 0 18C0 27.9411 8.05887 36 18 36Z" fill="#7ED321"/>
<path fill-rule="evenodd" clip-rule="evenodd" d="M16.2283 13.4681H13.2551C12.93 13.4681 12.7016 13.6147 12.5699 13.9083C12.4383 14.1945 12.4925 14.4475 12.7325 14.6677L17.9356 19.5979C18.0751 19.7373 18.2493 19.8071 18.4582 19.8071C18.6674 19.8071 18.8414 19.7373 18.9809 19.5979L24.1841 14.6677C24.4241 14.4475 24.4784 14.1944 24.3467 13.9083C24.2153 13.6149 23.9868 13.4681 23.6615 13.4681H20.6882V8.53776C20.6882 8.34699 20.6147 8.18186 20.4677 8.04256C20.3204 7.90326 20.1464 7.83337 19.9451 7.83337H16.9716C16.7703 7.83337 16.5961 7.9033 16.449 8.04256C16.3019 8.1819 16.2283 8.34703 16.2283 8.53776V13.4681ZM26.109 19.8071C26.4028 19.8071 26.6527 19.9077 26.858 20.1093C27.0639 20.3109 27.1666 20.5553 27.1666 20.8432V24.2974C27.1666 24.5851 27.0639 24.8298 26.8582 25.0312C26.6527 25.2327 26.4028 25.3334 26.1091 25.3334H9.89099C9.59721 25.3334 9.34749 25.2327 9.1418 25.0312C8.93612 24.8301 8.83331 24.5851 8.83331 24.2974V20.8432C8.83331 20.5553 8.93612 20.3106 9.1418 20.1093C9.34753 19.9077 9.59724 19.8071 9.89099 19.8071H14.5956C14.7498 20.21 15.0087 20.541 15.3723 20.8C15.7358 21.059 16.1416 21.1886 16.5896 21.1886H19.4104C19.8584 21.1886 20.2641 21.059 20.6278 20.8C20.9913 20.541 21.2503 20.21 21.4044 19.8071H26.109ZM22.2307 23.9521C22.4217 23.9521 22.587 23.8836 22.7267 23.7469C22.8662 23.6102 22.9359 23.4483 22.9359 23.2611C22.9359 23.074 22.8662 22.9119 22.7267 22.7754C22.587 22.6388 22.4217 22.5702 22.2307 22.5702C22.0397 22.5702 21.8746 22.6388 21.7349 22.7754C21.5955 22.9119 21.5257 23.074 21.5257 23.2611C21.5257 23.4483 21.5955 23.6103 21.7349 23.7469C21.8746 23.8836 22.0397 23.9521 22.2307 23.9521ZM25.5471 23.7469C25.4076 23.8836 25.2423 23.9521 25.0513 23.9521C24.8603 23.9521 24.6951 23.8836 24.5555 23.7469C24.4161 23.6103 24.3463 23.4483 24.3463 23.2611C24.3463 23.074 24.4161 22.9119 24.5555 22.7754C24.6951 22.6388 24.8603 22.5702 25.0513 22.5702C25.2422 22.5702 25.4076 22.6388 25.5471 22.7754C25.6866 22.9119 25.7565 23.074 25.7565 23.2611C25.7565 23.4483 25.6868 23.6102 25.5471 23.7469Z" fill="white"/>
</svg>
