<svg width="17" height="16" viewBox="0 0 17 16" fill="none" xmlns="http://www.w3.org/2000/svg">
<path d="M15.1667 8.00004C15.1667 5.50773 15.1667 4.26158 14.6308 3.33337C14.2797 2.7253 13.7748 2.22035 13.1667 1.86927C12.2385 1.33337 10.9923 1.33337 8.50004 1.33337V1.33337C6.00773 1.33337 4.76158 1.33337 3.83337 1.86927C3.2253 2.22035 2.72035 2.7253 2.36927 3.33337C1.83337 4.26158 1.83337 5.50773 1.83337 8.00004V12.6667C1.83337 13.6095 1.83337 14.0809 2.12627 14.3738C2.41916 14.6667 2.89056 14.6667 3.83337 14.6667H8.50004C10.9924 14.6667 12.2385 14.6667 13.1667 14.1308C13.7748 13.7797 14.2797 13.2748 14.6308 12.6667C15.1667 11.7385 15.1667 10.4923 15.1667 8.00004V8.00004Z" stroke="#33363F" stroke-width="2"/>
</svg>
