<svg width="17" height="16" viewBox="0 0 17 16" fill="none" xmlns="http://www.w3.org/2000/svg">
<path d="M15.1667 8C15.1667 5.50769 15.1667 4.26154 14.6308 3.33334C14.2797 2.72526 13.7748 2.22031 13.1667 1.86923C12.2385 1.33334 10.9923 1.33334 8.50001 1.33334V1.33334C6.0077 1.33334 4.76155 1.33334 3.83334 1.86923C3.22527 2.22031 2.72032 2.72526 2.36924 3.33334C1.83334 4.26154 1.83334 5.50769 1.83334 8V12.6667C1.83334 13.6095 1.83334 14.0809 2.12624 14.3738C2.41913 14.6667 2.89053 14.6667 3.83334 14.6667H8.50001C10.9923 14.6667 12.2385 14.6667 13.1667 14.1308C13.7748 13.7797 14.2797 13.2747 14.6308 12.6667C15.1667 11.7385 15.1667 10.4923 15.1667 8V8Z" stroke="#33363F" stroke-width="2"/>
</svg>
