<svg width="17" height="16" viewBox="0 0 17 16" fill="none" xmlns="http://www.w3.org/2000/svg">
<path d="M15.1667 7.99992C15.1667 5.50761 15.1667 4.26145 14.6308 3.33325C14.2797 2.72517 13.7748 2.22022 13.1667 1.86915C12.2385 1.33325 10.9923 1.33325 8.50001 1.33325V1.33325C6.0077 1.33325 4.76155 1.33325 3.83334 1.86915C3.22527 2.22022 2.72032 2.72517 2.36924 3.33325C1.83334 4.26145 1.83334 5.50761 1.83334 7.99992V12.6666C1.83334 13.6094 1.83334 14.0808 2.12624 14.3737C2.41913 14.6666 2.89053 14.6666 3.83334 14.6666H8.50001C10.9923 14.6666 12.2385 14.6666 13.1667 14.1307C13.7748 13.7796 14.2797 13.2747 14.6308 12.6666C15.1667 11.7384 15.1667 10.4922 15.1667 7.99992V7.99992Z" stroke="#33363F" stroke-width="2"/>
</svg>
