<svg width="16" height="16" viewBox="0 0 16 16" fill="none" xmlns="http://www.w3.org/2000/svg">
<path d="M14.6667 7.99992C14.6667 5.50761 14.6667 4.26145 14.1308 3.33325C13.7797 2.72517 13.2748 2.22022 12.6667 1.86915C11.7385 1.33325 10.4923 1.33325 8.00004 1.33325V1.33325C5.50773 1.33325 4.26158 1.33325 3.33337 1.86915C2.7253 2.22022 2.22035 2.72517 1.86927 3.33325C1.33337 4.26145 1.33337 5.50761 1.33337 7.99992V12.6666C1.33337 13.6094 1.33337 14.0808 1.62627 14.3737C1.91916 14.6666 2.39056 14.6666 3.33337 14.6666H8.00004C10.4924 14.6666 11.7385 14.6666 12.6667 14.1307C13.2748 13.7796 13.7797 13.2747 14.1308 12.6666C14.6667 11.7384 14.6667 10.4922 14.6667 7.99992V7.99992Z" stroke="#33363F" stroke-width="2"/>
</svg>
