<svg width="17" height="16" viewBox="0 0 17 16" fill="none" xmlns="http://www.w3.org/2000/svg">
<path d="M15.1666 8.00004C15.1666 5.50773 15.1666 4.26158 14.6307 3.33337C14.2797 2.7253 13.7747 2.22035 13.1666 1.86927C12.2384 1.33337 10.9923 1.33337 8.49998 1.33337V1.33337C6.00767 1.33337 4.76152 1.33337 3.83331 1.86927C3.22524 2.22035 2.72029 2.7253 2.36921 3.33337C1.83331 4.26158 1.83331 5.50773 1.83331 8.00004V12.6667C1.83331 13.6095 1.83331 14.0809 2.12621 14.3738C2.4191 14.6667 2.8905 14.6667 3.83331 14.6667H8.49998C10.9923 14.6667 12.2384 14.6667 13.1666 14.1308C13.7747 13.7797 14.2797 13.2748 14.6307 12.6667C15.1666 11.7385 15.1666 10.4923 15.1666 8.00004V8.00004Z" stroke="#33363F" stroke-width="2"/>
</svg>
