<svg width="72" height="73" viewBox="0 0 72 73" fill="none" xmlns="http://www.w3.org/2000/svg">
<path d="M36 0.00170898C16.119 0.00170898 0 16.1207 0 36.0017C0 55.8827 16.119 72.0017 36 72.0017C55.881 72.0017 72 55.8827 72 36.0017C72 16.1207 55.881 0.00170898 36 0.00170898ZM56.121 29.1227L33.441 51.8027C32.877 52.3667 32.115 52.6817 31.32 52.6817C30.525 52.6817 29.76 52.3667 29.199 51.8027L18.84 41.4437C17.667 40.2707 17.667 38.3747 18.84 37.2017C20.013 36.0287 21.909 36.0287 23.082 37.2017L31.32 45.4397L51.879 24.8807C53.052 23.7077 54.948 23.7077 56.121 24.8807C57.294 26.0537 57.294 27.9497 56.121 29.1227Z" fill="#34D925"/>
</svg>
