<svg width="33" height="33" viewBox="0 0 33 33" fill="none" xmlns="http://www.w3.org/2000/svg">
<path d="M29.15 32.1062L18.8833 21.8396C17.9667 22.5729 16.9125 23.1535 15.7208 23.5812C14.5292 24.009 13.2611 24.2229 11.9167 24.2229C8.58611 24.2229 5.76767 23.0697 3.46133 20.7634C1.15378 18.4559 0 15.6368 0 12.3062C0 8.97569 1.15378 6.15664 3.46133 3.84908C5.76767 1.54275 8.58611 0.389584 11.9167 0.389584C15.2472 0.389584 18.0663 1.54275 20.3738 3.84908C22.6802 6.15664 23.8333 8.97569 23.8333 12.3062C23.8333 13.6507 23.6194 14.9187 23.1917 16.1104C22.7639 17.3021 22.1833 18.3562 21.45 19.2729L31.7625 29.5854C32.0986 29.9215 32.2667 30.334 32.2667 30.8229C32.2667 31.3118 32.0833 31.7396 31.7167 32.1062C31.3806 32.4424 30.9528 32.6104 30.4333 32.6104C29.9139 32.6104 29.4861 32.4424 29.15 32.1062V32.1062ZM11.9167 20.5562C14.2083 20.5562 16.1566 19.7545 17.7613 18.1509C19.3649 16.5461 20.1667 14.5979 20.1667 12.3062C20.1667 10.0146 19.3649 8.06636 17.7613 6.46158C16.1566 4.85803 14.2083 4.05625 11.9167 4.05625C9.625 4.05625 7.67678 4.85803 6.072 6.46158C4.46844 8.06636 3.66667 10.0146 3.66667 12.3062C3.66667 14.5979 4.46844 16.5461 6.072 18.1509C7.67678 19.7545 9.625 20.5562 11.9167 20.5562Z" fill="#272C34"/>
</svg>
