<svg width="126" height="64" viewBox="0 0 126 64" fill="none" xmlns="http://www.w3.org/2000/svg">
<path d="M3 1H19.6H106.4H123C124.105 1 125 1.89543 125 3V61C125 62.1046 124.105 63 123 63H106.4H19.6H3C1.89543 63 1 62.1046 1 61V3C1 1.89543 1.89543 1 3 1Z" fill="white"/>
<path d="M19.6 1H3C1.89543 1 1 1.89543 1 3V61C1 62.1046 1.89543 63 3 63H19.6M19.6 1H106.4M19.6 1V63M106.4 1H123C124.105 1 125 1.89543 125 3V61C125 62.1046 124.105 63 123 63H106.4M106.4 1V63M106.4 63H19.6" stroke="#292C33" stroke-width="1.5"/>
</svg>
