<svg width="102" height="51" viewBox="0 0 102 51" fill="none" xmlns="http://www.w3.org/2000/svg">
<path d="M1.08549 24.9379L50.4038 0.876573L50.0749 0.202516L50.4038 0.876571C50.5745 0.793287 50.7619 0.75 50.9519 0.75H51.0481C51.2381 0.75 51.4255 0.793287 51.5962 0.876572L100.915 24.9379C101.12 25.0381 101.25 25.2465 101.25 25.4749C101.25 25.7031 101.12 25.9114 100.915 26.0116L51.5963 50.123C51.4253 50.2066 51.2376 50.25 51.0473 50.25H50.9527C50.7624 50.25 50.5747 50.2066 50.4037 50.123L1.08505 26.0116C0.880018 25.9114 0.75 25.7031 0.75 25.4749C0.75 25.2465 0.880217 25.0381 1.08549 24.9379Z" fill="white" stroke="#292C33" stroke-width="1.5"/>
</svg>
