<svg width="25" height="24" viewBox="0 0 25 24" fill="none" xmlns="http://www.w3.org/2000/svg">
<path d="M5.25 6.5V6.5C5.25 5.39543 6.14543 4.5 7.25 4.5L18.6786 4.5C18.7449 4.5 18.7781 4.5 18.806 4.50314C19.0378 4.52926 19.2207 4.71221 19.2469 4.94402C19.25 4.97192 19.25 5.00509 19.25 5.07143V5.07143C19.25 5.46946 19.25 5.66848 19.2311 5.83589C19.0744 7.22675 17.9768 8.32442 16.5859 8.48114C16.4185 8.5 16.2195 8.5 15.8214 8.5H15.75M5.25 6.5V6.5C5.25 7.60457 6.14543 8.5 7.25 8.5L18.25 8.5C19.1928 8.5 19.6642 8.5 19.9571 8.79289C20.25 9.08579 20.25 9.55719 20.25 10.5V12.5M5.25 6.5L5.25 15.5C5.25 17.3856 5.25 18.3284 5.83579 18.9142C6.42157 19.5 7.36438 19.5 9.25 19.5L18.25 19.5C19.1928 19.5 19.6642 19.5 19.9571 19.2071C20.25 18.9142 20.25 18.4428 20.25 17.5V16.5M20.25 16.5H18.25C17.3072 16.5 16.8358 16.5 16.5429 16.2071C16.25 15.9142 16.25 15.4428 16.25 14.5V14.5C16.25 13.5572 16.25 13.0858 16.5429 12.7929C16.8358 12.5 17.3072 12.5 18.25 12.5H20.25M20.25 16.5V12.5" stroke="#222222"/>
</svg>
