<svg width="25" height="24" viewBox="0 0 25 24" fill="none" xmlns="http://www.w3.org/2000/svg">
<path d="M4.875 6.5V6.5C4.875 5.39543 5.77043 4.5 6.875 4.5L18.3036 4.5C18.3699 4.5 18.4031 4.5 18.431 4.50314C18.6628 4.52926 18.8457 4.71221 18.8719 4.94402C18.875 4.97192 18.875 5.00509 18.875 5.07143V5.07143C18.875 5.46946 18.875 5.66848 18.8561 5.83589C18.6994 7.22675 17.6018 8.32442 16.2109 8.48114C16.0435 8.5 15.8445 8.5 15.4464 8.5H15.375M4.875 6.5V6.5C4.875 7.60457 5.77043 8.5 6.875 8.5L17.875 8.5C18.8178 8.5 19.2892 8.5 19.5821 8.79289C19.875 9.08579 19.875 9.55719 19.875 10.5V12.5M4.875 6.5L4.875 15.5C4.875 17.3856 4.875 18.3284 5.46079 18.9142C6.04657 19.5 6.98938 19.5 8.875 19.5L17.875 19.5C18.8178 19.5 19.2892 19.5 19.5821 19.2071C19.875 18.9142 19.875 18.4428 19.875 17.5V16.5M19.875 16.5H17.875C16.9322 16.5 16.4608 16.5 16.1679 16.2071C15.875 15.9142 15.875 15.4428 15.875 14.5V14.5C15.875 13.5572 15.875 13.0858 16.1679 12.7929C16.4608 12.5 16.9322 12.5 17.875 12.5H19.875M19.875 16.5V12.5" stroke="#222222"/>
</svg>
