<svg width="25" height="24" viewBox="0 0 25 24" fill="none" xmlns="http://www.w3.org/2000/svg">
<path d="M5.375 6.5V6.5C5.375 5.39543 6.27043 4.5 7.375 4.5L18.8036 4.5C18.8699 4.5 18.9031 4.5 18.931 4.50314C19.1628 4.52926 19.3457 4.71221 19.3719 4.94402C19.375 4.97192 19.375 5.00509 19.375 5.07143V5.07143C19.375 5.46946 19.375 5.66848 19.3561 5.83589C19.1994 7.22675 18.1018 8.32442 16.7109 8.48114C16.5435 8.5 16.3445 8.5 15.9464 8.5H15.875M5.375 6.5V6.5C5.375 7.60457 6.27043 8.5 7.375 8.5L18.375 8.5C19.3178 8.5 19.7892 8.5 20.0821 8.79289C20.375 9.08579 20.375 9.55719 20.375 10.5V12.5M5.375 6.5L5.375 15.5C5.375 17.3856 5.375 18.3284 5.96079 18.9142C6.54657 19.5 7.48938 19.5 9.375 19.5L18.375 19.5C19.3178 19.5 19.7892 19.5 20.0821 19.2071C20.375 18.9142 20.375 18.4428 20.375 17.5V16.5M20.375 16.5H18.375C17.4322 16.5 16.9608 16.5 16.6679 16.2071C16.375 15.9142 16.375 15.4428 16.375 14.5V14.5C16.375 13.5572 16.375 13.0858 16.6679 12.7929C16.9608 12.5 17.4322 12.5 18.375 12.5H20.375M20.375 16.5V12.5" stroke="#222222"/>
</svg>
