<svg width="13" height="4" viewBox="0 0 13 4" fill="none" xmlns="http://www.w3.org/2000/svg">
<path fill-rule="evenodd" clip-rule="evenodd" d="M1.78124 2.20069V2.82914H1.59494V2.20069L0.880371 1.01129H1.08198L1.69447 2.03189L2.30696 1.01129H2.49582L1.78124 2.20069ZM2.99346 2.84213C2.86416 2.84213 2.74762 2.81226 2.64383 2.75253C2.54005 2.6928 2.45838 2.61014 2.39884 2.50453C2.33929 2.39892 2.30951 2.27946 2.30951 2.14615C2.30951 2.01284 2.33929 1.89338 2.39884 1.78777C2.45838 1.68217 2.54005 1.59993 2.64383 1.54107C2.74762 1.4822 2.86416 1.45277 2.99346 1.45277C3.12277 1.45277 3.23931 1.4822 3.34309 1.54107C3.44688 1.59993 3.52811 1.68217 3.58681 1.78777C3.64551 1.89338 3.67486 2.01284 3.67486 2.14615C3.67486 2.27946 3.64551 2.39892 3.58681 2.50453C3.52811 2.61014 3.44688 2.6928 3.34309 2.75253C3.23931 2.81226 3.12277 2.84213 2.99346 2.84213ZM2.99346 2.67852C3.08874 2.67852 3.17423 2.65645 3.24994 2.6123C3.32565 2.56815 3.38478 2.50539 3.42731 2.42402C3.46984 2.34265 3.49111 2.25003 3.49111 2.14615C3.49111 2.04227 3.46984 1.94965 3.42731 1.86828C3.38478 1.78691 3.32565 1.72415 3.24994 1.68C3.17423 1.63585 3.08874 1.61378 2.99346 1.61378C2.89819 1.61378 2.81269 1.63585 2.73698 1.68C2.66127 1.72415 2.60172 1.78691 2.55834 1.86828C2.51495 1.94965 2.49326 2.04227 2.49326 2.14615C2.49326 2.25003 2.51495 2.34265 2.55834 2.42402C2.60172 2.50539 2.66127 2.56815 2.73698 2.6123C2.81269 2.65645 2.89819 2.67852 2.99346 2.67852ZM5.25457 1.46316V2.82914H5.08103V2.57984C5.0334 2.66294 4.96789 2.72743 4.88453 2.77331C4.80116 2.81919 4.70588 2.84213 4.5987 2.84213C4.42346 2.84213 4.28522 2.79235 4.18399 2.6928C4.08276 2.59326 4.03214 2.4474 4.03214 2.25522V1.46316H4.21334V2.23704C4.21334 2.38074 4.24822 2.48981 4.31797 2.56426C4.38773 2.6387 4.48726 2.67592 4.61656 2.67592C4.75778 2.67592 4.86921 2.63221 4.95088 2.54478C5.03255 2.45735 5.07338 2.33573 5.07338 2.17991V1.46316H5.25457ZM5.93597 1.73064C5.9785 1.63888 6.04188 1.56963 6.1261 1.52289C6.21031 1.47614 6.31452 1.45277 6.43872 1.45277V1.63196L6.39534 1.62936C6.25412 1.62936 6.14354 1.67351 6.06357 1.76181C5.98361 1.8501 5.94363 1.97389 5.94363 2.13317V2.82914H5.76243V1.46316H5.93597V1.73064ZM8.26854 2.84473C8.0916 2.84473 7.93209 2.80491 7.79003 2.72527C7.64796 2.64563 7.53653 2.53526 7.45571 2.39416C7.3749 2.25306 7.33449 2.09508 7.33449 1.92022C7.33449 1.74536 7.3749 1.58738 7.45571 1.44628C7.53653 1.30518 7.64839 1.19481 7.79131 1.11517C7.93422 1.03553 8.09415 0.995711 8.27109 0.995711C8.4038 0.995711 8.52629 1.01822 8.63858 1.06323C8.75087 1.10825 8.84615 1.17403 8.92441 1.2606L8.80447 1.38265C8.66495 1.23896 8.48887 1.16711 8.27619 1.16711C8.13498 1.16711 8.00653 1.2 7.89084 1.26579C7.77514 1.33158 7.68455 1.42161 7.61904 1.53587C7.55354 1.65014 7.52079 1.77825 7.52079 1.92022C7.52079 2.06218 7.55354 2.1903 7.61904 2.30456C7.68455 2.41883 7.77514 2.50886 7.89084 2.57464C8.00653 2.64043 8.13498 2.67333 8.27619 2.67333C8.49057 2.67333 8.66666 2.60061 8.80447 2.45519L8.92441 2.57724C8.84615 2.66381 8.75045 2.73003 8.63731 2.77591C8.52417 2.82179 8.40124 2.84473 8.26854 2.84473ZM9.28936 1.46316H9.47055V2.82914H9.28936V1.46316ZM9.38123 1.16451C9.3438 1.16451 9.31232 1.15153 9.2868 1.12556C9.26128 1.09959 9.24852 1.06843 9.24852 1.03207C9.24852 0.997442 9.26128 0.967145 9.2868 0.941176C9.31232 0.915206 9.3438 0.902222 9.38123 0.902222C9.41866 0.902222 9.45013 0.914773 9.47565 0.939877C9.50117 0.964981 9.51394 0.994845 9.51394 1.02947C9.51394 1.06756 9.50117 1.09959 9.47565 1.12556C9.45013 1.15153 9.41866 1.16451 9.38123 1.16451ZM10.6828 2.74604C10.6487 2.7772 10.6066 2.80101 10.5564 2.81746C10.5063 2.8339 10.4539 2.84213 10.3995 2.84213C10.2736 2.84213 10.1766 2.8075 10.1086 2.73825C10.0405 2.669 10.0065 2.57118 10.0065 2.4448V1.61897H9.76659V1.46316H10.0065V1.16451H10.1877V1.46316H10.596V1.61897H10.1877V2.43441C10.1877 2.51578 10.2077 2.57767 10.2476 2.62009C10.2876 2.66251 10.3451 2.68372 10.4199 2.68372C10.4573 2.68372 10.4935 2.67766 10.5284 2.66554C10.5633 2.65342 10.5935 2.63611 10.619 2.6136L10.6828 2.74604ZM12.0889 1.46316L11.4178 2.99275C11.3633 3.12087 11.3004 3.21176 11.2289 3.26543C11.1575 3.3191 11.0715 3.34593 10.9712 3.34593C10.9065 3.34593 10.8461 3.33555 10.79 3.31477C10.7338 3.29399 10.6853 3.26283 10.6445 3.22128L10.7287 3.08364C10.7968 3.15289 10.8784 3.18752 10.9737 3.18752C11.035 3.18752 11.0873 3.17021 11.1307 3.13558C11.174 3.10096 11.2144 3.04209 11.2519 2.95899L11.3106 2.82655L10.7108 1.46316H10.8997L11.405 2.62399L11.9103 1.46316H12.0889Z" fill="#34336C"/>
</svg>
