<svg width="26" height="3" viewBox="0 0 26 3" fill="none" xmlns="http://www.w3.org/2000/svg">
<path fill-rule="evenodd" clip-rule="evenodd" d="M2.25842 0.905373L1.58723 2.43497C1.53279 2.56308 1.46984 2.65397 1.39838 2.70764C1.32693 2.76131 1.24101 2.78815 1.14063 2.78815C1.07597 2.78815 1.01558 2.77776 0.959431 2.75698C0.903286 2.73621 0.854798 2.70505 0.813965 2.6635L0.898182 2.52586C0.966237 2.59511 1.0479 2.62973 1.14318 2.62973C1.20443 2.62973 1.25674 2.61242 1.30013 2.5778C1.34351 2.54317 1.38392 2.48431 1.42135 2.40121L1.48005 2.26876L0.880318 0.905373H1.06917L1.57447 2.0662L2.07978 0.905373H2.25842ZM2.9855 2.28434C2.8562 2.28434 2.73965 2.25448 2.63587 2.19475C2.53209 2.13502 2.45042 2.05235 2.39087 1.94674C2.33133 1.84113 2.30155 1.72168 2.30155 1.58837C2.30155 1.45506 2.33133 1.3356 2.39087 1.22999C2.45042 1.12438 2.53209 1.04215 2.63587 0.983281C2.73965 0.924417 2.8562 0.894986 2.9855 0.894986C3.11481 0.894986 3.23135 0.924417 3.33513 0.983281C3.43891 1.04215 3.52015 1.12438 3.57885 1.22999C3.63755 1.3356 3.6669 1.45506 3.6669 1.58837C3.6669 1.72168 3.63755 1.84113 3.57885 1.94674C3.52015 2.05235 3.43891 2.13502 3.33513 2.19475C3.23135 2.25448 3.11481 2.28434 2.9855 2.28434ZM2.9855 2.12074C3.08078 2.12074 3.16627 2.09866 3.24198 2.05451C3.31769 2.01037 3.37681 1.94761 3.41935 1.86624C3.46188 1.78487 3.48315 1.69224 3.48315 1.58837C3.48315 1.48449 3.46188 1.39187 3.41935 1.31049C3.37681 1.22912 3.31769 1.16637 3.24198 1.12222C3.16627 1.07807 3.08078 1.056 2.9855 1.056C2.89022 1.056 2.80473 1.07807 2.72902 1.12222C2.65331 1.16637 2.59376 1.22912 2.55038 1.31049C2.50699 1.39187 2.4853 1.48449 2.4853 1.58837C2.4853 1.69224 2.50699 1.78487 2.55038 1.86624C2.59376 1.94761 2.65331 2.01037 2.72902 2.05451C2.80473 2.09866 2.89022 2.12074 2.9855 2.12074ZM5.24661 0.905373V2.27136H5.07307V2.02205C5.02543 2.10516 4.95993 2.16965 4.87657 2.21552C4.7932 2.2614 4.69792 2.28434 4.59074 2.28434C4.4155 2.28434 4.27726 2.23457 4.17603 2.13502C4.0748 2.03547 4.02418 1.88961 4.02418 1.69744V0.905373H4.20538V1.67926C4.20538 1.82296 4.24026 1.93203 4.31001 2.00647C4.37977 2.08092 4.4793 2.11814 4.6086 2.11814C4.74982 2.11814 4.86125 2.07443 4.94292 1.98699C5.02458 1.89956 5.06542 1.77794 5.06542 1.62213V0.905373H5.24661ZM5.92801 1.17286C5.97054 1.0811 6.03392 1.01185 6.11814 0.965103C6.20235 0.918358 6.30656 0.894986 6.43076 0.894986V1.07417L6.38738 1.07158C6.24616 1.07158 6.13557 1.11572 6.05561 1.20402C5.97565 1.29232 5.93566 1.4161 5.93566 1.57538V2.27136H5.75447V0.905373H5.92801V1.17286ZM7.88058 1.6455H6.75768C6.76789 1.78746 6.82148 1.90216 6.91846 1.98959C7.01543 2.07702 7.13793 2.12074 7.28595 2.12074C7.36932 2.12074 7.44588 2.10559 7.51563 2.07529C7.58539 2.04499 7.64579 2.00041 7.69683 1.94155L7.79891 2.06101C7.73936 2.13372 7.66493 2.18912 7.57561 2.22721C7.48629 2.2653 7.38803 2.28434 7.28085 2.28434C7.14304 2.28434 7.02096 2.25448 6.91463 2.19475C6.80829 2.13502 6.72535 2.05235 6.6658 1.94674C6.60626 1.84113 6.57648 1.72168 6.57648 1.58837C6.57648 1.45506 6.60498 1.3356 6.66198 1.22999C6.71897 1.12438 6.79723 1.04215 6.89676 0.983281C6.99629 0.924417 7.10816 0.894986 7.23236 0.894986C7.35656 0.894986 7.468 0.924417 7.56668 0.983281C7.66536 1.04215 7.74277 1.12395 7.79891 1.22869C7.85506 1.33343 7.88313 1.45332 7.88313 1.58837L7.88058 1.6455ZM7.23236 1.0534C7.10305 1.0534 6.99459 1.09538 6.90697 1.17935C6.81935 1.26332 6.76959 1.37282 6.75768 1.50786H7.70959C7.69768 1.37282 7.64792 1.26332 7.5603 1.17935C7.47268 1.09538 7.36336 1.0534 7.23236 1.0534ZM9.92732 0.894986C10.0958 0.894986 10.228 0.944327 10.3242 1.04301C10.4203 1.14169 10.4684 1.28712 10.4684 1.47929V2.27136H10.2872V1.49747C10.2872 1.35551 10.2536 1.2473 10.1863 1.17286C10.1191 1.09841 10.0243 1.06119 9.9018 1.06119C9.76228 1.06119 9.65255 1.1049 9.57258 1.19233C9.49262 1.27976 9.45264 1.40052 9.45264 1.55461V2.27136H9.27144V1.49747C9.27144 1.35551 9.23784 1.2473 9.17064 1.17286C9.10343 1.09841 9.00773 1.06119 8.88353 1.06119C8.74572 1.06119 8.63641 1.1049 8.55559 1.19233C8.47478 1.27976 8.43437 1.40052 8.43437 1.55461V2.27136H8.25318V0.905373H8.42671V1.15468C8.47435 1.07158 8.54071 1.00752 8.62577 0.962506C8.71084 0.917492 8.80867 0.894986 8.91926 0.894986C9.03155 0.894986 9.12895 0.919223 9.21147 0.9677C9.29399 1.01618 9.35566 1.08802 9.39649 1.18324C9.44583 1.09322 9.51686 1.02267 9.60959 0.971595C9.70231 0.920522 9.80822 0.894986 9.92732 0.894986ZM11.4305 0.894986C11.6057 0.894986 11.7401 0.939566 11.8337 1.02873C11.9273 1.11789 11.9741 1.2499 11.9741 1.42476V2.27136H11.8005V2.05841C11.7597 2.12939 11.6997 2.18479 11.6206 2.22461C11.5415 2.26443 11.4475 2.28434 11.3386 2.28434C11.1889 2.28434 11.0698 2.24799 10.9813 2.17527C10.8928 2.10256 10.8486 2.00647 10.8486 1.88701C10.8486 1.77102 10.8899 1.67753 10.9724 1.60654C11.0549 1.53556 11.1863 1.50007 11.3667 1.50007H11.7929V1.41697C11.7929 1.29924 11.7605 1.20965 11.6959 1.14819C11.6312 1.08673 11.5368 1.056 11.4126 1.056C11.3275 1.056 11.2459 1.07028 11.1676 1.09884C11.0893 1.12741 11.0221 1.1668 10.966 1.21701L10.8843 1.07937C10.9524 1.0205 11.0341 0.975058 11.1293 0.943029C11.2246 0.911 11.325 0.894986 11.4305 0.894986ZM11.3667 2.13892C11.4688 2.13892 11.5564 2.11511 11.6295 2.0675C11.7027 2.01989 11.7571 1.95107 11.7929 1.86104V1.63771H11.3718C11.1421 1.63771 11.0272 1.71908 11.0272 1.88182C11.0272 1.96146 11.057 2.02422 11.1166 2.0701C11.1761 2.11598 11.2595 2.13892 11.3667 2.13892ZM12.4666 0.905373H12.6478V2.27136H12.4666V0.905373ZM12.5585 0.606727C12.521 0.606727 12.4896 0.593742 12.464 0.567773C12.4385 0.541803 12.4258 0.51064 12.4258 0.474283C12.4258 0.439657 12.4385 0.40936 12.464 0.383391C12.4896 0.357421 12.521 0.344437 12.5585 0.344437C12.5959 0.344437 12.6274 0.356988 12.6529 0.382092C12.6784 0.407196 12.6912 0.43706 12.6912 0.471686C12.6912 0.509775 12.6784 0.541803 12.6529 0.567773C12.6274 0.593742 12.5959 0.606727 12.5585 0.606727ZM13.1531 0.344438H13.3343V2.27136H13.1531V0.344438ZM15.3787 2.00534C15.3279 2.0934 15.2589 2.16173 15.1718 2.21033C15.0833 2.25967 14.9829 2.28434 14.8706 2.28434C14.7515 2.28434 14.6439 2.25534 14.5478 2.19735C14.4517 2.13935 14.376 2.05928 14.3207 1.95713C14.2654 1.85498 14.2377 1.73985 14.2377 1.61174C14.2377 1.48362 14.2654 1.36893 14.3207 1.26765C14.376 1.16636 14.4517 1.08716 14.5478 1.03003C14.6439 0.972893 14.7515 0.944327 14.8706 0.944327C14.9795 0.944327 15.0778 0.968132 15.1654 1.01574C15.253 1.06335 15.3232 1.13044 15.3759 1.21701V0.954715H15.5418V1.93895C15.5418 2.0082 15.5563 2.05841 15.5852 2.08957C15.6141 2.12074 15.6524 2.13632 15.7 2.13632C15.78 2.13632 15.8434 2.08784 15.8902 1.99089C15.937 1.89394 15.9604 1.7589 15.9604 1.58577C15.9604 1.38494 15.9161 1.20792 15.8276 1.0547C15.7392 0.901477 15.6154 0.782453 15.4563 0.697619C15.2972 0.612786 15.1156 0.57037 14.9115 0.57037C14.7056 0.57037 14.5231 0.614084 14.364 0.701515C14.205 0.788945 14.0812 0.911865 13.9927 1.07028C13.9043 1.22869 13.86 1.40918 13.86 1.61174C13.86 1.8143 13.9038 1.99522 13.9914 2.1545C14.0791 2.31378 14.2016 2.43756 14.3589 2.52586C14.5163 2.61415 14.6971 2.6583 14.9013 2.6583C14.9812 2.6583 15.065 2.64878 15.1526 2.62974C15.2402 2.61069 15.3198 2.58212 15.3912 2.54404L15.4346 2.67129C15.3615 2.70937 15.2768 2.73881 15.1807 2.75958C15.0846 2.78036 14.9914 2.79074 14.9013 2.79074C14.6699 2.79074 14.4649 2.74054 14.2862 2.64012C14.1076 2.53971 13.9685 2.39991 13.869 2.22072C13.7694 2.04153 13.7197 1.83854 13.7197 1.61174C13.7197 1.38321 13.7698 1.18022 13.8702 1.00276C13.9706 0.825301 14.1114 0.686799 14.2926 0.58725C14.4738 0.4877 14.6801 0.437926 14.9115 0.437926C15.1394 0.437926 15.3432 0.485969 15.5227 0.582056C15.7022 0.678143 15.8421 0.813182 15.9425 0.987177C16.0429 1.16117 16.0931 1.35984 16.0931 1.58317C16.0931 1.80305 16.0556 1.97488 15.9808 2.09866C15.9059 2.22245 15.8021 2.28434 15.6694 2.28434C15.5861 2.28434 15.5184 2.25924 15.4665 2.20903C15.4146 2.15883 15.3861 2.08959 15.381 2.0013L15.3787 2.00534ZM14.8936 2.13372C14.9855 2.13372 15.068 2.11208 15.1411 2.0688C15.2143 2.02552 15.2721 1.96449 15.3147 1.88571C15.3572 1.80694 15.3785 1.71562 15.3785 1.61174C15.3785 1.50959 15.3572 1.41913 15.3147 1.34036C15.2721 1.26159 15.2143 1.20099 15.1411 1.15857C15.068 1.11616 14.9855 1.09495 14.8936 1.09495C14.8 1.09495 14.7162 1.11659 14.6422 1.15987C14.5682 1.20315 14.5104 1.26375 14.4687 1.34166C14.427 1.41957 14.4062 1.50959 14.4062 1.61174C14.4062 1.71388 14.427 1.80434 14.4687 1.88312C14.5104 1.96189 14.5682 2.02335 14.6422 2.0675C14.7162 2.11165 14.8 2.13372 14.8936 2.13372ZM17.7187 0.905373V2.10515C17.7187 2.33715 17.663 2.50898 17.5515 2.62065C17.4401 2.73231 17.2721 2.78815 17.0475 2.78815C16.9233 2.78815 16.8055 2.76954 16.6941 2.73231C16.5826 2.69509 16.492 2.64359 16.4223 2.5778L16.5141 2.43756C16.5788 2.49643 16.6575 2.5423 16.7502 2.5752C16.8429 2.60809 16.9403 2.62454 17.0424 2.62454C17.2126 2.62454 17.3376 2.58429 17.4176 2.50378C17.4975 2.42328 17.5375 2.29819 17.5375 2.12853V1.95453C17.4814 2.0411 17.4078 2.10689 17.3168 2.1519C17.2257 2.19691 17.1249 2.21942 17.0143 2.21942C16.8884 2.21942 16.774 2.19129 16.6711 2.13502C16.5682 2.07875 16.4873 1.99998 16.4287 1.8987C16.37 1.79742 16.3406 1.68272 16.3406 1.55461C16.3406 1.42649 16.37 1.31223 16.4287 1.21181C16.4873 1.1114 16.5677 1.03349 16.6698 0.978087C16.7719 0.922686 16.8867 0.894986 17.0143 0.894986C17.1283 0.894986 17.2313 0.918358 17.3231 0.965103C17.415 1.01185 17.489 1.07937 17.5452 1.16766V0.905373H17.7187ZM17.0322 2.05581C17.1292 2.05581 17.2168 2.03461 17.2951 1.99219C17.3733 1.94977 17.4342 1.89048 17.4775 1.8143C17.5209 1.73812 17.5426 1.65156 17.5426 1.55461C17.5426 1.45765 17.5209 1.37152 17.4775 1.29621C17.4342 1.2209 17.3738 1.16204 17.2963 1.11962C17.2189 1.0772 17.1309 1.056 17.0322 1.056C16.9352 1.056 16.848 1.07677 16.7706 1.11832C16.6932 1.15987 16.6328 1.21874 16.5894 1.29491C16.546 1.37109 16.5244 1.45765 16.5244 1.55461C16.5244 1.65156 16.546 1.73812 16.5894 1.8143C16.6328 1.89048 16.6932 1.94977 16.7706 1.99219C16.848 2.03461 16.9352 2.05581 17.0322 2.05581ZM19.9007 0.894986C20.0691 0.894986 20.2014 0.944327 20.2976 1.04301C20.3937 1.14169 20.4417 1.28712 20.4417 1.47929V2.27136H20.2605V1.49747C20.2605 1.35551 20.2269 1.2473 20.1597 1.17286C20.0925 1.09841 19.9977 1.06119 19.8752 1.06119C19.7357 1.06119 19.6259 1.1049 19.546 1.19233C19.466 1.27976 19.426 1.40052 19.426 1.55461V2.27136H19.2448V1.49747C19.2448 1.35551 19.2112 1.2473 19.144 1.17286C19.0768 1.09841 18.9811 1.06119 18.8569 1.06119C18.7191 1.06119 18.6098 1.1049 18.529 1.19233C18.4482 1.27976 18.4078 1.40052 18.4078 1.55461V2.27136H18.2266V0.905373H18.4001V1.15468C18.4477 1.07158 18.5141 1.00752 18.5992 0.962506C18.6842 0.917492 18.7821 0.894986 18.8927 0.894986C19.0049 0.894986 19.1023 0.919223 19.1849 0.9677C19.2674 1.01618 19.3291 1.08802 19.3699 1.18324C19.4192 1.09322 19.4903 1.02267 19.583 0.971595C19.6757 0.920522 19.7816 0.894986 19.9007 0.894986ZM21.4039 0.894986C21.5791 0.894986 21.7135 0.939566 21.8071 1.02873C21.9007 1.11789 21.9474 1.2499 21.9474 1.42476V2.27136H21.7739V2.05841C21.7331 2.12939 21.6731 2.18479 21.594 2.22461C21.5149 2.26443 21.4209 2.28434 21.312 2.28434C21.1623 2.28434 21.0432 2.24799 20.9547 2.17527C20.8662 2.10256 20.822 2.00647 20.822 1.88701C20.822 1.77102 20.8633 1.67753 20.9458 1.60654C21.0283 1.53556 21.1597 1.50007 21.3401 1.50007H21.7663V1.41697C21.7663 1.29924 21.7339 1.20965 21.6693 1.14819C21.6046 1.08673 21.5102 1.056 21.386 1.056C21.3009 1.056 21.2193 1.07028 21.141 1.09884C21.0627 1.12741 20.9955 1.1668 20.9394 1.21701L20.8577 1.07937C20.9258 1.0205 21.0074 0.975058 21.1027 0.943029C21.198 0.911 21.2984 0.894986 21.4039 0.894986ZM21.3401 2.13892C21.4421 2.13892 21.5298 2.11511 21.6029 2.0675C21.6761 2.01989 21.7305 1.95107 21.7663 1.86104V1.63771H21.3452C21.1155 1.63771 21.0006 1.71908 21.0006 1.88182C21.0006 1.96146 21.0304 2.02422 21.09 2.0701C21.1495 2.11598 21.2329 2.13892 21.3401 2.13892ZM22.44 0.905373H22.6212V2.27136H22.44V0.905373ZM22.5319 0.606727C22.4944 0.606727 22.463 0.593742 22.4374 0.567773C22.4119 0.541803 22.3992 0.51064 22.3992 0.474283C22.3992 0.439657 22.4119 0.40936 22.4374 0.383391C22.463 0.357421 22.4944 0.344437 22.5319 0.344437C22.5693 0.344437 22.6008 0.356988 22.6263 0.382092C22.6518 0.407196 22.6646 0.43706 22.6646 0.471686C22.6646 0.509775 22.6518 0.541803 22.6263 0.567773C22.6008 0.593742 22.5693 0.606727 22.5319 0.606727ZM23.1265 0.344438H23.3077V2.27136H23.1265V0.344438ZM23.8309 2.28434C23.7934 2.28434 23.7615 2.27049 23.7352 2.24279C23.7088 2.21509 23.6956 2.18133 23.6956 2.14151C23.6956 2.10169 23.7088 2.06837 23.7352 2.04153C23.7615 2.01469 23.7934 2.00128 23.8309 2.00128C23.8683 2.00128 23.9006 2.01469 23.9278 2.04153C23.9551 2.06837 23.9687 2.10169 23.9687 2.14151C23.9687 2.18133 23.9551 2.21509 23.9278 2.24279C23.9006 2.27049 23.8683 2.28434 23.8309 2.28434ZM24.8336 2.28434C24.7008 2.28434 24.5822 2.25491 24.4775 2.19605C24.3729 2.13718 24.2908 2.05452 24.2313 1.94804C24.1717 1.84157 24.142 1.72168 24.142 1.58837C24.142 1.45506 24.1717 1.3356 24.2313 1.22999C24.2908 1.12438 24.3729 1.04215 24.4775 0.983281C24.5822 0.924417 24.7008 0.894986 24.8336 0.894986C24.9492 0.894986 25.0526 0.917925 25.1436 0.963804C25.2347 1.00968 25.3065 1.07677 25.3593 1.16507L25.224 1.25856C25.1798 1.19104 25.1236 1.1404 25.0556 1.10664C24.9875 1.07288 24.9135 1.056 24.8336 1.056C24.7366 1.056 24.6494 1.07807 24.572 1.12222C24.4946 1.16637 24.4342 1.22912 24.3908 1.31049C24.3474 1.39187 24.3257 1.48449 24.3257 1.58837C24.3257 1.69397 24.3474 1.78703 24.3908 1.86754C24.4342 1.94804 24.4946 2.01037 24.572 2.05451C24.6494 2.09866 24.7366 2.12074 24.8336 2.12074C24.9135 2.12074 24.9875 2.10429 25.0556 2.07139C25.1236 2.0385 25.1798 1.98829 25.224 1.92077L25.3593 2.01426C25.3065 2.10256 25.2342 2.16965 25.1424 2.21552C25.0505 2.2614 24.9475 2.28434 24.8336 2.28434Z" fill="#34336C"/>
</svg>
