<svg width="12" height="3" viewBox="0 0 12 3" fill="none" xmlns="http://www.w3.org/2000/svg">
<path fill-rule="evenodd" clip-rule="evenodd" d="M1.78124 1.73838V2.36684H1.59494V1.73838L0.880371 0.548988H1.08198L1.69447 1.56958L2.30696 0.548988H2.49582L1.78124 1.73838ZM2.99346 2.37982C2.86416 2.37982 2.74762 2.34996 2.64383 2.29023C2.54005 2.2305 2.45838 2.14783 2.39884 2.04222C2.33929 1.93661 2.30951 1.81715 2.30951 1.68384C2.30951 1.55053 2.33929 1.43108 2.39884 1.32547C2.45838 1.21986 2.54005 1.13762 2.64383 1.07876C2.74762 1.0199 2.86416 0.990464 2.99346 0.990464C3.12277 0.990464 3.23931 1.0199 3.34309 1.07876C3.44688 1.13762 3.52812 1.21986 3.58681 1.32547C3.64551 1.43108 3.67486 1.55053 3.67486 1.68384C3.67486 1.81715 3.64551 1.93661 3.58681 2.04222C3.52812 2.14783 3.44688 2.2305 3.34309 2.29023C3.23931 2.34996 3.12277 2.37982 2.99346 2.37982ZM2.99346 2.21621C3.08874 2.21621 3.17423 2.19414 3.24994 2.14999C3.32565 2.10584 3.38478 2.04309 3.42731 1.96172C3.46984 1.88034 3.49111 1.78772 3.49111 1.68384C3.49111 1.57997 3.46984 1.48734 3.42731 1.40597C3.38478 1.3246 3.32565 1.26184 3.24994 1.2177C3.17423 1.17355 3.08874 1.15147 2.99346 1.15147C2.89819 1.15147 2.81269 1.17355 2.73698 1.2177C2.66127 1.26184 2.60172 1.3246 2.55834 1.40597C2.51495 1.48734 2.49326 1.57997 2.49326 1.68384C2.49326 1.78772 2.51495 1.88034 2.55834 1.96172C2.60172 2.04309 2.66127 2.10584 2.73698 2.14999C2.81269 2.19414 2.89819 2.21621 2.99346 2.21621ZM5.25457 1.00085V2.36684H5.08103V2.11753C5.0334 2.20063 4.96789 2.26512 4.88453 2.311C4.80116 2.35688 4.70588 2.37982 4.5987 2.37982C4.42346 2.37982 4.28522 2.33005 4.18399 2.2305C4.08276 2.13095 4.03214 1.98509 4.03214 1.79292V1.00085H4.21334V1.77474C4.21334 1.91843 4.24822 2.0275 4.31797 2.10195C4.38773 2.1764 4.48726 2.21362 4.61656 2.21362C4.75778 2.21362 4.86921 2.1699 4.95088 2.08247C5.03255 1.99504 5.07338 1.87342 5.07338 1.7176V1.00085H5.25457ZM5.93597 1.26834C5.9785 1.17658 6.04188 1.10733 6.1261 1.06058C6.21031 1.01384 6.31452 0.990464 6.43872 0.990464V1.16965L6.39534 1.16706C6.25412 1.16706 6.14354 1.2112 6.06357 1.2995C5.98361 1.38779 5.94363 1.51158 5.94363 1.67086V2.36684H5.76243V1.00085H5.93597V1.26834ZM8.16135 2.28373C8.12733 2.3149 8.08522 2.3387 8.03503 2.35515C7.98484 2.3716 7.93252 2.37982 7.87808 2.37982C7.75217 2.37982 7.6552 2.3452 7.58714 2.27594C7.51909 2.20669 7.48506 2.10888 7.48506 1.98249V1.15667H7.24517V1.00085H7.48506V0.702205H7.66626V1.00085H8.07458V1.15667H7.66626V1.9721C7.66626 2.05347 7.68625 2.11537 7.72623 2.15778C7.76621 2.2002 7.82363 2.22141 7.89849 2.22141C7.93592 2.22141 7.97208 2.21535 8.00695 2.20323C8.04183 2.19111 8.07203 2.1738 8.09755 2.15129L8.16135 2.28373ZM9.56293 1.74098H8.44004C8.45024 1.88294 8.50384 1.99764 8.60081 2.08507C8.69779 2.1725 8.82029 2.21621 8.96831 2.21621C9.05168 2.21621 9.12824 2.20107 9.19799 2.17077C9.26775 2.14047 9.32815 2.09589 9.37919 2.03703L9.48127 2.15649C9.42172 2.2292 9.34729 2.2846 9.25797 2.32269C9.16864 2.36078 9.07039 2.37982 8.9632 2.37982C8.82539 2.37982 8.70332 2.34996 8.59699 2.29023C8.49065 2.2305 8.40771 2.14783 8.34816 2.04222C8.28861 1.93661 8.25884 1.81715 8.25884 1.68384C8.25884 1.55053 8.28734 1.43108 8.34433 1.32547C8.40133 1.21986 8.47959 1.13762 8.57912 1.07876C8.67865 1.0199 8.79052 0.990464 8.91472 0.990464C9.03892 0.990464 9.15035 1.0199 9.24903 1.07876C9.34771 1.13762 9.42512 1.21943 9.48127 1.32417C9.53741 1.42891 9.56549 1.5488 9.56549 1.68384L9.56293 1.74098ZM8.91472 1.14888C8.78541 1.14888 8.67695 1.19086 8.58933 1.27483C8.50171 1.3588 8.45195 1.4683 8.44004 1.60334H9.39195C9.38004 1.4683 9.33027 1.3588 9.24265 1.27483C9.15503 1.19086 9.04572 1.14888 8.91472 1.14888ZM10.7134 2.36684L10.2872 1.79551L9.85846 2.36684H9.6543L10.1851 1.66567L9.67982 1.00085H9.88398L10.2872 1.53582L10.6904 1.00085H10.8895L10.3842 1.66567L10.9201 2.36684H10.7134ZM11.9282 2.28373C11.8941 2.3149 11.852 2.3387 11.8018 2.35515C11.7517 2.3716 11.6993 2.37982 11.6449 2.37982C11.519 2.37982 11.422 2.3452 11.354 2.27594C11.2859 2.20669 11.2519 2.10888 11.2519 1.98249V1.15667H11.012V1.00085H11.2519V0.702205H11.4331V1.00085H11.8414V1.15667H11.4331V1.9721C11.4331 2.05347 11.4531 2.11537 11.493 2.15778C11.533 2.2002 11.5904 2.22141 11.6653 2.22141C11.7027 2.22141 11.7389 2.21535 11.7738 2.20323C11.8086 2.19111 11.8388 2.1738 11.8644 2.15129L11.9282 2.28373Z" fill="#34336C"/>
</svg>
