<svg width="12" height="3" viewBox="0 0 12 3" fill="none" xmlns="http://www.w3.org/2000/svg">
<path fill-rule="evenodd" clip-rule="evenodd" d="M1.28124 1.70069V2.32914H1.09494V1.70069L0.380371 0.511293H0.581983L1.19447 1.53189L1.80696 0.511293H1.99582L1.28124 1.70069ZM2.49346 2.34213C2.36416 2.34213 2.24762 2.31226 2.14383 2.25253C2.04005 2.1928 1.95838 2.11014 1.89884 2.00453C1.83929 1.89892 1.80951 1.77946 1.80951 1.64615C1.80951 1.51284 1.83929 1.39338 1.89884 1.28777C1.95838 1.18217 2.04005 1.09993 2.14383 1.04107C2.24762 0.982202 2.36416 0.952771 2.49346 0.952771C2.62277 0.952771 2.73931 0.982202 2.84309 1.04107C2.94688 1.09993 3.02811 1.18217 3.08681 1.28777C3.14551 1.39338 3.17486 1.51284 3.17486 1.64615C3.17486 1.77946 3.14551 1.89892 3.08681 2.00453C3.02811 2.11014 2.94688 2.1928 2.84309 2.25253C2.73931 2.31226 2.62277 2.34213 2.49346 2.34213ZM2.49346 2.17852C2.58874 2.17852 2.67423 2.15645 2.74994 2.1123C2.82565 2.06815 2.88478 2.00539 2.92731 1.92402C2.96984 1.84265 2.99111 1.75003 2.99111 1.64615C2.99111 1.54227 2.96984 1.44965 2.92731 1.36828C2.88478 1.28691 2.82565 1.22415 2.74994 1.18C2.67423 1.13585 2.58874 1.11378 2.49346 1.11378C2.39819 1.11378 2.31269 1.13585 2.23698 1.18C2.16127 1.22415 2.10172 1.28691 2.05834 1.36828C2.01495 1.44965 1.99326 1.54227 1.99326 1.64615C1.99326 1.75003 2.01495 1.84265 2.05834 1.92402C2.10172 2.00539 2.16127 2.06815 2.23698 2.1123C2.31269 2.15645 2.39819 2.17852 2.49346 2.17852ZM4.75457 0.963158V2.32914H4.58103V2.07984C4.5334 2.16294 4.46789 2.22743 4.38453 2.27331C4.30116 2.31919 4.20588 2.34213 4.0987 2.34213C3.92346 2.34213 3.78522 2.29235 3.68399 2.1928C3.58276 2.09326 3.53214 1.9474 3.53214 1.75522V0.963158H3.71334V1.73704C3.71334 1.88074 3.74822 1.98981 3.81797 2.06426C3.88773 2.1387 3.98726 2.17592 4.11656 2.17592C4.25778 2.17592 4.36921 2.13221 4.45088 2.04478C4.53255 1.95735 4.57338 1.83573 4.57338 1.67991V0.963158H4.75457ZM5.43597 1.23064C5.4785 1.13888 5.54188 1.06963 5.6261 1.02289C5.71031 0.976143 5.81452 0.952771 5.93872 0.952771V1.13196L5.89534 1.12936C5.75412 1.12936 5.64354 1.17351 5.56357 1.26181C5.48361 1.3501 5.44363 1.47389 5.44363 1.63317V2.32914H5.26243V0.963158H5.43597V1.23064ZM7.76854 2.34473C7.5916 2.34473 7.43209 2.30491 7.29003 2.22527C7.14796 2.14563 7.03653 2.03526 6.95571 1.89416C6.8749 1.75306 6.83449 1.59508 6.83449 1.42022C6.83449 1.24536 6.8749 1.08738 6.95571 0.946278C7.03653 0.805178 7.14839 0.694809 7.29131 0.61517C7.43422 0.53553 7.59415 0.495711 7.77109 0.495711C7.9038 0.495711 8.02629 0.518218 8.13858 0.563231C8.25087 0.608245 8.34615 0.674033 8.42441 0.760598L8.30447 0.882654C8.16495 0.738956 7.98887 0.667109 7.77619 0.667109C7.63498 0.667109 7.50653 0.700003 7.39084 0.765792C7.27514 0.831581 7.18455 0.921607 7.11904 1.03587C7.05354 1.15014 7.02079 1.27825 7.02079 1.42022C7.02079 1.56218 7.05354 1.6903 7.11904 1.80456C7.18455 1.91883 7.27514 2.00886 7.39084 2.07464C7.50653 2.14043 7.63498 2.17333 7.77619 2.17333C7.99057 2.17333 8.16666 2.10061 8.30447 1.95519L8.42441 2.07724C8.34615 2.16381 8.25045 2.23003 8.13731 2.27591C8.02417 2.32179 7.90124 2.34473 7.76854 2.34473ZM8.78936 0.963158H8.97055V2.32914H8.78936V0.963158ZM8.88123 0.664512C8.8438 0.664512 8.81232 0.651527 8.7868 0.625558C8.76128 0.599588 8.74852 0.568425 8.74852 0.532068C8.74852 0.497442 8.76128 0.467145 8.7868 0.441176C8.81232 0.415206 8.8438 0.402222 8.88123 0.402222C8.91866 0.402222 8.95013 0.414773 8.97565 0.439877C9.00117 0.464981 9.01394 0.494845 9.01394 0.529471C9.01394 0.56756 9.00117 0.599588 8.97565 0.625558C8.95013 0.651527 8.91866 0.664512 8.88123 0.664512ZM10.1828 2.24604C10.1487 2.2772 10.1066 2.30101 10.0564 2.31746C10.0063 2.3339 9.95394 2.34213 9.8995 2.34213C9.77359 2.34213 9.67662 2.3075 9.60856 2.23825C9.54051 2.169 9.50648 2.07118 9.50648 1.9448V1.11897H9.26659V0.963158H9.50648V0.664512H9.68768V0.963158H10.096V1.11897H9.68768V1.93441C9.68768 2.01578 9.70767 2.07767 9.74765 2.12009C9.78763 2.16251 9.84505 2.18372 9.91991 2.18372C9.95734 2.18372 9.99349 2.17766 10.0284 2.16554C10.0633 2.15342 10.0935 2.13611 10.119 2.1136L10.1828 2.24604ZM11.5889 0.963158L10.9178 2.49275C10.8633 2.62087 10.8004 2.71176 10.7289 2.76543C10.6575 2.8191 10.5715 2.84593 10.4712 2.84593C10.4065 2.84593 10.3461 2.83555 10.29 2.81477C10.2338 2.79399 10.1853 2.76283 10.1445 2.72128L10.2287 2.58364C10.2968 2.65289 10.3784 2.68752 10.4737 2.68752C10.535 2.68752 10.5873 2.67021 10.6307 2.63558C10.674 2.60096 10.7144 2.54209 10.7519 2.45899L10.8106 2.32655L10.2108 0.963158H10.3997L10.905 2.12399L11.4103 0.963158H11.5889Z" fill="#34336C"/>
</svg>
