<svg width="12" height="2" viewBox="0 0 12 2" fill="none" xmlns="http://www.w3.org/2000/svg">
<path fill-rule="evenodd" clip-rule="evenodd" d="M1.28124 1.23838V1.86684H1.09494V1.23838L0.380371 0.0489883H0.581983L1.19447 1.06958L1.80696 0.0489883H1.99582L1.28124 1.23838ZM2.49346 1.87982C2.36416 1.87982 2.24762 1.84996 2.14383 1.79023C2.04005 1.7305 1.95838 1.64783 1.89884 1.54222C1.83929 1.43661 1.80951 1.31715 1.80951 1.18384C1.80951 1.05053 1.83929 0.931077 1.89884 0.825468C1.95838 0.719859 2.04005 0.637624 2.14383 0.578759C2.24762 0.519895 2.36416 0.490464 2.49346 0.490464C2.62277 0.490464 2.73931 0.519895 2.84309 0.578759C2.94688 0.637624 3.02812 0.719859 3.08681 0.825468C3.14551 0.931077 3.17486 1.05053 3.17486 1.18384C3.17486 1.31715 3.14551 1.43661 3.08681 1.54222C3.02812 1.64783 2.94688 1.7305 2.84309 1.79023C2.73931 1.84996 2.62277 1.87982 2.49346 1.87982ZM2.49346 1.71621C2.58874 1.71621 2.67423 1.69414 2.74994 1.64999C2.82565 1.60584 2.88478 1.54309 2.92731 1.46172C2.96984 1.38034 2.99111 1.28772 2.99111 1.18384C2.99111 1.07997 2.96984 0.987343 2.92731 0.905973C2.88478 0.824602 2.82565 0.761843 2.74994 0.717695C2.67423 0.673547 2.58874 0.651474 2.49346 0.651474C2.39819 0.651474 2.31269 0.673547 2.23698 0.717695C2.16127 0.761843 2.10172 0.824602 2.05834 0.905973C2.01495 0.987343 1.99326 1.07997 1.99326 1.18384C1.99326 1.28772 2.01495 1.38034 2.05834 1.46172C2.10172 1.54309 2.16127 1.60584 2.23698 1.64999C2.31269 1.69414 2.39819 1.71621 2.49346 1.71621ZM4.75457 0.500852V1.86684H4.58103V1.61753C4.5334 1.70063 4.46789 1.76512 4.38453 1.811C4.30116 1.85688 4.20588 1.87982 4.0987 1.87982C3.92346 1.87982 3.78522 1.83005 3.68399 1.7305C3.58276 1.63095 3.53214 1.48509 3.53214 1.29292V0.500852H3.71334V1.27474C3.71334 1.41843 3.74822 1.5275 3.81797 1.60195C3.88773 1.6764 3.98726 1.71362 4.11656 1.71362C4.25778 1.71362 4.36921 1.6699 4.45088 1.58247C4.53255 1.49504 4.57338 1.37342 4.57338 1.2176V0.500852H4.75457ZM5.43597 0.768335C5.4785 0.676577 5.54188 0.607326 5.6261 0.560581C5.71031 0.513836 5.81452 0.490464 5.93872 0.490464V0.669652L5.89534 0.667055C5.75412 0.667055 5.64354 0.711203 5.56357 0.799499C5.48361 0.887795 5.44363 1.01158 5.44363 1.17086V1.86684H5.26243V0.500852H5.43597V0.768335ZM7.66135 1.78373C7.62733 1.8149 7.58522 1.8387 7.53503 1.85515C7.48484 1.8716 7.43252 1.87982 7.37808 1.87982C7.25217 1.87982 7.1552 1.8452 7.08714 1.77594C7.01909 1.70669 6.98506 1.60888 6.98506 1.48249V0.656667H6.74517V0.500852H6.98506V0.202205H7.16626V0.500852H7.57458V0.656667H7.16626V1.4721C7.16626 1.55347 7.18625 1.61537 7.22623 1.65778C7.26621 1.7002 7.32363 1.72141 7.39849 1.72141C7.43592 1.72141 7.47208 1.71535 7.50695 1.70323C7.54183 1.69111 7.57203 1.6738 7.59755 1.65129L7.66135 1.78373ZM9.06293 1.24098H7.94004C7.95024 1.38294 8.00384 1.49764 8.10081 1.58507C8.19779 1.6725 8.32029 1.71621 8.46831 1.71621C8.55168 1.71621 8.62824 1.70107 8.69799 1.67077C8.76775 1.64047 8.82815 1.59589 8.87919 1.53703L8.98127 1.65649C8.92172 1.7292 8.84729 1.7846 8.75797 1.82269C8.66864 1.86078 8.57039 1.87982 8.4632 1.87982C8.32539 1.87982 8.20332 1.84996 8.09699 1.79023C7.99065 1.7305 7.90771 1.64783 7.84816 1.54222C7.78861 1.43661 7.75884 1.31715 7.75884 1.18384C7.75884 1.05053 7.78734 0.931077 7.84433 0.825468C7.90133 0.719859 7.97959 0.637624 8.07912 0.578759C8.17865 0.519895 8.29052 0.490464 8.41472 0.490464C8.53892 0.490464 8.65035 0.519895 8.74903 0.578759C8.84771 0.637624 8.92512 0.719426 8.98127 0.824169C9.03741 0.928913 9.06549 1.0488 9.06549 1.18384L9.06293 1.24098ZM8.41472 0.648877C8.28541 0.648877 8.17695 0.69086 8.08933 0.774828C8.00171 0.858796 7.95195 0.968298 7.94004 1.10334H8.89195C8.88004 0.968298 8.83027 0.858796 8.74265 0.774828C8.65503 0.69086 8.54572 0.648877 8.41472 0.648877ZM10.2134 1.86684L9.7872 1.29551L9.35846 1.86684H9.1543L9.68512 1.16567L9.17982 0.500852H9.38398L9.7872 1.03582L10.1904 0.500852H10.3895L9.88418 1.16567L10.4201 1.86684H10.2134ZM11.4282 1.78373C11.3941 1.8149 11.352 1.8387 11.3018 1.85515C11.2517 1.8716 11.1993 1.87982 11.1449 1.87982C11.019 1.87982 10.922 1.8452 10.854 1.77594C10.7859 1.70669 10.7519 1.60888 10.7519 1.48249V0.656667H10.512V0.500852H10.7519V0.202205H10.9331V0.500852H11.3414V0.656667H10.9331V1.4721C10.9331 1.55347 10.9531 1.61537 10.993 1.65778C11.033 1.7002 11.0904 1.72141 11.1653 1.72141C11.2027 1.72141 11.2389 1.71535 11.2738 1.70323C11.3086 1.69111 11.3388 1.6738 11.3644 1.65129L11.4282 1.78373Z" fill="#34336C"/>
</svg>
