<svg width="33" height="32" viewBox="0 0 33 32" fill="none" xmlns="http://www.w3.org/2000/svg">
<path d="M20.5 21.473C21.129 21.5429 21.7656 21.4793 22.3684 21.2864C22.9711 21.0935 23.5264 20.7756 23.998 20.3535C24.4695 19.9314 24.8467 19.4146 25.105 18.8369C25.3632 18.2591 25.4967 17.6334 25.4967 17.0005C25.4967 16.3676 25.3632 15.7419 25.105 15.1641C24.8467 14.5864 24.4695 14.0696 23.998 13.6475C23.5264 13.2254 22.9711 12.9075 22.3684 12.7146C21.7656 12.5217 21.129 12.4581 20.5 12.528V21.472V21.473ZM11 12.5C11 12.3674 10.9473 12.2402 10.8536 12.1464C10.7598 12.0527 10.6326 12 10.5 12C10.3674 12 10.2402 12.0527 10.1464 12.1464C10.0527 12.2402 10 12.3674 10 12.5V13.045C8.859 13.254 8 14.162 8 15.25C8 16.493 9.12 17.5 10.5 17.5C11.43 17.5 12 18.156 12 18.75C12 19.344 11.43 20 10.5 20C9.9 20 9.45 19.727 9.206 19.373C9.067 19.173 8.863 19 8.619 19C8.299 19 8.046 19.286 8.176 19.58C8.483 20.277 9.166 20.803 10 20.955V21.5C10 21.6326 10.0527 21.7598 10.1464 21.8536C10.2402 21.9473 10.3674 22 10.5 22C10.6326 22 10.7598 21.9473 10.8536 21.8536C10.9473 21.7598 11 21.6326 11 21.5V20.955C12.141 20.747 13 19.839 13 18.75C13 17.507 11.88 16.5 10.5 16.5C9.57 16.5 9 15.844 9 15.25C9 14.656 9.57 14 10.5 14C11.1 14 11.55 14.273 11.794 14.627C11.933 14.827 12.137 15 12.381 15C12.701 15 12.954 14.714 12.824 14.42C12.517 13.723 11.834 13.197 11 13.045V12.5Z" fill="#FBFBFB"/>
<path d="M2 10C2 9.20435 2.31607 8.44129 2.87868 7.87868C3.44129 7.31607 4.20435 7 5 7H28C28.7956 7 29.5587 7.31607 30.1213 7.87868C30.6839 8.44129 31 9.20435 31 10V28C31 28.663 30.7366 29.2989 30.2678 29.7678C29.7989 30.2366 29.163 30.5 28.5 30.5H20.5V25H28C28.2652 25 28.5196 24.8946 28.7071 24.7071C28.8946 24.5196 29 24.2652 29 24V10C29 9.73478 28.8946 9.48043 28.7071 9.29289C28.5196 9.10536 28.2652 9 28 9H19.5V10H27C27.2652 10 27.5196 10.1054 27.7071 10.2929C27.8946 10.4804 28 10.7348 28 11V23C28 23.2652 27.8946 23.5196 27.7071 23.7071C27.5196 23.8946 27.2652 24 27 24H19.5V30.5H15.5V24H6C5.73478 24 5.48043 23.8946 5.29289 23.7071C5.10536 23.5196 5 23.2652 5 23V11C5 10.7348 5.10536 10.4804 5.29289 10.2929C5.48043 10.1054 5.73478 10 6 10H15.5V9H5C4.73478 9 4.48043 9.10536 4.29289 9.29289C4.10536 9.48043 4 9.73478 4 10V24C4 24.2652 4.10536 24.5196 4.29289 24.7071C4.48043 24.8946 4.73478 25 5 25H14.5V30.5H4.5C3.83696 30.5 3.20107 30.2366 2.73223 29.7678C2.26339 29.2989 2 28.663 2 28V10ZM27 11H19.5V23H27V11ZM6 11V23H15.5V11H6Z" fill="#FBFBFB"/>
</svg>
