<svg width="13" height="12" viewBox="0 0 13 12" fill="none" xmlns="http://www.w3.org/2000/svg">
<path fill-rule="evenodd" clip-rule="evenodd" d="M7.046 7.78197C7.162 7.70047 7.316 7.54947 7.316 7.17497C7.316 6.90897 7.1355 6.74947 6.75 6.58447V7.91397C6.8625 7.87947 6.966 7.83847 7.046 7.78197Z" fill="white"/>
<path fill-rule="evenodd" clip-rule="evenodd" d="M6.25 0C2.9415 0 0.25 2.6915 0.25 6C0.25 9.3085 2.9415 12 6.25 12C9.5585 12 12.25 9.3085 12.25 6C12.25 2.6915 9.5585 0 6.25 0ZM8.316 7.1755C8.316 7.95 7.938 8.378 7.6205 8.601C7.372 8.7755 7.0725 8.8795 6.75 8.9395V10H5.75V8.9815C5.1745 8.938 4.5875 8.801 4.08 8.618L3.61 8.4485L3.9495 7.508L4.42 7.678C4.88 7.844 5.337 7.943 5.75 7.981V6.2265C4.9555 5.9415 4.074 5.4965 4.074 4.3655C4.074 3.8015 4.3355 3.336 4.811 3.055C5.082 2.895 5.408 2.8085 5.75 2.768V2H6.75V2.7755C7.3385 2.844 7.8775 3.0055 8.178 3.1715L8.6165 3.412L8.135 4.2885L7.697 4.0475C7.4805 3.9285 7.127 3.8315 6.75 3.779V5.511C7.514 5.781 8.316 6.172 8.316 7.1755Z" fill="white"/>
<path fill-rule="evenodd" clip-rule="evenodd" d="M5.32047 3.91652C5.14797 4.01852 5.07397 4.15252 5.07397 4.36552C5.07397 4.74402 5.28847 4.95052 5.74997 5.15102V3.77802C5.58597 3.80652 5.43497 3.84852 5.32047 3.91652Z" fill="white"/>
</svg>
